/* XPM */
static char *_9464f71dd284864f6c87b4c3325c6927WOgSvnVnmrO8XQy[] = {
/* columns rows colors chars-per-pixel */
"64 64 220 2 ",
"   c #050505",
".  c #0C0404",
"X  c #0B0A05",
"o  c #05050A",
"O  c #0B0509",
"+  c #040B0B",
"@  c #0C0C0C",
"#  c #040A06",
"$  c #140100",
"%  c #1B0000",
"&  c #1C0B03",
"*  c #130D0C",
"=  c #1A0D0D",
"-  c #150908",
";  c #06110C",
":  c #0C110D",
">  c #13130E",
",  c #1A130C",
"<  c #0D0D12",
"1  c #070614",
"2  c #130D12",
"3  c #190D13",
"4  c #110E19",
"5  c #1C0E1B",
"6  c #031111",
"7  c #0D1313",
"8  c #0F1815",
"9  c #0D1719",
"0  c #0C1A1B",
"q  c #141414",
"w  c #1A1414",
"e  c #141915",
"r  c #1A1915",
"t  c #151519",
"y  c #1B161A",
"u  c #151B1B",
"i  c #1B1B1C",
"p  c #240000",
"a  c #2B0000",
"s  c #250D0C",
"d  c #2A0C0B",
"f  c #210C06",
"g  c #350100",
"h  c #3A0101",
"j  c #370208",
"k  c #22130B",
"l  c #2B160E",
"z  c #240E10",
"x  c #221414",
"c  c #2C1412",
"v  c #221916",
"b  c #23151A",
"n  c #231B1D",
"m  c #2B1C1A",
"M  c #2B1916",
"N  c #331D1D",
"B  c #351616",
"V  c #142116",
"C  c #16211C",
"Z  c #1C211D",
"A  c #0F2018",
"S  c #22221E",
"D  c #2B231B",
"F  c #35211F",
"G  c #1D1D21",
"H  c #171920",
"J  c #231D21",
"K  c #251A23",
"L  c #162221",
"P  c #1D2322",
"I  c #1F2A29",
"U  c #232323",
"Y  c #292424",
"T  c #242926",
"R  c #2A2B25",
"E  c #242529",
"W  c #2A262A",
"Q  c #252A2A",
"!  c #2B2B2B",
"~  c #312D2C",
"^  c #362726",
"/  c #2D312D",
"(  c #27312F",
")  c #30322E",
"_  c #2C2D32",
"`  c #262E30",
"'  c #332E32",
"]  c #2D3332",
"[  c #333333",
"{  c #393533",
"}  c #353639",
"|  c #393639",
" . c #3B3539",
".. c #363A39",
"X. c #393939",
"o. c #3A3A3A",
"O. c #3D3D3D",
"+. c #3B3B3B",
"@. c #353A35",
"#. c #440101",
"$. c #4C0100",
"%. c #450209",
"&. c #550001",
"*. c #5C0000",
"=. c #5A1B19",
"-. c #5E110B",
";. c #640000",
":. c #6B0000",
">. c #6C0A09",
",. c #730000",
"<. c #7C0201",
"1. c #7D0C0D",
"2. c #7A090C",
"3. c #740B13",
"4. c #7D0F13",
"5. c #681417",
"6. c #7C1314",
"7. c #771319",
"8. c #6D0E12",
"9. c #5E251E",
"0. c #7B1A21",
"q. c #413A39",
"w. c #412C2A",
"e. c #702222",
"r. c #3F413E",
"t. c #3E3E41",
"y. c #443F42",
"u. c #3E4241",
"i. c #424242",
"p. c #434343",
"a. c #4A4A4A",
"s. c #484948",
"d. c #4E4E50",
"f. c #514F50",
"g. c #535354",
"h. c #840103",
"j. c #8C0304",
"k. c #850A04",
"l. c #8C0A05",
"z. c #8C070A",
"x. c #830B0B",
"c. c #8C0B0D",
"v. c #85050A",
"b. c #930303",
"n. c #9B0303",
"m. c #94050B",
"M. c #99020B",
"N. c #920B0C",
"B. c #9D0B0E",
"V. c #960A05",
"C. c #87100B",
"Z. c #92100E",
"A. c #840C12",
"S. c #8A0B13",
"D. c #8B0715",
"F. c #950812",
"G. c #821211",
"H. c #A50101",
"J. c #AB0001",
"K. c #AA040A",
"L. c #B30000",
"P. c #BC0000",
"I. c #B1080D",
"U. c #A00910",
"Y. c #C10202",
"T. c #C83A39",
"R. c #DB3738",
"E. c #DF2A2F",
"W. c #E9262B",
"Q. c #E42E2C",
"!. c #ED2C2D",
"~. c #E92924",
"^. c #FE2526",
"/. c #F42D26",
"(. c #FD252A",
"). c #F32D2B",
"_. c #FC2B2D",
"`. c #F72824",
"'. c #E6332D",
"]. c #E72D39",
"[. c #E82D34",
"{. c #FC2E35",
"}. c #E53333",
"|. c #E73539",
" X c #F63437",
".X c #FB302A",
"XX c #BF443F",
"oX c #CB433D",
"OX c #BC3F43",
"+X c #C63D49",
"@X c #D93C45",
"#X c #F33B43",
"$X c #9F5353",
"%X c #AC4548",
"&X c #B84448",
"*X c #B84952",
"=X c #C54346",
"-X c #C8424A",
";X c #FF867C",
":X c #FC7E81",
">X c #D99A9B",
",X c #CE9B98",
"<X c #FF8584",
"1X c #FF868A",
"2X c #F58D8E",
"3X c #FE8A8C",
"4X c #F98A87",
"5X c #F8918D",
"6X c #EB8E91",
"7X c #F68D91",
"8X c #FF8D91",
"9X c #EC9696",
"0X c #E39D9C",
"qX c #E9979A",
"wX c #F49293",
"eX c #FB9393",
"rX c #F8969A",
"tX c #DBA09A",
"yX c #D9A2A2",
"uX c #E6A2A3",
/* pixels */
"q ! p.! i U [ q / O i ! q q O : e > r * ! t 1 ` E @ 7 O U U q ) S : ! ! Z Z r Z Q R ..e i U K w J ! @ i [ U U i ! ' u y i [ U   ",
"i ! [ i i [ [ ! U U ! o.U U r   r : O t ' G E t.u.` ! / ! ~ q.r.! S ~ [ [ r.T / Q T r.] ~ W n J ! W ! O.! U ! U o.[ U U e [ i i ",
"q i q U ) [ U [ [ [ i U i O @ q @ > U ! | } ` y [ _ Z [ o.! o.G [ o.[ ~ U ! U r.o.! X.[ ! ~ !  .| [ o.! i ! [ ! [ O.X.O.U i i ~ ",
"i ! U o.p.X.[ a.O.! U U ! i : U q y o.T W t._ _ [ { U +.f.+.} t [ p.Y [ } ! ! ~ Q / O.[ U ! W [ / U [ i U [ P U [ ! i S { Q ! U ",
"q o.! [ o.o.p.[ o.| O.p.X.! i i i * _ ] @./ U a.p.y.} y.y.| t.] [ W W } a.p.y. .W [ | [ / u.[ [ ! [ p.! U O.! [ | [ p.! +.[ _ ! ",
"U o.U U ! [ a.[ [ u.! [ i T i O @ q ! [ u.! / q.~ ' W ~ ' } ..p.+.n } W '  .}  .| +.! ! ..s.....! [ a.! U p.a.[ o.p.r.! [ X.[ i ",
"i [ [ [ [ [ O.p.! U e U U ] i O 2 G ! u ! R p.p.q.y. .' _ _ u P g.y.d.} } O.W W W } R U / Q e ! ] _ O.+.[ q.p.O.o.p.! U ! [ O.! ",
"! o.U ! ! a.[ o.U U o.n U ! q i @ @ / Z R C D ~ K K Y ! u Q ! G U _ ! G P E E G U ! q y X.o.T / r ! U i i i U U ! [ p.[ [ ! U i ",
"U [ [ ! [ [ i U i [ o.q [ [ q @ b 3 +.P s.@.+.) n i [ X.Z i ~ [ i U ....C ] T ] ] W ` 2 U [ u r ! ! q U ! [ i ! S U s.[ +.! ' q ",
"U O.p.t.a.Q U [ ) U U ! [ ! q i 3 q ..P ) Z Y S ! u P ! ! r k ^ n Z Q T ; ( Q I i.U ' y ! r.! : ! p.S o.g.[ U U U ! a.U [ ! [ i ",
"i o.~ [ o.U U ! i q U i U [ y * O 3 r./ / V r U ! ! T C v M & % w.R Z P I ( ] L Q y ' i 2 U [ r.U [ i i U ! U ! [ _ s.) X.] [ ! ",
"q U i ! ! ) [ y ! ! W i ! O.u q * U o.T Z S R R ! P C / w.$ h ,X$ ~ > S Q 8 L u Q E W W S S r o.! U ! U < S i U i ! ! ! U ! i O ",
"! U U ! U [ O.+.[ ! i i ! ! @ i q < i i / ! ~ ! [ y P Y c p $.$X& N ^ ~ i r T ] ` i o i +. .q i U i U [ S ! ! } ! n i y.+.! i R ",
"q U O.! [ ! U ! U ! ! ! U i i i G t G Q ) S y 2 H ! P ^ % $.*.%XyX% F v , ) / ] G W [ U Y y Z [ [ U @   i p.U U U ] U Q ! U E i ",
"r ! O.U ! U q q U U U [ ! O O i @ y Z C e S n y q t u ^ & #.;.*X>X% B N r r r ! < q J y W G R S q U ! O i ' i Y ] p.! ! ! U ~ U ",
"! ! ! [ U i q U e i   q [ q : i i t @ S > : O t 1 U ^ $ 5.*.,.&X9XyX% s , r Z L y L t y U i q 7 q P i Z ] q i @ q ! X U E ! [ ! ",
"q < 7 i r i q P [ q   i q   i q < y w v r , 8 ; H b B p 7.;.:.=XeXqXp k U @ 0 6 t ` u t y G 6 u i @ q U R < @ q q r @ i q i i q ",
"q q q i q q @ y ! @ U i q U q q H K , - , : 7 C H - a e.2.:.,.=X1XwXtX$ - u 7 + 0 H < q q q @ C i i U i i @ q @ i U U : #   q t ",
"@ q q O   > q q q 7 i O   @ q 7 o 6 < q Z q 7 t q z h 3.6.:.:.-XZ.3X9Xp c w 2 < < + O w b y < @ q : O   @ @ i @ q i U @ @ 7 q q ",
"@ i i q q @ q q q q q q O : q < 9 9 q q > * q q 2 p A.D.G.*.,.T.j.8X7XqX% x m O H u w * - @ X   t q   e q q i @ @ @ O O i Y q q ",
"q i q i q   q i @ O e q q q @ 8 6 6 t y @ q n = s a D.F.<.:.:.=Xm.j.8XrXa d m y 9 u q @ e > > q q q   e @ q t i U q q @ q i @ @ ",
"q q q q @ q i i > i i i U U Z u Q L i t # E ' F p 8.F.M.v.;.*.3Xb.B.1X7XuX% w i u P ! i R q > r U U 2 i @ q * 7 q @ y @ q q i y ",
"O i U U U +._ S U U t U +.[ U O ] T y y q ! w % g 1.m.b.C.:.;.8Xj.b.3X2XqX% D e 7 i ] u C : T ) S U U U [ [ U U [ ! [ U T U ! > ",
"U U i ! ! p.[ [ o.! [ U ! ! q Y { ! 2 t G { = p 7.c.n.V.k.;.*.3Xb.<X1X1XrX>X$ , q : u + e r R r q q r q U i q U ! ! ! U U ! ] O ",
"! [ @ U ! [ ' q q q i O O U @ i w n q y q 3 s a x.n.n.n.k.*.;.8Xl.<Xb.D.8XqX% - x b Q < i q = w i i [ q U i Z U i ! ! ! q q q # ",
"T U i ! U q i q T i Z q q ! q Y b w o t U v p 5.l.K.n.R.k.;.;.eXj.1XB.h.rX6X,X% N x J y u y W n n q q   q q i U i ! ! R i y W i ",
"! T ! U U U [ @ @ * i q i i q > n i G L P & g 1.b.J.J.R.Z.;.;.&Xc.<XN.<X3XwX0Xp B M n y G q t O i i q @ i U G i q ! q U Y i @ i ",
"@ i y [ Q ~ ] @ 7 i i q P y i r q Y  .q r $ >.V.H.J.L.}.j.:.;.&Xc.<Xz.1X8X2X9X0X% ^ w q ` i o J i i i i q O i [ i U i [ t U u i ",
"O [ r W t U [ ! i i U U [ q q e Z q * x m g v.|.Q.L.P.[.m.:.;.3X3X3XZ.<X<XeX3XqXp l , S Q C O [ U 7 q U U   e ! i [ +.! U ! r < ",
"y T i ! o.U ! U q i i i i   q i 8 e q z % 5.m.Q. X_.P.#Xj.*.:.2X3Xh.<X1X<X<X3XwX0X% k i u Z e @ ! q * @ u i U Y i * U ! U [ T q ",
"q ! e q Z +.! @   i ! U i @ q i q r Z s g A.n.Y.`.^.{.].j.;.&.5X3XN.<X1Xn.b.m.x.9Xa l S r q i q * q U q @ y i q ! U q Z i U i U ",
"q U ! q i o.! n @ i U q q q i i > Z Z $ 8.M.J.L.^._.!.R.v.;.&.eX3Xz.N.j.n.H.V.3X2X0Xf , v w r i U i P U i U q q q [ [ U U O U i ",
"q U U q U U i i Z i q U i r q i i U t $ G.H.~./.).}.n.:.&.&.$.wX<X3XG.Z.Z.V.3X5X8XqX$ J n * 7 i i i u y i q q i e ! X.i Z @ ! q ",
"! ! U U U i U G i U i q i [ ! n w y U % z.J.Y./.!.L.b.:.:.&.;.4XeX3X#X3XeX4X3X1X8XqX$ t m * t u i U Z i i q q U q ! [ i ' q q @ ",
"e q @ ! ! U [ ! n U U i G i q q . 3 ..% +X{.~.P.P.!.#Xn.M.F.D.3Xx.:.:.k.l.,.N.,.A.5.$ P 2 b q y r i q q i q @ i @ U U t U y q i ",
": O O U i q q i * P i O : q i U . = H p +X].L.L.{.W.].L.K.M.v.eXG.:.:.<.l.,.z.1.;.=.. P i . U t q e O   i i @ q   * U i q q i e ",
"@ q 7 y O # @ R i i q   q q q w = Y 7 s h T.H.Q.J. XH.H.K.U.*.5X1.;.;.1.V.V.:.7.#.a x q q X t i q q O   q i @ @ O 7 i e O q q 7 ",
"i y q : q q @ U 7 O O q U q O : * n # X p 0.b.[.L.Q.J.J.H.j.;.wX6.;.$.:.b.b.:.5.9.% M O 2 q 7 + : q q   @ i @ q : i > O @ q @ q ",
"q @ @ @ u q O q @ u e @ @ i q @ r > C e y p D.H.'.J.J.H.L.R.:.2X6.&.&.*.U.M.&.#.% $ = $ y : + t 7 q y : q i q i @ q @ 7 q q > @ ",
"@ < q r r @ q q i U y e q i q   e : ; ; + $ G.H.|.L.J.J.!.R.:.rX4.;.$.*.m.N.&.g $ k = y q @ u 7 q @ q O : q @ i q q O q     i @ ",
"O @ q i i q q q i O e q @ @   X : S   o u z g c.R.J.L.P.).'.:.7X1.;.&.$.A.D.5.p & r i q P > t @ q q q i U q q < q q r U o q i * ",
":   i q   @ q q u O q : q @ > q r r <   4 b p 7.@XJ.P.~..X'.:.wXG.*.#.&.4.;.%.$ & X @ @   O i 7 i q q q q   @ q @ q y i q e q @ ",
"! P i q   q n P [ U i U [ ! U q Y w i 3 5 M % =.h.I.J.)./.'.;.wX1.;.$.$.3.&.j $ , : : y   @ 7 2 q q q @ q   @ i @ q < @ q i   O ",
"* q i o.U U [ i U i q i U i U y i , y y 3 . . p 6.b. X`./.'.:.5XG.&.$.$.7.&.% y X : 7 G i y @ u y i U U U i q r +.~ T i U Q q q ",
"q ! q U i q i ! [ ! q y q q i e R q 4 G G i x % 5.m.!._.^.!.,.3XG.*.#.$.5.%.$ T > : < y i y < G G Z U U U U q U ) i i 2 U U i u ",
"q @ i U S U U ! i n # q q i S Z P 1 E G 7 q v d g c.!.(.{.{.<.=Xk.;.&.#.5.a w Q R > G u * * q G U U U i q U ! o.| U ! U U i q @ ",
"q q i i ! U q y @ i q i t r y r R + 4 4 r R m & p &X|.(.(.W.h.XXG.*.&.#.=.% Y U D : U H @ 2 q E i q E i i i i i S i ! P U @ > @ ",
"q q ! U q q i P e i q t i i i u e u 4 i i i U x d h |.).`. X<.XXl.:.&.#.p v U O n i ( Z q w 2 [ U O U q i q i q i E [ U ! q i W ",
"O i ! i ! U q i i q U q i Y   u u P J 5 -   S r , p +X].).!.j.R.V.,.*.$.$ y I 6 y U r O w q 7 T / q U i i i i U ! ! ] i i U R G ",
"q e U q J i i : i i i q q T i   : Q K n Y > : r u N %.@X|.!.h.T.b.Z.7.g M U H I E X.U i i O G G u O @ q U ! e J P ! ! U U U q q ",
"@ i U i U U U U ! ! ! q i y @ e i J 3 t Z Z > v ; m a %X[.{.j.oXn.C.-.p D e t E t q @ @ r y y U U q i q i U q J q i i [ ! ! i i ",
"q [ U ! ! ! e U U @ q 2 U U   @ U J t H C Z : X q r & g @X[.<.T.N.1.a l , : 2 y y q : : e : @ U [ Z ! i q   i q i [ q n Y U @ q ",
"O ! < i U ! q i U i i i U Z U   , r 2 < # 8 X v b = $ p -X@Xh.+XS.8.% R e L n K 2 Y U U :   u W [ i U i U   U i q U i i i U ! q ",
"q U U ! ! ) G i : q q @ O e Y U @ , y W u U U D w.m = B #.+X,.+X4.h f V : @ b b w U Y S   : P @ i q   y ! @ q ! U ! E U [ U i i ",
"q Z U U i r     U @ q < u n @ i Z : t _ 7 t T V n v , c a *X,.+X8.p m V C # n Y q > r > O T P 9 e i i i ! i i @.[ i ! [ R q i i ",
"q U q q i ' q U [ n q Y i i Z e q q y _ H + : > q i q n w.a 7.%Xa B r : T :   r i { w * w @ @ u O   U # U i i U [ q i i q 2 i u ",
"q ! ! i i o.i [ U P y q i q @ X i w n w u + i n e 7 @ @ S , p p N K Y t i u u U q [ { y x y + ( 7 ] ! U i q : O i ! [ q U U ! q ",
"q @ ! W i [ U q q U q @ q q e q > w y q G 9 y i V ; t H L V > X > y q @ Q H 7 Z U i w , * y u / q r i i [ U i i i U U i i i U U ",
"q i i q q Z U [ U ! i i ! ! +.P u Q R U _ y y q C V u I Q 2 X R : u U y u + u q @ * q q - i u P q q q q   q O 7 q R y U i [ J i ",
"O ! U Z ! O q [ @ @ U [ [ U O.U   9 e e J G i u C P E H 4 J q > +   q E Q u ! n J J u   * q q i R U i [ i U > i i @ q u ! q q e ",
": e U ! [ q ! o.G i U q q q U U 1 1 q r m n ! H e w b * K y.W q Q Q i 8 Q ! [ J E P E 7 i @ y U U U ! U q @ i ! i ! U U G q @   ",
"U O ! U i 2 r E [ [ U i q U @ H H G R D = 3 E H i i b - H K < G e ! ] T U Y ~ n y 9 I < @ . Y R t U i i i U U U q q i ! ~ q 2 : ",
"q q [ ! [ U i U i ! n Z q i y ' H G D D , 2 P H L V [ q 2 3 J ! J * 8 P 3 = 3 y 0 9 H 2 w 2 w   i U q U i i U @.i ! i U i i q   ",
"q q q @ q @ Z @ : O q i 7   y P + <   X - w y 0 C # V # K 3 < i w q 7 @ - b 3 n 0 0 < < n w @ > q i q q i o q 2   q @ i q q q : "
};
