/* XPM */
static char *star1673360142[] = {
/* columns rows colors chars-per-pixel */
"60 60 32 1 ",
"  c None",
". c #FFCC00",
"X c #FFCE0C",
"o c #FFCF0F",
"O c #FFD018",
"+ c #FFD21F",
"@ c #FFD325",
"# c #FFD52F",
"$ c #FFD83F",
"% c #FFDB4F",
"& c #FFDD56",
"* c #FFDF5F",
"= c #FFDF63",
"- c #FFE16F",
"; c #FFE26F",
": c #FFE57F",
"> c #FFE88F",
", c #FFE994",
"< c #FFEB9F",
"1 c #FFEBA0",
"2 c #FFEEAD",
"3 c #FFEFAF",
"4 c #FFF0B9",
"5 c #FFF2BF",
"6 c #FFF3C6",
"7 c #FFF5CF",
"8 c #FFF8DF",
"9 c #FFFBEF",
"0 c gray99",
"q c #FDFDFD",
"w c #FEFEFE",
"e c white",
/* pixels */
"                            wwww                            ",
"                          wwwwwwwww                         ",
"                        wwwwwwwwwwww                        ",
"                        wwwwwwwwwwwww                       ",
"                       wwww9;%$&7wwww                       ",
"                       www9#....o7wwww                      ",
"                      wwww:......$wwww                      ",
"                      www9o.......6wwww                     ",
"                     wwww-........+wwww                     ",
"                    wwww7..........>wwww                    ",
"                    wwww$..........o9wwww                   ",
"                   wwww3............;wwww                   ",
"                   wqq9+.............7wwww                  ",
"                  wwq0:..............%wwww                  ",
"                 wwww9o...............2wwww                 ",
"             wwwwwwww*................@wwwwwwww             ",
"         wwwwwwwwwww5..................:wwwwwwwwwww         ",
"     wwwwwwwwwwwwwww$..................o9wwwwwwwwwwwwww     ",
"   wwwwwwwwwwwww5:%......................#;39wwwwwwwwwwww   ",
"  wwwwwwwwwq4>$..............................#;5wwwwwwwwww  ",
" wwwwwwq6:$.....................X&,,,,&X.........%:4wwwwwww ",
" wwww2%........................O46666664O............$1wwww ",
"wwww9.........................o<666666661X.............4wwww",
"wwww*.........................=6666666666-.............%wwww",
"wwww..........................266666666662..............wwww",
"wwww..........................666666666666..............wwww",
"wwww&.........................666666666666.............%wwww",
"wwww7o........................266666666662............o7wwww",
" wwww3........................=6666666666=............2wwww ",
"  wwww:.......................o4666666664o...........:wwwww ",
"  wwwww*.......................@26666662@...........-wwwww  ",
"   wwww9#.......................X;6666;o...........@9wwww   ",
"    wwww9X........................................o8wwww    ",
"     wwww4........................................5wwww     ",
"      wwww>......................................>wwwww     ",
"      wwwww*....................................-wwwww      ",
"       wwwww#..................................#wwwww       ",
"        wwww9o................................o9wwww        ",
"         wwww:................................:wwww         ",
"         wwww;................................;wwww         ",
"          www$................................%0www         ",
"         wwww%................................$qwww         ",
"         wwww$................................$qwww         ",
"         wwwwo................................oqwww         ",
"         wwww..................................wwww         ",
"         wwww..................................wwww         ",
"         www9..................................9www         ",
"         wwq4..................................4www         ",
"         www6..................................5www         ",
"         www5..................................5www         ",
"         www:................@+................:www         ",
"         www:..............*5ww5*..............:www         ",
"         www:...........@:8wwwwww9>@...........:www         ",
"         www<.........$<wwwwwwwwwwww3%.........,www         ",
"         www9%.....o&9wwwwwwwwwwwwwwww8:@.....%9www         ",
"         wwwww,%$$<9wwwwwwww    wwwwwwwww2%$$:wwwww         ",
"          wwwwwwwwwwwwwwww        wwwwwwwwwwwwwwww          ",
"           wwwwwwwwwwwww            wwwwwwwwwwwww           ",
"            wwwwwwwww                  wwwwwwwww            ",
"              wwwww                      wwwwww             "
};
