/* XPM */
static char *key1673360155[] = {
/* columns rows colors chars-per-pixel */
"73 68 96 2 ",
"   c None",
".  c #FF9C00",
"X  c #FF9D00",
"o  c #FF9E00",
"O  c #FFA000",
"+  c #FFA200",
"@  c #FFA300",
"#  c #FFA400",
"$  c #FFA600",
"%  c #FFA800",
"&  c #FFA900",
"*  c #FFAA00",
"=  c #FFAB00",
"-  c #FFAC00",
";  c #FFAD00",
":  c #FFAE00",
">  c #FFAF00",
",  c #FFA20F",
"<  c #FFA50F",
"1  c #FFA90F",
"2  c #FFAE0F",
"3  c #FFAF0F",
"4  c #FFB000",
"5  c #FFB100",
"6  c #FFB200",
"7  c #FFB300",
"8  c #FFB400",
"9  c #FFB500",
"0  c #FFB600",
"q  c #FFB700",
"w  c #FFB800",
"e  c #FFB900",
"r  c #FFBA00",
"t  c #FFBB00",
"y  c #FFBD00",
"u  c #FFBF00",
"i  c #FFB30F",
"p  c #FFB60F",
"a  c #FFBA0F",
"s  c #FFBE0F",
"d  c #FFBC2F",
"f  c #FFBF2F",
"g  c #FFC100",
"h  c #FFC200",
"j  c #FFC300",
"k  c #FFC400",
"l  c #FFC500",
"z  c #FFC700",
"x  c #FFC800",
"c  c #FFCC00",
"v  c #FFC30F",
"b  c #FFCA0F",
"n  c #FFCF0F",
"m  c #FFC71F",
"M  c #FFCA1F",
"N  c #FFCB1F",
"B  c #FFCE1F",
"V  c #FFD21F",
"C  c #FFC22F",
"Z  c #FFC62F",
"A  c #FFC92F",
"S  c #FFCB2F",
"D  c #FFD52F",
"F  c #FFD83F",
"G  c #FFD44F",
"H  c #FFD54F",
"J  c #FFDB4F",
"K  c #FFD75F",
"L  c #FFDF5F",
"P  c #FFE26F",
"I  c #FFE57F",
"U  c #FFE88F",
"Y  c #FFE89F",
"T  c #FFEA9F",
"R  c #FFEB9F",
"E  c #FFEEAF",
"W  c #FFEFAF",
"Q  c #FFECBF",
"!  c #FFF2BF",
"~  c #FFECCF",
"^  c #FFEDCF",
"/  c #FFEECF",
"(  c #FFEFCF",
")  c #FFF0CF",
"_  c #FFF1CF",
"`  c #FFF2CF",
"'  c #FFF4CF",
"]  c #FFF5CF",
"[  c #FFF7DF",
"{  c #FFF8DF",
"}  c #FFFAEF",
"|  c #FFFBEF",
" . c gray99",
".. c #FDFDFD",
"X. c #FEFEFE",
"o. c white",
/* pixels */
"                                                                                                   . . . . . .                                    ",
"                                                                                               . . . . . . . . . .                                ",
"                                                                                           . . . . . . . . . . . . .                              ",
"                                                                                           . . . . . . . . . . . . . .                            ",
"                                                                                         . ..... .U F F F R |  . . . . .                          ",
"                                                                                       . . .....V c c c c c n R  . . . . .                        ",
"                                                                                     . . . . .P c c c c c c c c W  . . . .                        ",
"                                                                                   . . . . .L c c c c c c c c c n ]  . . . .                      ",
"                                                                                 . . . . .P c c c c c c c c c c c n |  . . .                      ",
"                                                                               . . . . .L c c c c c c c c c c c c c U  . . . .                    ",
"                                                                             . . . . .P c c c c c c c c c c c c c c D  . . . .                    ",
"                                                                           . . . . .L c c c c c c c c c c c c c c c c  . . . .                    ",
"                                                                         . . . . .P c c c c c c c c c c c c c c c c D  . . . .                    ",
"                                                                       . . . . .I c c c c c c c c c c c c c c c c c E  . . . .                    ",
"                                                                     . . . . .R c c c c c c c c c c c c c c c c c j (  . . . .                    ",
"                                                                   . . . . .E c c c c c c c c c c c c c c c c c j o , (  . . . .                  ",
"                                           . . . . . . . . .     . .......E c c c c c c c c c c c c c c c c c j . . o , ^  . . . .                ",
"                                   . . . . . . . . . . . . . . . . .....R c c c c c c c c c c c c c c c c c j o . o @ @ 1 ^  . . . .              ",
"                               . . . . . . . . . . . . . . . . . . . .E c c c c c c c c c c c c c c c c x j . . o o @ # # 2 `  . . . .            ",
"                           . . . . . . . . . . . . . . . . . . . . .R c c c c c c c c c c c c c c c c c j o . o o @ # # = = f |  . . . .          ",
"                       . . . . ..... .] E P F F F F F F F P U ! | E c c c c c c c c c c c c c c c c x j o . o @ @ @ # = = ; 4 C |  . . . .        ",
"                     . . . . . .| U D c c c c c c c c c c c c c n c c c c c c c c c c c c c c c c c j o . o o @ @ # = = ; ; 4 4 C |  . . . .      ",
"                   . . . . .| P c c c c c c c c c c c c c c c c c c c c c c c c c c c c c c c c c x o . o @ @ @ # = ; ; 4 4 8 8 w Z |  . . . .    ",
"                 . . . . .] V c c c c c c c c c c c c c c c c c c c c c c c c c c c c c c c c c x @ . o o @ @ # # = ; 4 4 8 8 w w y S |  . . . .  ",
"               . . . . .L c c c c c c c c c c c c c c c c c c c c c c c c c c c c c c c c c c x @ . o o # # # # = ; ; 4 8 8 w w w y j G  . . . .  ",
"             . . . ...P c c c c c c c c c c c c c c c c c c c c c c c c c c c c c c c c c c k @ . o @ @ # # = = ; ; 4 8 8 w w y y y j j }  . . .  ",
"           . . . . .I c c c c c c c c c c c c c c c c c c c c c c c c c c c c c c c c c c x @ . o o @ @ # = = ; ; 4 8 8 w w y y y j j k ] .. . .  ",
"         . . . . .R c c c c c c c c c c c c c c c c c c c c c c c c c c c c c c c c c c x @ o o o @ @ = # = ; 4 4 8 8 w w w y j j j k D .... . .  ",
"         . ... .] c c c c c c c c c c c c c c c c c c c c c c c c c c c c c c c c c c x @ . o @ @ # # = = ; ; 4 8 8 8 w y y y j k k b '  . . . .  ",
"       . . ...| n c c c c c c c c c c c c c c c c c c c c c c c c c c c c c c c c c x @ . o o @ @ # = = ; ; 4 4 8 w w y y Z j j x b '  . . . .    ",
"       . . . .J c c c c c c c c c c c c c c c c c c c c c c c c c c c c c c c c c c # . o o # # # # = = ; 4 8 8 w w w y S | Y k b '  . . . . .    ",
"     . . . .W c c c c c c c c c c c c c c c c c c c c c c c c c c c c c c c c c c c j o @ @ # # = = = ; 4 8 8 w w y j S |  . . . . . . . . .      ",
"     . . . .V c c c c c c c c c c c c c c V I ] ! ! ! ] I D c c c c c c c c c c c c c k # # # = = ; ; 4 4 8 w w y y K  . . . . . . . . . .        ",
"   . . . .R c c c c c c c c c c c c c c I .... . ..... ... .W n c c c c c c c c c c c c j = # = ; ; 4 4 8 w w y y K  . . . . . . . . . .          ",
"   . . . .J c c c c c c c c c c c c n ]  . . . . . . . ... . .| D c c c c c c c c c c c x N i = 4 4 4 8 w w y y v |  . . . . . . . .              ",
"   . . .| c c c c c c c c c c c c c E  . . . . . . . . . . . . .] n c c c c c c c c c c c c Q i 4 4 8 w w w y y j G  . . . .                      ",
"   . . .R c c c c c c c c c c c c U .... . . .           . . . ...E c c c c c c c c c c c c W ` p 8 w w w y y j k k E  . . .                      ",
" . . . .P c c c c c c c c c c c V  ..... . .               . . ... .F c c c c c c c c c c c P .._ a w w y j j k k b |  . . .                      ",
" . . . .F c c c c c c c c c c c E  . . . .                   . .....W c c c c c c c c c c c F .. .' s y y j j k x ]  . . . .                      ",
" . . . .n c c c c c c c c c c c |  . . .                       . . .| c c c c c c c c c c c D  . . .` v j j k k E  . . . . .                      ",
" . . . .c c c c c c c c c c c D .... . .                       . . . .D c c c c c c c c c c c  . . ...} S x b W .... . . .                        ",
" . . . .c c c c c c c c c c c F  . . . .                       . . ...J c c c c c c c c c c c  . . ... ... . . ..... . .                          ",
" . . . .c c c c c c c c c c c J  . . . .                       . . ...F c c c c c c c c c c c  . . . . ... . . . . . .                            ",
" . . . .c c c c c c c c c c c D  . . . .                       . . . .D c c c c c c c c c c c  . . . . . . . . . . .                              ",
" . . . .D c c c c c c c c c c c |  . . .                       . . . .c c c c c c c c c c c n .. . . . . . . . .                                  ",
" . . . .F c c c c c c c c c c c W  . . . .                   . . . .W c c c c c c c c c c c F .. . . .                                            ",
" . . . .P c c c c c c c c c c c D  . . . . .               . . . ...J c c c c c c c c c c c P .. . . .                                            ",
"   . . .R c c c c c c c c c c c c U  . . . . .           . . . . .] c c c c c c c c c c c c E .. . . .                                            ",
"   . . .| c c c c c c c c c c c c n ]  . . . . . . . . . . . . .| V c c c c c c c c c c c c }  . . .                                              ",
"   . . ...D c c c c c c c c c c c c n W  . . . . . . . . . . .] D c c c c c c c c c c c c D .. . . .                                              ",
"   . . . .E c c c c c c c c c c c c c c U .... . . . . .....W n c c c c c c c c c c c c c U  . . . .                                              ",
"     . . .| V c c c c c c c c c c c c c c J W  . . . . .W J c c c c c c c c c c c c c c n |  . . .                                                ",
"     . . . .E c c c c c c c c c c c c c c c c c c c c c c c c c c c c c c c c c c c c c U .... . .                                                ",
"       . . . .D c c c c c c c c c c c c c c c c c c c c c c c c c c c c c c c c c c c n |  . . . .                                                ",
"       . . . .] c c c c c c c c c c c c c c c c c c c c c c c c c c c c c c c c c c c !  . . . .                                                  ",
"         . . . .R c c c c c c c c c c c c c c c c c c c c c c c c c c c c c c c c c P  . . . .                                                    ",
"         . . . . .P c c c c c c c c c c c c c c c c c c c c c c c c c c c c c c c J |  . . . .                                                    ",
"           . . .....L c c c c c c c c c c c c c c c c c c c c c c c c c c c c c D | .... . .                                                      ",
"             . ... . .E c c c c c c c c c c c c c c c c c c c c c c c c c c c L  . . . . .                                                        ",
"             . ... . . .R c c c c c c c c c c c c c c c c c c c c c c c c c P  . . . . . .                                                        ",
"               . . . . . .] D c c c c c c c c c c c c c c c c c c c c c n E .... . . . .                                                          ",
"                   . . . . .| L c c c c c c c c c c c c c c c c c c c L {  ..... . .                                                              ",
"                     . . . . . .] P c c c c c c c c c c c c c c c L ] .. . . . . .                                                                ",
"                       . . . . . . .| R L V c c c c c c c V L E |  . . . . . . .                                                                  ",
"                         . . . . . . . . . . . . . . . . . . . . . . . . . . .                                                                    ",
"                             . . . . . . . . . . . . . . . . . . . . . . .                                                                        ",
"                                 . . . . . . . . . . . . . . . . . . .                                                                            ",
"                                         . . . . . . . . . . .                                                                                    "
};
