/* XPM */
static char *f0d395fbc9714cb680b9a665240e50d7MmAT19AS6lo3rd1Q[] = {
/* columns rows colors chars-per-pixel */
"64 64 216 2 ",
"   c #050504",
".  c #0B0304",
"X  c #050A05",
"o  c #0B0B05",
"O  c #030609",
"+  c #0A050A",
"@  c #050B0B",
"#  c #0C0C0C",
"$  c #140101",
"%  c #1C0000",
"&  c #120D0C",
"*  c #180B08",
"=  c #05120B",
"-  c #0C120E",
";  c #0D1007",
":  c #13120D",
">  c #1B110C",
",  c #121D0D",
"<  c #0C0E12",
"1  c #070C10",
"2  c #130E11",
"3  c #1B0E13",
"4  c #0D1213",
"5  c #0E1913",
"6  c #0E1A1A",
"7  c #0F161A",
"8  c #141414",
"9  c #1A1415",
"0  c #151A16",
"q  c #1B1A16",
"w  c #141419",
"e  c #1A151A",
"r  c #151B1A",
"t  c #1B1B1B",
"y  c #230000",
"u  c #2B0000",
"i  c #250905",
"p  c #220D0B",
"a  c #280B07",
"s  c #330000",
"d  c #3C0102",
"f  c #380809",
"g  c #27130C",
"h  c #230F13",
"j  c #241314",
"k  c #2B1512",
"l  c #231C1C",
"z  c #2C1A1B",
"x  c #251817",
"c  c #311E1C",
"v  c #331617",
"b  c #16211C",
"n  c #1D211D",
"m  c #22211D",
"M  c #2A231A",
"N  c #35221D",
"B  c #1C1621",
"V  c #161C23",
"C  c #1C1C21",
"Z  c #171520",
"A  c #221E22",
"S  c #291F22",
"D  c #1D2222",
"F  c #1E2827",
"G  c #232323",
"H  c #2A2424",
"J  c #252A25",
"K  c #292926",
"L  c #252629",
"P  c #2A262A",
"I  c #262B2A",
"U  c #2B2B2B",
"Y  c #322525",
"T  c #322925",
"R  c #322D2D",
"E  c #382E2C",
"W  c #372725",
"Q  c #2D312E",
"!  c #31302E",
"~  c #2D2D31",
"^  c #322D31",
"/  c #2D3232",
"(  c #373737",
")  c #353535",
"_  c #323333",
"`  c #3A3333",
"'  c #383836",
"]  c #343239",
"[  c #3B3638",
"{  c #393939",
"}  c #3A3A3A",
"|  c #3D3D3D",
" . c #3B3B3B",
".. c #343A39",
"X. c #440000",
"o. c #4B0000",
"O. c #4D040D",
"+. c #530000",
"@. c #5B0000",
"#. c #5C0108",
"$. c #591B1C",
"%. c #630000",
"&. c #6B0000",
"*. c #720000",
"=. c #7C0B0C",
"-. c #790806",
";. c #691308",
":. c #7B110B",
">. c #76140D",
",. c #790D13",
"<. c #760C16",
"1. c #6C1315",
"2. c #681918",
"3. c #761312",
"4. c #6C211C",
"5. c #6A1C22",
"6. c #5D2321",
"7. c #413B3B",
"8. c #3C403E",
"9. c #463E42",
"0. c #3F4442",
"q. c #414142",
"w. c #454545",
"e. c #424343",
"r. c #4A4A4A",
"t. c #4A4847",
"y. c #515453",
"u. c #564D4E",
"i. c #8C0302",
"p. c #8B0A04",
"a. c #85040A",
"s. c #8C040B",
"d. c #820D0C",
"f. c #8C0A0E",
"g. c #830705",
"h. c #930203",
"j. c #9B0202",
"k. c #94040A",
"l. c #9C040A",
"z. c #930A0D",
"x. c #980908",
"c. c #841209",
"v. c #820D12",
"b. c #8C0A12",
"n. c #880613",
"m. c #940B13",
"M. c #970916",
"N. c #871217",
"B. c #A30102",
"V. c #AB0101",
"C. c #A30905",
"Z. c #A3020A",
"A. c #AA0109",
"S. c #A10A0B",
"D. c #A90A0E",
"F. c #B20000",
"G. c #B80001",
"H. c #A20510",
"J. c #811320",
"K. c #C10001",
"L. c #ED2B1F",
"P. c #F4281F",
"I. c #CC3A3E",
"U. c #DB3736",
"Y. c #EC2C29",
"T. c #E92829",
"R. c #FD2A24",
"E. c #F42C2D",
"W. c #F82824",
"Q. c #E3332C",
"!. c #EA322F",
"~. c #F43029",
"^. c #FC352E",
"/. c #ED2A33",
"(. c #E52B31",
"). c #F42B35",
"_. c #FC2B34",
"`. c #E33533",
"'. c #ED3333",
"]. c #E53739",
"[. c #EA3935",
"{. c #F53234",
"}. c #F53836",
"|. c #BA433B",
" X c #DF403A",
".X c #C73743",
"XX c #EA3A45",
"oX c #9C5050",
"OX c #B84448",
"+X c #CC4043",
"@X c #D24148",
"#X c #FF7F88",
"$X c #DD9D9A",
"%X c #D7989A",
"&X c #FF8B87",
"*X c #FF868B",
"=X c #F58C8D",
"-X c #FD8B8C",
";X c #FA8687",
":X c #FE908C",
">X c #EA8E92",
",X c #F48C92",
"<X c #FD8D92",
"1X c #EC9494",
"2X c #E5979B",
"3X c #F39294",
"4X c #FD9293",
"5X c #FA959A",
"6X c #F1959B",
"7X c #EC898C",
"8X c #D89BA2",
"9X c #FF97A0",
"0X c #E598A0",
"qX c #CCA6AB",
"wX c #DDA1A2",
"eX c #FEA2A3",
/* pixels */
"8 U e.U q I _ 8 ~ X m U 8 8 + : 5 r e & Y 9 X U F = - o M G 8 ! m 2 P ~ C V q D U I  .0 q G l 8 m K : t _ G G q U _ e 0 q _ G X ",
"t U ) t q ^ _ ~ L L L ( G G w X r - X 9 E l G 8.8.Q K Q U T q.8.U A ~ { { 9.L U I G  .! ! K l l R L U  ._ C U G  ._ G G q ] q C ",
"8 q 8 G _ _ G _ _ ! m H r # # 8 = 4 G T ` ` L t / U m ! } R ' t _  .~ ~ G U J 0.} U ) ) ! R U } } _ { U q U _ U _ | { | G t r ^ ",
"C U G } e.) _ r. .L G L U q : D 8 w } L P 9.U U ! { M 7.u. .) 0 { q.U ^ ) U U U U Q | _ m K K ! U G ^ D G _ G G ) U r A ) U U G ",
"8 } U _ { { e._ } { | q.{ ^ t q r - ! _ { ~ F r.w.e.` 9.9.[ 8.Q / L L ) t.w.0.{ G ] { _ _ e._ _ U _ e.U G | U _ ( _ e.U } ] U U ",
"G } G G U ) r.) ) | U } C G q # # 8 U _ 0.U U 8.U ! Y ^ ` ^ ..0.8.n ' I _ { _ { { | R U ' w.' } U ) r.~ G w.r.)  .e.| U _ { U m ",
"q { _ { ^ ' | e.U G 8 G G _ r # < A U r U I 0.0. .9.[ E ^ U r F y.0.r.{ ( | L G L ` U G U L q U _ R |  ._ q.0.} { e.U U U _ e.U ",
"U } G L U r._ } H G } C G U 8 w # o ~ D I t L ~ G G L P e L I D F I U t G L L l G U 8 q .. .G Q 0 U G q r l A G U _ w.U ) U G t ",
"G _ _ U _ ) t G r ) } 8 _ ) 8 # l 2  .G t...8./ G 0 ) ' n 0 ! ! D r  .) 8 } L U ^ U U & G ..r r U U 8 G U _ t L G G w._ | U U 8 ",
"G | e.0.t.K G ` U G G U ) U 2 t 2 2 } D / F L D U q b Q L t , H 0 J ) G 8 G U P e.m ^ q U | U - U t.C } y.{ G G L U r.L ' U ) t ",
"C } ^ _  .G L L q q G t G _ q 2   9 8._ / r r D Q G Q 0 n m E t.7.K 8 n R l ) C U 0 _ t & G ] | G _ t t G L G U R R w.! } ~ ) U ",
"8 G q U U / _ 0 U U L C U | w 8 # H  .G D F U L U r b J ` E . . z H A L L t D q U J L L G A r | L G U G 8 m l G t U _ L G U q o ",
"K G G U G ) | } ] U r q U U 4 q 8 # t V ~ ~ ^ P Q J n J x $ f qX$ R z R e e / G U q X q  . .8 t m t G _ G U U ) U C t e. .U q L ",
"8 G | ^ ) U G U G U U U G q q C t 8 D I _ G 9 8 t t M K c % d 8X$ W S S l U ) / r L _ G L w A ] ) G # X t e.G G G R L L U L U t ",
"q U } G U G 8 8 G G H / U X # r o V D D w G A e o m n M $ f O.8XqX. x T . l t Q - 5 V r L A L A 8 G U # t _ t U _ e.U U U G U G ",
"~ G U ) G t 8 G 9 t   8 ] 8 2 t r 5 @ D 8 & + 8 # J m k y X.o.2X8X% 3 > e 9 t n r D 0 w L C 9 8 8 A t t U 8 t # 8 K o G G U _ U ",
"8 8 4 C 8 t 8 G _ 8 X t 8 X q w # q 5 r q 9 8 < V w G % 2.@.#.>X1X$X$ > B w e # 5 J r 8 e l & 9 t # 8 n G 8 # 8 8 w # q w t t 8 ",
"8 8 8 q 8 8 < 9 U # A t 8 A 8 8 e t - - : : 8 r V Z h y 3.%.o.eX4X3X% l 2 r # + 0 b - - 8 8 & t t l G t t # 8 # q G A < X   8 e ",
"# 8 8 # X # 8 8 8 4 t #   # 2 2 X 2 - 0 l : - 7 1 3 % 2.3.&.+.7X-X4XwX$ S B 2 w # X @ 0 t 9 & & 8 # o O # # A # q t D # # 4 8 8 ",
"# r q 8 8 # q 8 8 8 8 8 o < 8 - 8 8 8 8 9 & 7 r 8 k s <.,.@.@.3Xb.<X2Xy * 2 B   q t 0 # # $ X X 9 8 + 8 8 8 t # # # o # 9 G 8 8 ",
"w q 8 q 8 X 2 t # o w 8 8 8 # 8 8 # q 8 # e B 2 , % ,.b.N.@.+.=Xs.z.=X$X$ & H e 4 r 8 # q > 2 8 8 8 X 9 # 8 q r G 8 8 < 8 r 2 # ",
"8 w 8 8 # 8 t C 8 q e t G G C q U t r r # S ^ H g y s.S.a.@.+.4Xk.h.<X1X% Y l e C D G l T > 8 r L G 4 q # 8 # 2 q # w o q 8 D 8 ",
"o t G G G } U A G G 8 G  ._ G X ^ G w q w P e $ y ;.l.V.z.%.+.4Xj.D.i.=X$X$ Y e w V ! q x & G ] G G G L _ ) G G _ U _ G U A U & ",
"G G t U U w.) _ } U ) G U U 8 U { U # w B ] e k s c.U.V.s.%.@.-Xj.j.j.:X1Xu S w w 4 q o 9 t U r 8 8 0 2 D t 8 G U U U G G U / o ",
"L ) # t U ) U 8 8 8 t o O G o q 8 t 0 e w 3 8 y :.j.Q.V.f.@.+.:Xh.B.j.&X-X2X% 8 r r L = q q 8 4 r q _ 8 G t l G r U U U 8 8 8 + ",
"U G 8 _ G 0 q w U t t 8 q L w L D =   9 ~ l c u h.!.~.j.p.%.@.4Xx.B.j.i.-X1X% H U r D 0 q : L D A 8 8   8 8 r G t U K L l r K t ",
"U G _ t L l ) # # 8 t 8 t A 8 4 b t A l l $ y >.C.T.{.].p.@.@.;Xi.B.i.h.<X<XwX$ 8 0 L : m 0 @ o A q 8 < t G n t 9 U w L L C # q ",
"8 C q ) L / U # < q t 8 A r q q 0 L P 9 m i d p.B.E.E.[.i.@.@.4Xx.B.x.&X*X<X2Xy W n q 8 I D # t r t q t w o t _ q G r _ e G r q ",
"X ^ 8 U 8 L ) U t t G G ) 8 8 0 q 0 2 9 H y N.].V.{._./.x.&.+.-Xh.j.x.-X-X<X5X2X$ l & C / r 8 R H # 8 G G O 9 U q _ } U G U q < ",
"8 U t U } G U G 8 r D q q   8 t q : < e k s i.'.'.Y._.).h.%.@.4XS.j.i.&X4X=X<X6Xu p q t V C 2 & ~ 8 2 # q 0 G L r # G U G _ G 8 ",
"8 U q 8 t  .U #   t U l r # w q o H G 9 % 1.x.!.~.E._./.S.&.+.;Xh.B.4X:X<X4X<X,X2Xy r F 4 A l & 2 8 G 8 # t q 8 U L 8 t D m t G ",
"8 G U w n } U l 2 t G 8 e 8 q t , q C z u :.B.F.E.)._.(.x.%.@.4Xl.Z.;X-X<X*X<X<X6Xu 2 6 D 2 8 G G q D G e G r 9 8 ] _ H G # G t ",
"8 K C w L G t n A r q G r q q t x H w $ >.p.j.F./.{.!.U.d.%.@.-Xh.l.*X<X*X-X-X-X4X0X. n F @ 2 r t t e q q 8 w t 8 U ) q G # G 8 ",
"U U G G G q G t t D q 8 t U U t 9 9 A % -.B.V.F.G.V.V.*.&.@.@.-X-Xz.s.a.b.g.:X&X-X0X$ 8 1 7 q t t G t C t 8 8 G 8 U ) t / e q # ",
"8 8 # U U G _ U G G G t G t 8 8 . : { y @XY._.Y.F.B.B.C.z.a.a.:Xf.%.@.@.@.3.@.c.m.<.f z L e 2 8 0 t 8 8 t 8 < q # G G 8 G r w q ",
"< o o L q 2 9 t # A t O & 8 t G . & q y I.).T.K.V.V.B.h.j.k.M.*X-.@.+.o.+.@.;.&.n.<.u z e . C m 8 w o + t t # 8 X 2 G t 8 8 q w ",
"# 8 4 w # O # L t t 8 X 8 8 8 8 & G 0 % .XXXG.V.].B.B.C.B.x.a.<XN.@.X.X.+.@.-.,.@.5.y x j . 0 5 8 8 o   8 r # # + 8 t w # 8 8 2 ",
"t q 8 8 8 8 # G 8 + X 8 G w # # r t   * o..XA.].V.B.B.j.V.x.&.<X=.@.+.X.X.+.&.v.#.u v $ 9 & = = - 8 8   # t # 8 < q 4 o # 8 # 8 ",
"8 # # # e 8 o 8 # e 8 # # q w + 6 r q g y 3.h.U.j.j.V.V.V.h.%.=XN.@.%.@.o.+.#.1.$.% > o # 4 5 @ - 8 0 # 8 q 8 n # 8 # < 8 2 # # ",
"# # 8 9 r o 8 8 t G r 9 8 t 8 @ D X 0 $ $ u s.Z.C.j.B.V.V.U.%.,X=.&.b.=.+.+.+.o.% z * 4 t = 5 4 8 # 8 # 2 8 < e 8 8 o 8 + X q 4 ",
"o # w q r 8 8 8 t o w 8 # #   o 1 F   . M % v.j.Z.j.B.V.Y.`.%.3Xd.*.k.f.+.o.X.f $ 8 l 9 C 4 w # 8 8 8 q A 8 8 4 8 8 q G + 8 t - ",
"<   q 8   < 8 8 r o 8 2 8 # 8 w V w &   o u o.s.H.V.B.V.~.!.*.3Xv.*.l.k.@.o.d % * o # & O O V 8 r 8 w 2 8 X # 8 # 8 r t 8 w 8 # ",
"U l t 8 X 8 A m { C q G / U G 8 L w e & 8 v s N.s.A.V.Q.^.Q.&.4X=.&.x.h.-.+.f $ 9 8 < e + < w 8 w 8 8 # 8 X # t # 8 : # 8 q X + ",
"4 8 n { G G ) e G t 8 t G t G e C w t q -   y 2.M.V.V.Y.L.[.&.4X:.&.l.j.f.@.u $ # 4 < V e e 1 w r l G G L q 8 e } U L q G L 8 8 ",
"8 U w m q 8 t U / U 8 q 8 8 q 8 / < w q n q > y n.A.'.~.L.Q.&.3X>.&.Z.B.f.+.% x e < 4 5 0 0 8 l t C G G C G q D ^ t t 8 G G t e ",
"8 < q G G G G U t A + 8 9 V G G F @ G 0 : L , % ,.V.'.W.~.[.&.3X>.&.Z.l.b.X.y P ~ 2 r 0 = - : t H A G t q L U  .{ G U G L t 8 # ",
"8 8 C t U G 8 r # t 8 q 0 8 w t I < t # # T m i X.M.T.^.P.!.%.5X:.&.l.x.>.s k A L < G t ; ; : G C 8 U t q t r q n t U t G # 8 # ",
"8 8 U G 8 : C A r t 8 8 A t q r w 4 w t M q G p u OX!.R.R.!.*.>Xd.&.l.z.1.% N # B C U l : : : ` G o t 8 e 8 t 8 t U ) G U 8 m G ",
"o C U t U G 8 t w q G 8 q U   8 q t C w &   A t 3 s U.R.R.Q.%.5X:.&.l.n.u p x e r D q X 0 4 w P ~ 9 G t t r A G U U R t q G L G ",
"8 8 G 8 D q q 8 e r t w 8 L m   : U G C H : < B 7 y I.Y.P.[.&.3Xd.&.k.,.y x A H L ' G t r @ B C q O # 8 G U 9 n A U ~ G G G 8 8 ",
"# t G t G G G G _ L U 8 w q # 8 t D w 8 m m 8 C r v o.U.W.T.&.,XM.x.,.s v q t P 9 9 & o r r B G G 8 r 8 t G 8 D 8 t q _ L U t t ",
"8 ) G K U U w L G # 8 : U G   # G C 8 t q m # # w k u |.E.).*.,Xk.s.4.% > : O 5 9 8 & # w 5 # G ] G U t 2 X t 8 t _ r t U G # 8 ",
"o ~ 8 t G U 8 q G t r t D t G X 7 r < # X 0 ; 0 r 2 % d U.(.&.5Xk.b.y M n q t D 2 P H H -   t L _ t A D G X G t e G r q t L U 8 ",
"8 G G U U U l t 8 # e # o w H L 1 < e L r n J M ^ L o y +XXX&.5XM.J.$ 0 q # 0 r 9 A L n   # l & t 8 + r L # 8 U H L U G _ m t t ",
"8 m G G t w X   G # 8 # q t # r D 7 e U 4 4 M n G w 4 i X.OX@.>X<.s N q 8 w r F w 8 0 - # L H 9 9 q q r R q C { ) q U _ L 8 t t ",
"8 C 8 8 t _ 8 G ) t 8 U t t A w w w e ^ t X ; : < C D x y oXo.2X6.y x - L @ 1 w t ) 0 = : & # 9 + X G + A q D l _ w A t 8 4 q q ",
"8 U U t C { q _ G G 8 8 q 8 # # C r B Z e   q m w w 1 # k % 6.$Xy h H q l e r G e ] _ 0 0 9 o ! 2 _ U G q w # # t L ] 8 G G U 8 ",
"9 - U L t { G 8 8 G 8 8 w 8 r 8 8 w B w m : 0 q A e 2 C G & % % * 9 9 & H C w A H B 0 - : 0 8 Q 0 9 t t _ G t q t G L q q t G G ",
"8 q t 8 8 t G _ G U q t U U } l e P ~ D Q q > 9 A Z r G F 0 * N : 0 L 0 8 + e e + & e 2 # 0 0 n 8 8 8 8 O 8 # < 8 L t G t _ t t ",
"o ~ G C U o 8 _ # o L ~ _ G | G . 8 Z r m q x 0 A A L D 6 r : &     - J I e T A A A l   - 8 5 t L G t _ t G 8 q t - 8 q U 8 w q ",
"# w G U ) 8 L { C q G 8 8 8 G G + 2 w 0 t l U e B B w O D 0.~ 8 L U V 8 I J Q A G A H 3 t # 0 J G G K G 8 # t U t U G G t 8 # + ",
"C # U G t 2 q U _ ) G t 8 G # t e l J J 8 8 S w w B C + t q + D q U ] P F J U t r 8 H 3 #   F I r G t t t L G A 8 8 t K / 8 - # ",
"8 8 ) U _ G C C t _ n t 8 t 8 _ 8 l M m 8 8 A C D b ) 9 & 8 C ~ G < 3 S , - , b 8 8 e 2 9 8 9   t L 8 L r t L ) t U e G 9 t 8 + ",
"# 8 8 # 8 # m o < o 8 t 2 O q A @ - X X @ w V w b @ l . l 2 < Z w e h * # b = 5 5 e < 2 l 9 # 8 # t : 8 q o 8 2   0 4 q 0 8 8 # "
};
