/* XPM */
static char *Y29sbGVjdA__[] = {
/* columns rows colors chars-per-pixel */
"64 64 254 2 ",
"   c #021A03",
".  c #0A1906",
"X  c #0E150B",
"o  c #031B0B",
"O  c #0A1C0B",
"+  c #091506",
"@  c #13150A",
"#  c #121C0C",
"$  c #19160A",
"%  c #0D1E12",
"&  c #1A1911",
"*  c #160E06",
"=  c #290A05",
"-  c #380804",
";  c #2B1407",
":  c #2E1A10",
">  c #012304",
",  c #002D03",
"<  c #03240C",
"1  c #0A230C",
"2  c #05290C",
"3  c #003304",
"4  c #003C0C",
"5  c #00340A",
"6  c #062815",
"7  c #142416",
"8  c #043916",
"9  c #113315",
"0  c #2C2617",
"q  c #1B3523",
"w  c #2C362A",
"e  c #303029",
"r  c #440201",
"t  c #470604",
"y  c #540202",
"u  c #5B0403",
"i  c #4F1712",
"p  c #680100",
"a  c #770505",
"s  c #6E1812",
"d  c #6E211A",
"f  c #4C3330",
"g  c #78292C",
"h  c #034417",
"j  c #004A16",
"k  c #0B4824",
"l  c #164427",
"z  c #05582A",
"x  c #1A5830",
"c  c #255B38",
"v  c #2D4A34",
"b  c #176638",
"n  c #16753E",
"m  c #0C6F38",
"M  c #24683D",
"N  c #3B6037",
"B  c #2A461D",
"V  c #484638",
"C  c #48533A",
"Z  c #73503D",
"A  c #365444",
"S  c #0D7D43",
"D  c #097D46",
"F  c #137B44",
"G  c #1B7C45",
"H  c #1C7D4A",
"J  c #187846",
"K  c #1D744B",
"L  c #286B45",
"P  c #366949",
"I  c #26754B",
"U  c #2B744B",
"Y  c #237C4B",
"T  c #2C7B4D",
"R  c #247645",
"E  c #35734C",
"W  c #267C51",
"Q  c #2D7A52",
"!  c #357752",
"~  c #3C6D50",
"^  c #52524A",
"/  c #674E48",
"(  c #486853",
")  c #447255",
"_  c #486950",
"`  c #707268",
"'  c #606A5D",
"]  c #8D130E",
"[  c #B11D25",
"{  c #9B2B2C",
"}  c #912E2C",
"|  c #A62A2A",
" . c #BB2828",
".. c #A63739",
"X. c #B9363A",
"o. c #AB3130",
"O. c #9C1A19",
"+. c #D91B1A",
"@. c #CA1A1C",
"#. c #E61D1D",
"$. c #DA271B",
"%. c #C4231B",
"&. c #E4231C",
"*. c #E6291D",
"=. c #DA1E23",
"-. c #C81E25",
";. c #E51E25",
":. c #CA2B2C",
">. c #C72428",
",. c #DC2425",
"<. c #D6262B",
"1. c #D92829",
"2. c #CC2D33",
"3. c #D72B32",
"4. c #C63538",
"5. c #DA3033",
"6. c #CA322B",
"7. c #E32423",
"8. c #E4252B",
"9. c #E3292B",
"0. c #EB2A2A",
"q. c #E92626",
"w. c #E72B32",
"e. c #EA3133",
"r. c #914639",
"t. c #AC433F",
"y. c #B03A40",
"u. c #943D45",
"i. c #D53340",
"p. c #935150",
"a. c #B15253",
"s. c #857C75",
"d. c #D84E4D",
"f. c #E2585C",
"g. c #0B8446",
"h. c #0D8549",
"j. c #068B49",
"k. c #0C8A4B",
"l. c #068744",
"z. c #118246",
"x. c #14844B",
"c. c #1B824B",
"v. c #138B4D",
"b. c #1A894D",
"n. c #198247",
"m. c #198952",
"M. c #139051",
"N. c #0F8D50",
"B. c #22824E",
"V. c #2C854D",
"C. c #288452",
"Z. c #3B9B7C",
"A. c #37977A",
"S. c #2C9977",
"D. c #44977C",
"F. c #578E7A",
"G. c #88837B",
"H. c #389780",
"J. c #1DB68A",
"K. c #15BD8B",
"L. c #1DBE8E",
"P. c #19B886",
"I. c #1EBF91",
"U. c #19AF81",
"Y. c #2BAD86",
"T. c #3CAC8C",
"R. c #37AA88",
"E. c #24B68B",
"W. c #2BB58B",
"Q. c #23BE8F",
"!. c #2ABA8F",
"~. c #25B486",
"^. c #34B48C",
"/. c #3AB38D",
"(. c #31B98E",
"). c #38BA8E",
"_. c #23BD91",
"`. c #2BBC92",
"'. c #29B892",
"]. c #34B593",
"[. c #3CB391",
"{. c #33BB93",
"}. c #3ABA94",
"|. c #489C84",
" X c #509A81",
".X c #43A383",
"XX c #43AC8B",
"oX c #4AAC8C",
"OX c #48A487",
"+X c #56A88D",
"@X c #42B28E",
"#X c #4AAE90",
"$X c #59AB92",
"%X c #46B493",
"&X c #52B193",
"*X c #6FA994",
"=X c #76BCA9",
"-X c #17C38E",
";X c #1DC18F",
":X c #14C591",
">X c #1DC192",
",X c #1DC599",
"<X c #22C28E",
"1X c #28C08D",
"2X c #23C292",
"3X c #2AC294",
"4X c #2DC499",
"5X c #26C799",
"6X c #33C297",
"7X c #77CCB1",
"8X c #51C3A2",
"9X c #909285",
"0X c #98B4A9",
"qX c #BCBCB4",
"wX c #ABB0AA",
"eX c #AD9B93",
"rX c #FE9594",
"tX c #C4B5B6",
"yX c #FCB0B1",
"uX c #DB8681",
"iX c #8FCCB8",
"pX c #B0C6BB",
"aX c #FFCBBF",
"sX c #98DBC8",
"dX c #ADD2C5",
"fX c #98E9D0",
"gX c #ACF0D8",
"hX c #B7FDE9",
"jX c #BFFFF8",
"kX c #CDD2CA",
"lX c #FCD8D8",
"zX c #FFD0C4",
"xX c #D0E7DB",
"cX c #EFE3DB",
"vX c #C7FDEB",
"bX c #DAF5EA",
"nX c #CCFFFD",
"mX c #C8FFF7",
"MX c #D4FFFD",
"NX c #DBFFFD",
"BX c #D6FFF4",
"VX c #EBF8EB",
"CX c #F6F8EE",
"ZX c #EDFFF6",
"AX c #E4FFFC",
"SX c #EBFFFB",
"DX c #E2FFF3",
"FX c #F4FCF5",
"GX c #FDFCF5",
"HX c #F3FFFB",
"JX c #FCFFFA",
"KX c #FFF6F4",
"LX c #F9E1E1",
"PX c #FFD6E1",
/* pixels */
"<X;X-X-X;XQ.Q.!.<XS.<X-X<X<X1X<X;X;X-X-X<X<X;X;X!.!.;X-XQ._.Q.;XQ.Q.Q.L.;XL.Q.Q.Q.L.>X:X;X;X!.Q.I.:X>X:X>XI._.`.'.`._._.I.I.Q._.",
"Q.L.-X;X;XQ.Q.!.-X:X-XP.<X-XQ.Q.Q.;X-X-XQ.Q.;X;XQ.!.;X<X!.!.Q.Q.!._.2XL.;X_.Q._.Q._.;X-X;X;XQ._.I.>X>XI.>X_._._._._._.I.I.;XI.Q.",
"!.Q.L.L._.Q.Q.L.:X-X<X<XK.<X3X!.!.!._.Q._.!.Q.;X;XQ.Q.Q.Q.Q.Q.Q.!.Q.Q.;XL.2XQ.Q.Q.L.;X>X;X;XQ.Q.!.Q.!.Q.Q.Q.L.L.L.>X-X;X;X;X;X;X",
"!.Q._.2XI._._._.<X<X6X1X6XJ.E.!.Q.!.!.Q.!.Q.L._.;X;XQ.Q.Q._.Q.Q.Q.Q.>XL.;XQ.Q.!.Q.Q.;XL.>X;X!.!.Q.!.!.Q.<X;X;X;XL.-X:X;X;XQ.<XL.",
"_._.'._.I.I._._.`.[.OXoX%X(.`.5X;XQ._.Q.Q.Q.;XI.Q.Q.;XQ.!.Q.>X;XQ.;X;X;X;XQ._.!.!.!._.Q.Q.!.!.!.!.Q.Q._.;X;X;X<X<X<X<X<XE.!.;X<X",
"_._.'._.I.,X_.'.T.hXMXMXgXA.].J.;X;XQ.Q.Q.Q.Q._.Q.Q.>X-X_.Q.L.L.;XQ.I.;X;XQ.Q.Q.!.Q.Q.!._.!.!.Q.Q.I.Q.Q.;X-XQ.Q.Q.~.<X~.!.1XQ.Q.",
"Q._._._.I.I._.R.=XSXSXSXAXMXXX!.L.>X;XQ.>XQ.`.W.Q.;X:X:X>X_._._.Q.Q.>XL.;XQ.Q.Q.Q.Q.>X;XQ.;X;X>XI.>XL.;X;XQ.Q.!.!.Q.;X;X;XL.Q.Q.",
"`.Q.L.I.,X_.E.R.SXwX0 e 0XAXMXZ./.!.!.!.!.!.W._.Q.;X:X:XI._.Q._.Q._.Q.Q.;X;X>XQ.I.<XL.;X;X;X-X;X>XI.>XL.<XQ.Q.!.Q.<X;X;X-X<XQ.Q.",
"1X!.<XK.L.`.[.mXSX* 7 v q o xXAXNX|.T./.@X[.W._.Q.;X;X;XE._.L.>X<XQ.<XL.;X;XQ.I.Q.;XJ.2X2X>X>X-XI.I.I.2XQ.Q.'.I.L.;X2X;X;X;X_.`.",
"E.!.Q.;X>XE.XXMXHX& ^ < ~ v @ xXHXAX XmXMXfXA.].Q.K.2X!.E.4X>X>XL._.Q._.Q.;X;X;X2X2XQ.Q.Q.J.P.>XI.L.5XE.W.`.E.5X<XP.K.;X2X_._._.",
"-X<X!.Q.2XE.#XNXJX+ ~ 8 h ) 7 @ CXFXZXZXHXJXAXiX{.>XJ.!.W._.L.L.Q.Q.Q.Q.;X>X;X;XL.2X!.Q._.2X5XK.>XI.`.W.[./.].E.1XL.;XL.I.I.'._.",
"-X<XQ.E.<X!.%XvXHX& P U , P l O 7 GXJXV e dXKXAXXX!.~.4X`.E.<X;XQ.Q._.Q.L.;X:X;X2XJ.4X!.'._.J._._._.Y.XX|.fXgXoX^.!.2XL.I._.5X'.",
"-X-X!.!.Q.!.W.7XHX+ l L x 8 U h   w KX$ % o ^ HXiXOX}.!.E.<X5XL.Q._.Q.Q._.;X-X:X-X2XE.W.{.`.E.'./.OXiXAXAXSXHXHXF.@X!.>X_.J.'.'.",
";X-XQ.<X!.!.Q.@XSXe o ! I b Y Q ~ < $ @ ) ~ 7 o ZXBX.X(.!.2XP.2XQ.Q.Q.Q.L.;X;X>X3XW.[.T.S.T.[.%X$XAXDXw 7 X * kXAXfX~.P.5X'.'.'.",
"_._.;XL._._.L.^.xX0XX l W c.z Q W L # + ! W K 6 bXSXhXZ.!.`.L.2X;X;X>X;X2XQ.!.W.R.XXfXMXAXAXdX0XSXHXX % 6 A & f JXmX).2X_.J._.5X",
"'.3X>XL.2X<XE.T.F.HX@ 1 W c.5 I x.Y v 6 K D H J 7 FXAXD.^.E.I.:X;X;X;XQ.I.Q.!.(.|.MXAXHXHXHXHXJXJXG.o v P 6 v & JXDX).Q._._.,XK.",
"_.L.>X;XL.1X/.+XHXGXV + U I h h c.J ~ , b b.c.Q . qXHXBXR.L.2X>XK.5XI.3XJ.!.3XR.NXHXGXe * ^ JXJX' . L R 8 6 ( v JXMX^.L.!.!.L.>X",
"_.I.L.>X2XW.D.NXHXdXcX+ 6 E E 3 J C.U 5 j S x.I < @ JXDX|.^.W.'.L.I._._.'.`.Y.OXZXkX@ # X @ JXv . < T b 8 ~ w 0XAXgXW.2X6XE.Q.-X",
"L._.I.L.!.R.NXSX7 v O . # 9 B.B., b R g.M.v.c.Y U o e JXHXvX|.T.{.E._._.`.#XnXAXX 1 c ! ( < o 6 E T > c U c 7 HXAXOXW.;XP.Q.2XQ.",
"_.I.2XL.1X@XAXHX7 ( P o #   G x.M 5 H m.k.k.S B.T < . KXGXJXAX+X@XW._.`.R.sXHXHXo L W K E < 6 ! W Y h ) E 5 . FXiXT.4XI.;XL.3XE.",
"Q.`.<X_.E.XXDXHXP P ! ! 1 , B.g.c.4 z Y S k.x.x.c.x % s.0 tXJXSXZ.{.~.[. XAXFXw k C.h.W 8 2 Q W T z T T c   w SX.X(.~.L.5XL.Q.!.",
"4XJ.Q.Q.3X@XiXHXdXq K H ) h B.v.g.b.3 V.m.g.x.z.z.L 1 @ & & tXHXMXoX%XD.mXHXtX. Q h.N.m.5 P Y H b 5 R V.< # DXpXT.'.`.4XL.2XJ.3X",
"I.L.2X3XU.).D.NXSX< W c.B.V.n z.b.H j B.n v.x.v.m.T 1 + w o X JXSX*XNXDXZXHX& o W D N.D 3 R V.Y 5 b ! l O ^ FXSXZ.).^.W._.-X;X<X",
"I.I.2XJ.4XW.XXnXAXo b B.n.z.z.v.h.x.x.n b.x.x.h.h.R x o U x 1 ` JXHXJXVXJX9Xo l K N.k.D H V.R 4 z Y E 1 . eX' ZXmXXX].`._.>X;X-X",
">XI.>XL.Q.!.(.XXDX' 6 k Y x.g.j.l.v.H 4 b M v.l.n.b.n.B.c.T 9 @ VXtX+ q $ . q T H k.k.D W x 3 V.x.H < O o A 0 bXNX|.[.'._.>XK.>X",
"I.:X>X>XQ.!.Q.^.*XDXX . M J N.j.j.N.J Y 3 E n.l.k.v.g.g.x.Y q 1 qX& o _ # < W n.x.k.h.x.Y 3 M B.F C.> q E U % SXAX|.].J.I.,X>XK.",
"Q.Q.L.L.!._.<XW.OXAXcX& 1 T F j.k.g.v.c.h k n v.j.j.g.z.v.c.c # $ & k Q > 8 B.z.N.g.k.m.R m z.z.C.h I I K Q 6 SXMX|.]._.Q.L.L.;X",
"_.Q.Q._.Q.Q.;X!.XXMXJXG.@ 2 C.z.x.h.l.x.U 3 M n.k.j.k.k.z.G M > $ X U B.b T F v.g.v.x.x.h G v.g.F n m.K W 8 6 AXhX8X'.'._.Q.<X;X",
"Q.!.!.!._.Q.;XQ./.OXZXJXV . E Y n.h.M.g.b.m h M n.v.k.k.j.n.L >   w V.S n.n v.z.x.c.R z h G v.k.g.m.Y Q E   o NXH.E.'._.I.P.2X>X",
"Q.Q.!._._.I.L.!.(.OXNXJXf * > k c.g.k.M.l.m M 3 n.z.k.k.x.c.L > , M n v.k.k.z.B.Y W , I n b.S z.l.x.U 8 > ` SXF.^.4XJ.L.I.2X5XJ.",
";X;XQ.<X>XI._.!.!.S.DXFX$ 0 l 8 H x.g.g.j.k.Y h c.g.k.k.h.B.M > , U V.l.l.l.g.n.Y 4 z H v.S n.v.v.G 9 @ w FXNXoX'.3XI.,X>X;XE.Q.",
";XL.;XQ.I._._.Q.E.R.NXJX* & ) W n.v.z.h.j.j.c.G c.z.k.k.h.B.M , 4 H g.M.v.l.n.n.j 8 x.h.h.v.v.F c.U # 0 GXSXfX/.`.K.>X>XK.2XQ.<X",
"Q.Q.Q._.!.Q.>X;XJ.@XNXJX0 X U m.h.v.n.g.k.N.H B.j B.b.l.l.B.M , z x.v.v.g.g.b.n.4 x.h.N.h.k.h.H ! < 0 JXHXvX/.!.Q.Q.>X>XQ.I.;X;X",
"!.Q.Q.Q.Q.Q.;X;X<X/.gXHXkX% ! x.b.F n.v.h.k.h.b.3 M B.B.n x _ > c R M M B.b.n G F x.k.N.l.h.B.Y < 7 JXHXBXZ.6X-XQ.Q._._.Q.L.;X;X",
"Q.<X;X;XQ.Q.;XQ.Q.W.Z.NXHX( 2 L R C.J m.h.l.k.n.b , M E N : - r - ; C N E V.V., b.F v.h.g.x.m , 6 o JXHX+X).P.;XQ.!.L.I.<XL.Q.;X",
";XL.;X;XQ.I.>XL.<X3X}.|.gXSX'   > k I J h.N.l.b.T N , $ Z zXa.X.X.t.r.; B h 3 V.H g.x.k.h.n.G T ~ % GXSXS.<X<X<XQ.Q.>X>XQ.Q.<X!.",
";X;X;X;X>X>X_.L.!.J.!.)..XgXSXqX7 % 6 L b.l.j.g.M q t a.lXX.4.5.:.3.6.{ - , M B.H m.x.S n.b.S B.N X JXAXY.2XL.E.!.Q.;XL.L.Q.Q.Q.",
";X;XL.<XI.I.Q._.<XJ.<X<XY.oXNXHXFXw 7 l M n.v.z.N ; u.PXyX4.<.,.0.,.9.6.} ; M n.x.D h.m.c.n.n M o % JXgX6XK.<X3X!._.<X;XQ.Q.Q.<X",
";X;X_.Q._._._._._.<X;X<X!.Y.Z.NXHXJXwX@ 2 x n ! ; d yXyX4.<.9.7.9.8.9.<.X.t x m N.N.x.D m.L v . X dXNXOX^.P.Q.E.Q.Q.L.>XQ.!.Q.;X",
";XQ.!.!._._.L._._.Q.;X5XK.3X/.XXsXSXHX^ $ 1 8 C r p.uXrX4.5.=.q.q.+.0.5.6.g 9 n x.H W W K 2 . @ kXNXD.R.W.!.<X;XQ.I.;XQ._.Q.Q.;X",
"Q.Q.!.!._._.I.I._.`._._.;X>XL.!.Y.&XF.JXJX9X& = r p y s | %.0.;.q.q.8.3.4.r.* N U l < 1 O bXFXZXMXZ.^.1XE.L.5X-X;XL.;XL.Q.Q.Q.Q.",
"Q.Q.Q.Q._._.I.>X_._._._.L.L.L.2XW.A.NXHX: = - i t.o.{ ] a 6.%.9.9.,.<.[ a p - : * # & ^ CXVXNX=X#XY.3X-X<X;XK.:X;X>XI.<X_.!._.<X",
"Q.Q.Q.Q.;X;X>XI.I.L.Q.3X2XQ.Q.W.$XMXHX* - i p.f.f.4.6.6. .p O.6.6.4.] a { o.| } t = / JXZXiXXX'.W.3XL.<XQ.<X>X;XQ.Q.Q.L.;X_.Q.Q.",
"!.Q.Q.>X;X;X>XQ.2XI.L.K.Q._.6XXX*XJXFX= g a.lXrX2.<.,.,.6.6.] ] o.p p rXrX6.>.4...y t / GX XR.I.2X<XJ.4XE.Q.2XJ.Q.Q._.;X;X;XQ.Q.",
"Q.Q.;X>X-X;X>XL.Q.L.2X2X_.E.Y.$XZXGXV f a.LXrX<.9.q.0.;.,.5.>.a t s f.f.w.e.1.<.2.X.u - 9XFX#X'.E._.`.'._._.L._.!.Q.Q.2X;X;X_.Q.",
"Q.Q.;X;X>X-X;XQ.<XL.-X;X_.].8XhXFX` t yXLXd.3.,.;.&.;.q.w.,.,.4.r aXf.<.w.;.0.8.q.3.X.} = FXhXT.`.`.`.W.I.3XE._.!.!.Q.L.;X;XQ.Q.",
"_._.L.;X;X;XQ._.3X!.-X;XK.~.T.MXHX: t t.i.1.9.&.q.0.9.,.8.0.$.:.s a.d.e.=.0.7.&.#.0.<.y.- JXMX#XW.J._.5X>XL.L._.Q.L.Q.;X;X;XQ.Q.",
"_._.Q.>X;X;XQ.Q.E.!.L.2X_.{.R.MXHX- t X.5.q.+.0.q.,.,.,.8.;.0.6.} a 5.,.0.+.*.&.&.&.8.4.t JXMXoX].5XK.:X-X>X2XL.Q.2XQ.;X>XL._.!.",
"!._.Q.Q.L._.Q._.!.Q.Q.Q.E.[.T.nXHX= y 4.<.;.7.*.,.,.9.8.;.0.#.1.{ p 2.1.$.*.$.$.;.w.;.2.t GXMXOX'._.L.;X;XL._.<XQ.I.L.;XQ.Q.Q.Q.",
"!.Q.Q.Q.<XQ.Q.Q.Q.L.2X2X!.^.T.nXSX: r y.w.q.&.0.9.9.;.;.q.+.0.1.] ] 2.;.0.*.$.$.;.8.w.y.- VXNXR.W.<X2XQ.Q.2X;XQ.<XQ._.<X2XL.Q.;X",
"Q.Q.Q.;X;XQ.Q._.2XL.L.<X'.W.%XmXHX= u y.>.8.;.&.*.1.,.w.9.,.3.>.a O.<.8.q.#.q.$.;.=.i...- JXMX#X!.Q.Q.L.Q.L.2XQ.L.Q.L.L.L._.2XQ.",
"_.Q.L.>XI.L.Q.Q.Q.Q.>XL.`.'.^.7XAXLXt { :.8.7.q.$.7.,.9.<.3. .O.u { >.e.;.q.8.1.8.:.o.t - JX|.[.!.I.Q.<X<XQ.L.L._.<X2XQ.<X<XQ.L.",
"Q.;X2X;XL.L.Q.<XL.;X;XL.2X`.W.R.AXKXi }  .%.1.$.$.0.8.;.5.[ { y t d  .>.3.;.=.<. .| t - ` DX%XE.Q.Q._.<XL._.2XQ.Q.<X2XQ._.Q.;XQ.",
"L.;X;X;XL.2X_.L.2X<X;XK.L.`.`.@XsXHXKX- }  . .-.%.$.@.@.[ y.y r = t s |  .2.>.[ | u - 0 HX$X].K.I.<XL.Q.L.<XL.Q.I.Q.L.L.;XQ._.<X",
">X;X<X;XL.L.Q.<XL.L.>X>X>XL.~.W.#XBXJX= - d {  .%.=.-. .y.t - f LX= - d } { ..} - = e JXNX+X{._.Q.Q.Q.<X2XQ.2X<XQ.<X2XQ.L.Q.L.2X",
";X;XI.L.<X_._.Q.Q.2X;XL.L.3XQ.`.T.A.NXxX* - t ] o.| o.} t = ^ HXZXJX^ = - r - = @ 9XHXAXmX@XW.2XQ.;X>XQ.Q.L.L.Q._.L.L.<X_.<XL.Q.",
"L.>XQ.Q.Q.Q.Q.Q.<XL.;XL.>X<XI.Q.!.^.@XMXSXGXKXeXi i i p.lXJXAX=X+X+XMXFXKXKXKXJXDXnX|.XX/.`.<XP.I.Q.Q.2XL._._.<X<XL.L.<X_._.L.2X",
";XL.Q._.!.Q.Q.Q.<X_.Q._.Q.L.;XL.<XQ.W.XX=XNXAXAXFXGXJXFXHXvXH.].}.^.#XsXbXNXSXgXZ./.Y.W._.L.Q.3XQ.<XL.L.2X<XL.L.<X_._.<XL.<XL.Q.",
"I.Q.Q.Q.Q._.Q.2XQ.Q.Q.Q.Q.Q.;X;XQ.E.4X{.].].H.fXnXMXAXvX$XT.]._.K.5X'.].%X.X%X].6XE.4XQ.L.;XQ.<XQ.<XQ.Q.Q.L.<X_.L.Q.L.L.L.Q.<XQ.",
"L.<XQ.!.Q.!.Q.;XL.>XQ.!.Q.Q.;X;X;X3XE.J.,X_.'.].T.%XOXXX].'.2XK.,X,X,XI.'.6XJ.I.L.L.L.>X;X_.`.J._.L.2XL.Q.<XL._._.<X2XQ.2XQ.2XL.",
">XI.Q.!.Q.Q.Q.L.L.>XQ.Q.Q.Q.<X;X-XP.<X_.!.Q.2XJ._.E.E.3X!.<XL.5XK.I.L.<X_.E.<XQ.Q.4XK.>XL.Q.;X2X;X<XQ.<X_.L.<X<XL._._.<XQ.Q.I.Q.",
"L.<XQ.Q.Q.Q.;X>X;XL.!.!.Q._.>X;X-X-X2X!.!.Q.5X-X;X5XL.2XJ.Q.2XL.2XL.<X<XI.J.3X!.Q.L.>X;X3X3XP.>XL._.Q.I.<XQ._.L.<X<XL.L.L.<XL.<X",
">X;XQ._.Q.>X>X-X;X;XQ.`.Q.Q.L.;XL.<XL.<X<XP.1X;X<XP.<X!.3XQ.Q.Q._.J.<X<X<X<XQ.~.>X;X5XI.L._.J.3XQ.L.Q.;XQ.;XQ.<X_.L.<X_.L.Q._.<X",
";XL.Q.Q.Q.L.;X;X;X>XQ.Q.!._.;X;X<XL.1XP.L.1X<X~.Q.<X!.E.!.2XE.2XE.3X<X-X-X-X~.1X>XK.K.2XJ._._.L.Q.2XQ.Q.Q.>XQ.L.Q.2XL._.<X2XL.Q."
};
