/* XPM */
static char *_64aca73a1764dab8d02416cfc1b7e50NsL9jLs756tcZRz1[] = {
/* columns rows colors chars-per-pixel */
"64 64 249 2 ",
"   c #040303",
".  c #0C0B04",
"X  c #0C0C0C",
"o  c #080707",
"O  c #1D0C03",
"+  c #120C0C",
"@  c #1C0D0C",
"#  c #140605",
"$  c #0D120A",
"%  c #13120E",
"&  c #1D120D",
"*  c #161709",
"=  c #0D0C12",
"-  c #140D12",
";  c #1C0D14",
":  c #1A0E1C",
">  c #0D1215",
",  c #141414",
"<  c #1C1314",
"1  c #151915",
"2  c #1B1B15",
"3  c #151519",
"4  c #1B151A",
"5  c #16191A",
"6  c #1C1C1C",
"7  c #230C03",
"8  c #2A0C01",
"9  c #230D0C",
"0  c #2A0D0B",
"q  c #260602",
"w  c #310E07",
"e  c #251203",
"r  c #2B1204",
"t  c #24130C",
"y  c #2A130C",
"u  c #2C1A0A",
"i  c #331302",
"p  c #331B04",
"a  c #32130C",
"s  c #331B0C",
"d  c #391B0E",
"f  c #3A1705",
"g  c #240E11",
"h  c #2B0D13",
"j  c #241313",
"k  c #2A1413",
"l  c #241A15",
"z  c #2B1B14",
"x  c #24141B",
"c  c #2C1519",
"v  c #231B1B",
"b  c #2B1B1C",
"n  c #321513",
"m  c #361B13",
"M  c #381C17",
"N  c #330B11",
"B  c #1E211D",
"V  c #1C2316",
"C  c #3A230C",
"Z  c #37220A",
"A  c #22211D",
"S  c #2A231C",
"D  c #3B2313",
"F  c #3A241A",
"G  c #1D1D23",
"H  c #1A1523",
"J  c #221E22",
"K  c #291C25",
"L  c #1F2221",
"P  c #232323",
"I  c #2B2323",
"U  c #252924",
"Y  c #2A2926",
"T  c #25242A",
"R  c #2C252A",
"E  c #262929",
"W  c #2B2B2B",
"Q  c #322D2D",
"!  c #362726",
"~  c #2E312C",
"^  c #33342D",
"/  c #2D2D32",
"(  c #2E2731",
")  c #322E33",
"_  c #352E37",
"`  c #2F3231",
"'  c #343333",
"]  c #393936",
"[  c #3B3B3B",
"{  c #383738",
"}  c #431D15",
"|  c #421B02",
" . c #462A0C",
".. c #452B14",
"X. c #4A2B15",
"o. c #43231C",
"O. c #462918",
"+. c #4A3118",
"@. c #573819",
"#. c #522E15",
"$. c #462D28",
"%. c #493328",
"&. c #523324",
"*. c #563B2C",
"=. c #583A28",
"-. c #453837",
";. c #5C3D31",
":. c #532D26",
">. c #633D2E",
",. c #663B0E",
"<. c #3D413A",
"1. c #5B422B",
"2. c #5C4234",
"3. c #43433E",
"4. c #66492C",
"5. c #644334",
"6. c #6B4C33",
"7. c #6B4B3A",
"8. c #664737",
"9. c #6A5236",
"0. c #74553A",
"q. c #725332",
"w. c #7E6439",
"e. c #6C491B",
"r. c #3C3B41",
"t. c #3E4440",
"y. c #434342",
"u. c #4A4847",
"i. c #564644",
"p. c #585651",
"a. c #684A42",
"s. c #785946",
"d. c #665552",
"f. c #7A5D52",
"g. c #714E46",
"h. c #7C6449",
"j. c #7E6556",
"k. c #676A5F",
"l. c #6A5A64",
"z. c #776B6B",
"x. c #83683E",
"c. c #84572D",
"v. c #845C4A",
"b. c #845E51",
"n. c #87674B",
"m. c #926948",
"M. c #886755",
"N. c #936C5B",
"B. c #8E7356",
"V. c #977758",
"C. c #95754F",
"Z. c #A47B54",
"A. c #AA7B55",
"S. c #A5765E",
"D. c #A47C5C",
"F. c #AA7C5B",
"G. c #A67655",
"H. c #A57A4F",
"J. c #9C7B63",
"K. c #9C7C6A",
"L. c #987766",
"P. c #8F7169",
"I. c #A57B63",
"U. c #AB7C63",
"Y. c #A47D6B",
"T. c #A87A66",
"R. c #B17E63",
"E. c #A97C72",
"W. c #AC8256",
"Q. c #AC825C",
"!. c #A8855A",
"~. c #B5885C",
"^. c #AE8B58",
"/. c #9D8366",
"(. c #9E8076",
"). c #A48464",
"_. c #AB8264",
"`. c #A5846A",
"'. c #AA826B",
"]. c #AA8B66",
"[. c #B28363",
"{. c #B78C67",
"}. c #AF946A",
"|. c #BA9669",
" X c #A88672",
".X c #B38D72",
"XX c #B99976",
"oX c #AE9274",
"OX c #BDA278",
"+X c #9C825F",
"@X c #CA9D6C",
"#X c #C39769",
"$X c #C59C73",
"%X c #C19D7B",
"&X c #C89B76",
"*X c #D09F74",
"=X c #CCA46D",
"-X c #CDAB6D",
";X c #C5A56C",
":X c #D3AC6D",
">X c #D3A968",
",X c #CDB16C",
"<X c #D4B16E",
"1X c #C4A275",
"2X c #CDA573",
"3X c #CDAC73",
"4X c #C3A47B",
"5X c #CBA57B",
"6X c #C5AA7C",
"7X c #CCAC7B",
"8X c #C4A975",
"9X c #D2A574",
"0X c #D3AC73",
"qX c #D9AD74",
"wX c #D3AD7A",
"eX c #D9AD7C",
"rX c #D3A67A",
"tX c #CEB17A",
"yX c #D3B174",
"uX c #D3B27C",
"iX c #D9B279",
"pX c #CFA569",
"aX c #917E82",
"sX c #948B88",
"dX c #B49A81",
"fX c #BDA481",
"gX c #AFA69D",
"hX c #B4AFAD",
"jX c #A09EA1",
"kX c #C19D82",
"lX c #CCAC83",
"zX c #C9A985",
"xX c #D2AD84",
"cX c #D4AD88",
"vX c #CCB285",
"bX c #D3B283",
"nX c #D6B488",
"mX c #D1B392",
"MX c #CABDBD",
"NX c #E0BA8B",
"BX c #C7C0B8",
"VX c #D3CFD2",
"CX c #E3DAD9",
"ZX c #F7ECEC",
"AX c #FEFDF5",
"SX c #FEFDFC",
"DX c #F9F5F6",
"FX c #F1EEED",
"GX c #E1E1D9",
/* pixels */
"% U 3.Y 6 R _ 3 E X B ~ > 4 - x H x x c 0 0 y j g 3 < o V A 5 / B $ Y / G T < l * y h c g K A 1 V V V V ` ( T 3 ( ' 4 , 2 ` L o ",
"B W ' v 4 _ _ ' E L E ' P v x ; j b 0 7 r q e t x x S Q ^ ' [ r.~ L _ { ) [ v A S * y 0 9 c 6 6 ^ B U ` T T R T r._ E P 6 ' 5 L ",
", 5 < P ) ' G { ` { 6 L S + t t m 4.w.h.x.w.h.+.r t 9 z S S S v A K I K I I O Z 9.h.9.C y k K r.{ ~ <.{ P T W W ' [ { [ P B 6 ` ",
"J W P [ y.{ { u.r.P P Y ! u O &.}.bXtXuX8XnXvXOXn.+.r y 7 # u u t t h 0 c t & F fXmXvXoX5.0 K K _ E E 5 P ] Y B { W 6 L { E W B ",
"5 { / ` [ { y.' [ r.[ -.e u 9.4X*XqX:X3XvXOXfXvXvX4XC.@...+...C ....} } } } M D w.OXvXtXOX0.Z S T _ u.Q P ] ~ ~ ] ' <.~ { ' W Y ",
"L r.T L E { u.{ ' -.S u C B.OX7XqX9XeXwXB.@.B.zXtX7X7X4XdXfXdXfX4XXX.XJ.L.Y.P.f.p @.}.tXuX1XC.Z j I u.^ 6 3.u.' ] <.<.~ ' ] ~ B ",
"G r./ { ` [ r.y.Q z S e 4.nXvXwXqXrXzXoXO.# p n.XXbXbX6XcXcXzXvXvXzX%XU.I.K.E.z.p r 0.8XtXyXyXq.e t 3.-.Q y.u.' ] t.~ A W ' -.` ",
"E { L E / u.` ] v u Z h.OX5XwX0X9XcXkX;.M.sX! e ..4.q.q.6.5.0.4.9.9.4.@.5.=.;.$.d.sX2.n.lX3X-X;Xn.F e & l v G E E ` 3.W ' W P G ",
"U ^ ~ W [ _ 4 S e e n.zXtXwX0X0XqXzX0.n MXSXBX] O 8 8 0 0 r 7 7 e t 7 8 r r k z.ZXAXP.h .XcX9XwXtXB.e e $.I G R L ~ 3.~ 3.W W , ",
"S <.y.y.r.) I z u 1.|.uXtXuX=XwX-X+Xd y MXSXAXGXP.u.i.-.t @ F ; ; j ! i.i.p.gXAXAXAXl.h g..XrXwXtXOXs.D b -.K P E E u.E ' E { J ",
"2 ^ ' { r.R v e +.OXtXwX9X0XeX~.H.C.Z & (.SXAXSXSXSXDXZXhXi.: : R z.VXDXDXFXSXDXSXCX-.N >.E.{.1XuXuXOXV.D @ b R ' W u.' ` ` _ T ",
"V A 4 P ) I t r C.vXtX3X0X=X|.~.!.!.9.u W VXSXSXSXDXSXSXSXCXl.( jXSXSXSXSXSXDXDXAXsXq } L.T.V.{.|.tXnXvXg.s t S v R W W G { G = ",
"S B P ^ I S u +.kXcX2X=X#X~.H.D.D.!.`.$.; aXSXSXSXsXk.hXAXSXFXVXSXAXFXsXl.VXDXDXGX%.q 7.T.U.D.Z.W.~.@XlXXXB.D z z K H y.r./ 3 B ",
"2 W { Q Y t r n.zXxX{.{.A.H._.Z.Z.{.mXM.9 $.CXDXFXt.. aXAXSXDXSXAXAXCX) > jXDXDXsXe ..N.I._._.G.F.H.G.{.6XvXn.r t _ ( K T P E U ",
"3 / { x z e O.).XXG.A.A.Z.U.D.V.m.S.cXXXO.q sXSXDXsXp.hXSXDXZXCXSXDXZXz.k.MXDXFX] 7 7.U.S.m.M.E.U.R.A.A.^.;XfX4.r b T _ ` U E V ",
"_ K ' j & y s.T.U.R.F.U.U.I.I.6.i >.zXcX0.r ] VXSXAXDXDXSXZXz.$.hXDXSXSXDXSXDXsX9 o.N.'.v.| O.M.E.R.F.A.^.W.|.OX*.t - K T ~ ~ ~ ",
"H = - < 7 :.L.I.U.U.I.T.Y.M.*.i e @.xX5X).#.0 l.VXSXAXFXMXp.@ j ! sXCXSXFXFXhXQ N g.T.U.n.r 7 F g.L.G.G.A.A.~.4XL.y x : 2 2 4 - ",
"= , v j e *.K.I.T.T.Y.M.2.M 9 e O 1.7XrX{.n.+.7 ^ i.d.i.c 0 %.g.n 7 %.i.p.i.c y a.L.U.F.v.d j j 0 $.&.X.>.M.Q.!./.F x x   . - G ",
"> - - j t M f.'.Y.M.;.d 7 t k t e =.lXcX&X[.n.+.7 e 0 8 a =.B.).v.O.i 7 O O u 7.S.R.F.R.v.r k j g h 9 0 h M 7./.P.F j & * * 3 : ",
"= 4 4 j t 7 $.;.1.d 7 r k t & l t ;.kXcXeX#XU.N.0.=.:.=.v.D.].^.).m.4.=.=.2.M.J._.[.F.Q.n.8 9 ; g x ; x x : M i.d.z < # * 1 H H ",
"3 H < < j 9 9 t @ t t & O % 2 j 0 ;.lX3XqX9X{..XY.L.'.I.Z.{.7XxX%X'.T.I.D.I.+X^.1XrX{.S.n.d c x 4 ;   4 X - l * ; j j x & A X > ",
"- 3 < ; < l j l u & & S ^ P < < 9 ;.xX3X=XeX&XN.I.U.U.F.{.$X%X4XkXXX.XG.A.[.{.7XwX4X{.F.v.y 9 j I I X B 5 5 % & j j @ # & % > > ",
"X J R J v Q ! < v S v v ' ' P , g *.6X3X:X0XD.X.@.U.&X{.V.6.:.%.*.v.S.@X9X=X,XOX@.@.v.'.M.n x Q v Y B B ~ ^ V S Q R _ I W L ~ 5 ",
"R 6 6 W / y.] ^ ' ] Y P ' P 5 j @ 2.8X,X,X3XC.8 f [.nXH. .8 c g 9 w 4.@XqX:XtX^.p r 0.`.b.a ; 4 , X A , 2 A $ Y _ W W R G ` `   ",
"R ' X A W { W 3 , + 6 X X P . < k *.6X3X,X-X|.q.w.OXuXm.r r x x j 7 #.@X:X<X,X8Xw.9.n.`.M.y j < 4 J Q 6 v < J v x W ) W , , , o ",
"E P 1 W P 1 5 1 E 6 v X 4 I < v 9 *.vX;XyX:XtX,XyX3XbX|.#.e k & O p 0.rXqX>X-XtX6XzX).).b.y 9 I R X < & k k 9 b v ! Y P P G P 2 ",
"Y P ~ P P B ' X X , 6 % v v < @ @ 1.6X;X0X:X2X2X1XlXtXvXC.1.Z Z ..q.}.wXeXqXwXtXwX$XQ.'.b.d h # v j t u r M d e O A 2 W 5 P , % ",
"$ B 1 ' E ~ ` $ , 1 6 < Y , x l & +.}.uX:XqXW.#.@.|.7XwXnX8X^.}.}.8XNX0X9XqX0X=X#Xe.x.F.v.8 n c j e +.n..XoXoXs...O l W v P 2 < ",
"X ` 5 W , P ' Y 6 v P A ' - < , < r x.wXqXeXS.q | {.uX0X-XyXqXyXyXuX2X9XrX9XeXrXe.,.A._.N.i k t t u +X6XnXbXvXzX+X..7 b K A l , ",
", W 6 W [ P Y P , 1 P 1 5   , 4 v 7 X.Q.&X&X&Xv.n.#XuXyX:X>X:X:X:X0X-XqXiX0X2X@Xc.m.[._.s.y c @ y &.OXtX}.m.{.vXvXB.D 9 j v 6 , ",
"3 W 4 - v [ Y X   < W B A o 1 G 4 < r 6.'..X&X5X3X<X,X-XwXrX9XeXrXwX:X-X>XwXxX&XR.T.D.L.*.7 x x @ 2.vXvX0.q q.6X2X].v.r u l Q G ",
"- T W 5 6 [ W v $ 6 P $ 5 3 6 1 X v t o.N.T.R.[.|.,X,X;X9XrX*X*XrX@X0X;X-X1X|.F.I.Y.Y.s.u t 4 < t -.dXj.d 8 6.xX3XW.).:.e j H T ",
"3 U B 3 Y P 6 6 P 5 < P 5 5 3 2 2 S t 0 a.E.).D.W.W.Q.Q.Q.Q.W.W.W.W.W.W.W.Q.D.T.Y.L.f.m t & + v u & F l k 8 4.nX=X~._.5.y j J 3 ",
"E ~ L U P 5 P 6 2 P 5 , 6 ~ W B & 2 b 9 F M.Y.`.T.I.Y.Y.Y.T.Q.!.D._.T.U.T.U.I.Y.K.s.a t k < v < & A : x b y 6.8X0XW._.7.0 c 4 3 ",
"1 > X W W P ' W P P P 6 P 6 , ,   $ W v g b &.1.4.5.5.5.5.5.2.5.5.5.>.8.8.5.5.5.M 0 k b < X , 1 1 v - : @ 7 q.cXwX!.I.7.9 l < , ",
"$ o X P 6 = 5 6 X G 5 X X , 6 B o > P + < @ u e 8 7 8 8 0 9 r 8 8 8 w 8 8 8 8 8 p t g v 6 o T 1 % @ - - j r 4.wX2X^.J.g.y & 2 % ",
"= , $ 4 X X X P 6 6 ,   , , , 3 > L 3 , & u C  . . .....O.O.X.X...X.X.X.X. . . .p O @ v 4   5 1 , & @ . 9 8 4.xX5X_.Y.a.k < 1 * ",
"6 5 , > $ , X P , o X , P 1 X - 1 L X l u s.`.6X1X1X4X%XOX%X4XXXXXfXOXXX&XOXOXOX+X1.t ; 3 4   % & & < u e i V.cX%XU.K.:.9 j . $ ",
", X X X 4 , X , X 5 , X X 5 - X - c @ 0 7.zXnX0X0X0X0XrXqXrX0XwXwX7XuXwXyX,X:X,X7X].d k j ; 2 * u e & e i 4.5X5X{.I.f.M & l . $ ",
"X + , < 5 X % , 6 P 6 , - 6 , X < @ y p `.bX=XqX:XyX:X0X0X0X0X0X0XyX0X0X:X>X,X>X3XcX7.r 9 g t e D s.B.n.].lX5X|.D.Y.:.0 j 1 1 . ",
"X X , 4 B 3 1 , B o , , - X   . ; k O 9.lX7X3XyX0X:X:XyX0X0X:X0XuX0X0X0XqX:X>X>X<XwX.XD 0 t y ! oXzXmXbXcX5X|.Q.I.b.n h ; < 5 , ",
"@   4 ,   X , $ ,   > % , X X < t e Z /.tXtX-X-X0X3X0X0X0X0XwX3X=X0XwXqXqX:X>X<X:XwXzX9.r e y s.zX4X&X&X$X~.A.D.I.:.q x : 4 5   ",
"W J v , o , P L { L 6 P Q R P < l e 9.zX7X7X3XuX3X0X3X-XyXyX0XwX3XyXyX:X:X0X:X:X3XuXlXoXZ e O a.`.'.D.!.A.Z.Q.'.v.a h c - H o   ",
"= , 6 { L P ' 5 P P , 5 P v I < t d /.vX7X0X0X0X0XqXwX>X-X:X,X-X0X3X-X-X0XqX:X>XwXwX8XvX6.e t k s.C.).D.D.).V.M.$.7 b ; G E > L ",
"< W 5 6 6 > B W Q ~ , 4 , ; v @ 7 7.vX7XyX0X@X#X@X*XeXqX:X:X<X:X:X,X>XyX0X=X#X#X0X-X,XtX].Z k y i +.=.=.&.&.+.s t t v % P W 3 3 ",
", - 1 P P P P W 5 J o < 4 J v j f ).cXwXqX:XpXH.A.#X*XeXqXqXqX0XwXyX0X0X=X~.A.R.2X0X,X,XtX9.7 c 0 7 8 0 t 7 c j I S Q B P 6 5 = ",
", , B 6 E U , B X 6 < 4 < < < t 9.7X0X:X>X>X@XH.G.R.{.$X$X$X$X$X$X&X@X|.[.F.F.R.9XqXpX,XtX}.Z h c j g x x : 4 4 6 5 E B B o 3 , ",
"- , E P 3 X B B 5 6 , , v x l p ).7XiX:X>XqX~.A.U.U.I.F.A.W.D.Q.F._.F.A.A.F.R.R.rXqX>X>X,X6X9.9 g x x < - H K = L P ` A ~ % B P ",
"X J ( 6 Y A 1 B 3 P J - b y O 6.5X0X=X0X0X#XW.A.F.R.U.F.F.G.A.A.S.U.F.G.A.Q.G.~.eX>X>X:X-X7X|.f j < I 2 4 6 G G ^ E ~ 2 2 U E A ",
"3 3 I , B 2 V $ 3 3 J - k t Z !.0X:XqXwX;X~.Z.A.U.S.S.U.R.F.U._.S.U.I.U.D.D.F.F.*XeX>X0XeX2X{.q.O t . @ ) Y 5 P B W W U A P , , ",
"X 6 J G E B U U ' P ( J j e 8.6XwX:XqX=X~.W.G.'.U.R.'.U.T.T.Y.S.'.'.T.T.Y.I.E.G.{.nXiX0X0X{.D.M.D 9 j & 4 P > 6 3 5 2 ` U E 6 6 ",
"$ ] P T E U 1 L L > 3 - t s ).vX3X0X0X|.F.F.I.I.N.0.s.s.b.g.v.b.s.f.f.v.b.M.S.R.F.*XrX0X1XQ.D.I.a.k z j X , > 5 6 ` 5 B E U X , ",
". Y > G T E $ V P 6 v x y 7.lX8XyXyX|.F.S.E.E.g.} i s r a N N N N y a 8 8 f :.b.'.XX2X3XwX~.D.E.K.8.8 9 ! X 4 P 5 L 6 5 2 E E > ",
"* A L / ( ` B 1 % X ; j s `.bX:X3X3X].F.R.E.N.} i 8 e t k M N c c 9 7 f f f w } s.).7X3XyX#XF.F.E.N.$.t y   4 W T E E P ' L 5 B ",
"* V P T 6 5 o   B + & e 7.5X0X<X-X|.Z.F.T.T.v.8 8 p +.h.P.d.M k < j Z s.M.s.:.a p 4.}.tX0X0X#X~.U.I.N.8.y t K ] { 5 W ' E 3 5 B ",
"* B , 1 6 / > P ^ l t p ].iX:X:X>XW.H.U.E.E.s.i f 0././.L.j.! & j 2 l B.K. XE.0.i r n.6XeXqX9X~.A.F.D.).+.t t l ' < A 5 , > 2 1 ",
", R ^ & v _ 4 ) l j e 9.8XyX>X>X~.A.W.M.s.g.a.;.s./.`.V.j.%.@ l A & j %.f.Y. XJ.h.O.Z n.%XxX=X>X~.W.A.).M.O.& j l v Q < P A Y 4 ",
"3 , Y Q A ! K ; j t Z +XuX0X>X#XF.U.0.#.8 q %.P. X/.J.g.p O z & . t x q m 7.V./.L.P.o.8 s.cX:X>X>X#XZ.D.`.h.u t j l S < v A P 6 ",
"G 4 % & @ j x : j k 8.6X7X2X@XW.E.N.} q h j c $.f.P.>.N u g # I & j x c 0 m 2.M.K.P.:.h a V.5XiXeX>X{.Z././.%.e t t j < < P v J ",
"= ( U & l < g K c O 2.mX6X|.W.F.E.g.n g k x g g n h N 0 0 k x < - < g x g 9 0 p F M c c 0 M q.$XrXrXlXXX/.(.2.r t j j l ; v , < ",
"= H R v & j x x j u D L.XX`.`.J.M.o.9 9 l & l k h 0 0 n k 9 j l g x c j k j k 9 9 b c h n O e 1..XcXmXmX Xf.z t j t j j < < X X ",
"G = P 2 & j j j g k e m *.8.7.;.M 7 c y z & O k k y y 0 9 9 < < l g ; x j g 9 c k t h g k y z t ..6.f.f.;.M 9 k t t j j j < X X ",
"> 5 { Q I z 9 j j 9 0 y u k 7 h k j l O t t t j 9 k j g b b l t j y j g x x j 9 t e k k j ; & t 7 0 a n 7 9 b g j k j l < v X X ",
"3 $ 4 . # ; j j k k y c 9 0 c g t j t S & & l & j j x c ; g j j e t k 4 x x l t & u e k @ j v & y y 7 9 c g g g k j t < < 4 = $ "
};
