/* XPM */
static char *c759224b8ea949b0fefe2955c6d07048wN2BG0EoCEH2Qie1[] = {
/* columns rows colors chars-per-pixel */
"64 64 230 2 ",
"   c #040202",
".  c #0B0301",
"X  c #060905",
"o  c #0C0904",
"O  c #0B060C",
"+  c #060A09",
"@  c #0C0C0C",
"#  c #060609",
"$  c #120601",
"%  c #140B02",
"&  c #1A0D02",
"*  c #130E0C",
"=  c #190E0B",
"-  c #190700",
";  c #0E110D",
":  c #0C1002",
">  c #1C1203",
",  c #13120D",
"<  c #1B130C",
"1  c #191509",
"2  c #0D0D11",
"3  c #0A0B11",
"4  c #110F14",
"5  c #180F14",
"6  c #0E1212",
"7  c #0E1619",
"8  c #141414",
"9  c #1B1612",
"0  c #151915",
"q  c #1B1A15",
"w  c #151519",
"e  c #1A161A",
"r  c #151A1B",
"t  c #1B1B1B",
"y  c #22160B",
"u  c #241A0B",
"i  c #271805",
"p  c #231B13",
"a  c #291D11",
"s  c #221D1B",
"d  c #241814",
"f  c #1E221D",
"g  c #2D210D",
"h  c #32240C",
"j  c #2C2214",
"k  c #23221D",
"l  c #2C241C",
"z  c #2C2819",
"x  c #332414",
"c  c #352A1B",
"v  c #3B2B1B",
"b  c #362A17",
"n  c #3D311B",
"m  c #1D1C22",
"M  c #211E22",
"N  c #1D2122",
"B  c #242323",
"V  c #2A2422",
"C  c #262925",
"Z  c #2A2A25",
"A  c #252529",
"S  c #292629",
"D  c #262A2D",
"F  c #2B2B2B",
"G  c #312E2C",
"H  c #362B23",
"J  c #2E302B",
"K  c #3C3224",
"L  c #32322E",
"P  c #3B322B",
"I  c #303026",
"U  c #2E2D31",
"Y  c #272A33",
"T  c #322D33",
"R  c #2C3335",
"E  c #333333",
"W  c #3A3533",
"Q  c #3A3936",
"!  c #353A3C",
"~  c #3B3B3B",
"^  c #353638",
"/  c #463419",
"(  c #433625",
")  c #42352B",
"_  c #433A2C",
"`  c #4A3B2C",
"'  c #473B22",
"]  c #543D24",
"[  c #443C34",
"{  c #423E3B",
"}  c #4A3E34",
"|  c #50401F",
" . c #4E4129",
".. c #55452A",
"X. c #4A4134",
"o. c #42413E",
"O. c #484438",
"+. c #564938",
"@. c #5C523E",
"#. c #634F38",
"$. c #63543B",
"%. c #6B5738",
"&. c #745D3A",
"*. c #674E2A",
"=. c #79613E",
"-. c #3B3D41",
";. c #413C42",
":. c #3E4346",
">. c #434343",
",. c #4A4A4A",
"<. c #494745",
"1. c #564C43",
"2. c #5B5246",
"3. c #5A5954",
"4. c #625443",
"5. c #6C5D4C",
"6. c #645A48",
"7. c #735F44",
"8. c #645B53",
"9. c #5C605F",
"0. c #75634B",
"q. c #7B6A4C",
"w. c #7B6546",
"e. c #6B6457",
"r. c #7C6C52",
"t. c #786857",
"y. c #7F715B",
"u. c #6D674F",
"i. c #5F5D62",
"p. c #6A6865",
"a. c #7D7466",
"s. c #7E7C74",
"d. c #766E68",
"f. c #80633B",
"g. c #856A49",
"h. c #916F4B",
"j. c #8C724C",
"k. c #8E794F",
"l. c #93754D",
"z. c #93794D",
"x. c #98794D",
"c. c #846D54",
"v. c #857354",
"b. c #8C7554",
"n. c #8D7955",
"m. c #84735B",
"M. c #8C755B",
"N. c #8D7A5C",
"B. c #847959",
"V. c #937553",
"C. c #937954",
"Z. c #9A7B54",
"A. c #91765A",
"S. c #937B5B",
"D. c #997C5B",
"F. c #987655",
"G. c #A07F5E",
"H. c #8E7B63",
"J. c #867866",
"K. c #937C64",
"L. c #9C825D",
"P. c #998358",
"I. c #A2845C",
"U. c #8E8067",
"Y. c #978369",
"T. c #888277",
"R. c #9A8B75",
"E. c #9D917B",
"W. c #A28564",
"Q. c #A58A64",
"!. c #A78C69",
"~. c #AC936A",
"^. c #A89478",
"/. c #B69A78",
"(. c #AF9371",
"). c #BDA27D",
"_. c #C4A67E",
"`. c #888685",
"'. c #948D86",
"]. c #979287",
"[. c #979A98",
"{. c #A89987",
"}. c #B49D84",
"|. c #BBA385",
" X c #B8A589",
".X c #BBA993",
"XX c #BAAC99",
"oX c #B1A998",
"OX c #B5ADA5",
"+X c #BDB3A3",
"@X c #AFAEAC",
"#X c #C2A682",
"$X c #C5AB86",
"%X c #CAAD84",
"&X c #C4AC8C",
"*X c #CBAD8B",
"=X c #C2A78A",
"-X c #CCB28C",
";X c #CBB088",
":X c #D3B48D",
">X c #D4B98E",
",X c #C4AD93",
"<X c #C3B294",
"1X c #CCB493",
"2X c #CDB994",
"3X c #C6B59C",
"4X c #CBB59B",
"5X c #C5BB9C",
"6X c #CDBA9B",
"7X c #C6B997",
"8X c #D2B593",
"9X c #D5BA94",
"0X c #D3BB9A",
"qX c #D7B998",
"wX c #D0AF8C",
"eX c #C8B7A3",
"rX c #D3BBA1",
"tX c #D4C09B",
"yX c #E1C19B",
"uX c #D0C2AB",
"iX c #C0BEC1",
"pX c #CCC9C6",
"aX c #D8D6CF",
"sX c #E2E0D9",
"dX c #FDF7EC",
"fX c #FFFDF4",
"gX c #FEFFFB",
"hX c #F5F8F5",
"jX c #EEEEEC",
"kX c #E3DFD3",
/* pixels */
"8 S o.S q C ^ w Y 3 m T 5 y - - d d * , C ; ; Z V $ = = s t r R r @ C W q k 0 f D C ~ 0 q V s 5 M S 4 s E A C w D L 0 e e E k   ",
"M U P t q J R R Y A Y W M x / } } a $ < L C k [ [ P a d V F ;.~ F U ^ Z E Q Z Z R N -.E T V s s G S S ~ T M A A ~ ^ A C q E e t ",
"w e 0 B L E k E U R B s } a.c.M.H.m.( l L G Z , O.a.e.4.2.O.P s U ! U L J C C o.:.Y ! ! T R F ~ ~ E -.F t F E D E { ^ ~ S t f L ",
"M F A Q o.Q E ,.-.B B k 1.K.J.M.b.M.q.( l <.I H e.J.K.m.Y.t.` & { ~ R F B Q E D N Y -.R N F A E U A U M A E k A W D t k W D F f ",
"w ^ F T Q Q o.L Q o.o.O.6.q.q.n.C.h.S.0._ K u X.u.] q.n.S.N.0.v ) d V W <.{ ^ W A ^ -.R R :.R E U U >.F S ~ U F ! E >.F Q E F Z ",
"M -.A M Z W ,.Q J Q z z +.b ..P.C.Z.j.H.0.K K K  .i / *.=.w.b...( } 1.) _ _ P { Q ~ D Y ! ,.! ! F ^ ,.U N >.,.^ Q >.{ F E ^ F k ",
"m ^ T ! E Q ~ o.J C q g +.> n q.b.F.S.n.N.r.$...&.w.j.g.*...f.j.c.K.M.m.t.#.v a H L Z C D C e Z U J ~ ~ ^ ~ >.Q Q >.F A F E >.F ",
"Y -.A S F ,.L Q f f Q g @.+.| n c.M.n.v.U.n.n.b.M.S.A.b.g.V.x.k.F.V.F.F.K.M.0.v j l 9 9 Q Q C G e F C e t f B C D E >.G E D C t ",
"C R W F J W s B f I { 9 t.a.) > x +.m.S.n.v.V.b.F.V.V.V.A.n.n.V.j.x.V.l.D.A.M.c.` a G = M Q t e C W 8 t Q Z t C M F >.D ,.S F 8 ",
"N -.>.-.,.S M E C Z s L a.e.> y % > ) 6.c.n.V.V.l.l.l.V.C.S.M.b.j.C.C.l.l.A.A.M.t.H P * U >.A 4 D ~ B Q >.o.B t F D <.F Q A Q t ",
"f Q G E ~ B S S B q t F e.{ d <   t O.j i #.b.D.l.x.z.x.C.b.c.q.=.=.C.C.v.S.K.K.m.l W s 2 A ^ -.k Q t q Z D q E F L ,.L F E Q C ",
"0 f q F F G E e C F B k G T s * ; t E l a q.M.h.l.x.z.C.C.v.c.7.%.] %.v.L.n.v.m.J.) l V e A m ~ D t Z D 9 q f B s B Z D A E 8 O ",
"C f N J A T { -.D Q f 0 A F * t 6 @ 0 l d t.N.K.l.z.l.z.b.j.w.7.- i #.%.g.b.P.m.m.4.% f [ W O s Z 9 f Q t Z B F W k Z ~ Q F 0 F ",
"6 C ~ R ^ T B S C C J C F q 8 A 6 m t V u 5.H.n.S.C.k.z.l.j.g.w./ i / ] &.=.j.z.N.0.x g c q V ^ G Z ; X 8 t k 3.p.t 0 B F B S A ",
"r D ~ C S M 4 0 B B k L f ; O q 7 m 0 j > h q.H.b.M.n.C.C.x.z.l.S.m.M.M.V.g.f.&.%.*.#.$.` x P d , f l @ @           t J T B F t ",
"F C U E A t w B q q   0 Q @ , t 8 0 , f 1 > 0.n.N.n.n.b.l.l.x.z.b.K.V.F.l.F.h.h.h.D.v.N.r.r.5.#.X.1.P o             . t C F E R ",
"0 * 6 t 0 t 8 s L 8 X t ,   q 0 * t 7 r f u g.C.C.S.b.n.V.Z.Z.I.P.C.V.j.F.l.F.l.D.b.A.M.M.S.v.b.N.H.5.%           X ; q 0 m m 4 ",
"0 8 8 t w 8 ; e D @ B t 0 B w 8 9 w 3 7 , g c.C.V.b.n.S.(.%X%X:X;X(.L.Z.z.F.h.I.F.F.D.F.F.C.Z.j.b.b.5.$         # 0 B ;     w m ",
"@ 0 8 O   @ 8 8 8 2 t @   @ 8 , . @ 7 r 9 b b.j.C.j.C.A.).9X:X>X-X9X*X#X/.~.).)././.!.Q.W.!.(.D.W.A.c.g .     X r N N @ * w w 4 ",
"O e e 0 8 @ r 8 8 8 0 8 O ; 8 @ @ 8 r w % H A.D.A.b.C.P.#X9X;X>X8X2X1XqX*X9X2X-X:X:X:X:X-X1X8X}.=XW.(.Y...O.X.X X @   + 8 B * 8 ",
"0 w 0 e 0   8 t O O 0 8 8 8 @ 0 0 8 7 0 % ` S.j.V.C.b.~.:X9X8X1X8XrXrXrX7X$X6X-X:X;X>X>X-X8X1X4XwXyX2X0X5XeX3.1 e 9 4 4 2 9 X 1 ",
"8 q 8 8 @ w t s 8 9 q t B A t 0 A f r 6 . ..S.S.F.C.A.).:X:X-X|.K.K.K.R.J.q.N. X9X-X:X:X9X8X=X*X:X:X%X-XtXXX_ 1 t 4 w 3 e 0 f : ",
"O t B B B Q F m B S 0 k ~ E B O D B m r & +.S.V.V.b.Q.*X:X:X2X}.eX{.OXOXu.aXuXR.<X-X:X>X9X$X^./.>X:X:X9X5XU.1 t Z B E A C f I : ",
"B B t D F >.^ W ^ F E S F D 8 Z ;.C ; , % $.S.V.C.A./.9X:X-X6X}.dXdXdXgXjXfXfXa..X0X:XwX#X/.|.-XwX>X:X8XXX6.1 Z F B S C B C I X ",
"C W @ t D ^ G w , 8 t O   B O r 8 N 8 q $ 7.S.V.A.Q.-X:X8X9X,X3XdXfXgXgXgXhXaXE E.eXqX}._.*X2X-X%X9X2X4X{.l k s e G Z Z , 8 6 O ",
"D B q U B 9 e 0 D t t , 9 D 0 S m O , o b b.F.l.j.).:X8X:X-X.XXXaXsXgXhXhXgX`.@ } {..X X2X1X-XtXtX-XrX.X1.= 9 V s V Z Z k t A t ",
"D C U B C t W O @ 8 t 8 t f 8 8 B 0 9 . $.S.V.l.D.#X:X:X:X8X X{.J.[.[.9.[.d.X * d H 4.Y.}.<XtX.X1X0X.Xt.d s t S 9 Z 0 B C m 3 m ",
"* t e E Z R F * 8 e t 8 N q e e t F q u m.A.F.Z.C.#X9X:X:X7X{.kXgXhXjX[.pX3.* < a k y % v ( +.U.E.^.5.d 5 5 m D e l q F 0 A r m ",
"O J 9 S 9 A E D t t f C E 8 8 0 8 B   ` K.F.C.l.S.;X%X:XqX1XE.fXhXgXdXdXfXE.& ) 2.P @ k K u & j c q % q B + f D t P Q V A F w 4 ",
"q D t D Q B D B 8 t B e e   8 t e .   6.M.D.l.l.N.-X:X:X:X1X{.pXsXgXOXe.{.K.{.eXeX`.9 k k 9 * q l , , t 0 0 N S t , B D B T C 8 ",
"8 F 0 8 m ~ D @   t F f e @ 0 t e o % ..b.F.l.C.C.$X9X9X8X|.O.k V ].t.7.=X|.!.K.E.T.C 7 w N t O w t q 6 X N 0 ; D C * t s B t B ",
"8 B F 0 m Q G M 2 t t 8 0 , q e 8 t % u M.C.V.V.L.$X9X;X9X^.%   $ ` {.1XqX/.W.] h X 0 m 7 m e N m m f B f f r 0 8 E E B A o k t ",
"8 C s w S M M M B t 8 , P 3.G d e s 9 > ( M.S.j.L.>X-X8X-Xv.. u m.4X8X8X8X8X0XR.u % 0 m N 3 2 t t m e 0 w 8 0 t w F Q r B @ Z 8 ",
"C Z B V M m M M e B k , L OXkX[.^ O >.8.i  .n.S.!.%X>X:X0X..i R.4XqX8X*X:XqX,X.XP 9 r r 7 7 e 9 t C t t t 0 w s 8 F E t F e 0 @ ",
"0 6 @ F T M E F B S t C 8 Z @XhX3.    _ 2. .M.b.I.9XqXwX&X] Y.rX4X8X8X:XqXqXrX.Xl 1 8 A N 2 t 4 0 t 0 w t 0 ; e @ B C e C 9 0 e ",
"; @ # A m 5 r t @ 0 f   2 t T p.; .     a X.v.n.~.:XwXqX}.b.4X1X1X8X*X9X8X=X X0.> 9 @ A m   A t w q O   t t @ 8   , m t w 0 e 0 ",
"@ 6 8 0 @ X ; C f f 7 + w 4 3 O     k , < c h w.!.qX8XqX8X*XqX1X2X1X2X1X1XqX}.x & k s 8 4 O t e 8 0 @   8 t @ @ X 8 t 0 # 8 8 8 ",
"r r 0 4 , 6 + k : + 6 + e M O O   ,.sX].  . K v %.}.wX1X1X-X9X8X2X&X|.*X1X4X<X` % , e 2 w e O * O w 8   ; e @ 8 6 t ; O O 8 @ 8 ",
"8 2 O @ t 8 + 6 + m 3 6 e w 4   A `.[.3.    = ) ( ` 4X8X-X>X-X7X}.6.h q.eXeXeX+.< o @ O w w @ w * 8 q @ 8 e 8 f O 0 @ ; 0 8 @ @ ",
"3 @ 8 q r : 6 6 N N f 0 * d < , #         T ,.. . &  X4X2X-X2XQ.b i $ K H.{.d.q 9 q 8 e w O e 8 8 @ 8 O 6 0 @ e w , O 8 O   e @ ",
"X X 0 f 8 8 t 8 t O 8 8 % o n u.9 O       @XjX;.    m.uX<X7XB.x u 1 & p 1 d < o * t t 8 N 6 0 O 0 ; 8 e B 8 8 6 0 8 e B + w t @ ",
", O 9 , % @ * 8 e * 1 % u ' r.U.2.& . . . @XpXA     X.+X+Xu.. X , k 8 . . s , @ ; O @ @ X X t , e 8 0 8 0 X O 8 @ 4 0 t 8 0 8 @ ",
"B l t ,   9 l d W d d c #.B.P.v.K.$.&   $ d.t     8.'.8.O.k X.  `.iXi.0 m s @ m 8 8 : r X + 6 6 0 8 8 O 8   2 t @ 8 * ; 0 r . O ",
", 8 , O.z j H u j v @.m.N.n.k.k.k.n.r.n . .   .   ].pXq   Q uXN @XsX@X,.# r 2 t @ ; @ f t r : 0 e t C B S e 8 9 ~ F S e C C 8 8 ",
"q Z k 2. ./ 4.7.m.J.M.N.n.C.C.z.z.C.v.H.7.v >     ` O.    s s.Z m m m M O 8 t N 8 ; * 0 e q 6 r t t B B f B e B F t t 6 M A e 9 ",
"; , : b r.H.N.v.b.n.A.A.A.V.l.h.l.l.D.b.H.m.c. .g i % $ . . . 1 e m B 4 # N 8 F F ; t 9 ; 6 8 t C B A t e C D Q Q A F B C t 0 @ ",
"0 , k @.U.k.j.P.C.l.j.F.F.F.F.F.F.V.l.V.b.S.n.H.M.r.0.$.$.6._ 9 5 d t B   8 B t C * B q @ * 8 B t 8 C t e t t t M t S s B @ 4 @ ",
"4 9 z y.P.P.I.P.Z.Z.V.V.V.S.l.F.F.F.F.C.C.b.A.M.S.K.n.S.N.m.y.u q V 8 t 2 t B @ t t G t w 8 8 E k O M 8 e 0 t , t D E C F 8 m C ",
"* d ` .X X;X;X;X_.).I.Z.C.j.l.l.F.F.V.V.V.g.z.C.V.F.M.b.M.H.r.j 9 s * X , e t 8 e A t X 0 ; 8 Z J 0 B t t e k B T C L t e B S f ",
"= d @..X6X0X1XtX_._.$X(.!.Q.~.Q.G.F.F.b.z.D.k.l.Z.V.F.D.M.M.m.b 9 m 6 2 t N s A B E C t t O t t t # O 8 A D 0 t M F F A B B 0 0 ",
"& u #.7X2X7X2X1X_.).).tX,X/.I./.#XG.F.g.k.k.C.z.F.x.F.V.W. XY.a k B w 9 t t 0 C 8 8 @ @ e t t B M 8 t 0 t B 0 t 8 t t E C S t t ",
"% b m.7X7X<X.X,XtX;X$X).K.(.$X9X8X_.I.x.C.j.C.l.x.h.V.D.|.rXc.i q k 0 m 0 8 ; e 0 8 2 @ 0 8 O A W B D t 8 . t 0 t E 0 t S A @ 8 ",
"u y.XXtX+X^...#. X1X,XY.,X4XqX8X:X:X_./.(.W.W.I.F.G.~./.:X*Xc.g 1 e t D t r e t * S C A 8   e C R t B f B   B e 9 B t e t Z D 8 ",
"2.+X.XR.@.c i & x y.Y.^.4XrXwXwXwX>X:XwX}.1X&X8X%X%X:X-XqX4X.XK 9 0 e q 8 @ t t 0 M C M   @ f @ t 8 X 0 Z O 9 D B Z D B E M t t ",
") oX) y c < %   . . v 3XrX6XwX8X:X:X8X1XR.4XrX,X9X:X>X9X2X3XXXH k A B 0 t @ q B 8 8 9 2 O Z M 0 q e t t R e f ^ ^ e D E D 8 t t ",
"d d.P y q Z s * l y u K.3X1X1X:X:X8X1X4XM.{.}.c.&.!.*X#X^.3XE.d * t 9 8 C @ O e e ^ 0 8 w @ @ 0 #   B O B e f B E 0 s t 8 6 t 9 ",
"1 8.1.p d ! M S J.p.j u 0. X7X9X9X-X<X^.v u ( 4.U.B.&.| q.{.} p V t B 9 t e r C 0 ^ E w r 0 @ T 4 T F C t 0 ; O e Z E 0 M C D 8 ",
"& 3.O.Z A T A w p.T.O.> % x q. X7XtXR.u a = } T.E.{. X{.{._ 1 1 8 0 8 @ S t 8 s C t 9 8 4 9 0 F 0 0 t t E N t e t B C e e t B B ",
"< O.e.Q d m M T k L l p P P H ( ^.3XJ.p H s d d y K 6.3Xd.o o C * e C 0 9 # w 0 O @ 0 8 @ e q M 8 0 8 8   0 @ , 0 A t C t E s e ",
"X c E.s.C O m T @ 0 t V T M O.j ` .X2.d k q 8 , H 1 u ].8.s 9 0 #   8 A F t D t t B e   2 0 0 t S M t T t C 6 e t @ 8 e Z 8 0 e ",
"o f z z G w m -.f 0 I t O e M d i oXe.< , 0 Z e * q d `.`.P Z 9 S S t 8 D Z E M B B B 8 t @ e C B B A B 8 @ t G t D B B N 8 @ O ",
"q : k f M 2 m A Q I q r e A m e u ].OXt.k 8 B 0 M t 4 { Q t 8 t 0 F E B B S F e e 0 C @ @   C D 9 C m t e C S t 8 9 t D F 8 @ ; ",
"8 8 Q I R Y N r f z z k 6 t 2 T = } 2.[ 0 q w m M 5 T e 4 , t L k @ w B 0 ; 8 t 8 8 e , w 8 0   t S 8 C t t C ^ t F r B 9 t 8 X ",
"2 w 0 O 4 4 m 3 : : ; 0 w + r k $ % % o : 0 w w m w s O 9 , ; , 8 0 8 @ @ t ; t 8 t @ O t w @ 8 ; t * 4 t   w 6   9 , e w w 0 @ "
};
