/* XPM */
static char *b7054968bf654e0bbd5de61b47d04e90NDtia9B9gOjTIB4K[] = {
/* columns rows colors chars-per-pixel */
"64 64 244 2 ",
"   c #030403",
".  c #0C0403",
"X  c #040B02",
"o  c #0C0C05",
"O  c #0B060C",
"+  c #040B0A",
"@  c #0C0C0C",
"#  c #05050A",
"$  c #1C0301",
"%  c #140B03",
"&  c #1A0D02",
"*  c #130D0C",
"=  c #1A0D0D",
"-  c #120305",
";  c #0C120C",
":  c #081406",
">  c #13130D",
",  c #1A130C",
"<  c #181809",
"1  c #0C0C13",
"2  c #070C16",
"3  c #130D13",
"4  c #1A0D14",
"5  c #190D1A",
"6  c #0D1313",
"7  c #0A1619",
"8  c #141414",
"9  c #1B1414",
"0  c #141A14",
"q  c #1B1B15",
"w  c #15141A",
"e  c #1B151A",
"r  c #151B1B",
"t  c #1C1C1B",
"y  c #2B0200",
"u  c #2A0C02",
"i  c #250A05",
"p  c #340200",
"a  c #3B0200",
"s  c #330B01",
"d  c #3C0B00",
"f  c #2D1302",
"g  c #2D140C",
"h  c #251706",
"j  c #381606",
"k  c #221C15",
"l  c #2C1B13",
"z  c #221C1C",
"x  c #291C1B",
"c  c #231518",
"v  c #351B15",
"b  c #210E14",
"n  c #1C221C",
"m  c #18241B",
"M  c #13200E",
"N  c #27240E",
"B  c #3B2506",
"V  c #23231D",
"C  c #2A231D",
"Z  c #28281A",
"A  c #37241A",
"S  c #141B22",
"D  c #1C1C22",
"F  c #191824",
"G  c #0E1B24",
"H  c #231D23",
"J  c #251B27",
"K  c #371A25",
"L  c #1D2223",
"P  c #1C2728",
"I  c #182732",
"U  c #242424",
"Y  c #2B2423",
"T  c #242B24",
"R  c #2A2A25",
"E  c #24242A",
"W  c #2B262A",
"Q  c #242A2B",
"!  c #2B2B2C",
"~  c #322C2C",
"^  c #342725",
"/  c #2C322C",
"(  c #28322B",
")  c #33332C",
"_  c #353229",
"`  c #2D2C32",
"'  c #292A35",
"]  c #322D32",
"[  c #352D37",
"{  c #2A3435",
"}  c #333333",
"|  c #353339",
" . c #39353B",
".. c #353B3B",
"X. c #3B3B3B",
"o. c #393834",
"O. c #430200",
"+. c #4C0300",
"@. c #440B00",
"#. c #4A0B00",
"$. c #4A0F09",
"%. c #520100",
"&. c #5B0100",
"*. c #560C00",
"=. c #441401",
"-. c #461505",
";. c #591700",
":. c #431D13",
">. c #410C12",
",. c #650100",
"<. c #661603",
"1. c #790400",
"2. c #442306",
"3. c #472517",
"4. c #572810",
"5. c #433B3A",
"6. c #4D2B26",
"7. c #723327",
"8. c #39413D",
"9. c #44433B",
"0. c #7A483B",
"q. c #7B4628",
"w. c #3A3B44",
"e. c #342F43",
"r. c #433D45",
"t. c #3B4041",
"y. c #434242",
"u. c #494849",
"i. c #534E51",
"p. c #734C45",
"a. c #973918",
"s. c #93370C",
"d. c #BA2D00",
"f. c #BA2D07",
"g. c #AD3B01",
"h. c #A83607",
"j. c #B33501",
"k. c #BC3301",
"l. c #B43C01",
"z. c #B93805",
"x. c #A73916",
"c. c #B63812",
"v. c #B62F0C",
"b. c #883D27",
"n. c #933C28",
"m. c #A93A22",
"M. c #C42C01",
"N. c #C92B03",
"B. c #C23301",
"V. c #C53703",
"C. c #CF3006",
"Z. c #8A4518",
"A. c #984414",
"S. c #91450B",
"D. c #BA4100",
"F. c #AA440C",
"G. c #894528",
"H. c #964527",
"J. c #874738",
"K. c #964633",
"L. c #A44124",
"P. c #F57A1C",
"I. c #EE7E14",
"U. c #DA7D38",
"Y. c #ED7B2A",
"T. c #F97A2A",
"R. c #EB7939",
"E. c #F97A39",
"W. c #FE6D34",
"Q. c #814D40",
"!. c #D57E4F",
"~. c #E97D48",
"^. c #F87947",
"/. c #E87E57",
"(. c #E46E4A",
"). c #DA891D",
"_. c #E9851D",
"`. c #F2861A",
"'. c #D88927",
"]. c #DB8A37",
"[. c #D3912F",
"{. c #EB8225",
"}. c #E78728",
"|. c #F78429",
" X c #E79128",
".X c #E68736",
"XX c #F88336",
"oX c #EF9533",
"OX c #BB8D55",
"+X c #BA8E69",
"@X c #D88748",
"#X c #C98756",
"$X c #D78956",
"%X c #CD8E4B",
"&X c #E68445",
"*X c #F08352",
"=X c #FFBD5B",
"-X c #FFBD4C",
";X c #D58965",
":X c #C8906A",
">X c #FFBB75",
",X c #FFBC69",
"<X c #FFC35C",
"1X c #FFCC5C",
"2X c #FFC854",
"3X c #FFD358",
"4X c #FFC562",
"5X c #FFCB63",
"6X c #FECB6C",
"7X c #FEC66C",
"8X c #FED366",
"9X c #FFC373",
"0X c #FFCC72",
"qX c #FDC77A",
"wX c #F9D478",
"eX c #FFB999",
"rX c #EDCD87",
"tX c #FFCB83",
"yX c #FCC988",
"uX c #EAD38B",
"iX c #F9D386",
"pX c #E9CD99",
"aX c #F9CB96",
"sX c #E8D69A",
"dX c #F5D594",
"fX c #DCD1AE",
"gX c #E7D4A9",
"hX c #EAD4AF",
"jX c #FFFAA7",
"kX c #FFFCB4",
"lX c #FFF8BA",
"zX c #FFF69F",
"xX c #FFFCC5",
"cX c #FFFDCB",
"vX c #FFF4C9",
"bX c #FFFDD3",
"nX c #FFFDDC",
"mX c #FFF5D7",
"MX c #FFEDC7",
"NX c #FFFDE4",
"BX c #FEFDEB",
"VX c #FFF7E9",
"CX c #FFFDF3",
"ZX c #FBFAF9",
/* pixels */
"8 ! y.! t Q } 8 ` # D ! 8 8 # > 9 9 S 2 ' 7 + ! U > * o V L 0 { L 2 Q ! V x q L R R X.e D U L w D W 1 t ] U U q ! } 8 8 t ` U # ",
"t ! } t q ) } ! U R ! o.U U 8   q ; # S e.S T 8.y.! ^ ^ ! ! t.t.( L / o._ 9.U ` R U w.} ` Q t D / R ! X./ U ! U X.} ! U q o.q n ",
"8 q 8 U } } t } } o.D U q @ * 8 % > U Q o.o.Q 0 ) ! H } 5.` ..r / o./ ~ W Q E 8.w.!  .o.` ` ! X. .} o.! t ! } ! } X. .X.U t D ` ",
"D ! U X.t. .} i.X.U U U ` q 8 n > 9 X.W W X.~ R / o.U w.i.X...< o.9.R ] [ ' ! / Q ] X.[ E ! T / / U ) L D } U U } ! q L  .W ! V ",
"8 o.! ` X.o.t.} o.X.X.t.o.! t q r ; / ) o.~ U u.9.9.} y.r.w.9._ _ C ^ ] i.r.r. .W |  ._ ) y.} / ! ) y.! T X.! /  .} y.! X.} ! ! ",
"U X.U U Q o.u.o.o.y.! o.D U r @ + 0 R ) r.! ~ 5.R ) Q ` | [ _ 9.5.k 5.! [ w.[  . .X.~ ^ o.u.o...! } u.` U y.u.o.X.9.w.! } o.` n ",
"t o.} o.} o.X.y.Q U 8 U U } t # ; z ~ 9 ~ ! u.5.o.9...' [ ' 0 V i.5.i.{ { ..! R Q ..R m R R S W } ` X.X.o.w.y.X.X.y./ R ! } y.! ",
"!  .U Q ! u.} X.H Q X.t U ! w q @ # ~ x ~ D W ! Z L Q Q F ' Q m ^ ^ ( L m T C x C Z M < o.o.E [ w ! U q t t U U ! } y.! } ! U t ",
"Q } } ! ` o.t U q o.X.8 ) } 8 @ t 8  .J i. .| } H t { ..V t T } z H w.{ m _ :.3.3.A ^ ; L o.F F W ! 8 U ! } q W n Q u.} X.Q ] 8 ",
"U X.y.X.u.R U } ] D U ! } ! 8 t @ e 5.x ~ E ` D ] 8 U / R q q T H L ' P ; N ;.G.Q.3.^ q [ r.` 1 ` u.n X.i. .U U U ! u.U o.! o.q ",
"t X.} } X.U U ! q e U t U } w 3   3 6.4.6.> L P ] Y R q t U ) 9. .Q S E / A b.!.7.j A V 5 F } X.U } t t T Q U Q ] ! u./ X.] } Q ",
"8 U q ! ! ` } r Q ! T D ! X.8 0 w ^ n.H.=.j Q P ! z z ! | ` R Y n Q S E U u $XyX4.A ^ Q I J H X.R L ! U 3 n t U t ! ~ ! U Q e @ ",
"R U U ! U } X.X.} ! t t ! ! 6 q ; $ F.~.S.4./ ( Q V t ~ J J F n > / W ~ q f iX%XB < : G w.w.q q z t L } n ! ] o.! z z y.X.! q Q ",
"8 U X.` o.! U W U ! ~ Q U q q t q f x.XX.Xq.h ; m Q E K K 6.K c Z U x A < 2.wX4.N T ( P I w V ) o.U @ # H t.U U U ! Q Q ! U R t ",
"q ! X.U ! V 8 8 H U U } ! # 1 r 2 g *.&X,X%X-.i @ q t l :.#.#.3.5.x g :.s -.%X<.f 3 r t W z U n 8 U ! @ q } t ! ` y.Q ! ! U ` U ",
"Q R ! } U t 8 U 8 D   8 o.8 1 t w g p A.9XtX#X#.y :.j =.G.H.J.0.i i d G.$X$X/.x.@.j b h v x 9 ; 8 t t t ! 8 z @ 9 Q # U U ! } ! ",
"e ; ; t 9 q = H { w O H 6 + 0 9 * g O.*.@XyXh.v.c.~.~.&X~.n.i % 0.O.h.R.V.N.M.^.m.<.b.J.s v . r r 6 @ U U @ = = q 2 7 G w H F * ",
"8 8 8 q , 9 3 q Q 1 H z 8 m 8 < f d G.Z.+.s.V.^.B.V.P.B.j.&.y =.+.s.XXXXN.N.C.M.C.m.%.a 0.y = c D L Q 0 n o , . 8 Q I 7 #   8 8 ",
"@ 9 8 @   @ 8 8 8 * k %   o ; & y $X@X#XG.O.&.j.|.I.`.|.E.h.x.,.z.^.E.k.E.T.T.B.f.c.a s j p.i - 3 w + + % . V ; e z n o = * > M ",
"@ e e 9 6 + 0 8 3 9 9 , % % 7 & Z.@X%Xd d a x.^.`.P.P.|.Y.E.k.k.T.l.D.Y.Y.|.Y.T.T.^.b.a p y 0.y x 1 # ; , , m # = - % o 4 R < : ",
"e e 8 t 0 + ; t % - 9 8 4 9 ; u Z.@Xd d O.L.^.B.d.V.B.E.>X'.g.T.T.{.Y..X}._.|.z.z.T.z.m.+.O.n.a & > X , e * r z >.a % o w F 8 @ ",
"3 e w 6 1 7 t n = q r S J J D f ;.H.-.p L.v.M.N.M.d.k.j.].4X X=X4X'.'.5X1X).|.I.`.z.W.z.K.+.n.*.A m o k - c o u J.J.l ; w w t 8 ",
"@ t U L P w.` z V Z 7 I w.e.H $ 4.J.a +.h.C.C.C.T.|.}.}.oX}.5X1X3X).3X3X3X3X).}.I.|.XXz.n.O.$XZ.l L U ^ 6.6.j :X!.K.A N Y x ! : ",
"U U t Q ` y.o.) 8.P { I e.[ 4 3.7.<.G.&XR.W.M.T._.2X<X5X'.7X8X3X8X8X8X3X3X3X1X'.4X}.XXR./.&.@X@.u 9 q - j q.iXqX;X;.A U ^ C _ : ",
"R } ; t Q  .] 8 : : m : X A % d m.j.R.'.)._.}._.1X3XwXwXrXwXwXwXwXzXkXuXwX0X<X[.[.3X[.Y.E.j.$Xa @.-.~ c 2.:XtX%XG.4.C / 8 4 8 # ",
"U U q ` H e t 8 ( < h f f j d a.v.W._._.3X1X[.6X8XwXkXsXxXxXjXuXuXsXpXcXxXiXiX1X8X5X<X}.k.V.].<.A.H.a $ u +XZ.-.j A R ! z e ` F ",
"T T ` U W H o.@ o i d Z.$X$X&.x.j.T._.2X1X6XyXuXkXpXNXVXNXbXuXuXnXNXfXsXgXMXaXiX7X8X1X_.XXz.Y.j.Y.U.A.;X+XB f f & Y q R U z 3 S ",
": n e } W ~ ` * * g H.@X>X>Xh.f.E.D._.2X0XiXxXbXsXbXZXZXBXhXsXcXNXNXxXxXnXNXNXvXiX0X'.}.{.j.|.T.|.XX~.%.s & q ! n T 0 / 9 Q e F ",
"X ( r W 8 U } Q x j b.*XR.>XB.B.W.z.oX=X0XlXnXfXgXbXCXCXmXgXnXNXcXaXiXlXnXCXCXBXbXdX[.<X}.{.P.E.1.x.&.H.v   H Q r ( t.` W W 8 > ",
"0 ! q ! X.U ! U 4 g $.*.h.h.V.T.B.j.}.6X0XkXnXNXfXnXBXBXnXgXNXvXiXwX0XiXbXCXBXBXNXcX0X).1X_.|.j.a.%.+.q.h t D ' r ; P Q E ] R > ",
"5 ] 8 > m ..P 2 . H ^ f :X+..X|.l.l.R.,X6XwXcXNXnXBXBXBXmXbXdX0X7X'.'.9XmXBXfXbXnXxX0X X1X4X_..XG.d j p.& t e e / T 8 q D U V N ",
"4 Y R 0 m ..( L 1 q L % +X$.'.{.{.,XD.].8X8XuXbXnXfXBXNXfXvXtX7X].'.].@XaXcXcXsXgXlX6X).'.4X}..X-.v g K c J z 4 > ) } T U # n q ",
"9 Y H w T L m q P 0 w v +X#.F.}.4X'..X}.).[.7XwXfXBXBXmXMX@Xh.~.*.Z.A.!.9XtXlXuXwXwX'.{.}.=XXXh.@.j f f 4 3 e D q A X.0 L 2 R > ",
"W ~ E J Q q V n r L z i 0.;.<.&X.X=X.X5X2X2X[.wXcXBXNXhXaX@Xz.x.@.y &.F.].6XaXcXiX0X[.).4X{.k.z.H.*.#.p.v 4 w D @ R } r / 0 8 3 ",
"8 > 1 ' ` z ) ! U ` c g J.*.@.H.^.l.4X8X8X3XwXuXbXNXnXpXjX@Xj.c.j 3.&.s.].0XmXBXbXsXkX0X7XY.T.V.B.c.&.a p.= e q ; U V , ! t 8 e ",
"; @ O E t 6 q q 1 D x i p.a -.+.x.l.6X<XwXuXlXsXfXnXNXnXxX%XR.h.#.a a.&X[.iXVXZXBXnXlXyX].Y.T.k.M.W.a.H.-.g % ;   @ V Y 1 8 H * ",
"@ 6 3 e 3 @ @ T q n * $ u y a #.O.Z.g.qXvXnXbXnXfXNXCXBXnXaX&Xl.g.&X&X].wXlXNXCXZXBXcXiX].{.{.`.T.E.&XS.d B   6 2 @ 9 b * * 8 w ",
"q r 8 > 3 3 # L ; # O 9 N f :XOXd +.j.*XmXVXfXNXNXBXCXZXBXvXeX}.g.R.9XyXdXcXNXCXZXBXbXrX7XoX-X_.{.{.].].OXf h & % h , . * 8 ; 2 ",
"6 @ o % e 5 ; 6 : q 3 3 : < +X#X#X&.l.~.mXmXhXNXVXZXCXhXVXbXiXwX].yXbXmXxXxXNXZXZXBXxXiX5X1X5X).`.g.@Xa d OXiXaX:Xj . e 9 + 0 + ",
"@ 6 > q z @ 7 6 t t z 9 ; N u #X$X!.x.x./.MXlXaXVXZXVXVXhXvXxXuXrXcXBXBXpXgXNXZXZXBXrX6X8X1X4X|.T.l.#Xa u s #X#Xq.y 4 1 @   0 : ",
"+ + 8 q H 5 w 6 q @ 9 4 * * . i G.G.y a x.c.h.yXpXcXnXbXsXsXxXcXlXgXnXgXsXdXvXhXCXNX%X1X<X_.`.T.d.c.b.j v h & i < & e J 2 w r + ",
"7   r w   1 w 8 9 O 4 4 4 1 3 4 a @.p p c.M.l.9XtXuXxXgXiXjXcXgXgXxXnXbXjXiXtXaXmXvX@X}._.I.l.j.*Xa.@.i e # @ 6 1 8 e z w S > o ",
"T L n 8 O w V t } V t H [ Q Q h B =.%XR.^.B.g.9XjXwXkXiX'.0XlXxXxXcXnXcXwX8X6X].%X>XR.l.T.|.XX@XH.a y % *   6 m 1 3 = * 9 q X o ",
"; 0 t o.H U o.0 U q w D E t z < f :X.XT.f.v.R.9X0X[.6X6X). X].#XiXaXlXdX6X'.<X'.'.0X*Xj.d.R.@X@.s g ^ x U m 8 9 X.~ W k C Z & , ",
"9 ! t D t 3 t R R ( 7 L r ; h h A OXR.d.1.x.^.h.{.}.6X5X8X3X5X'.5X[.qX,XY.XX=X4X5X[.a %.V.v.s l k Y V k n E 9 H ] t F w z C q < ",
"> * e L H Q Z R m L + 7 7 q N f B p j.^.,.a.~.V.z.Y..X5X5X2X).).).=XXX^.N.M.l.'.%Xs d K.x.m.u r L t V C 9 U ^ 5.[ Q ` L R t < o ",
"> > J D Q T < q @ r 7 q e e S z =.*.j.~.#.;.F.R.N.C.d.z..X[.).}.5X|.d.N.C.N.|.].;.s ;.n.K.p 9 E L w U V w L L t V k R t I 2 3 3 ",
"> 8 W E 8 ; z k w D 8 9 l g 9 h G.$X/.n.q.#.<.h.c.f.N.B.,X5X4X=XY.z.v.N.N.v.XX].q.=.<.b.O.u & ) q @ t 8 e r r ; k C ) U { 7 D W ",
"X n R k R x r D S w V h h 2.OXiXtX;Xd a J.K.G.@.a G./.g.XX{.{.|.B.N.c.n.O.&.XXE.$XG.J.y $X$Xf B _ 0 t q t U e J _ Y ( M r P R z ",
"0 9 U , x t D 7 S S k i u #XtXqXZ.-.N A $.O.y g h f ;.!..XS.F.R.C.N.%.O.=.:Xx.x.*.4.A d #.Z.yXgXu % > 6 Q Q e H z ~ ( T m T 9 9 ",
"1 F U t P P E U { E l j b.eX*Xs.j < e 4 c K = x = A ;.;X=.j #.H.(.1.&.%.K.b.J.>.u l % - v a @X>X;Xp g k 7 Q e J e c q / Q Q H H ",
"1  .H R ( P w U D 8 9 y J.n.n.O.l T > q H J 8 O t i %.#Xj k s @.K.K.7.0.O.a i b H O e 3 w i Z.@XeXJ.2.< + + F e H [ 9 n Q J 1 5 ",
"6 ! ; m U T ; m Q 0 k x v v j i 9 8 % &   8 + n q s x./.v r , l g i l ^ g b e U o Z m R 2 2 g 2.J.K.d k T X P D c H q 0 r Q W 5 ",
"; L m ! ! / m 0 ; > * * @ @ W H 1 @ < N q ! n L / -.x.m.v S L t 8 H > q 3 3 e r 0 m Z V 2 # L - @.s $ k T : 7 T Y ! R U } L F J ",
"r D U E t e #   q * = = 0 U @ z P 6 : ) 9 3 ' F m < J.s t 7 2 5 J R n 8 x 5 e U ; > t @ @ ~ Y 3 g g l < T 0 m o.o.q ! } Q 8 e H ",
"9 H 4 e t ` 8 T o.k , V H t D w 6 m 0 ! t   2 S 2 V h g ! D # F 5 F q < Y . * 0 t } F 5 4 O 1 t # O t @ T 0 V n ) 0 t q 8 ; q q ",
"b ^ ~ H S ..r } U V 0 8 e 8 @ + q 9 t 8 0 + t D e 8 - % n n t H J D n M q M < T q }  .e e 7 + ( 7 { { E t 9 * . 0 Q / 0 L Z R 8 ",
"b = W Q L w.J w 8 V ; > , 9 r 7 , 4 e 0 n ; r e z 3 9 z q 0 q > 5 w ; : Z M ; V V t b 5 6 0 0 ( 7 7 r L ] z z e e U U r r t V V ",
"> < m ; 6 S E ] U W c z Q ! w.P F ' Q U / m 0 8 t e t J Q 6 X Z 3 k V 0 6 2 q w @ @ 0 6 @ q 8 U 6 0 8 1 # w 3 5 e E t T q } V e ",
"X ( L n Q @ w } * O W ] } P ..P # w e w L r q < H U U q w n 0 > -   > T ' F ` D z L r   > < 8 t Z V t } F W 5 F H 3 6 w ( 8 e e ",
"+ r U ` | w Q ..L e H 0 ; ; n T O 1 8 0 r L A c e e 0 : t r.! 8 Y Y F S Q Q } H Y D U 6 t @ e Y V C Y U 8 1 F [ D W E U L 8 1 O ",
"P 2 ' H t 8 0 Q } o.U q 0 T @ q e D R Z 0 w x 9 H F m X q z 3 D 0 ! [ E U Q ~ q t q U > @   Q ! c C x t q ! W D 8 w t ! ` 6 1 * ",
"w 5 [ ~ _ C z n t / D D 4 J 9 [ 9 U U V 5 4 F D I F ( < % , J ' L : w E 0 > , 9 > 8 q 3 9 3 8   S ' 8 U n < Z } r ! r U 9 t 8 X ",
"4 4 8 % > % k o @ + 1 F 4 3 c H . o X . 4 5 S 7 I 2 M X h * 1 D 6 0 3 1 @ t % k > q + @ z e @ 6 7 S 6 > q X : : X 0 3 t 9 8 > @ "
};
