/* XPM */
static char *_3ef724618e64061c8d8b13a992dfe91C7NoALqQyDHB4QjG[] = {
/* columns rows colors chars-per-pixel */
"64 64 248 2 ",
"   c #030402",
".  c #0B0302",
"X  c #040B05",
"o  c #0B0B04",
"O  c #030509",
"+  c #0C060B",
"@  c #040C0B",
"#  c #0C0C0B",
"$  c #140401",
"%  c #1B0401",
"&  c #130B03",
"*  c #1B0C01",
"=  c #15060C",
"-  c #120C0B",
";  c #1B0C0C",
":  c #1B040A",
">  c #0D1204",
",  c #0C130C",
"<  c #07120C",
"1  c #131403",
"2  c #1B1302",
"3  c #13130D",
"4  c #1A140C",
"5  c #1C1A0D",
"6  c #191A08",
"7  c #040B12",
"8  c #0B0C12",
"9  c #0B0A16",
"0  c #130D13",
"q  c #1B0E13",
"w  c #160C18",
"e  c #0C1313",
"r  c #0D1914",
"t  c #0D141B",
"y  c #091515",
"u  c #141413",
"i  c #1B1414",
"p  c #151A14",
"a  c #1B1B15",
"s  c #14141B",
"d  c #1A151B",
"f  c #151A1B",
"g  c #1B1C1B",
"h  c #240300",
"j  c #2C0200",
"k  c #240C02",
"l  c #2C0C02",
"z  c #2A0C0B",
"x  c #330400",
"c  c #3C0300",
"v  c #330C00",
"b  c #3C0B00",
"n  c #350E09",
"m  c #231301",
"M  c #2B1302",
"N  c #2B1A01",
"B  c #23130C",
"V  c #2B140C",
"C  c #251A09",
"Z  c #341301",
"A  c #3C1301",
"S  c #341B01",
"D  c #36190A",
"F  c #280D11",
"G  c #221414",
"H  c #231B15",
"J  c #2B1A12",
"K  c #22151A",
"L  c #231C1C",
"P  c #2B1818",
"I  c #361A15",
"U  c #3F0C15",
"Y  c #1B2214",
"T  c #1D221C",
"R  c #162319",
"E  c #1F210B",
"W  c #2D230A",
"Q  c #352408",
"!  c #22221D",
"~  c #2B231D",
"^  c #27271A",
"/  c #372518",
"(  c #333113",
")  c #151C23",
"_  c #1C1C22",
"`  c #191523",
"'  c #0D1621",
"]  c #221D23",
"[  c #281B27",
"{  c #331E24",
"}  c #1C2223",
"|  c #1C2924",
" . c #1D232A",
".. c #1A2727",
"X. c #1D2430",
"o. c #242424",
"O. c #2B2424",
"+. c #232A24",
"@. c #2B2B25",
"#. c #23242A",
"$. c #2B252B",
"%. c #252B2B",
"&. c #2B2B2C",
"*. c #322424",
"=. c #332B25",
"-. c #322D2C",
";. c #392A28",
":. c #2C312B",
">. c #293329",
",. c #33322D",
"<. c #3A342D",
"1. c #343629",
"2. c #2C2C32",
"3. c #262833",
"4. c #322C33",
"5. c #392E35",
"6. c #2D3333",
"7. c #2D3637",
"8. c #333333",
"9. c #3B3433",
"0. c #343A34",
"q. c #3A3A34",
"w. c #34343B",
"e. c #3B353A",
"r. c #3B3B3C",
"t. c #35393C",
"y. c #430401",
"u. c #430D00",
"i. c #4B0801",
"p. c #540200",
"a. c #530B01",
"s. c #590900",
"d. c #421401",
"f. c #481805",
"g. c #591700",
"h. c #45141A",
"j. c #630500",
"k. c #6E1501",
"l. c #462805",
"z. c #452717",
"x. c #4F2E11",
"c. c #462826",
"v. c #433939",
"b. c #45342B",
"n. c #612900",
"m. c #3A413D",
"M. c #7B511D",
"N. c #45433C",
"B. c #7B4928",
"V. c #6B4A3C",
"C. c #794A33",
"Z. c #765238",
"A. c #795227",
"S. c #3B3B43",
"D. c #373B43",
"F. c #443D43",
"G. c #3E4444",
"H. c #434342",
"J. c #474848",
"K. c #534947",
"L. c #515154",
"P. c #6D4C47",
"I. c #9A3C06",
"U. c #983B19",
"Y. c #8A3B16",
"T. c #A93904",
"R. c #B53603",
"E. c #B2370D",
"W. c #903C26",
"Q. c #A93724",
"!. c #C13608",
"~. c #8A450A",
"^. c #974703",
"/. c #8A4816",
"(. c #964417",
"). c #8A501C",
"_. c #A64504",
"`. c #A34418",
"'. c #B64200",
"]. c #864828",
"[. c #984327",
"{. c #8C4934",
"}. c #A6432E",
"|. c #DA7E3D",
" X c #F27A33",
".X c #D57C14",
"XX c #803E40",
"oX c #844B44",
"OX c #D67D4A",
"+X c #EF7A47",
"@X c #CE7E63",
"#X c #CB882D",
"$X c #DB8827",
"%X c #CA893A",
"&X c #DB8737",
"*X c #D29132",
"=X c #E7862A",
"-X c #F4832B",
";X c #E5853A",
":X c #FB8136",
">X c #E2871D",
",X c #BC8C5B",
"<X c #B79259",
"1X c #BB8F48",
"2X c #B98D6A",
"3X c #BB9265",
"4X c #BB9679",
"5X c #A99171",
"6X c #B9A17F",
"7X c #C68948",
"8X c #D98549",
"9X c #C8944A",
"0X c #D59346",
"qX c #C98A56",
"wX c #D68A53",
"eX c #C89359",
"rX c #E38447",
"tX c #E98D4B",
"yX c #C68D62",
"uX c #CA906C",
"iX c #FFBB69",
"pX c #FFBC77",
"aX c #FEC75B",
"sX c #FFC363",
"dX c #FFCC64",
"fX c #FFC36C",
"gX c #FFCA6B",
"hX c #F2CB6E",
"jX c #FFD265",
"kX c #FFD46C",
"lX c #FFC474",
"zX c #FFCB74",
"xX c #FFCC7C",
"cX c #F8C679",
"vX c #FED273",
"bX c #FBD37B",
"nX c #FFBC8A",
"mX c #FEC584",
"MX c #FECA8B",
"NX c #FBCB87",
"BX c #F9D487",
"VX c #EACA9B",
"CX c #F7CA98",
"ZX c #EAD49A",
"AX c #FAD496",
"SX c #EDCD8E",
"DX c #F4D2A3",
"FX c #ECCFA9",
/* pixels */
"1 @.N.#.` 3.w.s 6.  Y +.> , X , 4 p p e 3.' 7 6.} > > > ^ ! 3 :.} 0 &.-.L L )  .3.$.r.r ) 3.L ; L @.8 g 6.o.o.i $.8.p a f 8.o.O ",
"L :.8._ _ 2.5.2.+.| | 0.+.+.p X a , O f 7.) #.S.H.@.@.@.O.$.F.F.2.o.:.<.9.N.o.&.2.&.m.>.%.2.L L ,.$.@.r.-.o.@.%.r.8.$.o.d 8.f L ",
"s d d O.,.8.! 7.7.6.} #.` = - s 8 9 [ *.9.b.O.a 1.>.Y 1.S.4.S._ w.r.,.@.! >.^ m.D.%.0.0.>.| <.9.t.8.r.&.g &.w.@.8.r.t.r.o._ g ,.",
"] 2.O.e.N.q.1.K.r.%.#.#.2.d q [ s ` F.O.*.v.=.=.,.t.#.S.L.S.D.' w.S.@.=.<.@.^ >.%.3.r.8.R +.@.e.-.o.2.o.} 8.o.o.8.&.g ! 0.@.&.L ",
"' w.@.8.q.e.v.<.e.e.F.F.e.4.L G K - -.8.8.4.O.K.F.F.w.F.H.D.S.7.7.+.~ 5.K.N.N.9.#.J.2.8.1.N.,.8.-.8.J.@.%.r.6.-.9.8.J.&.r.8.&.&.",
" .D. .o.@.<.K.9.9.F.&.q.] o.g + - u &.8.G.%.2.m.4.5.$.2.6.7.t.G.t.T 9.$.5.v.8.q.r.e.c.;.<.H.q.8.&.8.J.&.o.H.J.9.r.H.r.&.8.w.2.! ",
") t.6.e.,.q.r.N.&.#.s  ...6.f X e } &.p &.>.H.G.t.G.w.2.2.&.f ! L.m.L.e.e.v.%.O./ c.P.U =.1.r >.&.&.r.r.8.r.H.t.t.H.2.o.&.w.N.&.",
"&.t.o.@.-.J.8.t.} %.t.T ^ ( 2 6 o # :.T &.a +.%.o.| +.%.d @.=.g O.6.2._ ] %.| Y D uXXXU 1.m.| 2.f -.o.g g L o.o.@.8.H.&.0.@.o.g ",
"O.,.1.@.:.0.}  .` 5.v.M x.M.cXSXN 6 b.^ K.1.m.>.| R 6.0.! g @.9.f } w.S.d q.+.( x.CXz.; Y 1.o.` $.&.u o.&.8.g +.o.%.J.8.r.2.2.u ",
"~ v.N.N.J.+. .t.2.$.*.I x.qX9XNXVXm b.C <.+.#. .| r T >.@.4 H $.%._ w._ w i @.Q BXDX=.g >.q.4.w 4.J.} e.L.9.o.} o.$.J.+.9.@.8.g ",
"L e.-.,.q.| | X.) ' #.L I z.A A.3XAXx.z.<.d ` 3.7.%.@.p Y ! 8.F.5.4.d #.w.3.b.5XQ 2 1.p o O.e.S.] 8.g g +.%.O.&.8.2.J.4.q.4.8.@.",
"d o.g &.&.:.7.f 3.7.[ ` b.v.F l l yX6X/ P $.$.[ &.g a +.q.,.@.$.*.L J ~ { F u.Z./ +.+.@.[ ] d S.%.o.%.O.u L _ o.g @.-.%.o.&.f # ",
"+.o.} &.O.w.S.r.8.+.g _ [ 4.w [ k k v V.c./ <.-.&.T o.&._ _ ] o.# <./ D f.a.k.g./ T O [ w.F.u g o.g o.8.o.&.&.9.&._ _ F.r.&.d @.",
"3 +.S.4.w.2.] $.o.@.,.! #._ ` [ G B J c.V./ ; & T o._ %.] 8.&.s ! / d.].(.U.[.W.b *.5.3.O.3 L 8.8.o.# O g H.o.o.o.&.+.&.@.%.o._ ",
"f @.t.O.$.o.3 i T :.T 0.&.  O d + ! g u i o.L a & H L &.! g o.&.8.M (.;X;XrXrX8X[.c P d ^ Y +.} u o.@.+ f ,.g $.,.H.@.&.@.O.:.o.",
"&.+.&.8.O.L u ! p p   3 ,.u u s f e < O.B h h v j / I V 5 p g } f % wX;Xs.=XsXiXE.}.j H ^ Y p 3 u g L } :.u _ # s &.O o.o.&.8.2.",
"p e u g i K w o.%.p & G i O ` d o Y 3 V i.(.T.tXOX(.].b * 3 9 9 _ & b s.T._.$XfXpXE.x G p E - G i u 8 O.^ < r 9 ` ] # f 4 a g s ",
"s e u a q i 0 f %., ^ 5 d [ ' s g p - h (.T. X XpX8X].u.m o 9 _ d $ A.MX;XfX&XfX=XcX{.l o , - i O.f [ g 3 > y t ` [ o.u   o d d ",
"7 f e + . - u u u # p >   - 8 8   w F v 9XkXdXfXwXp.y.P.m 1 < p 3 N cXgXgX0X/.wX%XxXZXN E r , 3 # s + . u # o.o i L ! X < X i K ",
"< f d a u # i 3 u u r r o 1 u 8 ` w F C.hXkXhX9X(.p.c h D C   4 4 2 <XBXNXb b j d.%XMXh 1     o H ; $ q u # i - & * $ . p &.- : ",
"u u i g u @ 3 g # @ f 3 > 4 3 s 8 = D C.MXhXQ k p.U.x x y.f.x h - 3 2 B * B P M c s.cX(.Z G F V.B.b $ [ 7 s d B W 1 M l k V & u ",
"3 a i u 7 r g g e ` f f ! ^ J k z.D z v 3Xl.^ W /.8Xp.[.W.].oXj = u ) #._ #.f H B.OX;X_.g.c c i.wX7Xx F 0 - * k m FXDX5XZ.l H # ",
"= L ! ! T 0.6.}  .#.s o.m.;.D c I.(.l G l / 3 1 uXwXE.R.;X9X2Xz G 6.Y 3 o T ^ 2 ].MXsX$Xj.(.[.k.mX7X].f.;.b.f.B.5X^ x.FX2XP.=.u ",
"#.] g @.>.N.7.7.S.2.8.$.@./ A Y. X Xx G K ;.L 4 v s.R. XsXgXx v Z k W W ! f R 2 b lXdX$X_.+XtX_.a.mXwXy.D n yXuX( ( ( z.d.f.<.@ ",
"2.6.7 } O.9.@.3 i F [ + & S 9XlX XR.p.n l k P.{ F y.Q.+XcXg.y.7XwXI.].v ; d - * A zXdXaXkXgX*X=X^.dX8Xs.D P.I ~ g >.*./ k m - + ",
"| %.) 2.{ P M m Q N G z Z CXzX=X XR.(.y.f.C.f.n U n j._.~.~.9XmXnXwX/.x D P k d.eXzX#XbXzXvXaX>XaXaX;X(.j K f o.g O.*.*.^ a @.g ",
"+.o.4.[ h.y.`.9XBXm S x ~.pXaX=X'.R.T.^.0XMXeXd.b g.rXtXA k BXSXh v A Z.h.f.c (.#XfX0XA S SXvX#XjXdX XI.n { a L i *.d $.o._ 7 ) ",
"3 T w 5.c.C.qXNXbXBXSX9X_.=X>X>XT.iXiX=X&XmX1XA /.wXiXmXN 2 VXk 4 G J k c yXOXT.^.dX7XZ Q S vXjXdXsX;X`.l o H -.H o.] 4.d #.g f ",
"X ,.g $.d *.z.l.S b f.n.|.$XkX*XkXsXdXaX_.8Xl.Z 9XsXbXBX$ a 5 2 ,.g O./ eXcXxX&X~.kXkX1XQ W bXdXdX$X8Xg.A & i 2.g 2.D.$.O.*.i 3 ",
"a ! g 2.t...| ~ P.4XuX7X0XzXfXsXdXkXsX=X Xs.Z <XgX*XBX* . + f T f f f W VXNXfX#XdXjXjXbXW N cXaX.X;XY.x M 4 ! @.g e #.&.O.-.O.4 ",
"p @.L q g r.>.X . n f.].qX~.iXzXzXiX X XE.k.i.AXBXA N L - s 3 ! o.u u 1 C m BXvXkXaXjXBXv 3XbXjX=X|.z.z - g T < %.+.s ] _ ] g o.",
"3 L &.i g t.%...3 J h.c a.p._.aXsX^.'.T.E.U.u.VX<XM O.` _ u u T u a 3 6 Y 1 m BXkXjXaXgXi.BXkXaX=XT.u.{ a o.f p , 7.8.#.#.7 o._ ",
"5 ~ L i *.o.f R } a ; A j.T.=X>X-XI.a.wXnXwX/.eX,Xl.* i # , , Y Y a Y T >.> 5 W hXjX*XsXfXvXaXaX-XR.W.y.q d u f p &.w.) ..y 3.w ",
"~ =.] #.$.g } T T } ! Z U.rX=XaXfXtXd.SXAXb A l.CXl V 3 L T R p p 3 p o ! T T 2 AX%X#XzXvX#XaX=X_.tXW.a.I - u +., &.8.g 6.t s 0 ",
"p 3 + 2.2.#.4.&.p | f n Q.+XsXdX<XZ l.AXSXk m W SXZX5 + . i + ) 2._ s u L - C FX2Xl A BX3Xd. X_.y.uXW.p.F L + a > ^ ^ 4 O.f 3 a ",
"< @ 7 3.) 8 G g p R a j Q.E.lXxXh % S 3XAXx & o & ZX~ w d i 0 9 t t 9 - . 4 . B x Z k 5XN h rXI.u.v {.j I B u 3   > ^ 5 3 u 6 p ",
"7 y y ' 8 + : O.a a p   c (.OXwXl J S B.|.rXx ; C . 0 9 e o # d s f a u u 5 % DX3Xd.V 2 1 SXxX&Xc b j 3XB.f.: 8 @ , R t 7 s u , ",
"T f t y e i $ { q +   a D d.U.(.x J % j (.`.d.$ u t ' w f   = u + s X p o N M NXeXc Z $ N bXgX$X[.c l AXyXb % - 3 R 7 @ 8 u 0 q ",
"4 - < < p p & ; - d d # o M y.{.P.V i 5 k j V.z 3 r T < + & 3 4 0 $.X 4 k SXgXbXM.j ].c hXkX X XT.y.d.BX,Xu.l ~ : d < , u 0 ; : ",
": - w a f o ; ; L ] ) s 0 H l h v % i @ + = h k m > > r i = i 3 w u < W FXNXvX%Xu.f.qXlXjXaX-XR.T.MXxXmXeXb h P.z k o 1 o . K : ",
". & i L a 3 4 3 R @ s ` = + . o d [ $ . ] - K M ZX* o # d # u u # g , 6 $ DX9X/.].].xXdXdXgX;XT._.iXkXzXqXy.k k 2XCXZ W X f f e ",
"0 . K q   < 3 3 r @ s w w 9 , r w K * . - ] H M SXbX* 4 f < f o T , > > 1 m x c x x zXdXfX;X_.p.fXgXsX%X/.j $ m x DX4XS > 7 f 7 ",
"2.} ] s O p T T 0.} K [ 7...%.4 / m N k ; F b ).*XbXh m ! o.# , e 3 Y o u g 4 F F x 0X X`.p.p.0XsXgXtX/.l   3 a * % V.k a f O X ",
"9 s _ w.} ..0.f o.g q K | R o.4 V Z.ZXVXk % x /.=XiXMXFX% $ . ; l % ; 3 e a 2 D % y.|.T.T.pXmX%X%X%X(.a.~ g e f t.<./ V =.} u a ",
"f 2.` } f y } %.6.-.q G i , p 4 c.B.wXmXVXN S A _.:XpXMXCX].A v @X{.z 3 , C v mXMX+XR.R.fXzX0X).d.Z.U / L o.g f @.4 F G g &.d L ",
"s e s o...|  .&.g L . G i T T ! J x 8XmXNXS 2 % Y.E.T.T.`.a.A oXwXp.D _   k eXxX8XI.E.nXlX9Xv Z / P [ _ g o.] J.0.O.9.o.$.g 0 = ",
"# 3 ! g O.$.i ] # g 3 g i i f g ~ j U. XgX1XW a D u.8XpXa.n V V Z.v [ ` O V Y.U.].c a.d.h * * $.H i { O.d ] g d o.f %.' #.# i , ",
"3 u O.L a - ] L a T e u L L i a C h `.T.iXlXl.2 m v ;XcX/.j Z S A D P K = n g.U.i.d.g.C.V G 0 5.} o L : a s _ 0 _ %.7...:.# a @.",
"+ _ -.K &.o.i L g 3 T e g O.% l P.Z d.~.;XfXlXbXMX^.R. XpX^.xX1XA b c P.; M i.MXxXlXrX[.v % G $.2.d O.d L g _ ) 8.$.>.a a O.#. .",
"s f O.u ] f g - 4 p o.p 4 / M 4Xk z.D f.(.8X0XsXfXlX!.!.;XlXiXBXCXyXoXx V W ].NXxX0XI.p.Z K.I F K + . a #.&.f } T &.=.~ ~ ! f ' ",
"o a ] _ +.o.%.o.-.@.o.3 M VX6X* 6 a B j a.{.U.(.+XpXiXR._.;X8XqX].z.h 2 ~ 2 l {.Y.].v $ H J 5X4XD z K i )  .t g u a H 1.~ @.g ) ",
", 0.! O.@.O.p o.~ - a * DX<X$ & O.L q P U h.c y.(.I.8XT.(.i.b d.x I C ! p 4 & l f.x & , p 1 j f.C.Z z.G s @ ) f g ,.5 H @.! < e ",
"7 6.- L O.&.7 ) O.C V S CXf.W . 0 K w = + ; % n D l $ N D I ; o.G G H o.f u g H = *. ...e . Z B.n.yXZ J a @ ..) u O.i g T %.&.u ",
"t o.! =.&.6...) , * l CXC.Z / $.= = K $.r | -.H *.! e %._ f  ._ s f g _ t 8 _ g w $.%.) @ + D c qXMXh N >.< f %.o.@.$.#.8._ _ _ ",
"a L ! ! p f @ X R 2 mXwXZ i o u L d p | y < ! O.L ] 7 e s # 7 0  .} #.s _ @ f o.4 3 f r   1.P l M.CXVXN ~ g g D.e.f 2.4.3.s ` _ ",
"u L 3 p p >.r X.0.C 9X/.J f } a a u r >.R < # i w ] g ) 2. .O g e g f e o.e # u L 9.4 # p # = V h <X4X* W f o._ 8.d o.` w u d f ",
"' 6.=.L P e.f 6.X.] V k B 3 # o g f g r f @ g ] i u # # R Y 5 ! ! T ^ p g a a O.F v.5.p p i o =.k z.V.I J i 8 8 ` %.0.u L +.@.u ",
"' 7 $.*.L b.o.s ` 3.s - i u a u u u p e T u i d ] 0 u g Y p 6 1 3 u 3 # @.a u _ [ ] w w , p p :.a 4 ~ J ;.O.d ` ) #.#.a a a ! T ",
", p g u 3 H ~ 4._ 3.g g @.@.r._ d $.=.! :.Y s f _ ` ` #.$.q . O.3 p ~ i i o u f 9 9 f u # f f  .s s = ; $ G + u s #._ O.a 1.T a ",
"o ,.o._ @.o i 8.# # $.,.8.#.G. .O i G i T a g u o.] #.` d [ G i X   u O.=.f @.f  ._ ) O 3 u t ) 3. .i 9.J *.- _ ) 8 u a -.u p p ",
"= f #.&.0.u O.q.! p } s w w  .X.O & i i a ! O.a u a p < ! q.-.u o.$.) s $.@.6.T o.} | e g 9 ` 3. .o.+.O.3 o g -._ &.o.$.g s 8 O ",
"[ 9 &.g _ 0 f $.,.0. .) d $.8 ) p T @.O.u u ! i a a R X p g , } a $.w.3.#.%.>.p g u | < #   [ 2.s +.T g f o.@.f u u g O.4.u 0 9 ",
"u u 9.=.,.O.) } a -.} g 3 H p 6.s } %. .u u ] L L a 1.r # e #.&.o.- s X.u u 3 p u 0 g , i 3 a   H O.u #.) ..+.0.a =.a ! u ! u + ",
"7 3 4 & 3 #  .7 - o u L 1 . p T @ @ O @ 7 s K G L o p X T 9 + d i u t 9 8 a > Y i d 0 - H 4 o 3 & L e t ' @ e 3   6 3 p p 3 u o "
};
