/* XPM */
static char *a42e184755c44907cb256d7ed0db58e0StowpuYPHzMwnD1T[] = {
/* columns rows colors chars-per-pixel */
"64 64 232 2 ",
"   c #040303",
".  c #0B0301",
"X  c #0B0A05",
"o  c #07060A",
"O  c #0C0C0C",
"+  c #060909",
"@  c #120400",
"#  c #130C03",
"$  c #190D01",
"%  c #120E0C",
"&  c #1A0E0C",
"*  c #0E110C",
"=  c #0B1107",
"-  c #1C1204",
";  c #13120D",
":  c #1B140B",
">  c #18180B",
",  c #0C0D11",
"<  c #120E12",
"1  c #0E1212",
"2  c #0E1619",
"3  c #141414",
"4  c #1B1513",
"5  c #151915",
"6  c #1B1A15",
"7  c #141519",
"8  c #1A161A",
"9  c #161A1A",
"0  c #1B1C1B",
"q  c #221503",
"w  c #22160C",
"e  c #241B0C",
"r  c #2A1C0B",
"t  c #281904",
"y  c #321C07",
"u  c #231C14",
"i  c #221D1B",
"p  c #271B16",
"a  c #301F15",
"s  c #1F211C",
"d  c #2E210E",
"f  c #34250E",
"g  c #2D2214",
"h  c #22211D",
"j  c #2B231C",
"k  c #272418",
"l  c #322514",
"z  c #32251B",
"x  c #3C2D1C",
"c  c #372A18",
"v  c #3C311C",
"b  c #1D1D21",
"n  c #211F23",
"m  c #2D1F22",
"M  c #1E2223",
"N  c #232323",
"B  c #2A2524",
"V  c #252924",
"C  c #2B2A26",
"Z  c #24252A",
"A  c #2A262A",
"S  c #2B2B2B",
"D  c #25292B",
"F  c #352C24",
"G  c #3B2E23",
"H  c #312C2C",
"J  c #362D28",
"K  c #2E312A",
"L  c #3B3224",
"P  c #33312D",
"I  c #3B332C",
"U  c #343024",
"Y  c #2D2D32",
"T  c #252D31",
"R  c #312E32",
"E  c #2D3335",
"W  c #333333",
"Q  c #3B3633",
"!  c #3A3935",
"~  c #3B3B3B",
"^  c #363739",
"/  c #47341C",
"(  c #473314",
")  c #423324",
"_  c #443A2B",
"`  c #4B3D2C",
"'  c #43362A",
"]  c #533D24",
"[  c #423B32",
"{  c #463D38",
"}  c #422F20",
"|  c #3F413E",
" . c #53432B",
".. c #5A472A",
"X. c #4B4335",
"o. c #44423C",
"O. c #4B443B",
"+. c #444236",
"@. c #554B3C",
"#. c #5C4D3B",
"$. c #554736",
"%. c #5C523B",
"&. c #63523B",
"*. c #6B5637",
"=. c #765C3B",
"-. c #655038",
";. c #79613D",
":. c #3D3D42",
">. c #413C40",
",. c #3B4245",
"<. c #434242",
"1. c #4B4948",
"2. c #554D47",
"3. c #5B5348",
"4. c #595755",
"5. c #655543",
"6. c #685B48",
"7. c #735C45",
"8. c #655E56",
"9. c #73634B",
"0. c #7C6648",
"q. c #696255",
"w. c #7D6B54",
"e. c #7C6D5A",
"r. c #746756",
"t. c #5F6062",
"y. c #666363",
"u. c #7B7468",
"i. c #78746E",
"p. c #80633B",
"a. c #846A4A",
"s. c #8D734D",
"d. c #8A754E",
"f. c #93754E",
"g. c #92794D",
"h. c #95784B",
"j. c #836E55",
"k. c #866E56",
"l. c #847253",
"z. c #8D7554",
"x. c #8E7A54",
"c. c #85745B",
"v. c #8C765B",
"b. c #8C795C",
"n. c #927553",
"m. c #937954",
"M. c #997C55",
"N. c #93765A",
"B. c #937B5B",
"V. c #987A5A",
"C. c #847563",
"Z. c #8D7B62",
"A. c #887967",
"S. c #937D64",
"D. c #947E69",
"F. c #827A75",
"G. c #9C835D",
"H. c #978059",
"J. c #A3855C",
"K. c #938164",
"L. c #99866C",
"P. c #858379",
"I. c #988A77",
"U. c #9E917F",
"Y. c #8C826C",
"T. c #A48964",
"R. c #A58B6A",
"E. c #A28564",
"W. c #AC926B",
"Q. c #B5996F",
"!. c #A38D73",
"~. c #A4937C",
"^. c #A89375",
"/. c #B49874",
"(. c #BA9E7B",
"). c #B49977",
"_. c #BDA27D",
"`. c #C4A67D",
"'. c #8F8C88",
"]. c #968E85",
"[. c #9C9588",
"{. c #979896",
"}. c #AC9B84",
"|. c #A69786",
" X c #B29C85",
".X c #A69B90",
"XX c #9FA09B",
"oX c #BAA385",
"OX c #B6A489",
"+X c #BCAE9C",
"@X c #BAAA95",
"#X c #B9B195",
"$X c #BCB3A4",
"%X c #B1AEAB",
"&X c #C5AA85",
"*X c #CCAE86",
"=X c #C5AC8A",
"-X c #CAAE8B",
";X c #C1A584",
":X c #D1AF8B",
">X c #CDB38C",
",X c #CAB38A",
"<X c #D3B48D",
"1X c #D6B68C",
"2X c #C2AC92",
"3X c #C5AE96",
"4X c #C5B295",
"5X c #CCB493",
"6X c #CDB995",
"7X c #C3B39A",
"8X c #CBB59B",
"9X c #CEBA9C",
"0X c #C6B999",
"qX c #D3B591",
"wX c #D5B993",
"eX c #D3BB9B",
"rX c #D8B998",
"tX c #CBBCA1",
"yX c #C4B9A5",
"uX c #D3BDA1",
"iX c #D9C1A2",
"pX c #CAC3B8",
"aX c #C9C7C6",
"sX c #D9D3CB",
"dX c #DDDCD8",
"fX c #DFDEE4",
"gX c #FDF7EA",
"hX c #FFFCF3",
"jX c #FDFDFB",
"kX c #F3F5F5",
"lX c #ECECEC",
"zX c #E5DED4",
/* pixels */
"3 S <.S 8 D W 3 W   0 S 3 3 + % 4 & 8 < H 8 + C V X ; ; s s 3 Y M + H P u i & B N K ^ 1 s k m w y a & p ^ n Y < T R 3 6 6 P N o ",
"0 S W 0 0 K W S D N S ~ N N 8 o i % @ 8 R 8 N :.| K C V S W <.:.W N j B J F I j K s | W C j m #.#.} J J R b Y T :.:.N N 6 W 8 n ",
"3 8 3 N W W M W W W 0 N 8 O O 3 O 3 V T ^ E T b E K h W ^ S ^ 0 H U O.5.@.6.u.3.Q H ~ P I ` e.c.v.e.C.{ j S E E Y :.^ { N 0 0 E ",
"s S N ~ <.~ W 1.~ C N N K 8 1 h 9 0 ^ D T :.T T E ^ N | 4.W W 8 L ' e.C.K.D.Z.6.p J [ J c w.b.m.b.S.C.2.h W h V R A 8 i ^ A Y n ",
"7 W S W ^ ~ <.R ~ ^ ~ | ^ S 0 8 s , T T E E M 1.| 1.J [ 1.{ [ J z 9.N.V.v.0.( 9.} x ' ` 9.b.m.s.x.l.9.6.s | K K ^ W <.S ~ W Y Y ",
"N ~ N N S W 1.^ W >.S ~ 0 C 0 O + 3 T E :.T T { I B m ' ` { $.`  .a.a.=.*.( y ..c ` G 9.c.H.g.d.H...v %.t | O.U ! | { S W ^ E b ",
"0 ~ R W P ^ ~ <.S V 3 N N W 0 + * s S 0 Y S O.O.' ' -.j.k.S.Z.v.l.0.] *.a.z.7.=. .-.c.K.b.H.n.m.0.f - %.v | +.| Q o.H B S ^ :.Y ",
"S ~ N S S 1.W ~ N N ~ 0 N S 3 9 O X S 0 H i B z ) 7.v.N.N.N.s.N.m.g.f.a.N.N.V.n.x.x.d.H.l.l.v.j.v ....@.e 5 s V C W <.S W D Z b ",
"N W W S W ~ 9 N 0 W ~ 0 W R 3 3 8 3 :.N 2.Q ' ` k.v.z.V.n.f.h.f.x.m.v.n.N.n.M.n.B.s.x.x.b.C.&.y r $.u.r.U I 0 V h C <.W ~ S R 3 ",
"D ~ <.<.<.S N W N S N 0 W K 3 8 , , W b Q j G r.C.N.n.n.f.M.g.f.x.n.B.V.n.g.s.s.g.x.l.w.5.) a - ' ' 8.F.o.W N h N S 1.C ^ S W 0 ",
"0 { P S ~ N s N 3 N h N S S O 3 o b 1.W B : p A.S.S.B.d.m.m.a.;.a.k.z.n.g.g.h.H.d.B.-.q $ z J [ u J Q y.S K 0 S W H 1.H ^ K W V ",
"3 M 6 P N W P s S S 6 0 K ~ s 3 , b Y B B j ' C.v.j.B.G.l.*./ *.7.j.z.n.g.h.g.m.x.b.w.- w B 0 Q B B i i 5 6 6 C b S Y A N V s X ",
"S h 0 S C P S ~ S V 0 h C N 3 6 < 3 8 N U U 5.b.v.H.x.a.*.-.t @ 7.a.s.n.f.f.s.s.B.j.r.a { H 3 N m 4 A J V K T ^ Y 0 b >.~ C 6 V ",
"* S <.C W 0 h y.1.N ; 0 S 6 3 N 8 u u p g d 7.b.l.s.;.=.] / y ( 7.a.s.f.g.g.m.m.b.L.5.- B 3 T T R A O 3 1 | V V N R Z A S D D s ",
"s 0 ! C V 3     X     3 s X O ; & l x $.5...*.*.=.p.a.f.z.v.j.v.f.h.h.f.n.n.n.v.z.j.l - C 6 D Z 5 S 0   s K V s W <.Y S S V S N ",
"Y s ^ P N O             ; I 2.O.#.r.9.w.b.B.s.h.h.f.f.n.N.v.S.v.f.h.h.f.n.v.N.N.B.0.q w k M 2 , O s h h V 3 5 O 3 S o N Z S W S ",
"7 1 1 0 5 s           . @ q.Y.c.v.z.B.z.z.m.z.M.f.h.f.M.f.n.x.G.J.H.M.x.x.v.B.n.n.a.r > 5 b 3 3 0 O 3 N V 1 O 3 3 6 O 8 3 0 0 3 ",
"b 7 7 0 3 ;   X     X   @ 6.l.B.z.m.B.n.B.V.M.n.V.s.M.f.M.G.Q.,X,X*X&XQ.m.n.z.z.N.z.l ; 1 1 O i 0 i N 0 0 O 3 O 8 N N % +   3 8 ",
"o 3 O O o 1 8 5 ;       y w.H.G.B.W.R.T.T.R.).).(.`.Q.).;X&XqX>X1X,XwX_.z.B.z.M.n.k.l ; b b O ; 3 % +   O O s O 9 0 N O , % 3 5 ",
"O 9 8 5 , + 3 ;   +.X.@.L.^.!.`._.5X5X>X<X<XqXqX5X5XeX3XqX>X5X<X1X,XwX;XH.m.z.n.n.B.L   , +   . 8 3 + 3 3 3 0 O O + + O 5 N 3 3 ",
"= ; ; 3 3 o 7 0 = 6.iX#XeXqX1X1X:XqX1X:X1X1X:XqX5XuX2X8XeXeXrXqX<XqXwX>XW.m.m.n.f.N.` # 9 7 1 8 3 3   9 O 3 5 8 N 3 3 % 3 8 * O ",
"> 6 5 3 , 7 0 4 = | #X#X5XqX:X1X-X&XqX1X1XrX5XuXOXZ.e.A.L.S.S.K.oX,X<X<X_.n.m.m.M.v. .: N 9 3 7 N N 3 8 O 3 O 3 5 O 8 + 8 3 0 9 ",
"X 6 h N N :.Y 0 h e Y.iX5X<X1X1X/./.;XrXrXqX5X3XI.pXsX8.+X$X~.8XOX6X<XqX>XE.z.n.n.B.#.$ 0 5 Z W N N N N W W N N W S W N D N S 3 ",
"N k 0 A S ~ S S K U 6.#X9X<X:X1X>X(./.;X-X:XuX@XC.hXhXlXjXhXgXgX}.6X<X<XwX(.z.m.f.B.&.@ 3 9 Z 0 3 3 3 3 N 0 3 N S S S N N S H + ",
"S W 3 h s W W * ; # z |.tXqX*X1XqXwX5X/.;X6XtXU.I dXjXjXjXjXjXhX+X=XrX<X<X>XR.n.M.m.7.$ ; ; M 3 9 8 P 8 S 0 0 V 0 S S S 1 3 3 X ",
"A Z 3 C h 6 s ; V N i @.3XtX-XqX3X3X6XuXoXOX X_ @ i.jXkXkXkXfXsX+X4X-X<XqX<X_.z.s.m.c.c # ; N 0 N 3 3   3 3 0 N 0 S S S 0 0 Z 0 ",
"n Y R 0 C h K 3 , < 3 w e.3XiX5XuX8X2X}.K.5.c > k 6 i.{.t.{.{.P..XOX6X<X<X<X`.B.n.m.B.&.X ; O 1 0 8 3 O 8 M s 8 3 S 3 N D s O 8 ",
"< n 0 P C C V 3 7 8 Z < u 3.U.~.C.6.` G r - d e $ X 3.aX%XkXlXkXzX|.5X<X<XwX_.m.f.n.N.c.p > O 8 0 0 0 0 3 + 0 W 8 N 0 W 3 N 0 8 ",
", R 8 C 6 N P C 0 7 M V Q > g e w - > # h k U @.` - I.gXgXgXjXjXhX~.qXiX1X*X=XV.f.M.n.S.` X ; V N 3 3 N N + 5 S 8 W ~ A N S 6 1 ",
"b Z 0 S ! h S N 3 N s 5 6   X u ; u = s h 0 ].yX7X~.L.}.r.$XhXdXaX.X5X:X:X<X5Xm.n.n.n.B.#.  O 3 K 3 , O 8 8 N N 0 , N S N W N 3 ",
"O S 0 4 0 ^ C %   9 V M M 9 9 7 8 6 9 1   K P.[.K.!. XoX9.r.[.U i @.oXqX1XwX&Xm.f.f.n.n.$.. ; 3 3 3 N 3 % 0 0 3 S V 3 0 s s 0 N ",
"% N S 8 h ~ Y 0 3 5 V + 9 O b b ; 8 M b 2 9 6 e ..R.).rX8X|.' X   # ^.rX-XwX*XK.s.M.M.j.d . 8 0 N 6 s i 3 N 8 7 3 W ^ N N O N 0 ",
"3 N h 7 D N 0 s s 0 5 N 0 9 3 0 6 N 2 O 9 1 ; q L.uXqXqXqX5X6Xw.w . c.6X6X,XwXG.m.l.l./ - # % 0 i ' 4.I X ; 3 B 8 Y :.8 n O V * ",
"S S N N N 8 N 0 0 N 8 3 0 R S 0 5 8 0 2 Z 5 k L @X=XwX1X:XqXqX9XI.t  .eX,X<X*XR.B.c...q 6.1.X W {.sX%XI 6 0 8 0 < Y R b Y 7 2 = ",
"8 3 O S S N W S M N N 0 s 0 8 3 + 3 W M M + 4 ' 3X8XrX<XrX>X>XeXtXI.] =X<XwX1XT.d.b.#.3.I     4.jX%Xh X s 5 = s , m Z 7 N 5 5 s ",
"* + + N 0 ; 3 8 , h 0 o * 3 0 N   < b 3 3 O X - 9. X=X>XwX>X6X,X>X6Xd.(.qX,X,XW.B.w. .w X     + y.N O O s 5   2   < n i 3 5 5 ; ",
"O 3 3 3 O + O S 8 0 3   3 3 3 3 % n n < < O : $ f OX6XrX>XeX,X6X>X<X=X<XrX5XrXR.0.d F 4 3 7     o b 1 o , 9 s   + ; 6 8 + 3 3 < ",
"0 8 3 * ; 3 O N 3 + + 3 N 3 O O 8 8 o < 7 8 ; . ` 3X3X8X5X).#XeX<XwX<X5X<X5X X*.} G .   {.fX2.  o , , , , 2 = 2 * 8 % + O 3 < 3 ",
"3 O O O 8 3 + 3 O 6 3 O O 8 3 O 8 8 8 0 0 3 % : #.+XtX7Xl.t 6.).6X>XwX5XeX8X .x I :     4.[.'.A o < 8 O 2 2 M 2 * 3 O % 3 3 < O ",
"O * 3 8 0 + 3 3 0 N 0 8 ; 0 8 + 3 < 7 o o   X % u i.|.D.l - $ x I.0X5X5X8X Xq . . 1.C           % % 4 . = M   s 5 1 X 3 o   8 % ",
"+ O 5 8 0 3 5 3 0 O 3 3 O O   + ; N +   s 1 0 3 > # u w # - 4 u c c.8XtXyXC.. . { kX{.      . : 9.) e > B 3 + 3 7 3 5 4 * ; 3 ; ",
"<   8 3   O 3 3 8 + 3 * 3 O 3 3 3 6 *   , 5 0 h 8 8   % p 3 < , . # q.$XyXO.    Z aX%X. . . $ %.K.w.` - # # ; 4 O O 6 s 3 s 1 = ",
"S h 0 3 + 3 M n W N 0 N W S N 3 N 5 s * 5 s * * o 0 , b N t.aX'.  +.k +.y.].3.    i i.% . $ 5.S.l.H.b...l @ @ 4 ; 6 # ; > = =   ",
", 3 0 ~ h N W 8 N 0 3 0 N 0 N 9 0 1 5 5 *   * 0 7 7 o o :.%XfXXXk pXI   4 pX.X  .   . @ } e.v.n.m.s.v.v.j.&.} z x z z k +.K ; 2 ",
"5 S 8 0 8 3 0 S R S 3 8 3 3 8 3 S , 5 0 0 0 0 5 1 ^ , 7 b n N N k u.p .   O.X.. . $ x 6.D.k.N.f.g.m.M.B.b.C.j.w.9.%.) %.3.s 5 5 ",
"3 * 8 N N N N S 0 s + 3 5 0 N n N O N 8 3 0 3 * 3 Z 7 7 7 S A i # X . . @ @ q y  .j.c.S.v.S.M.f.m.g.s.z.z.B.B.B.H.x.b.9.v k 4 O ",
"3 3 N 0 S N 3 0 * 0 3 8 3 8 7 b T , 8 O 3 B N 8 0 N o 0 0 X u j : X.5.&.7.0.9.Z.v.b.S.z.M.f.f.f.n.n.n.V.m.m.g.h.s.d.s.K.#.. # 3 ",
", 3 D N 3 % M s 8 0 3 3 s 0 0 9 9 < 7 0 i 6 B 3 8 3 b 3 < < h ; p e.C.S.v.v.S.N.b.n.d.h.M.f.f.n.f.n.n.V.s.h.H.H.J.G.L.c.c.l i m ",
"+ 0 S 0 S M 3 0 8 5 N 3 8 Z   8 0 b 0 3 O o N 8 3 O 3 N 5 O 8 u a k.N.N.N.N.V.f.m.g.s.g.n.f.V.n.f.g.s.m.M.J.Q.`.1X>X6XOXOX .h B ",
"3 6 N 3 h 8 0 3 8 8 0 3 5 C M   * S N 0 C 3 * 8 5 N N 3 8 3 0 6 a C.v.S.N.f.f.h.f.s.m.m.n.N.n.E.T.W.T.T./.`.*X*X>X>X,X9XtX@.p & ",
"O 0 N b N N N N W V S 3 8 0 O 3 0 N 3 3 M 0 3 0 3 N S , 0 N 0 6 r L. XD.k.f.f.f.g.m.n.s.a.M.V.;X(.V.).5XiXoX`.=X6X6X6X0X0X%.$ w ",
"3 ^ N B S S 9 N N O 3 1 V N   O N 0 3 8 8 N O O 3 3 8 3 N 0 5 i t w.rX:XV.f.f.h.f.m.s.n.M.J.`.1XrX-X).D.).=XoX6X,XOXiX#X0Xc.q q ",
"+ S 1 0 N S 3 0 N 8 0 0 N 0 N   3 8 O O + 3 O 8 0 3 + 0 h 8 3 p w c.5X6XQ.J.J.J.G.E.L.W.)._.<X1X:XrX8X2XD.3X4XOX.. .U.7X9X#Xr.e ",
"3 N h S S R h 8 * 3 3 O + 6 C Z O O 9 S 6 N N N P N 1 N s 0 i h x @X8XeX*X*X:X*X<X-X5X(.-X<X1X1X:X-XuX8X).D.w.c r g ) &.I.#X$X6.",
"3 0 N N 8 9     N O 3 O 3 N O 8 N 3 3 S 3 3 S 0 8 0 O 3 7 3   % I 3X3XqXwXwXqXwX-XuX8X!.5XqX1X1XrX>XeX8XyXx . . & % F I w ` .XI ",
"3 N 3 8 0 P 3 D W N 3 S 0 0 0 9 3 6 9 R 0   O 3 3 0 0 0 S N + 6 u U.7X~.;X=XR.7.k. X|.C.0X6X<X>X>X>X8X0XD.y w z u i i u - F F.u ",
"3 S S 0 s ^ 8 W N M 3 8 6 3 O + 0 9 8 3 8 O 0 M 3 3 O O i 0 0 h p { .Xw.] -.H.K.5.I a c ~.3X6X<X6X5XOX9.e l q.i.8 A H i p O.8.: ",
"3 O S S 0 ^ N 3 3 N 3 1 3 3 8 3 3 3 5 3 N 3 6 8 0 1 3 0 0 0 9 % 4 @ ' |.OXOX}.I.I.[ p $ r !.9X5XOXw.} w z +.'.8.b b R n : o.3.p ",
"3 8 0 3 3 0 N W N B 8 0 S S ~ M 8 S S N S 0 9 5 0 0 8 N S 3 + S X i : e.+X6.l > # # ; . w r.eX~.v - . & > 6 k s < b n p +.u.O.> ",
"O K N i S + 3 W O O D P W N ~ N   3 8 3 s 8 0 3 M N N 0 3 0 3 3 X X % 8.].e k s h h 6 ; - 2.+X .p J i S 6 j ; 5 b n o n P.P.k e ",
"O 3 N S W 3 S ~ M 8 N 5 3 3 N N + O 3 5 0 0 S 8 8 5 8 O 0 ~ R 3 C 6 H '.F.B W i S 3 N X : q.@X} j 8 S R = ; * P b b n 0 k k = X ",
"M O S N 0 , 8 V W W N 8 3 N O 0 8 0 S C 3 3 N 5 8 0 0 O 8 0 * s 0 S B { { S N n 0 5 V 6 y.+X].p 3 Y b n s 6 K s 7 b b Y C = X = ",
"3 3 W S W N 0 n 0 S N 0 3 b 3 W 3 N Z N 3 3 M 0 s 8 W 5 O 3 N C 5 6 8 8 8 < 7 b 3 9 ; 6 Q 8.[ @ 8 Y , 8 s s h P b A b b 3 3 6 + ",
", 3 3 O 3 O h O ; + 3 0 O   6 N + O   X O 3 8 3 M O 8 X 0 ; + 6 6 * < < < n < 8 9 1 ; X i - $ ; * 7 2 0 * = > + o b , b 3 0 3 O "
};
