/* XPM */
static char *block_locked_square1673360187[] = {
/* columns rows colors chars-per-pixel */
"128 128 52 1 ",
"  c None",
". c #212125",
"X c #2E2E2F",
"o c #3C3B39",
"O c #4A4843",
"+ c #58554D",
"@ c #666257",
"# c #746F61",
"$ c #827C6B",
"% c #C38000",
"& c #C48000",
"* c #C58000",
"= c #C68200",
"- c #C9890C",
"; c #CD9018",
": c #D09725",
"> c #D49E31",
", c #D7A53D",
"< c #FFCC00",
"1 c #FFCE0C",
"2 c #FFD018",
"3 c #FFD325",
"4 c #FFD531",
"5 c #FFD83D",
"6 c #908A75",
"7 c #9D977F",
"8 c #DBAC4A",
"9 c #DEB356",
"0 c #E2BA63",
"q c #FFDA4A",
"w c #FFDD56",
"e c #E6C16F",
"r c #FFDF63",
"t c #E9C87B",
"y c #FFE16F",
"u c #FFE47B",
"i c #ABA489",
"p c #C7BE9D",
"a c #EDCF88",
"s c #F0D694",
"d c #FFE688",
"f c #FFE994",
"g c #D5CBA7",
"h c #F4DDA0",
"j c #E3D8B1",
"k c #FFEBA0",
"l c #F7E4AD",
"z c #FFEEAD",
"x c #F1E5BB",
"c c #FBEBB9",
"v c #FFF0B9",
"b c #FFF3C6",
/* pixels */
"               =%&&&=========================================================================================%%=%               ",
"           ==========================================================================================================           ",
"        %==============================================================================================================%        ",
"       %================================================================================================================%       ",
"     ========:9essssbbbbbbbbbbbbbbbbbbbbbbbbbbbbbbbbbbbbbbbbbbbbbbbbbbbbbbbbbbbbbbbbbbbbbbbbbbbbbbbbbbbbbbbbssss08;=======%     ",
"     =====-9lbbbbbbbbbbbbbbbbbbbbbbbbbbbbbbbbbbbbbbbbbbbbbbbbbbbbbbbbbbbbbbbbbbbbbbbbbbbbbbbbbbbbbbbbbbbbbbbbbbbbbbh8======%    ",
"    =====9bbbbbbbbbbbbbbbbbbbbbbbbbbbbbbbbbbbbbbbbbbbbbbbbbbbbbbbbbbbbbbbbbbbbbbbbbbbbbbbbbbbbbbbbbbbbbbbbbbbbbbbbbbbl,=====    ",
"   %====8cbbbbbbbbbbbbbbbbbbbbbbbbbbbbbbbbbbbbbbbbbbbbbbbbbbbbbbbbbbbbbbbbbbbbbbbbbbbbbbbbbbbbbbbbbbbbbbbbbbbbbbbbbbbbbe=====   ",
"   ====8bbbbbbzuq444<<<<<<<<<<<<<<<<<<<<<<<<<<<<<<<<<<<<<<<<<<<<<<<<<<<<<<<<<<<<<<<<<<<<<<<<<<<<<<<<<<<<<<<<444qyzbbbbbbt=====  ",
"  %===>bbbbbf5<<<<<<<<<<<<<<<<<<<<<<<<<<<<<<<<<<<<<<<<<<<<<<<<<<<<<<<<<<<<<<<<<<<<<<<<<<<<<<<<<<<<<<<<<<<<<<<<<<<<4fbbbbb8====  ",
"  ===-lbbbbr<<<<<<<<<<<<<<<<<<<<<<<<<<<<<<<<<<<<<<<<<<<<<<<<<<<<<<<<<<<<<<<<<<<<<<<<<<<<<<<<<<<<<<<<<<<<<<<<<<<<<<<<wbbbbc-===% ",
" ====9bbbbw<<<<<<<<<<<<<<<<<<<<<<<<<<<<<<<<<<<<<<<<<<<<<<<<<<<<<<<<<<<<<<<<<<<<<<<<<<<<<<<<<<<<<<<<<<<<<<<<<<<<<<<<<<qbbbb0===% ",
" ====lbbbf<<<<<<<<<<<<<<<<<<<<<<<<<<<<<<<<<<<<<<<<<<<<<<<<<<<<<<<<<<<<<<<<<<<<<<<<<<<<<<<<<<<<<<<<<<<<<<<<<<<<<<<<<<<<dbbbc==== ",
" ===:bbbb2<<<<<<<<<<<<<<<<<<<<<<<<<<<<<<<<<<<<<<<<<<<<<<<<<<<<<<<<<<<<<<<<<<<<<<<<<<<<<<<<<<<<<<<<<<<<<<<<<<<<<<<<<<<<2bbbb,=== ",
" ===9bbbd<<<<<<<<<<<<<<<<<<<<<<<<<<<<<<<<<<<<<<<<<<<<<<<<<<<<<<<<<<<<<<<<<<<<<<<<<<<<<<<<<<<<<<<<<<<<<<<<<<<<<<<<<<<<<<dbbbe====",
"====tbbb5<<<<<<<<1wffffw1<<<<<<<<<<<<<<<<<<<<<<<<<<<<<<<<<<<<<<<<<<<<<<<<<<<<<<<<<<<<<<<<<<<<<<<<<<<<<<1wffffw1<<<<<<<<qbbbs===%",
"====sbbb4<<<<<<<2cbbbbbbv2<<<<<<<<<<<<<<<<<<<<<<<<<<<<<<<<<<<<<<<<<<<<<<<<<<<<<<<<<<<<<<<<<<<<<<<<<<<<2vbbbbbbv2<<<<<<<3bbbc====",
"%===sbbb4<<<<<<1kbbbbbbbbk1<<<<<<<<<<<<<<<<<<<<<<<<<<<<<<<<<<<<<<<<<<<<<<<<<<<<<<<<<<<<<<<<<<<<<<<<<<1kbbbbbbbbk1<<<<<<<bbbb====",
"%===cbbb1<<<<<<rbbbbbbbbbby<<<<<<<<<<<<<<<<<<<<<<<<<<<<<<<<<<<<<<<<<<<<<<<<<<<<<<<<<<<<<<<<<<<<<<<<<<ybbbbbbbbbbr<<<<<<<bbbb====",
"====bbbb<<<<<<<zbbbbbbbbbbz<<<<<<<<<<<<<<<<<<<<<<<<<<<<<<<<<<<<<<<<<<<<<<<<<<<<<<<<<<<<<<<<<<<<<<<<<<zbbbbbbbbbbz<<<<<<<bbbb====",
"====bbbb<<<<<<<bbbbbbbbbbbb<<<<<<<<<<<<<<<<<<<<<<<<<<<<<<<<<<<<<<<<<<<<<<<<<<<<<<<<<<<<<<<<<<<<<<<<<<bbbbbbbbbbbb<<<<<<<bbbb====",
"====bbbb<<<<<<<bbbbbbbbbbbb<<<<<<<<<<<<<<<<<<<<<<<<<<<<<<<<<<<<<<<<<<<<<<<<<<<<<<<<<<<<<<<<<<<<<<<<<<bbbbbbbbbbbb<<<<<<<bbbb====",
"====bbbb<<<<<<<zbbbbbbbbbbz<<<<<<<<<<<<<<<<<<<<<<<<<<<<<<<<<<<<<<<<<<<<<<<<<<<<<<<<<<<<<<<<<<<<<<<<<<zbbbbbbbbbbz<<<<<<<bbbb====",
"====bbbb<<<<<<<rbbbbbbbbbbr<<<<<<<<<<<<<<<<<<<<<<<<<<<<<<<<<<<<<<<<<<<<<<<<<<<<<<<<<<<<<<<<<<<<<<<<<<ybbbbbbbbbbr<<<<<<<bbbb====",
"====bbbb<<<<<<<1vbbbbbbbbv1<<<<<<<<<<<<<<<<<<<<<<<<<<<<<<<<<<<<<<<<<<<<<<<<<<<<<<<<<<<<<<<<<<<<<<<<<<1cbbbbbbbbc1<<<<<<<bbbb====",
"====bbbb<<<<<<<<3zbbbbbbz3<<<<<<<<<<<<<<<<<<<<<<<<<<<<<<<<<<<<<<<<<<<<<<<<<<<<<<<<<<<<<<<<<<<<<<<<<<<<3zbbbbbbz3<<<<<<<<bbbb====",
"====bbbb<<<<<<<<<1ybbbby1<<<<<<<<<<<<<<<<<<<<<<<<<<<<<<<<<<<<<<<<<<<<<<<<<<<<<<<<<<<<<<<<<<<<<<<<<<<<<<1ybbbby1<<<<<<<<<bbbb====",
"====bbbb<<<<<<<<<<<<<<<<<<<<<<<<<<<<<<<<<<<<<<<<<<<<<<<<<<<<<<<<<<<<<<<<<<<<<<<<<<<<<<<<<<<<<<<<<<<<<<<<<<<<<<<<<<<<<<<<bbbb====",
"====bbbb<<<<<<<<<<<<<<<<<<<<<<<<<<<<<<<<<<<<<<<<<<<<<<<<<<<<<<<<<<<<<<<<<<<<<<<<<<<<<<<<<<<<<<<<<<<<<<<<<<<<<<<<<<<<<<<<bbbb====",
"====bbbb<<<<<<<<<<<<<<<<<<<<<<<<<<<<<<<<<<<<<<<<<<<<<<<<<<<<<<<<<<<<<<<<<<<<<<<<<<<<<<<<<<<<<<<<<<<<<<<<<<<<<<<<<<<<<<<<bbbb====",
"====bbbb<<<<<<<<<<<<<<<<<<<<<<<<<<<<<<<<<<<<<<<<<<<<<<<<<<<<<<<<<<<<<<<<<<<<<<<<<<<<<<<<<<<<<<<<<<<<<<<<<<<<<<<<<<<<<<<<bbbb====",
"====bbbb<<<<<<<<<<<<<<<<<<<<<<<<<<<<<<<<<<<<<<<<<<<<<<<<<<<<<<<<<<<<<<<<<<<<<<<<<<<<<<<<<<<<<<<<<<<<<<<<<<<<<<<<<<<<<<<<bbbb====",
"====bbbb<<<<<<<<<<<<<<<<<<<<<<<<<<<<<<<<<<<<<<<<<<<<<<<<<<<<<<<<<<<<<<<<<<<<<<<<<<<<<<<<<<<<<<<<<<<<<<<<<<<<<<<<<<<<<<<<bbbb====",
"====bbbb<<<<<<<<<<<<<<<<<<<<<<<<<<<<<<<<<<<<<<<<<<<<<<<<<<<<<<<<<<<<<<<<<<<<<<<<<<<<<<<<<<<<<<<<<<<<<<<<<<<<<<<<<<<<<<<<bbbb====",
"====bbbb<<<<<<<<<<<<<<<<<<<<<<<<<<<<<<<<<<<<<<<<<<<<<<<<<<<<<<<<<<<<<<<<<<<<<<<<<<<<<<<<<<<<<<<<<<<<<<<<<<<<<<<<<<<<<<<<bbbb====",
"====bbbb<<<<<<<<<<<<<<<<<<<<<<<<<<<<<<<<<<<<<<<<<<<<<<<<<<<<<<<<<<<<<<<<<<<<<<<<<<<<<<<<<<<<<<<<<<<<<<<<<<<<<<<<<<<<<<<<bbbb====",
"====bbbb<<<<<<<<<<<<<<<<<<<<<<<<<<<<<<<<<<<<<<<<<<<<<<<<<<<<<<<<<<<<<<<<<<<<<<<<<<<<<<<<<<<<<<<<<<<<<<<<<<<<<<<<<<<<<<<<bbbb====",
"====bbbb<<<<<<<<<<<<<<<<<<<<<<<<<<<<<<<<<<<<<<<<<<<<<<<<<<<<<<<<<<<<<<<<<<<<<<<<<<<<<<<<<<<<<<<<<<<<<<<<<<<<<<<<<<<<<<<<bbbb====",
"====bbbb<<<<<<<<<<<<<<<<<<<<<<<<<<<<<<<<<<<<<<<<<<<<<<<<<<<<<<<<<<<<<<<<<<<<<<<<<<<<<<<<<<<<<<<<<<<<<<<<<<<<<<<<<<<<<<<<bbbb====",
"====bbbb<<<<<<<<<<<<<<<<<<<<<<<<<<<<<<<<<<<<<<<<<<<<<<<<<<<<<<<<<<<<<<<<<<<<<<<<<<<<<<<<<<<<<<<<<<<<<<<<<<<<<<<<<<<<<<<<bbbb====",
"====bbbb<<<<<<<<<<<<<<<<<<<<<<<<<<<<<<<<<<<<<<<<<<<<<<<<<<<<<<<<<<<<<<<<<<<<<<<<<<<<<<<<<<<<<<<<<<<<<<<<<<<<<<<<<<<<<<<<bbbb====",
"====bbbb<<<<<<<<<<<<<<<<<<<<<<<<<<<<<<<<<<<<<<<<<<<<<<<<<<<<<<<<<<<<<<<<<<<<<<<<<<<<<<<<<<<<<<<<<<<<<<<<<<<<<<<<<<<<<<<<bbbb====",
"====bbbb<<<<<<<<<<<<<<<<<<<<<<<<<<<<<<<<<<<<<<<<<<<<<<<<<<<<<<<<<<<<<<<<<<<<<<<<<<<<<<<<<<<<<<<<<<<<<<<<<<<<<<<<<<<<<<<<bbbb====",
"====bbbb<<<<<<<<<<<<<<<<<<<<<<<<<<<<<<<<<<<<<<<<<<<<<<<<<<<<<<<<<<<<<<<<<<<<<<<<<<<<<<<<<<<<<<<<<<<<<<<<<<<<<<<<<<<<<<<<bbbb====",
"====bbbb<<<<<<<<<<<<<<<<<<<<<<<<<<<<<<<<<<<<<<<<<<<<<<<<<<1quffffffy51<<<<<<<<<<<<<<<<<<<<<<<<<<<<<<<<<<<<<<<<<<<<<<<<<<bbbb====",
"====bbbb<<<<<<<<<<<<<<<<<<<<<<<<<<<<<<<<<<<<<<<<<<<<<<<<3ubbbbbbbbbbbvu2<<<<<<<<<<<<<<<<<<<<<<<<<<<<<<<<<<<<<<<<<<<<<<<<bbbb====",
"====bbbb<<<<<<<<<<<<<<<<<<<<<<<<<<<<<<<<<<<<<<<<<<<<<<1dbbbbbbbbbbbbbbbbu1<<<<<<<<<<<<<<<<<<<<<<<<<<<<<<<<<<<<<<<<<<<<<<bbbb====",
"====bbbb<<<<<<<<<<<<<<<<<<<<<<<<<<<<<<<<<<<<<<<<<<<<<3kbbbbbbbbbbbbbbbbbbk3<<<<<<<<<<<<<<<<<<<<<<<<<<<<<<<<<<<<<<<<<<<<<bbbb====",
"====bbbb<<<<<<<<<<<<<<<<<<<<<<<<<<<<<<<<<<<<<<<<<<<<2cbbbbbg6@++++@6gbbbbbv3<<<<<<<<<<<<<<<<<<<<<<<<<<<<<<<<<<<<<<<<<<<<bbbb====",
"====bbbb<<<<<<<<<<<<<<<<<<<<<<<<<<<<<<<<<<<<<<<<<<<1kbbbbp+..........+pbbbbv3<<<<<<<<<<<<<<<<<<<<<<<<<<<<<<<<<<<<<<<<<<<bbbb====",
"====bbbb<<<<<<<<<<<<<<<<<<<<<<<<<<<<<<<<<<<<<<<<<<<fbbbb6..............6bbbbz1<<<<<<<<<<<<<<<<<<<<<<<<<<<<<<<<<<<<<<<<<<bbbb====",
"====bbbb<<<<<<<<<<<<<<<<<<<<<<<<<<<<<<<<<<<<<<<<<<rbbbb6................6bbbby<<<<<<<<<<<<<<<<<<<<<<<<<<<<<<<<<<<<<<<<<<bbbb====",
"====bbbb<<<<<<<<<<<<<<<<<<<<<<<<<<<<<<<<<<<<<<<<<2bbbbi..................ibbbb4<<<<<<<<<<<<<<<<<<<<<<<<<<<<<<<<<<<<<<<<<bbbb====",
"====bbbb<<<<<<<<<<<<<<<<<<<<<<<<<<<<<<<<<<<<<<<<<ubbbjX..................Xjbbbd<<<<<<<<<<<<<<<<<<<<<<<<<<<<<<<<<<<<<<<<<bbbb====",
"====bbbb<<<<<<<<<<<<<<<<<<<<<<<<<<<<<<<<<<<<<<<<1bbbb@....................@bbbb2<<<<<<<<<<<<<<<<<<<<<<<<<<<<<<<<<<<<<<<<bbbb====",
"====bbbb<<<<<<<<<<<<<<<<<<<<<<<<<<<<<<<<<<<<<<<<qbbbg......................gbbbw<<<<<<<<<<<<<<<<<<<<<<<<<<<<<<<<<<<<<<<<bbbb====",
"====bbbb<<<<<<<<<<<<<<<<<<<<<<<<<<<<<<<<<<<<<<<<dbbb$......................$bbbd<<<<<<<<<<<<<<<<<<<<<<<<<<<<<<<<<<<<<<<<bbbb====",
"====bbbb<<<<<<<<<<<<<<<<<<<<<<<<<<<<<<<<<<<<<<<<kbbb+......................+bbbz<<<<<<<<<<<<<<<<<<<<<<<<<<<<<<<<<<<<<<<<bbbb====",
"====bbbb<<<<<<<<<<<<<<<<<<<<<<<<<<<<<<<<<<<<<<<<bbbb........................bbbb<<<<<<<<<<<<<<<<<<<<<<<<<<<<<<<<<<<<<<<<bbbb====",
"====bbbb<<<<<<<<<<<<<<<<<<<<<<<<<<<<<<<<<<<<<<<<bbbb........................bbbb<<<<<<<<<<<<<<<<<<<<<<<<<<<<<<<<<<<<<<<<bbbb====",
"====bbbb<<<<<<<<<<<<<<<<<<<<<<<<<<<<<<<<<<<<<<<<bbbb........................bbbb<<<<<<<<<<<<<<<<<<<<<<<<<<<<<<<<<<<<<<<<bbbb====",
"====bbbb<<<<<<<<<<<<<<<<<<<<<<<<<<<<<<<<<<<<<<<<bbbb........................bbbb<<<<<<<<<<<<<<<<<<<<<<<<<<<<<<<<<<<<<<<<bbbb====",
"====bbbb<<<<<<<<<<<<<<<<<<<<<<<<<<<<<<<<<<<<<<<<kbbb+......................+bbbk<<<<<<<<<<<<<<<<<<<<<<<<<<<<<<<<<<<<<<<<bbbb====",
"====bbbb<<<<<<<<<<<<<<<<<<<<<<<<<<<<<<<<<<<<<<<<ubbb6......................6bbbd<<<<<<<<<<<<<<<<<<<<<<<<<<<<<<<<<<<<<<<<bbbb====",
"====bbbb<<<<<<<<<<<<<<<<<<<<<<<<<<<<<<<<<<<<<<<<qbbbg......................gbbbw<<<<<<<<<<<<<<<<<<<<<<<<<<<<<<<<<<<<<<<<bbbb====",
"====bbbb<<<<<<<<<<<<<<<<<<<<<<<<<<<<<<<<<<<<<<<<1bbbb+....................+bbbb2<<<<<<<<<<<<<<<<<<<<<<<<<<<<<<<<<<<<<<<<bbbb====",
"====bbbb<<<<<<<<<<<<<<<<<<<<<<<<<<<<<<<<<<<<<<<<<ubbbj....................jbbbf<<<<<<<<<<<<<<<<<<<<<<<<<<<<<<<<<<<<<<<<<bbbb====",
"====bbbb<<<<<<<<<<<<<<<<<<<<<<<<<<<<<<<<<<<<<<<<<2bbbb6..................6bbbb4<<<<<<<<<<<<<<<<<<<<<<<<<<<<<<<<<<<<<<<<<bbbb====",
"====bbbb<<<<<<<<<<<<<<<<<<<<<<<<<<<<<<<<<<<<<<<<<<ybbbb#................#bbbbd<<<<<<<<<<<<<<<<<<<<<<<<<<<<<<<<<<<<<<<<<<bbbb====",
"====bbbb<<<<<<<<<<<<<<<<<<<<<<<<<<<<<<<<<<<<<<<<<<<kbbbb7..............7bbbbv2<<<<<<<<<<<<<<<<<<<<<<<<<<<<<<<<<<<<<<<<<<bbbb====",
"====bbbb<<<<<<<<<<<<<<<<<<<<<<<<<<<<<<<<<<<<<<<<<<<3vbbbbg............gbbbbb5<<<<<<<<<<<<<<<<<<<<<<<<<<<<<<<<<<<<<<<<<<<bbbb====",
"====bbbb<<<<<<<<<<<<<<<<<<<<<<<<<<<<<<<<<<<<<<<<<<<<3vbbbb............bbbbbq<<<<<<<<<<<<<<<<<<<<<<<<<<<<<<<<<<<<<<<<<<<<bbbb====",
"====bbbb<<<<<<<<<<<<<<<<<<<<<<<<<<<<<<<<<<<<<<<<<<<<<3bbbb............bbbb3<<<<<<<<<<<<<<<<<<<<<<<<<<<<<<<<<<<<<<<<<<<<<bbbb====",
"====bbbb<<<<<<<<<<<<<<<<<<<<<<<<<<<<<<<<<<<<<<<<<<<<<<bbbb............bbbb<<<<<<<<<<<<<<<<<<<<<<<<<<<<<<<<<<<<<<<<<<<<<<bbbb====",
"====bbbb<<<<<<<<<<<<<<<<<<<<<<<<<<<<<<<<<<<<<<<<<<<<<<bbbb............bbbb<<<<<<<<<<<<<<<<<<<<<<<<<<<<<<<<<<<<<<<<<<<<<<bbbb====",
"====bbbb<<<<<<<<<<<<<<<<<<<<<<<<<<<<<<<<<<<<<<<<<<<<<<bbbb............bbbb<<<<<<<<<<<<<<<<<<<<<<<<<<<<<<<<<<<<<<<<<<<<<<bbbb====",
"====bbbb<<<<<<<<<<<<<<<<<<<<<<<<<<<<<<<<<<<<<<<<<<<<<<bbbb............bbbb<<<<<<<<<<<<<<<<<<<<<<<<<<<<<<<<<<<<<<<<<<<<<<bbbb====",
"====bbbb<<<<<<<<<<<<<<<<<<<<<<<<<<<<<<<<<<<<<<<<<<<<<<zbbbO..........Obbbz<<<<<<<<<<<<<<<<<<<<<<<<<<<<<<<<<<<<<<<<<<<<<<bbbb====",
"====bbbb<<<<<<<<<<<<<<<<<<<<<<<<<<<<<<<<<<<<<<<<<<<<<<dbbb6..........6bbbd<<<<<<<<<<<<<<<<<<<<<<<<<<<<<<<<<<<<<<<<<<<<<<bbbb====",
"====bbbb<<<<<<<<<<<<<<<<<<<<<<<<<<<<<<<<<<<<<<<<<<<<<<qbbbbo........obbbbq<<<<<<<<<<<<<<<<<<<<<<<<<<<<<<<<<<<<<<<<<<<<<<bbbb====",
"====bbbb<<<<<<<<<<<<<<<<<<<<<<<<<<<<<<<<<<<<<<<<<<<<<<1cbbbgo......ogbbbv<<<<<<<<<<<<<<<<<<<<<<<<<<<<<<<<<<<<<<<<<<<<<<<bbbb====",
"====bbbb<<<<<<<<<<<<<<<<<<<<<<<<<<<<<<<<<<<<<<<<<<<<<<<rbbbbx$....$xbbbb5<<<<<<<<<<<<<<<<<<<<<<<<<<<<<<<<<<<<<<<<<<<<<<<bbbb====",
"====bbbb<<<<<<<<<<<<<<<<<<<<<<<<<<<<<<<<<<<<<<<<<<<<<<<<fbbbbbbbbbbbbbbu<<<<<<<<<<<<<<<<<<<<<<<<<<<<<<<<<<<<<<<<<<<<<<<<bbbb====",
"====bbbb<<<<<<<<<<<<<<<<<<<<<<<<<<<<<<<<<<<<<<<<<<<<<<<<<ybbbbbbbbbbbby<<<<<<<<<<<<<<<<<<<<<<<<<<<<<<<<<<<<<<<<<<<<<<<<<bbbb====",
"====bbbb<<<<<<<<<<<<<<<<<<<<<<<<<<<<<<<<<<<<<<<<<<<<<<<<<<qzbbbbbbbbvq<<<<<<<<<<<<<<<<<<<<<<<<<<<<<<<<<<<<<<<<<<<<<<<<<<bbbb====",
"====bbbb<<<<<<<<<<<<<<<<<<<<<<<<<<<<<<<<<<<<<<<<<<<<<<<<<<<1rzbbbbvy2<<<<<<<<<<<<<<<<<<<<<<<<<<<<<<<<<<<<<<<<<<<<<<<<<<<bbbb====",
"====bbbb<<<<<<<<<<<<<<<<<<<<<<<<<<<<<<<<<<<<<<<<<<<<<<<<<<<<<<<<<<<<<<<<<<<<<<<<<<<<<<<<<<<<<<<<<<<<<<<<<<<<<<<<<<<<<<<<bbbb====",
"====bbbb<<<<<<<<<<<<<<<<<<<<<<<<<<<<<<<<<<<<<<<<<<<<<<<<<<<<<<<<<<<<<<<<<<<<<<<<<<<<<<<<<<<<<<<<<<<<<<<<<<<<<<<<<<<<<<<<bbbb====",
"====bbbb<<<<<<<<<<<<<<<<<<<<<<<<<<<<<<<<<<<<<<<<<<<<<<<<<<<<<<<<<<<<<<<<<<<<<<<<<<<<<<<<<<<<<<<<<<<<<<<<<<<<<<<<<<<<<<<<bbbb====",
"====bbbb<<<<<<<<<<<<<<<<<<<<<<<<<<<<<<<<<<<<<<<<<<<<<<<<<<<<<<<<<<<<<<<<<<<<<<<<<<<<<<<<<<<<<<<<<<<<<<<<<<<<<<<<<<<<<<<<bbbb====",
"====bbbb<<<<<<<<<<<<<<<<<<<<<<<<<<<<<<<<<<<<<<<<<<<<<<<<<<<<<<<<<<<<<<<<<<<<<<<<<<<<<<<<<<<<<<<<<<<<<<<<<<<<<<<<<<<<<<<<bbbb====",
"====bbbb<<<<<<<<<<<<<<<<<<<<<<<<<<<<<<<<<<<<<<<<<<<<<<<<<<<<<<<<<<<<<<<<<<<<<<<<<<<<<<<<<<<<<<<<<<<<<<<<<<<<<<<<<<<<<<<<bbbb====",
"====bbbb<<<<<<<<<<<<<<<<<<<<<<<<<<<<<<<<<<<<<<<<<<<<<<<<<<<<<<<<<<<<<<<<<<<<<<<<<<<<<<<<<<<<<<<<<<<<<<<<<<<<<<<<<<<<<<<<bbbb====",
"====bbbb<<<<<<<<<<<<<<<<<<<<<<<<<<<<<<<<<<<<<<<<<<<<<<<<<<<<<<<<<<<<<<<<<<<<<<<<<<<<<<<<<<<<<<<<<<<<<<<<<<<<<<<<<<<<<<<<bbbb====",
"====bbbb<<<<<<<<<<<<<<<<<<<<<<<<<<<<<<<<<<<<<<<<<<<<<<<<<<<<<<<<<<<<<<<<<<<<<<<<<<<<<<<<<<<<<<<<<<<<<<<<<<<<<<<<<<<<<<<<bbbb====",
"====bbbb<<<<<<<<<<<<<<<<<<<<<<<<<<<<<<<<<<<<<<<<<<<<<<<<<<<<<<<<<<<<<<<<<<<<<<<<<<<<<<<<<<<<<<<<<<<<<<<<<<<<<<<<<<<<<<<<bbbb====",
"====bbbb<<<<<<<<<<<<<<<<<<<<<<<<<<<<<<<<<<<<<<<<<<<<<<<<<<<<<<<<<<<<<<<<<<<<<<<<<<<<<<<<<<<<<<<<<<<<<<<<<<<<<<<<<<<<<<<<bbbb====",
"====bbbb<<<<<<<<<<<<<<<<<<<<<<<<<<<<<<<<<<<<<<<<<<<<<<<<<<<<<<<<<<<<<<<<<<<<<<<<<<<<<<<<<<<<<<<<<<<<<<<<<<<<<<<<<<<<<<<<bbbb====",
"====bbbb<<<<<<<<<<<<<<<<<<<<<<<<<<<<<<<<<<<<<<<<<<<<<<<<<<<<<<<<<<<<<<<<<<<<<<<<<<<<<<<<<<<<<<<<<<<<<<<<<<<<<<<<<<<<<<<<bbbb====",
"====bbbb<<<<<<<<<<<<<<<<<<<<<<<<<<<<<<<<<<<<<<<<<<<<<<<<<<<<<<<<<<<<<<<<<<<<<<<<<<<<<<<<<<<<<<<<<<<<<<<<<<<<<<<<<<<<<<<<bbbb====",
"====bbbb<<<<<<<<<<<<<<<<<<<<<<<<<<<<<<<<<<<<<<<<<<<<<<<<<<<<<<<<<<<<<<<<<<<<<<<<<<<<<<<<<<<<<<<<<<<<<<<<<<<<<<<<<<<<<<<<bbbb====",
"====bbbb<<<<<<<<<1wffffw1<<<<<<<<<<<<<<<<<<<<<<<<<<<<<<<<<<<<<<<<<<<<<<<<<<<<<<<<<<<<<<<<<<<<<<<<<<<<<<1wffffw1<<<<<<<<<bbbb====",
"====bbbb<<<<<<<<2cbbbbbbv2<<<<<<<<<<<<<<<<<<<<<<<<<<<<<<<<<<<<<<<<<<<<<<<<<<<<<<<<<<<<<<<<<<<<<<<<<<<<2vbbbbbbv2<<<<<<<<bbbb====",
"====bbbb<<<<<<<1kbbbbbbbbk1<<<<<<<<<<<<<<<<<<<<<<<<<<<<<<<<<<<<<<<<<<<<<<<<<<<<<<<<<<<<<<<<<<<<<<<<<<1kbbbbbbbbk1<<<<<<<bbbb====",
"====bbbb<<<<<<<rbbbbbbbbbby<<<<<<<<<<<<<<<<<<<<<<<<<<<<<<<<<<<<<<<<<<<<<<<<<<<<<<<<<<<<<<<<<<<<<<<<<<rbbbbbbbbbbr<<<<<<<bbbb====",
"====bbbb<<<<<<<zbbbbbbbbbbz<<<<<<<<<<<<<<<<<<<<<<<<<<<<<<<<<<<<<<<<<<<<<<<<<<<<<<<<<<<<<<<<<<<<<<<<<<zbbbbbbbbbbz<<<<<<<bbbb====",
"====bbbb<<<<<<<bbbbbbbbbbbb<<<<<<<<<<<<<<<<<<<<<<<<<<<<<<<<<<<<<<<<<<<<<<<<<<<<<<<<<<<<<<<<<<<<<<<<<<bbbbbbbbbbbb<<<<<<<bbbb====",
"====bbbb<<<<<<<bbbbbbbbbbbb<<<<<<<<<<<<<<<<<<<<<<<<<<<<<<<<<<<<<<<<<<<<<<<<<<<<<<<<<<<<<<<<<<<<<<<<<<bbbbbbbbbbbb<<<<<<<bbbb====",
"====bbbb<<<<<<<zbbbbbbbbbbz<<<<<<<<<<<<<<<<<<<<<<<<<<<<<<<<<<<<<<<<<<<<<<<<<<<<<<<<<<<<<<<<<<<<<<<<<<zbbbbbbbbbbz<<<<<<<bbbb====",
"====bbbb<<<<<<<rbbbbbbbbbby<<<<<<<<<<<<<<<<<<<<<<<<<<<<<<<<<<<<<<<<<<<<<<<<<<<<<<<<<<<<<<<<<<<<<<<<<<ybbbbbbbbbbr<<<<<<<bbbb====",
"====cbbb2<<<<<<1vbbbbbbbbv1<<<<<<<<<<<<<<<<<<<<<<<<<<<<<<<<<<<<<<<<<<<<<<<<<<<<<<<<<<<<<<<<<<<<<<<<<<1vbbbbbbbbv1<<<<<<2bbbc====",
"====sbbb4<<<<<<<3zbbbbbbz2<<<<<<<<<<<<<<<<<<<<<<<<<<<<<<<<<<<<<<<<<<<<<<<<<<<<<<<<<<<<<<<<<<<<<<<<<<<<3zbbbbbbz3<<<<<<<4bbbs====",
"%===abbbr<<<<<<<<1ybbbby1<<<<<<<<<<<<<<<<<<<<<<<<<<<<<<<<<<<<<<<<<<<<<<<<<<<<<<<<<<<<<<<<<<<<<<<<<<<<<<1rbbbbr1<<<<<<<<rbbba===%",
"%===9bbbk<<<<<<<<<<<<<<<<<<<<<<<<<<<<<<<<<<<<<<<<<<<<<<<<<<<<<<<<<<<<<<<<<<<<<<<<<<<<<<<<<<<<<<<<<<<<<<<1<<<1<<<<<<<<<<kbbb9===%",
" ===:bbbb4<<<<<<<<<<<<<<<<<<<<<<<<<<<<<<<<<<<<<<<<<<<<<<<<<<<<<<<<<<<<<<<<<<<<<<<<<<<<<<<<<<<<<<<<<<<<<<<<<<<<<<<<<<<<4bbbb:=== ",
" ====lbbbf<<<<<<<<<<<<<<<<<<<<<<<<<<<<<<<<<<<<<<<<<<<<<<<<<<<<<<<<<<<<<<<<<<<<<<<<<<<<<<<<<<<<<<<<<<<<<<<<<<<<<<<<<<<<fbbbl==== ",
" %===0bbbbw<<<<<<<<<<<<<<<<<<<<<<<<<<<<<<<<<<<<<<<<<<<<<<<<<<<<<<<<<<<<<<<<<<<<<<<<<<<<<<<<<<<<<<<<<<<<<<<<<<<<<<<<<<wbbbb0===% ",
" ====-cbbbbq<<<<<<<<<<<<<<<<<<<<<<<<<<<<<<<<<<<<<<<<<<<<<<<<<<<<<<<<<<<<<<<<<<<<<<<<<<<<<<<<<<<<<<<<<<<<<<<<<<<<<<<<qbbbbc-==== ",
"  ====,bbbbbd1<<<<<<<<<<<<<<<<<<<<<<<<<<<<<<<<<<<<<<<<<<<<<<<<<<<<<<<<<<<<<<<<<<<<<<<<<<<<<<<<<<<<<<<<<<<<<<<<<<<<1dbbbbb,====  ",
"  %====tbbbbbbu51<<<<<<<<<<<<<<<<<<<<<<<<<<<<<<<<<<<<<<<<<<<<<<<<<<<<<<<<<<<<<<<<<<<<<<<<<<<<<<<<<<<<<<<<<<<<<<15ubbbbbbt====%  ",
"   %====tbbbbbbbbbbbbbbbbbbbbbbbbbbbbbbbbbbbbbbbbbbbbbbbbbbbbbbbbbbbbbbbbbbbbbbbbbbbbbbbbbbbbbbbbbbbbbbbbbbbbbbbbbbbbbbt====%   ",
"    =====9cbbbbbbbbbbbbbbbbbbbbbbbbbbbbbbbbbbbbbbbbbbbbbbbbbbbbbbbbbbbbbbbbbbbbbbbbbbbbbbbbbbbbbbbbbbbbbbbbbbbbbbbbbbc9=====    ",
"    %=====;tbbbbbbbbbbbbbbbbbbbbbbbbbbbbbbbbbbbbbbbbbbbbbbbbbbbbbbbbbbbbbbbbbbbbbbbbbbbbbbbbbbbbbbbbbbbbbbbbbbbbbbbbt;=====%    ",
"     %======-8tlbbbbbbbbbbbbbbbbbbbbbbbbbbbbbbbbbbbbbbbbbbbbbbbbbbbbbbbbbbbbbbbbbbbbbbbbbbbbbbbbbbbbbbbbbbbbbbbblt8-======%     ",
"       ==================================================================================================================       ",
"        ===============================================================================================================%        ",
"          ============================================================================================================          ",
"             %===================================================================================================%=             "
};
