/* XPM */
static char *ZXhpdA__[] = {
/* columns rows colors chars-per-pixel */
"64 64 168 2 ",
"   c #1F3435",
".  c #253436",
"X  c #293437",
"o  c #263639",
"O  c #2B363A",
"+  c #24393A",
"@  c #2C393C",
"#  c #31363A",
"$  c #313C3E",
"%  c #2D403E",
"&  c #2D3D41",
"*  c #333E41",
"=  c #393E41",
"-  c #2F4142",
";  c #334142",
":  c #384243",
">  c #344549",
",  c #3A4548",
"<  c #3C4C4E",
"1  c #3F4C52",
"2  c #444D52",
"3  c #455155",
"4  c #47565A",
"5  c #455C5C",
"6  c #4B5C5E",
"7  c #4B5D61",
"8  c #4E6364",
"9  c #526266",
"0  c #546368",
"q  c #566B6C",
"w  c #627C7B",
"e  c #64767A",
"r  c #717A7F",
"t  c #677F81",
"y  c #6D7A80",
"u  c #717E84",
"i  c #17B787",
"p  c #16BE8B",
"a  c #1EBE8E",
"s  c #1AB385",
"d  c #1FBF91",
"f  c #3AA78A",
"g  c #32AD8A",
"h  c #3AAD8D",
"j  c #24B68B",
"k  c #2CB38C",
"l  c #22BE8F",
"z  c #29BB8F",
"x  c #32B48E",
"c  c #39B18E",
"v  c #3EAF91",
"b  c #2EB691",
"n  c #23BE90",
"m  c #2ABB91",
"M  c #36B492",
"N  c #3AB493",
"B  c #34BA94",
"V  c #38BA96",
"C  c #36BE98",
"Z  c #658280",
"A  c #6B8383",
"S  c #708286",
"D  c #72878A",
"F  c #788389",
"G  c #7A9292",
"H  c #42AE91",
"J  c #44B396",
"K  c #4CB597",
"L  c #47B598",
"P  c #48B79B",
"I  c #56B59F",
"U  c #58B5A0",
"Y  c #5DBBA2",
"T  c #61BAA6",
"R  c #70BEAE",
"E  c #14C48E",
"W  c #1DC18F",
"Q  c #1DC391",
"!  c #21C08F",
"~  c #23C191",
"^  c #29C394",
"/  c #20C895",
"(  c #27C998",
")  c #4EC3A3",
"_  c #55C2A5",
"`  c #5AC1A5",
"'  c #57C5A8",
"]  c #5ECBAE",
"[  c #64C0A7",
"{  c #64CBB0",
"}  c #6CCAB2",
"|  c #72C3B1",
" . c #78C2B5",
".. c #72C9B6",
"X. c #7CC6B9",
"o. c #7CCABC",
"O. c #7CD2BE",
"+. c #76D4BC",
"@. c #7BD7C0",
"#. c #859D9E",
"$. c #8D989E",
"%. c #88969A",
"&. c #84A19F",
"*. c #939BA1",
"=. c #8DA1A4",
"-. c #A2B5B9",
";. c #A7BBBC",
":. c #A8BDBE",
">. c #B0B9BE",
",. c #86CABE",
"<. c #AABFC0",
"1. c #B8BFC5",
"2. c #84CFC2",
"3. c #82D6C2",
"4. c #8BD4C3",
"5. c #83D8C1",
"6. c #8CD8C6",
"7. c #80DDC8",
"8. c #8CDDCB",
"9. c #96D2C8",
"0. c #9BD8CD",
"q. c #B2C1C6",
"w. c #B3C4C9",
"e. c #B5CACD",
"r. c #B8CBCF",
"t. c #BDC4CA",
"y. c #A0DACE",
"u. c #B7CFD3",
"i. c #BBCDD1",
"p. c #A3DBD2",
"a. c #ACDCD5",
"s. c #AFDED9",
"d. c #ACD6D2",
"f. c #B5D4D3",
"g. c #BED4D7",
"h. c #BBD3D6",
"j. c #B3DBD7",
"k. c #BAD9D7",
"l. c #BFD7D9",
"z. c #BED5DA",
"x. c #BCD5D9",
"c. c #B6DAD9",
"v. c #B5DBD9",
"b. c #B9DADA",
"n. c #BBDADA",
"m. c #9BE1CF",
"M. c #93E2D2",
"N. c #9CE4D5",
"B. c #99EED9",
"V. c #A7E0D7",
"C. c #A8E1D7",
"Z. c #A0EBD7",
"A. c #A3E4D8",
"S. c #AAE3DA",
"D. c #ACE3DB",
"F. c #B3E2DB",
"G. c #BAE5DC",
"H. c #BFE3E1",
"J. c #BEEBE6",
"K. c #C2CED3",
"L. c #C1D3D7",
"P. c #C8D3D7",
"I. c #C1D5D8",
"U. c #C2D5D9",
"Y. c #C9D5DB",
"T. c #C3D9DC",
"R. c #CADADE",
"E. c #C7DAE0",
/* pixels */
"E E E Q a n l m l a a W a l l n l z l l j ! z j j j ! z j n n m m z z ! W W W a l l z a a W W E ! W W W W W W l z z z z l l a Q ",
"E E W Q n l l l l Q W ~ ~ l l l ! ! ! ! l ^ z l ^ ^ ^ ! n d l j j a a ! W W ! W l l l z ! W W W W l W W Q W W l n l z l n l W W ",
"Q a ! l l z z l l a W W W a l a E E Q W a a l a W i ! ! d Q Q d ~ ! ~ Q E E E a n l j n ! W W W l z ! W W W a ~ l n l n n a W W ",
"l l z z z n l l a Q W W W l Q n W W W W a W a ! ! ! W W d d d d W p Q W W W ! ! l l l l z ! W ! z z l l l l d a l l l l ! d a W ",
"z z z l l z l n Q a a l n W l n z z z ~ ~ d n ~ l z n n d Q d E d d d n z a n n n n ~ n l n m l z z z z l l l W ~ a n a a a d a ",
"z z z z n W ! a l ! n l l l l l z k z Q d a a j z x B M B b b b b b V B M B M b j n n l l m m j l l l z z l l n a W W W Q l l ! ",
"z l l d a W l l l l l n n l l n n l n Q d a m C N K Y R R @.,.2.@.@.o.| T U J x m n a W n m n m z W l l l l n W d W W l a W ~ l ",
"a Q W W Q W a ~ l n l l z l l W l n n m m M ) { 8.m.s.F.H.b.u.z.x.c.s.D.D.A.M.@.] P k b n j a ~ W W W l W ! l l l W Q a Q l l l ",
"W W W W W W l ! l n n j a ~ p a d n k v Y 8.D.s.j.b.c.k.f.z.U.z.E.u.z.z.j.j.F.a.S.A.O.` N j ~ Q E E Q W W a ^ ~ l W l a ~ ~ a l ",
"E W W W l l ! l l l l ( a i ( n a b ' B.p.b.U.K.i.h.z.b.z.z.R.P.i.E.E.z.g.l.I.L.I.n.F.0.@.) b n ~ ~ E Q Q ~ i ! n l z n a l n W ",
"a W l ! l l l l a Q ~ i ^ ( s k P U N.D.c.i.P.P.E.:.G w q 9 2 $ & 3 7 7 A =.;.Y.P.K.Y.j.a.N.| K j a ^ i Q a Q ! l l n l l ! a Q ",
"W l l l z l l l a ^ i l ^ j x N | A.a.v.U.Y.<.y 2 ; .   . & ; @ & & & & @ @ @ 2 *.t.Y.Y.u.k.J.2.J k ^ j ^ i ( a ! l l l l l l W ",
"l l z z ! z ! l ! ! ! z B c H ,.D.H.b.T.-.u O * . O ; - + . . @ . X O $ $ X X $ $ * y w.E.z.u.s.4.` g x z ^ p W a z l l z l a Q ",
"W l n l ! j ! ! ! i ! ^ g I B.C.f.u.e.u & O O O $ O X X @ @ % @ & & @ O X # $ O O O & > %.E.L.z.F.m.[ h k z i Q Q n l n l n a W ",
"Q a l l j ! W W E ! ^ g Y m.G.I.z.E.9 & O * O # $ O @ % * $ ; = * * * $ $ $ $ . o * . + & e R.z.f.G.m.[ x j ~ W a a l l l l d W ",
"W Q a ! l ! ! ! E ( x K ,.F.f.L.1.7 & O & O # $ $ % % : : * = : * * $ ; : $ @ : @ o & O + & 9 e.P.f.F.Z.H b ^ a W ~ z l n ! l l ",
"l ! W W l z z ! ~ j J 4.a.b.T.e.< - @ X @ @ : : ; ; ; : ; ; ; ; ; ; ; ; : ; ; ; ; % @ @ % . ; 6 i.T.k.a.M.f z Q a l z W ~ W l l ",
"l l W W ! l l z n M ..p.n.I.f.Z & + X @ @ ; % - ; ; ; ; ; ; ; ; ; ; ; ; ; ; ; ; : : $ @ @ @ X % #.h.P.d.C.O.B j l m l p W W l l ",
"l i ! ~ W a l z b _ N.v.T.z.D & o o O @ @ ; ; ; ; ; ; ; ; ; ; ; ; ; ; ; ; ; ; ; ; : % % @ @ X X % =.I.T.d.Z.J B z ^ a W a ! l l ",
"z a ! W W W ~ z N @.H.f.l.=.@ . @ @ @ & ; * ; : ; ; ; ; ; ; ; ; ; ; ; ; ; ; ; ; - ; ; : ; @ O % + . q.T.n.C.O.H k ~ Q Q a ! ^ j ",
"l l l l E E ~ k Y D.f.Y.w.4 . ; @ % ; ; ; ; ; ; ; ; ; ; ; ; ; ; ; ; ; ; ; ; ; ; ; ; ; ; % $ # O o > 1 P.z.f.C.I k W E Q l j ! l ",
"a ~ z a W W d M 6.j.L.Y.F O & @ @ @ ; ; ; ; ; ; ; ; ; ; ; ; ; ; ; ; ; ; ; ; ; ; ; ; ; ; $ % % X O . & $.Y.i.F.,.V W Q Q a l z l ",
"a z l l Q i m _ D.h.P.1., & @ O @ ; ; ; ; ; ; @ ; ; ; ; ; ; ; ; ; ; ; ; ; ; ; - ; ; ; ; : 2 % X O O = 2 Y.P.z.V._ z i W l z ! l ",
"! ! j l / a V +.a.Y.K.*.O O @ @ ; ; ; ; ; ; : ; > ; ; ; ; ; ; ; ; ; ; ; ; ; ; ; : % ; : % $ = 2 @ O O * %.P.h.j.} V a W l l ! l ",
"! ! l l d b v B.c.z.L.3 @ @ X % ; ; ; ; - ; $ ; ; ; ; ; ; ; ; ; ; ; ; ; ; ; ; ; % % 2 % % 2 % % @ . @ @ 6 R.U.j.8.H j Q n a m a ",
"a ! l l n b U S.c.z.<.& X O @ % ; ; ; ; ; ; ; ; ; ; ; ; ; ; ; : ; ; ; ; ; ; ; ; % $ $ $ $ $ % $ @ @ @ O > <.z.c.V.Y b d l a ~ j ",
"! W a ! d N R F.b.h.#.+ X @ % % ; ; ; ; ; $ ; ; ; ; ; ; ; ; ; ; ; : ; ; ; ; > ; % 2 2 % % $ $ 2 % % @ +   =.z.b.F. .B n l a ! ! ",
"! a ! ! a N 2.x.b.b.t & @ $ % % ; ; ; ; ; * - * ; ; ; ; ; ; ; ; ; ; ; ; ; ; ; ; % $ $ % % 2 % % : % + +   Z z.f.c.,.V l ^ l l ! ",
"a l z ! p N 9.z.h.U.7 & o O $ : ; ; % ; ; ; ; ; ; ; ; ; ; ; ; ; ; ; ; ; ; ; ; ; $ % % $ % $ = % : $ O $ o 7 z.z.x.9.B a ~ z a ! ",
"W a l ! Q M a.U.U.z.& O O & $ : ; ; ; ; ; ; ; ; ; ; ; ; ; ; ; ; : ; ; ; ; ; ; ; $ 2 2 $ % 2 % $ : $ @ O & & u.E.z.p.M d n l a ! ",
"W ! j ! Q b D.U.Y.K.& X O @ * = : ; - ; ; : ; ; ; ; ; ; ; ; ; ; ; ; ; ; ; ; ; ; % % % = % 2 2 $ = $ @ @ X X U.U.E.s.B E l z a ! ",
"l ! j ! Q b D.U.U.P.& X @ O : $ * * $ ; ; ; ; ; ; ; ; ; ; ; ; : ; ; ; ; ; ; ; ; % $ 2 % % $ % % = % O @ & * P.z.h.s.b Q W z l a ",
"n a n l d B V.U.Y.L.@ X @ @ ; ; ; $ * ; ; ; ; ; ; ; : % & ; ; ; ; ; ; ; ; * ; ; : ; ; ; ; ; ; : ; : @ @ O @ L.I.I.s.M Q l n l l ",
"l l n n n M V.U.I.L.+ @ @ @ ; ; ; ; ; - ; ; ; ; ; ; * ; ; ; ; ; ; ; ; ; ; ; ; & ; ; ; ; ; ; ; ; ; ; @ @ @ + L.I.z.V.M d l n a l ",
"W n n a d M V.U.I.L.@ @ # @ ; ; - ; ; ; ; ; ; ; ; ; & ; ; ; ; ; ; ; ; ; & ; ; ; ; ; ; ; ; ; ; ; % : @ @ @ @ L.I.I.V.M d l l ! l ",
"l ! n n n M V.U.I.L.@ X $ @ : ; ; $ ; ; ; ; ; ; ; ; ; ; * ; ; ; > ; ; ; ; ; ; * ; ; ; ; ; ; ; ; : % $ O @ @ L.L.T.V.M d l ! l ! ",
"! l n l n M a.I.I.h.@ O # @ % % ; % ; * ; ; ; : ; ; ; ; * ; ; ; ; ; ; ; % ; * ; ; ; ; ; ; ; ; ; % : $ O @ @ L.T.z.V.M d l l ! l ",
"a ~ n W d M A.z.L.L.@ @ @ @ : : ; ; ; ; ; ; ; ; ; ; ; * ; ; ; ; ; ; ; ; : * ; % ; ; ; ; ; ; ; ; : % @ # X @ L.L.T.a.M d l ~ l ! ",
"W l n ! n M a.I.z.L.@ O @ $ ; - ; ; * ; ; ; ; ; ; ; - $ ; * ; ; ; ; ; ; ; ; ; * ; ; ; ; ; ; ; ; ; ; @ O @ @ g.T.I.V.c d l l W l ",
"l l ~ l d M V.L.L.z.@ + $ @ ; ; % ; $ - ; ; ; ; ; ; ; ; ; = ; ; ; ; ; ; - $ ; ; ; ; ; ; ; ; ; ; % : @ O + @ L.L.I.V.M Q l ! l ! ",
"! l l l n M a.l.L.i.@ @ @ $ * ; : ; ; ; ; ; ; ; ; ; ; ; ; ; ; ; ; ; ; ; ; ; ; ; ; ; ; ; ; ; ; : % : $ @ O @ L.U.I.V.M l l n ! l ",
"W l ~ l d M V.z.L.i.& @ @ @ ; - ; ; ; ; ; ; ; ; ; ; ; ; ; ; ; > : ; ; ; ; ; ; ; ; ; - ; ; ; ; ; % * O O @ & L.L.I.V.M d l n l W ",
"l a ~ ! n M V.T.z.i.@ & $ $ * ; ; ; ; ; ; ; ; ; ; ; ; ; ; ; ; ; ; ; ; ; ; ; ; ; ; ; ; ; ; * ; ; ; % @ $ & @ L.I.T.V.M d z ! l ! ",
"~ l n l d M V.I.z.i.@ @ O $ ; ; ; ; ; ; ; ; ; ; ; ; ; ; ; ; ; ; ; ; ; ; ; ; ; ; ; ; ; ; % ; * ; % : @ @ o @ L.L.I.V.M d ! l W l ",
"l W l ~ n M a.z.z.i.O @ @ * ; ; ; ; : ; ; ; ; ; ; ; ; ; ; ; ; ; ; ; ; ; ; ; ; ; ; ; ; ; ; ; ; & : % $ @ @ + L.U.z.V.M d l l ! l ",
"~ l n l d M V.I.L.i.@ @ @ & ; - ; ; ; ; ; ; ; ; ; ; ; ; ; ; ; ; ; ; ; ; ; ; ; : ; ; ; ; ; * ; * ; ; $ O O @ L.I.T.a.M d l ! a ! ",
"l a n l n M V.I.L.i.@ @ $ $ ; ; ; ; ; ; ; ; ; ; ; > ; ; ; ; ; ; ; ; ; ; ; ; ; ; ; ; ; ; ; ; ; ; % % O # @ + L.I.I.V.c d l l ! l ",
"l ! n Q n M V.I.h.i.@ @ @ $ : ; ; ; ; ; ; ; ; ; ; ; ; ; ; ; ; ; ; ; ; ; ; ; ; ; ; ; ; ; ; * * - : % $ O @ @ L.I.I.V.M Q l ! l ! ",
"~ ! n ! n M a.I.L.i.+ @ @ $ * ; ; ; ; ; ; ; ; ; ; ; ; ; ; ; ; ; ; : ; ; ; ; ; ; ; ; ; % ; * - ; : : $ O @ @ z.I.I.S.M d l n l l ",
"a l ~ l d M A.z.h.i.@ & $ * ; ; ; ; ; ; ; ; ; ; > ; ; ; ; ; ; ; ; ; ; ; ; ; ; ; ; ; ; ; ; ; ; ; % % O # @ @ z.I.z.a.M d l n l ! ",
"W l n a n M V.z.L.i.@ @ @ * ; ; ; ; ; ; ; ; ; ; ; ; ; ; = ; ; ; ; ; ; ; ; ; ; ; ; : ; ; @ ; ; ; % % @ O @ @ L.L.T.V.M d l l W l ",
"l l ~ l n M V.T.L.i.O @ @ @ ; - ; ; : ; ; ; ; ; ; ; : ; > ; ; ; ; ; ; ; ; ; ; ; ; ; ; ; ; ; ; ; % % @ # @ @ L.T.z.V.c Q l ! l ! ",
"~ l ~ l n M V.z.z.i.@ @ $ $ $ ; ; ; ; ; ; ; ; ; ; ; ; ; ; ; ; ; ; ; ; ; ; ; ; ; ; ; ; - ; ; ; ; : % @ @ @ @ L.L.z.a.M d l z W ! ",
"! a n W n M a.I.I.i.& @ O $ ; ; ; ; ; ; ; ; ; ; ; ; ; ; ; ; ; ; ; ; ; ; ; ; ; ; ; * * ; ; ; ; ; % : O @ @ @ g.T.T.C.M d l ! ! ! ",
"l l ~ l d M a.I.L.i.@ @ @ $ ; % ; ; ; ; ; ; ; ; ; ; ; ; ; ; ; : ; ; : ; ; ; ; ; $ : ; ; - ; ; ; : % $ # @ @ h.P.I.V.M a l l l W ",
"~ a n l n M A.z.I.i.@ @ $ @ ; ; ; ; > ; ; ; ; ; ; ; ; ; ; ; ; ; ; ; ; ; ; ; ; ; ; % - * ; ; : ; % : $ # @ @ L.I.I.V.N W l ! l l ",
"! ! n ~ n M V.U.L.h.+ & O $ ; ; ; ; ; ; ; ; ; ; ; ; ; ; ; ; - ; ; ; ; ; ; ; ; ; ; ; ; ; ; ; ; ; % : $ O O @ L.I.I.V.M n l l ! l ",
"l a n a d M V.U.L.L.@ @ $ O ; ; ; ; ; > ; ; ; ; : ; ; ; ; ; ; ; - ; ; ; ; ; ; ; ; ; ; ; ; ; ; ; : % O @ O & L.L.I.V.M d l n l W ",
"n W n n n M V.U.L.h.O @ $ @ ; ; ; ; ; ; ; ; ; ; ; ; ; ; ; ; ; ; ; ; ; ; ; ; ; ; ; ; ; ; ; ; ; ; % : O @ @ & L.I.T.V.M d l ! ! l ",
"! l n d n M V.I.L.L.@ @ O @ ; - ; ; ; ; ; ; ; ; ; ; ; ; ; ; ; ; ; ; ; ; ; ; ; ; ; : ; ; ; ; ; ; % : @ O O + L.I.I.V.M d l l l ! ",
"l ~ n l d M a.z.L.L.@ O $ @ $ : ; ; ; ; ; ; ; ; ; ; ; ; ; ; ; ; ; ; ; ; ; ; ; ; ; ; ; ; ; ; : ; ; : @ @ O @ z.L.z.V.M d l n ! l ",
"! a ~ l n M a.b.I.h.@ + O $ ; ; ; ; ; ; ; > ; ; ; ; ; ; ; ; ; : ; ; ; - ; * ; ; ; ; ; ; ; : % : ; % O O + @ L.I.T.a.M d l ! a ! ",
"l ! n a n M S.I.I.L.@ @ @ @ ; ; ; ; ; ; ; ; ; ; ; ; ; ; ; ; ; ; > ; ; ; ; ; ; ; ; ; ; ; ; ; % : % % # O @ @ L.I.g.V.M n l l ! l ",
"W l n ! n M C.I.I.L.@ @ @ @ ; ; ; ; ; ; ; ; ; ; ; ; ; ; ; : : ; , ; ; * ; ; ; ; ; ; ; ; ; ; : : : % @ @ @ @ L.I.I.V.M W l ! l ! "
};
