/* XPM */
static char *_3b964a794974b22da6d73985e2eaf25ZxP8akqfVlViwOYm[] = {
/* columns rows colors chars-per-pixel */
"64 64 255 2 ",
"   c #0C0C0B",
".  c #070806",
"X  c #120D0C",
"o  c #150905",
"O  c #0A1408",
"+  c #1B130D",
"@  c #17160A",
"#  c #0D0D12",
"$  c #150C14",
"%  c #0C1415",
"&  c #141514",
"*  c #1A1415",
"=  c #141A15",
"-  c #1B1A15",
";  c #14151A",
":  c #151B1B",
">  c #1C1B1B",
",  c #1A151A",
"<  c #221D1C",
"1  c #261A16",
"2  c #271513",
"3  c #1B231A",
"4  c #18230D",
"5  c #23231D",
"6  c #29261A",
"7  c #382B18",
"8  c #3B331C",
"9  c #3C3617",
"0  c #373109",
"q  c #1D1C22",
"w  c #161727",
"e  c #0E1824",
"r  c #241D23",
"t  c #371F23",
"y  c #1D2325",
"u  c #242423",
"i  c #2A2C25",
"p  c #24242A",
"a  c #252A2B",
"s  c #2B2C2C",
"d  c #282626",
"f  c #322D2C",
"g  c #382825",
"h  c #2C312C",
"j  c #29312A",
"k  c #3B3424",
"l  c #32322C",
"z  c #3A332B",
"x  c #373929",
"c  c #2C2C31",
"v  c #272832",
"b  c #332D32",
"n  c #392D37",
"m  c #2D3334",
"M  c #333334",
"N  c #363A3A",
"B  c #3B3B3C",
"V  c #383637",
"C  c #581D1A",
"Z  c #471F15",
"A  c #482A09",
"S  c #55280A",
"D  c #473406",
"F  c #523406",
"G  c #442D1B",
"H  c #472B17",
"J  c #582719",
"K  c #43331A",
"L  c #493319",
"P  c #543217",
"I  c #612318",
"U  c #591E24",
"Y  c #501B2A",
"T  c #6E1A2B",
"R  c #4B2B23",
"E  c #492827",
"W  c #542424",
"Q  c #572728",
"!  c #433323",
"~  c #473428",
"^  c #492B35",
"/  c #582934",
"(  c #433738",
")  c #553538",
"_  c #632527",
"`  c #6B2C3B",
"'  c #78293B",
"]  c #723033",
"[  c #601F1D",
"{  c #3C423B",
"}  c #43433E",
"|  c #504835",
" . c #3A3A42",
".. c #523645",
"X. c #6B2D46",
"o. c #782C44",
"O. c #6A3647",
"+. c #773447",
"@. c #6F3752",
"#. c #3F4443",
"$. c #454646",
"%. c #4D4B4D",
"&. c #756651",
"*. c #961F38",
"=. c #881D2F",
"-. c #8B2529",
";. c #93252B",
":. c #882738",
">. c #942435",
",. c #86333A",
"<. c #B1383E",
"1. c #995E37",
"2. c #A45E36",
"3. c #B14839",
"4. c #96652B",
"5. c #946433",
"6. c #996837",
"7. c #8D6635",
"8. c #A76639",
"9. c #A36C2D",
"0. c #872844",
"q. c #833345",
"w. c #982A48",
"e. c #AA3C4B",
"r. c #B53D4C",
"t. c #BB3C4C",
"y. c #B93A47",
"u. c #AB3D54",
"i. c #B53D53",
"p. c #BB3B53",
"a. c #B43C5A",
"s. c #BB3C5A",
"d. c #BD3553",
"f. c #B92F49",
"g. c #B23D61",
"h. c #C23A56",
"j. c #C13B4D",
"k. c #96484A",
"l. c #994A59",
"z. c #965356",
"x. c #8E5253",
"c. c #AA4449",
"v. c #B54243",
"b. c #B94144",
"n. c #B4414B",
"m. c #B9444B",
"M. c #AC4254",
"N. c #AC435A",
"B. c #A54857",
"V. c #B24254",
"C. c #B8425A",
"Z. c #966648",
"A. c #8A6959",
"S. c #966755",
"D. c #896849",
"F. c #984C63",
"G. c #9B5266",
"H. c #B54363",
"J. c #A44765",
"K. c #B76C73",
"L. c #A76447",
"P. c #C24056",
"I. c #D66659",
"U. c #CD6A5C",
"Y. c #D0586D",
"T. c #CB676A",
"R. c #D46463",
"E. c #D4656B",
"W. c #D86769",
"Q. c #C96976",
"!. c #D56671",
"~. c #C77372",
"^. c #E16A69",
"/. c #B7933D",
"(. c #C3943F",
"). c #BB9647",
"_. c #BD8C58",
"`. c #BD925C",
"'. c #BA9757",
"]. c #B68F4E",
"[. c #B68E69",
"{. c #AB956A",
"}. c #B5936C",
"|. c #BA936D",
" X c #B79764",
".X c #B88B74",
"XX c #AB9575",
"oX c #B89575",
"OX c #AA8D75",
"+X c #BAA061",
"@X c #C48C4C",
"#X c #CB8D4C",
"$X c #C98A47",
"%X c #C5944C",
"&X c #CB924B",
"*X c #C59546",
"=X c #C48D54",
"-X c #CC8D53",
";X c #C38D5B",
":X c #CB8D5B",
">X c #C78657",
",X c #D38C56",
"<X c #C49354",
"1X c #CB9253",
"2X c #C5935B",
"3X c #CB945B",
"4X c #C89958",
"5X c #D39357",
"6X c #D2914C",
"7X c #C78D68",
"8X c #D68B62",
"9X c #C59263",
"0X c #C69768",
"qX c #C39576",
"wX c #CD936B",
"eX c #DDDB78",
"rX c #E8DA7A",
"tX c #F9D27C",
"yX c #F0CF78",
"uX c #ECE379",
"iX c #C57085",
"pX c #B49384",
"aX c #DDD698",
"sX c #E8CC87",
"dX c #F9CE88",
"fX c #EAD588",
"gX c #F7D587",
"hX c #ECCD97",
"jX c #FACB98",
"kX c #EAD597",
"lX c #F4D697",
"zX c #DCD7A9",
"xX c #DCD0AF",
"cX c #E8CBA7",
"vX c #F9CAA5",
"bX c #E7D5A6",
"nX c #E7D7B5",
"mX c #F9D7B3",
"MX c #F0D1A9",
"NX c #FEEBA8",
"BX c #FCF4AC",
"VX c #FFE3BD",
"CX c #FCECB7",
"ZX c #FBF3B6",
"AX c #E8E8B4",
"SX c #EBE18F",
"DX c #FFE3C4",
"FX c #FCE9C8",
"GX c #FCF6C7",
"HX c #FCF5D2",
"JX c #F3EAD6",
"KX c #FEFCE8",
"LX c #FFFCF2",
"PX c #F5DCC6",
"IX c #C09688",
/* pixels */
"O a #.a , g b + f . y i O @ . ; ; * =   i &   b r $ $ . d < - i r & v v y * - 5 i i ( * : y u ; q a % 3 b u i = d z & = - b u . ",
"3 j M r 1 b n b d u a N u u w . >   . & M q p  .%.s d f c s N $.s y v  .N $.5 j i d ( M h a > q s a a N h r a p ( z i u - M = y ",
"= = & u f M q N n m w u - o X $   & y i M m a : s h r b N M m > M N j j u f 5 { N a V M h j s N V l N j - s  .v  ...m N 6 < : m ",
"> s u N { N N %. .v p a s * $ r * - V i i { j j N V u  .%.{ N & M ..y m ( a a m a m ( M y i a l b u l 3 r m y y  .p w q V d s < ",
"; N s M N N { x V V  . .N v r , > X b f V h y $.$.{ h #.{ V } M z i 6 h $.} $.M p M V M l } M b f b $.v d ( h x m m #.v N n s s ",
"v  .u y a M { { x { m N r v , o   * s M } i j { a m l l 6 x z l g 4 x 6 l } M N N  .f s N $.V B c n %.c r $.} x { #.#.v n  .f 5 ",
"r  .b V M N { } i 5 = u p n : .   r c , a i $.{ M $.l 6 8 8 K nXPXk k | k M s p s b s u s i - i m c B B V ( { B N #.m y m n ( h ",
"v n u d b $.h V 6 6 V 3 p v % =   # c u s 3 i h a < 7 7 L kXkXbXFXHXzX0 1 g r r p s & ; B  .u h = s u = < < 5 5 a m $.c M i u - ",
"u h V i l B 3 3 8 9 x j m M : O 3 %  .p %. . .c a - k 9 {.fXfXlXHXGXZXzX8 x a c M s s   v m w y y m & > N s x k 6 6 | f B b i & ",
"i N { } %.6 8 9 zXnXJXx m s % %   O N q m q p r r - 8 XX+XfXgXyXGXGXZXAXzX8 d u  .u s - v ..c . m #.u M n KXxXnX7 8 | 6 V s M = ",
"> { N M ! K nXZXZXZXJXV n n : = . @ ..b c , > < b d ! {.).).yXuXBXAXaXzXAX7 ( r f 2 f 5 $ t b N < f r b b LXGXZXGXbX0 8 M v N a ",
"% y % l K MXzXaXkXaXKXx ^ ^ 2 2 + < n t t t g t n t 7 mXfXrX(./.GXzXBXBXaXK 2 * t 2 g 7 2 2 2 ..g t n ^ n KXaXaXaXkXMX9 6 m : . ",
"i 3 5 k kXCXZXBXNXCXKXz E Q Y W W R / ^ W Q Q E Y ^ J }.'.yXtXgXGXAXBXZXaXL ^ / Q Q H J / / Z / U Q E ^ ~ LXCXBXBXBXCXbX8 f : a ",
"% j V 8 kXNXBXBXBXVXJX^ A.x.z.x.x.x.l.G.l.z.x.x.X.O.W qX_.%X&X<XGXZXfXlXlXH z.x.x.z.x.k.k.G.z.l.l.F.+.) ( LXCXBXBXNXNXlX7 6 a y ",
": u ( ! sXSXeXeXfXsXLX^ K.K.Q.Q.T.Q.Q.Q.Q.K.K.~.' ` W qX;X:X-X1.HXbXNX].[.S K.iXQ.Q.K.~.Q.!.Q.Q.Q.Q.o.O.E JXkXeXrXuXyXkXK d c y ",
"a M a 8 gXrXuXrXfXkXLX..] -.-.-.;.;.;.;.;.-.-.-.:.,._ z.7X:X:X6.HXkX].'.0XS ,.=.-.;.-.;.;.;.;.;.>.:.0.X.n KXfXuXrXrXgXlX7 c m v ",
": . ; k kX(./.).). XLX^ K.I.W.I.I.I.I.R.U.U.U.U.:.q.C S.L.8.2.8.GX'.%X4X<XS R.I.R.R.R.R.I.I.I.I.I.E.0.o.^ KX'.).).).*XlXG q = O ",
"= % # k hXtXtXtXdXlXLXE ~.R.I.R.I.I.R.I.I.I.U.T.:.' _ .X8X,X2.6.BX'.dXjX`.S U.^.U.U.R.R.I.I.I.I.I.R.w.' g JXsXgXgXyXtXlX! . - = ",
". = ; ~ lXtXtXgXdXhXKXE 3.3.b.y.j.p.t.m.y.b.3.n.:.o.Q S.7X-X:X-XgXfXdX2X}.J c.3.b.b.b.n.t.t.b.v.3.c.T q.~ GXgXgXgXtXtXlX~ . & = ",
"% ; w ~ sX*X(.(.*X'.HXR k.v.3.m.h.i.i.i.y.r.v.V.w.o.W D.>X#X-X4.dXgX<X9X}.J c.v.v.3.y.r.i.p.r.c.m.e.0.o.k bX'./.(.).*XkXz v : @ ",
"w # w z lX).*X*X%X].GXL ] ;.>.*.>.:.:.;.;.;.;.:.' ` / S.8.5XI.8.NX'.>X9X[.P ] -.-.-.;.;.*.*.-.-.;.>.0.o.H bX).*X*X).%XhXz w X . ",
"& ; w l lX).*X*X&X2XzXH ~.!.Y.!.!.Q.T.T.!.E.E.T.q.o.W z.8.,X8X2.NX<X<X_.|.S T.Q.T.!.W.^.W.E.E.!.E.!.0.o.L CX%X&X*X%X%XhXb w q * ",
"  q r ( lX%X1X1X$X5XVXJ c.e.s.h.V.n.y.y.p.p.i.V.:.o.T L.2.2.8X2.NX).@X0X|.J J.a.r.y.j.j.j.t.d.i.i.H.0.o.S hX<X#X1X<X).lXz y d & ",
"1 d w k cX<X-X-X,X>XFXJ l.C.s.d.t.t.r.r.i.a.n.B.q.` Q S.2.2.L.Z.jX'.4X'.oXP k.N.c.c.i.d.t.p.s.s.a.a.0.0.S MX2X-X-X3X%XMXz y z . ",
"6 z & ! lX'.:X:X8X>XvXJ z.N.M.p.p.s.n.c.B.l.J U R ~ K D.D.Z.S.S.MX}.[.|.XXH L J P S l.N.u.u.H.a.N.B.q.' S vX;X7X9X;X2XlXk O O . ",
"6 i , k |.4.Z.6.L.Z.oXR ] q.' :.w.=.:.' ' U IXnXJXFXzXD L D G G H D D D D nXGXFXbXoXU X.,.q.0.' :.' o.` P [.Z.Z.Z.6.5.MXk % 6 6 ",
"p p c ^ oXD.S.S.S.A.pXE O.` +.` +.+.O.) O.Q MXVXFXZXBXfXkXZXFXZXFXZXBXfXlXBXCXVXCXcX^ O.O.O.` O.O.+.X.O.R pXD.S.z.S.S.MXz p   , ",
"w , ( g H S P S J J ~ E R Q Q Q ^ ^ E W Q J P D.D. XsXtXfXfXBXBXBXBXfXlXfXfX X7.6.F Z W E W E R Q W Q E H H J J J S I S g M w q ",
". l g mXhXjXCXVXmXVXFXDXFXDXDXvXvXFXDXFXvXvXqXS L D '.tXSXfXuXrXeXeXrXgXyX'.H P F 9XvXvXmXjXFXDXFXFXFXmXcXFXVXFXVXVXVXVXFXx O , ",
"* k K cX5.6.4.5.9.6.5.Z.6.1.5.6.5.7.4.6.4.1.6.Z.D {.gXgXD fXuXeXuXrXfXF gXkXoXA 7.6.9.2.2.6.4.4.6.6.1.5.8.6.6.7.4.4.4.6.nX0 h # ",
"% 5 9 MX3X%X].%X%X1X3X:X>X1X1X%X2X=X3X#X6X$X4X XL zXfXfXF kXfXrXrXrXkXD fXfXnXD '.%X$X5X,X8X%X%X=X>X5X@X#X>X2X2X<X1X5X'.bX9 5 q ",
"% 5 K kX'.%X&X%X#X#X5X-X-X6X#X#X#X-X&X&X6X&X_.'.D zXkXfXF kXfXfXfXfXkXD fXfXbXD '.'.&X-X,X:X$X&X1X6X$X,X6X,X=X2X%X1X-X_.bX9 - p ",
"= i 9 bX'.<X#X5X,X,X#X$X&X&X#X6X6X$X1X&X@X<X9XF kXBXBXfX'.gXSXaXkXkXfX'.kXNXBXlXD +X).#X#X5X-X#X&X-X#X#X#X,X5X:X1X1X5X9XcXk 6 * ",
"i 6 9 kX`.3X,X$X#X6X&X&X%X1X-X,X&X6X-X=X3X9X[.A kXBXBXNXfX).0 0 D 0 '.gXNXNXNXlX0 {.<X5X,X,X#X6X#X1X1X5X&X-X-X1X@X1X-X;XbX8 2 X ",
"- @ L MX'.].-X,X,X5X%X).].=X>X-X$X&X-X>X=X2X0XF '.gXfXgXlXF nXFXZXkXD lXlXfXjX`.D  X@X$X,X8X,X#X#X<X1X-X3X1X$X#X&X*X$X2XlX0 @ @ ",
"o o 7 cX XwX=X>X>X;X`.9X|.0XwX7XwX;X7XqX7XqX.XS 6.'.dXyXhXF 0 nXnXD D hXsXgX9XZ.D {.0XwX7X7X7X7X9X|.7X7X0X[.2X2X<X%X0X|.zXK 4 @ ",
"# e n ( E A P S J J H E E E Q U C _ Q ~ Y W Q W J qX[.9X|.S }.oXoXXXJ 7X4X`.qXJ ^ ^ W U / Q Q L R Q Y Y Q G P A S F Z G x m % % ",
"w w $   ~ A.S.S.D.S.) @.X.X.o.+.o.X./ ..@.X.X.O.+.Z D.|.qXD.P A H P Z.7XwXZ.S ` ..^ o.+.X.O.O.` E O.@.@.../ x.S.D.S.A.~ $ % e e ",
"    X o R S.6.1.1.L.Z o.q.0.:.:.:.+.Y ` ' 0.0.' o.o.Q Q R ! G R 8 7 ~ R W U +.o.@.Y o.:.0.0.:.' T +.o.o.X./ S.1.8.1.Z.R o * # . ",
"O o + 2 L [.7X:X:X7X_ l.N.i.i.i.N.Q._ x.H.g.f.w.0.o...O.E A.A.H K A.&.~ X.o.o.0.@.T N.i.i.s.u.!.T l.g.F.@./ 7X8X:X7X.XQ o . * X ",
". . - + L }._.1X&XjX[ B.a.i.t.r.m.Y.T c.n.i.g.g.0.o.X.O.R XX.XJ D .XoX~ ` 0.0.0.K.T u.i.t.p.r.E.T l.g.J.X.E 7X-X:X;XMXK . + 5   ",
"O . & + 8 }.9X%X&XjXI l.N.i.t.r.t.W.-.c.n.i.g.g.N.Q.Y O.R pX.XqXqXpX.XW ,.:.u.u.iX:.i.p.j.t.y.W.=.B.C.J.@.W 0X-X-X9XMX8 o = O . ",
"j p > + ! XX2X1X*XjXQ F.N.i.i.t.t.!.>.N.n.y.s.s.r.T.o.` Q Q Y / / / / _ c.c.M.N.Q.:.s.s.p.t.b.R.;.N.a.u.+.Q 9X#X-X9XcX9 = 3 .   ",
"  & r V ! oX0X@X&XjXU F.a.i.t.t.y.W.0.N.n.y.h.p.y.U.:.q.' ' +.o.' o.Y F.c.m.s.i.Q.-.i.d.j.j.b.R.-.V.i.u.X.Q 9X#X,X9XbX8 4 a   = ",
", p < 6 7 oX_.1X(.jXI l.M.t.r.n.<.W.:.B.M.r.h.j.<.^.>.V.g.g.g.H.a.Q.X.F.e.f.h.h.W.-.b.t.p.j.y.W.>.V.i.M.+.J 2X*X6X2XkX9 6 j 4 = ",
"; $ < 1 G }.wX#X(.jXJ F.V.r.r.r.b.R.-.M.V.i.h.d.y.W.-.u.P.d.d.p.d.Q.T F.n.f.h.f.R.;.n.t.t.t.y.E.*.i.t.M.o.W 2X&X,X<XMXK 4 4 * X ",
"  X 5 + ! }.2X$X(.dXJ l.i.t.t.i.n.E.>.i.s.s.h.y.P.W.:.B.i.p.j.m.<.T._ l.V.h.d.P.W.-.m.m.t.t.n.!.>.C.i.V.+.W 9X&X-X:XMX0 6 . * $ ",
"% & i 6 9 }.1X6X(.jXQ F.r.t.t.V.n.!.*.a.d.h.h.y.y.W.:.B.i.m.m.<.v.R.-.B.s.h.d.r.T.-.V.V.i.r.n.E.0.a.i.N.o.Q ;X#X-X3XMX0 x   r t ",
". 3 s - K }.@X6X(.dX_ l.M.r.i.V.n.T.>.s.p.h.p.t.v.R.>.H.i.i.t.r.b.R.>.N.i.h.j.y.!.-.V.i.d.j.y.W.>.u.a.N.+.Q =X1X-X3XhX9 - y u 5 ",
"= & i o ! }.9X<X4XvXU G.e.r.i.r.v.W.>.H.t.p.i.t.3.W.*.H.i.p.p.t.m.W.:.H.a.p.j.j.R.;.V.C.h.j.3.R.-.C.i.N.` Q wX=X2X2XmX7 u p : @ ",
"o < : < ( XX|.|.{.cX/ x.C.y.t.t.<.W.*.s.d.p.p.b.<.W.*.g.a.p.t.j.y.^.>.N.a.d.j.y.E.;.i.C.h.f.b.W.;.i.s.u.O.E oX}.|.oXnXx s v - > ",
"$ V p ( 7 L F A F H G W N.P.f.j.y.R.w.i.p.j.d.t.<.R.w.a.C.P.f.j.y.E.>.u.s.h.y.m.W.-.i.s.d.t.t.W.*.s.a.:.W 7 H P A H D 8 b p   * ",
"o g $ g mXvXVXFXVXFXFXJ B.s.h.s.m.W.*.a.i.j.p.i.b.W.>.g.a.s.t.t.y.W.>.r.i.i.y.y.E.-.C.V.i.j.v.E.*.g.g.0.R nXGXNXNXZXBXGXl u s & ",
"o g r ~ 7.4.5.6.6.Z.MXJ k.N.u.N.c.Q.=.H.u.u.N.u.c.!.=.H.u.u.V.e.v.~.T B.u.u.V.c.T.-.B.N.i.n.c.Q.0.J.l.' L XX X'.'.'.].bXk u > = ",
": q y g |.&X3X@X=X XcXK k.l.G.l.l.K.+.J.l.l.B.l.z.K.,.G.l.l.F.B.l.K.q.G.l.l.B.l.K.+.x.F.J.l.l.K.o.F.G.] P XX0X;X3X1X%XkX7 & 3 3 ",
"% w e z 2X*X#X1X&X<XbXK J J C _ J I Q U _ _ [ Q I J W U Q _ C _ J J Q J _ _ J I Q C Q U _ U _ I U C [ I H oX`.1X-X,X$XkX~ % : % ",
"e v m ~ 2X&X&X-X*X4X}.L |.lXjXjXVXVXFXFXFXPXDXDXDXDXFXDXFXFXDXVXVXvXvXVXDXvXvXvXCXVXFXFXmXDXVXvXjXjXvXqXP |.2X#X8X-X$XdXE v s   ",
"$ ; p ~ ;X5X=X1X&X@XoXA 6.4.4.9.4.5.6.6.1.6.6.6.5.5.6.6.6.5.5.6.4.4.7.5.6.4.9.4.6.5.5.5.6.6.6.4.9.9.4.8.A |.<X#X>X5X).gX~ r < u ",
"# , < 7 `.-X>X3X#X1X.XS 2X&X$X$X&X1X<X=X:X3X<X<X4X&X].1X:X=X<X=X1X&X1X1X-X-X5X-X1X1X=X=X5X:X-X6XU.$X3X6.S [.%X*X1X<X).lX~ c p = ",
"  s 5 8 qX2X9X;X3X;XIX_ `.%X5X5X=X2X3X:X;X;X;X2X2X1X=X1X2X=X3X1X<X<X=X3X>X=X-X2X=X2X;X3X9X-X=X;X3X%X9XZ.A qX_.1X_.'.).kXg , & > ",
". % y x OX{.oXoX|.qXpXR XXoXoX}.}.}.}.|.|.oXoX|.[.|.[.|.|.|.oX[.}.|.|.|.|.0X|.|.|.|.|.oX|.|.qXoX.XoXpXD.~ pX.XqXoX{.{.nXl : . . ",
"a   j j ~ K 7 K R G ^ G ! k 7 ) L R R L R ! R L ! L L H H K ~ ~ K H H G H L H G K K L L H G L H ~ R 7 ~ k ! R G ! K 9 8 h % & # ",
", # M m g 1 6 1 < g 1 4 O @ $ ( + 1 6 1 X @ - 1 5 2 k + @ o - l 5 + + 1 + + X 1 X * + @ * + X o < g + 6 @ @ g ( - l - 5 ; q ; o ",
"$ - # O * o <   #   O 4 O O ; r #   . . # = & & 3 . < . - & # ; & # & &   & & > ; - % . : = $ # # 3 O O 4 . ;   . % # ; > $ $ $ "
};
