/* XPM */
static char *_a3f6314d7ac4652fd06c088337935e4JTmJOdSEOhhk9rmd[] = {
/* columns rows colors chars-per-pixel */
"64 64 256 2 ",
"   c #0C0B0C",
".  c #070706",
"X  c #130D0A",
"o  c #140B06",
"O  c #0A1407",
"+  c #13130D",
"@  c #1A140A",
"#  c #0D0E12",
"$  c #0A0514",
"%  c #140D14",
"&  c #0D1415",
"*  c #131414",
"=  c #191414",
"-  c #141914",
";  c #1B1A15",
":  c #14151A",
">  c #151B1B",
",  c #1B1C1B",
"<  c #1B161A",
"1  c #231C1D",
"2  c #241C15",
"3  c #1B221D",
"4  c #18220C",
"5  c #26241A",
"6  c #3B2B1A",
"7  c #3B321C",
"8  c #3B3417",
"9  c #3C370D",
"0  c #1D1C21",
"q  c #161622",
"w  c #231C25",
"e  c #1C2323",
"r  c #232423",
"t  c #2B2425",
"y  c #242A25",
"u  c #24232A",
"i  c #2A252B",
"p  c #252A2A",
"a  c #2B2B2C",
"s  c #2B2A26",
"d  c #312C2C",
"f  c #3A2A27",
"g  c #2C312D",
"h  c #2A3229",
"j  c #3C3324",
"k  c #33322D",
"l  c #3C322B",
"z  c #3A3A2C",
"x  c #2C2D32",
"c  c #2A2735",
"v  c #332D33",
"b  c #3A2C38",
"n  c #2E3336",
"m  c #333333",
"M  c #3C3234",
"N  c #34333C",
"B  c #3A333C",
"V  c #3C3B3C",
"C  c #383A36",
"Z  c #581E1B",
"A  c #521F0C",
"S  c #6C181B",
"D  c #4B2A09",
"F  c #542A08",
"G  c #4A2E12",
"H  c #442D1B",
"J  c #4A2A17",
"K  c #58271A",
"L  c #4A3114",
"P  c #46321A",
"I  c #533316",
"U  c #4F310C",
"Y  c #632415",
"T  c #5A1D24",
"R  c #5A1F35",
"E  c #571D35",
"W  c #461F30",
"Q  c #671B29",
"!  c #6C1B2B",
"~  c #691628",
"^  c #741A29",
"/  c #6B1C32",
"(  c #442C24",
")  c #492B24",
"_  c #432C2B",
"`  c #492829",
"'  c #532523",
"]  c #572728",
"[  c #433324",
"{  c #44332B",
"}  c #493528",
"|  c #432B3B",
" . c #482A33",
".. c #572435",
"X. c #443637",
"o. c #583836",
"O. c #632428",
"+. c #662637",
"@. c #753336",
"#. c #712C33",
"$. c #3B423D",
"%. c #44423B",
"&. c #3C3C42",
"*. c #373543",
"=. c #332F43",
"-. c #413B43",
";. c #573246",
":. c #7C2A45",
">. c #742E49",
",. c #772B45",
"<. c #6A3446",
"1. c #743144",
"2. c #773348",
"3. c #6F2C46",
"4. c #3C4443",
"5. c #464546",
"6. c #4D4F4F",
"7. c #7C6967",
"8. c #725D63",
"9. c #951F39",
"0. c #8A1C2E",
"q. c #8B242B",
"w. c #8C2436",
"e. c #942437",
"r. c #93242B",
"t. c #AC323B",
"y. c #9B5A36",
"u. c #9D5F2E",
"i. c #B8413D",
"p. c #A85A39",
"a. c #AA4937",
"s. c #97652A",
"d. c #976836",
"f. c #8E693D",
"g. c #A86437",
"h. c #AA6732",
"j. c #9D591C",
"k. c #842645",
"l. c #832846",
"z. c #842848",
"x. c #912F48",
"c. c #AA3D4A",
"v. c #BA3E45",
"b. c #B53C4C",
"n. c #BB3C4C",
"m. c #B73849",
"M. c #AD3E55",
"N. c #AE3F58",
"B. c #A53E56",
"V. c #B43D55",
"C. c #BB3C53",
"Z. c #B33D5B",
"A. c #BC3C5C",
"S. c #B93652",
"D. c #B92F49",
"F. c #B53C63",
"G. c #C13B52",
"H. c #964B5A",
"J. c #994B5A",
"K. c #994955",
"L. c #895453",
"P. c #965757",
"I. c #91534C",
"U. c #AC434C",
"Y. c #A94546",
"T. c #B54243",
"R. c #BA414C",
"E. c #B64248",
"W. c #A75A47",
"Q. c #AD4255",
"!. c #AC4259",
"~. c #A5475A",
"^. c #B24255",
"/. c #B74359",
"(. c #A25054",
"). c #956448",
"_. c #8B6759",
"`. c #956657",
"'. c #87644A",
"]. c #A76247",
"[. c #B06550",
"{. c #974E64",
"}. c #8F5666",
"|. c #A54764",
" X c #AF4765",
".X c #876765",
"XX c #906966",
"oX c #B37170",
"OX c #C34257",
"+X c #CE665F",
"@X c #CA6769",
"#X c #D5646B",
"$X c #D76668",
"%X c #CA6C74",
"&X c #D46772",
"*X c #C47372",
"=X c #CF5667",
"-X c #BC8D5B",
";X c #BB9459",
":X c #B8904C",
">X c #B98D67",
",X c #AC946B",
"<X c #BD9265",
"1X c #B5936D",
"2X c #BB936C",
"3X c #B69965",
"4X c #B78C76",
"5X c #AA9778",
"6X c #B89675",
"7X c #A98E70",
"8X c #B7A269",
"9X c #C38C4C",
"0X c #C98C47",
"qX c #C3934B",
"wX c #CA944A",
"eX c #C48D54",
"rX c #CB8D53",
"tX c #C38D5B",
"yX c #CA8C58",
"uX c #D38B58",
"iX c #C69354",
"pX c #CB9254",
"aX c #C3935A",
"sX c #CB935B",
"dX c #C89A58",
"fX c #D39459",
"gX c #D0944E",
"hX c #C58D66",
"jX c #C3926A",
"kX c #C59665",
"lX c #C39674",
"zX c #CB916C",
"xX c #C9A379",
"cX c #D1A353",
"vX c #AE9488",
"bX c #D58E8B",
"nX c #E38F90",
"mX c #E195A1",
"MX c #F8D387",
"NX c #E8CD98",
"BX c #FBCC9A",
"VX c #EAD299",
"CX c #F6D497",
"ZX c #EFCB8A",
"AX c #FBCBA4",
"SX c #E9D3A4",
"DX c #E8D5B6",
"FX c #F1D2AE",
"GX c #FEE8AC",
"HX c #FDE7BB",
"JX c #FFF0B7",
"KX c #DDCCB0",
"LX c #FFE3C4",
"PX c #FEE6C9",
"IX c #F8EEC8",
"UX c #FFDDC6",
/* pixels */
"+ y 5.i > p n * b   2 s & & . O = = = o t @ . s w   %   w i < v 0 * y g , r < 0 a a N * 1 u , + e y & 3 v u u q p g & - > m 1 o ",
"3 h N 0 4 h m a w w t C p e - . 2 X . = d w y 4.6.d i s d p X.5.p 3 m a &.5.w m a r 4.m a r 3 3 h y s V m w i i V C y r > M < 1 ",
"& > : u h $.3 n M b r r q % O +   % e x C N y > g g 3 g $.g m 3 m C k m r r y V &.u m m g m g n C l V s 1 a C p m $.C V p , < v ",
"3 p u V $.h $.6.-.i u r c q X 2 = > &.p a &.p g C m 3 $.6.z $.z l M t d B d d a a g 4.N e p p m s t k 2 1 k w r m p > r N i a 0 ",
"- N f M l z $.h V *.&.4.*.m w < 0 # n x n g e 6.$.%.V %.f } 8.7.vXvXl X.5.X.5.&.u B V n n &.m N v m 5.p y V a k V v 5.v V C v p ",
"r V w 1 5 z 6.n N &.a V e u < . $ : x n 5.a g X.M l l  ._ } ] ` f ( _ _ } X.t M B V a u *.6.=.*.x m 5.x 3 %.5.C X.-.V x m B k w ",
"> C v C k $.$.4.h s   5 y y e . # w i , i v -.| .X.X7..XXX.X.XvXvXvXDXKXDXvXvX7.l C d i c c 0 c =.=.=.&.&.&.X.V &.4.x e a k $.h ",
"p V t s k 5.h n f [ } 6 j j m N M b X.| b X.f  . ._ ` ] ' ..' K G L L P 8 P 8 7 [ j l f l _ l X.v &.N v X.( [ { x *.5.a m s e , ",
"s g b v v M r  .`.P.W.(.`.`..X7..X.X.X.X.X.X.X_..X_._._._._._._._._.'._.7XvX5X5X5X5X5X5X5X5X5X5XvX'._.6X4XjXlX4X{ i 5.g $.d d * ",
"5 X.5.-.5.c w _ `.W.[.[.Y F  .| _ ) ) ) ) ( ) ) ) ( ) ) ) ) ) ) H ] ) [ } [ H H 7 H 7 P H L P L F I F y.W.W.g.).) t 5.y V d b 1 ",
"3 C x n -.w c  .W.[.a.p.hX).( X.M  .M M M M M M M M | M M M | M b X.M M M b b X.M b C M | M b _ ' '.K `.W.W.y.).} a 4.h C v m i ",
"- 3 > x x b *.f ].p.p.g.zX)._ x N N b N m N b N N N N N N N =.N b N N N N B B *.N B =.*.=.=.=.-.) XXK `.W.].p.jXf x n y 5 s ;   ",
"y 5 w u w B &.X.W.p.h.p.rX).f &.c N n N N N =.c N N =.N =.=.B *.N N N N N b B b B =.=.*.*.=.=.B } .XK `.W.W.u.jXX.w e $.B d = t ",
"* t $.d X.v w M ].p.p.p.fXhX[ b ;.=.=.b b | | -.| | -.| | b | | | b | | | | | | | | | b b B =.| ` _.K '.].W.g.jX( v r s d t t 1 ",
", y V t t 2 : { ).g.p.p.uXjX' ;.>.>.>.>.>.>.>.>.>.,.,.,.,.,.>.1.>.>.>.>.,.,.,.,.,.>.>.>.>.>.<...] XXK ).).W.p.hXo.-.a p d s a e ",
"x r m k t , > f ).g.W.W.uXzX] <.:.k.k.k.k.k.k.k.:.k.k.:.:.k.k.k.k.k.:.k.z.z.k.k.w.l.:.,.>.2.3.R T `.J `.].p.u.hXf b . r r a g h ",
"= + % w > , + l ].W.W.].yX>X] <.,.z.z.z.z.k.z.z.z.z.z.z.z.z.z.z.z.z.z.z.:.l.k.z.k.z.,.l.:.>.3.E ..}.K `.W.].u.2X_ q # > * = 3 O ",
"@ + % q & * + ( W.W.].p.aX<XJ @.1.,.:.:.z.:.:.z.:.:.l.:.:.z.:.:.:.:.>.>.>.:.k.l.:.:.#.,.,.>.<.E T XXJ `.).y.g.AXX.u r # . . - - ",
"X ; # # .   - ( ).p.p.p.yXzX' ......R R R ..R R R R R R R ..R ..R R R ..R R R / Q ..R R R R ;.b T XXI '.].g.s.AX{ w 0   +   * - ",
". ; > 1 &   > ( ].p.W.g.eX<X' <.1.,.1.,.,.,.1.1.1.1.1.1.1.,.1.,.>.>.1.2.>.>.:.,.@.,.,.3.,.>.<...] `.D `.y.g.h.<X6 % . $ : r * + ",
"+ * * 0 & . + { W.p.a.h.rX<X] }.~.Q.^.M.^.N.N.N.Q.V.N.N.N.N.V.Q.N.N.N.N.!.B.!.N./.!.!.~. X{.3.` ] _.G ).y.g.u.BX} < : + < < #   ",
"+ ; * *   & 0 { zXuXfX0XMXAXZ {.~.V.V.^.^.V.^.V.V.^.V.^.V.^.V.N.N.Q.V.N.Q.Q.Q.Q.B.Q.Q.M.B.K.<.` ' XXI 2XzXyX9XBX6 X * . , : 0 < ",
"  5 y r e &.x f d.g.j.h.0X-X..E / ~ Q Q Q Q Q Q Q Q Q Q Q Q ! Q Q Q ! ~ Q Q Q Q ! ! ! ~ ! +. . .` `.D '.y.h.s.CX{ u m , a r a # ",
"5 r , y a 5.v X.zXrXwX0XMXBX' }.H.H.J.H.J.H.J.H.J.H.J.H.H.H.J.H.K.J.K.J.J.H.J.H.K.K.~.K.|.}.;._ ) _.P 6XhXsXqXCX7 a d r r i v . ",
"u m X , p N x { jXrXgX0XMXMXP }.J.Q.Z.Q.^.Q.^.Q.^.Q.^.^.Q.Q.^.Q.Q.Q.^.N.^.!.!.!.Q.Q.M./.N.|.1...` _.G 6XhXsXwXVX7 a h h * * X . ",
"i r @ d r > < f 2X9XwXqXMXVXJ L.~.N.V.^.N.V.Z.Q.V.N.Z.Q.V.V.Z.Q.Q.Q.Z.V.N.M.M.Q.Q.Q.M.V.F.B.@...] _.G 1XzXtX:XBX[ p y y r > p , ",
"i r k 5 r e N { ;XwXqXqXMXZXI ] Q ! ! ! ! ! ! ! ! ! ! ! ! ! ! ! ! ~ ~ ~ ^ / ~ ~ Q Q Q Q / +.W  .) _.L lXhXyXsXNX7 a & e p 3   - ",
"# 0 2 k r x x j 3XqXqXqXMXCXD '.L.L.L.L.L.L.L.L.L.L.L.L.L.L.L.L.L.L.P.H.P.L.L.P.L.L.L.L.P.L.o. .K '.U <XtXyX:XCXj e 3 g > r , > ",
"  a + t > i x { kXwXpXqXMXZXF D L L G L G L G G G G G G G G L L L H L G J P G I L L L L D K P P F F F ;XyXfXpXCXj m 4.p r p = + ",
"> p ; s V i u } kX0XwXpXMXMXBXFXSXSXVXSXSXSXSXVXSXSXSXSXSXVXSXVXSXVXSXSXSXNXlX-XVXVXVXNXjX2X1X1X2XjX;XaXuX0XwXCX6 # r p r m u + ",
"* x , * , V p ( kX9XpX9XqXdX;X-X-XaXaXaXaXaXiX;XaXaX-XaXaX;XaXaX;X;XaXaXsXsXeXiXaX;X;XkXtXsXtXtXhXaX;X;XrXgXqX;X} r # 0 r 0 , r ",
"& r s * , V a [ >XsXaXkX:X;X<XjX<X<X<X<X<X<X<X<X<X<X<XjX<X<X<X<X;X<X2X<X>X<XhXjX<X;X3X<XjXhXhXjX<XjX;XaXeXpX9X<X7 C m r u   u , ",
"% i w = a 3 t f U F U L L D } ` [ l { 6 ( ( j j l M l  .f l [ H j [ f X.l l _ f { j } f f { [ ( ) K U D F F U G 8 h N , 0 # x # ",
"c v 1 t y + 5 7 6X3X5X,XKXDX` 8.N n n N &.m m m N =.-.c N C k k h m &.c *.N N N N N b =.=.N &.b 8. .4X2X6X2X3XFX9 5 s u x & * # ",
"q # * t s 5 9 1X;X;XVXSXIXG }.W b *.*.=.v *.v V N N N *.N C h 7 X.N x N b -.N N N x B *.N N d M ;..XI >X3X;X;X;XSX8 s * e e & 3 ",
". & . 5 5 8 SXNXMXGXJXIXF oX+.] .. .| |  .W  ._ } f X.B l 7 DXDXIXIXM M  . .} f _  . .W f |  ...W ..oXF CXCXZXCXJXJXz 5 * O ; + ",
"* O X @ 8 KXIXJXGXGXLXI oX@XzXnXbXbXbX@.nXnXbXbXbXbXvX<.} IXHXHXJXJXIXG oXbXbXnX@.oX*XmXmXbXbX@.oXbXbXoXF BXHXGXGXJXIXz . @ @ @ ",
"- + 4 @ 8 ,X3X;X8XCXA I.W.Y.c.T.a.+XS K.U.R.c.T.i.+X#.o.) 5X3X8X3X,XSXG Y.Y.c.U.@XS Y.c.Q.^.c.@XS I.Y.Y.@.J xX-X;X3XKX8 o X @ o ",
"* + . o 7 6XkXeX:XBXK P.Y.v.R.v.T.&X! {./.c./.U.T.@XQ <.) 6X3XD D 1XKXI ~.b.^.Y.%X^ ^.^.Y.U.E.$XS (.M.Q.@.] -XsXiX;XSXj X * X o ",
"X   * ; H 6XtXiXdXZXK J.M.C.S.D.T.@X^ |.V.R.^.U.i.%XT <.) 6X1XF I 7XDX) U.A.c.Q.*XS b.R.^.U.T.@XQ K.V.Z.#.] jXeXpX;XSX8 X . * X ",
"$ $ , 2 H 2X9XwXqXCXK P.Z.A.G.G.i.+X^ ~.V.n.R.b.i.$X! <.K vX7XF F 2XDXK U.c.G.b.@Xq.c.m.v.T.v.#X/ B.F.Z.,.J sXwXwXeXSXj . : 0 # ",
"$ . < @ H 1XpX0X:XBXK K.Z.A.G.G.i.$Xq.Q.C.n.R.b.v.$X! 1.] 4XbX>XzX2XDXJ Q.A.m.n.@X#.b.n.OXi.v.#Xw. XA.Z.3.K kX0X0XiXSX8 & > %   ",
"b i , @ L >XwXwXwXBXK J.Z.C.m.v.i.$Xr./.n.G.C.n.v.#X:.>.R ..] K K I ) ' |.D.G.m.&Xq.n.G.t.OXt.$Xe.Z.C.Z.1.) jXqXwXpXVX9 ; , . o ",
"# * 1 j L 2XdX9XiXBXK J.Q.n.v.v.t.$Xr./.S.n.C.b.n.#Xk.:.z.#.@.@.#.+.' }.B.=XS.C.&Xr.n.n.G.OXT.$Xr.^.S.N.>.] hXrXgXpXVX9 4 y X * ",
"; 5 ; 5 9 1X-XiXwXMXY K.U.b.n.n.S.&Xw.Z.A.C.V.b.m.#Xw.N.~.!.Q.Q.U.%X#.K.M.S.S.^.@Xq.R.S.n.C.b.#Xq.Q.n.!.<.] kXgXgXiXVX9 5 y 3 - ",
"- X , 2 8 1XzXeXwXBXY K.Q.C.V.V.C.&X9.Z.A.A.V.U.R.#X9.V.Z.b.C.n.n.@X^ ~.M.S.OXm.&Xq.^.C.n.C.V.&Xw.Q.V.Q.<.' hXgXuXaXCXL 5 4 - . ",
"# + 5 ; [ ,XaXiXrXBXY K.Q.C.Z.C.C.&Xe.S.V.C.R.T.v.$Xe.C./.S.G.C.b.&XS ~.Z.S.m.v.$Xr.R.n.n.n.R.&Xe.Z.V.Q.1.' hXyXuXtXCX8 5   & & ",
": & a 5 8 1XaXpXyXBXY K.Q.V.C.V.m.#Xe.C.C.m.R.v.R.$Xr.n.V.V.C.n.b.@Xe.~.c.C.n.v.$Xr.R.R.m.C.R.#X9.Z.V.~.1.' hXrXrXsXSX8 g # e r ",
". e a ; P 1X-XgXwXBXO.K.Q.R.V.^.T.@Xe.Z.C.R.S.R.i.$Xe.Z.Z.C.n.n.n.$Xw.!.V.G.G.t.$Xr.V.n.v.OXt.$Xe.!.V.Q.2.] tXrXrXsXNX8 , u r 5 ",
": * s . 7 1XkX9XdXBX' {.c.b.C.c.T.&Xe.A.C.C.C.R.a.$X9. XV.V.C.n.v.&Xw. XS.G.G.G.@Xr.^./.G.G.OX+Xq./.V.!.#.] lXeXaXtXFX8 5 u - + ",
"X , , 1 X.5X1X<X,XSX` H.^.m.G.n.v.$X9.A.m.S.C.n.i.$X9.F.C.C.v.G.v.$Xe./.V.S.G.v.$Xr.V.A.G.G.R.$X9.V.A.N.<.} 6X1X2X6XKXz i u , ; ",
"@ M u X.6 G I D U G ) T Q.OXD.G.v.#Xe.S.G.G.m.G.i.=Xx.Z.V.OXD.G.G.$Xe.N./.G.v.G.$Xq.m.S.D.G.n.#Xr.A.V.w.' 6 G I U G L 8 v c   = ",
"o f + f FXAXHXLXHXLXPX] (.C.A.S.R.#X9.Z.C.C.C.C.v.$X9.F.A.A.n.n.v.$Xr.Q.S.R.m.E.$Xq./.^.m.G.E.#X9.F. Xl.) DXIXGXJXJXJXIXz u p + ",
"o t w { f.d.d.d.f.f.FXK K.^.Z.Q.U.%X0. XB.N.^.U.E.$X0. XB.Q.^.b.T.%X^ ~.B.M.^.Y.%Xq.(.Q.V.^.Y.%Xk.|.B.@.P ,X;X3X;X:X:XVXj r 3 > ",
"< q u f ;XgXdX:XrXkXKXG I.K.{.J.J.oXl.{.J.K.{.K.K.oX2.{.J.K.~.K.K.oXl.P.J.J.~.K.oX@.H.H.|.J.J.oX>.{.|.#.} ,XkXeXdXwXqXVX6 - 3 > ",
": e q d aX0X9XfXwX;XSXG K K Z O.K Y ] T O.O.T O.K Y ] Z ] Q ' O.Y K ] ' ] O.Z O.] Z ] T O.T Q Y Z Z Y ] G 6XaXsXrXpXqXCX{ & - & ",
"q c n { -XgX0XiXwXdX,XL <XBXBXBXHXHXLXLXLXPXLXLXLXHXPXUXUXUXLXHXHXAXFXHXUXAXAXAXLXHXPXPXHXUXHXAXBXBXAXjXI 2XiXrXfXuXwXMX[ i d + ",
"& : u _ kXgXyXyXwX9X6XG d.s.s.h.s.d.d.).y.d.d.d.s.d.d.f.f.d.d.d.d.s.s.d.d.s.d.s.d.s.d.s.d.d.d.s.h.h.s.).D 2XiXwXyXfX:XZX{ w , r ",
"# < 5 6 -XrXeXfX0XsX4XK iXgXwX0XpXpXiXeXaXiXiX9XdXiX9XiXiXiXiXeXpXwXiXiXrXrXuXgXiXiXeXiXsXrXrXpX0X0XsXd.F >XpX0XeXpXqXMX{ v u - ",
". s 5 [ 2XsX-XhXpXtXlXO.-X:XfXgXeXiXsXsXtX-XtXsXiXiXeXsXiXeXsXaXiXiXeXsXyXeXyXyXeXsXtXaXyXtXeXyXhXeXhX).D lX:XiX-X;X:XVX6 : * 3 ",
"  & 3 z 7X,X6X6XlXlXvX) ,X3X6X4X2X2X>X>X2X6X6X1X>X2X2X2X2X6X2X>X1X2XjX2X>XlXlX2X2X2X6X2X>XlX6XlX4X6XbX8.} vX4XlX6X,X,XDXm > . . ",
"p   h h } J 7 H H ) ` H { z ( } ) P } P [ ) H H ) P P H J P } } P H P J G P H J P J P P H P J H ) H 8 P j [ J ) j P 8 7 g # & + ",
":   n n f 2 t 2 1 f 2 4 O 4 = b @ 2 t 2 @ X ; 5 2 2 j @ @ o ; d 1 @ @ 2 @ @ X 2 @ = @ @ = @ X o ; j @ 5 4 @ f M ; k ; 5 * w % $ ",
"% < & O % o 2   % . O 4 O O : w % . . .   > < + r . 2 . - : + : & + * %   * * > : > # . > > # % # 3 O O 4 . *   . -   < , = % % "
};
