/* XPM */
static char *d7be82255bc140a9fa030b55e604fd84ocac2OySYbuRWlze[] = {
/* columns rows colors chars-per-pixel */
"128 128 27 1 ",
"  c #24A65B",
". c #24A75B",
"X c #24A85C",
"o c #25A85C",
"O c #25A95D",
"+ c #25AA5D",
"@ c #25AA5E",
"# c #26AB5E",
"$ c #26AC5E",
"% c #26AC5F",
"& c #26AD5F",
"* c #27AE60",
"= c #27AF61",
"- c #27B061",
"; c #28B162",
": c #28B262",
"> c #28B363",
", c #28B463",
"< c #28B564",
"1 c #28B664",
"2 c #29B765",
"3 c #29B865",
"4 c #29B966",
"5 c #29BA66",
"6 c #29BB67",
"7 c #29BC67",
"8 c #2ABD68",
/* pixels */
";;;;;;;3888888888888888<-;;;;;;#                                                   ;;;;;;;-#                           #--;;;;;;",
";;;;;;8888888888888888881;;;;;;#                                                   -;;;;;*                              *;;;;;;;",
";;;;<388888888888888888881;;;;;*                                                  #;;;;;-@                               *-;;;;;",
";;;,8888888888888888888888>;;;;;                                                  #;;;;;#                                 --;;;;",
";-<888888888888888888888888>;;;;#X                                                *;;;-*                                  #;;;;;",
";<88888888888888888888888886;;;;*X                                              X%;;;;;#                                   ;;;;;",
"18888888888888888888888888883;;;;#                                              X*;;;;;                                    %;;;;",
"888888888888888888888888888881;;;-#                                             *;;;;;;X                                  X#;;;1",
"888888888888888888888888888888>;;;-#                                           #;;;;;;;X                                   #;;18",
"8888888888888888888888888888886;;;;-                                          #;;;;;;;-                                    %;;78",
"88888888888888888888888888888881;;;;%X                                       #;;;;;;;;;#                                   ;;388",
"88888888888888888888888888888888;;;;-*                                      #;;;;;;;;;;*                                  #;;888",
"888888888888888888888888888888883;;;;;#                                    #*;;;;;;;;;;;#                                 -;,888",
"888888888888888888888888888888886;;;;;-*                                  X--;;;>-;;;;;;-#                               *;;,888",
"888888888888888888888888888888888>;;;;;;#X                               X-;;;;138873;;;;-                              %;;;,888",
"8888888888888888888888888888888881;;;;;;;#                              #*;;;>38888888;;;;%                            #;;;;;788",
"888888888888888888888888888888888;;;;;;;;;*                             ;;;;;3888888888<-;;*                          #;;;;;;388",
"888888888888888888888888888888883;;;;;;;;;-*                          #-;;;;388888888888<-;;*                         --;;;;;;78",
"888888888888888888888888888888881;;;;;;;;;;;*                        #*;;;>38888888888886<;;-*                      #-;;;;;;;;18",
"88888888888888888888888888888883;;;;;;;;;;;;;* X                    #;;;;>3888888888888888<-;;%                    #*;;;;;;;;;;3",
"6888888888888888888888888888888-;;;;;;;;;;;;;;*X                   #*;;;>688888888888888888;;;-*                  #-;;;;;;;;;;;;",
"1888888888888888888888888888881-;;;;;;;;;;;;;;;-X                 *;-;;;38888888888888888888;;;;%                X;;;;;;;;;;;;;;",
";1888888888888888888888888886>;;;;;;;;;;;;;;;;;;;X             X #;;;;;3888888888888888888883>;;;%              #;;;;;;;;;;;;;;;",
";;38888888888888888888888888>;;;;;;;;;;;;;;;;;;;;;#            X*-;;;;388888888888888888888883;;;;%X           %--;;;;;;;;;;;;;;",
";;;888888888888888888888888<-;;;;;;;;;;;;;;;;;;;;;;;X         #;-;;;;;888888888888888888888888<>;;;-$X       X%;;;;-*##X#X##*--;",
";;;>3888888888888888888883;;;;;;;;;;;;;;;;;;;;;;;;;;;%#     #;;;>;;;>18888888888888888888888883-;;;;;%X     #;;;;;-#         #-;",
";;;;188888888888888888883;;;;;;;;;;;;;;;;;;;;;;;;;;;;;;;;;;;;;;;;;;;;18888888888888888888888883;;;;;;;;-%-;;;;;;;%            X%",
"%;;;;1888888888888888881>;;;;;;;-***;;;;;;;;;;;;;;;;;;;;;;;;;;;;;;;;>18888888888888888888888888;;;;;;;;;;;;;;;;;%               ",
" #;;;;1888888888888888<;;;;;;-*      *;;;;;;;;;;;;;;;;;;;;;;;;;;;;;;;;8888888888888888888888881;;;;;;;;;;;;;;;-#                ",
"   ;;;;18888888888886>-;;;;;*#        *;;;;;;;;;;;;;;;;;;;;;;;;;;;;;;;388888888888888888888886;;;;;;;;;;;;;;;-X                 ",
"   X#;;;168888888886;;;;;;;#          X;;;;;;;;;;;;;;;;;;;;;;;;;;;;;;;;38888888888888888888881;;;;;;;;;;;;;;%X                  ",
"    X;;;;>688888831;;;;;;*X             ;;;;;;;;;;;;;;;;;;;;;;;;;;;;;;;;68888888888888888888--;;;;;;;;;;;;;%                    ",
"      #;;;;>3361>;;;;;;;*               X;;;;;;;;;;;;;;;;;;;;;;;;;;;;;;;,788888888888888888:;;;;;;;;;;;;;;%                     ",
"      X#;;;;>;;>;;;;;;;*X               X#;;;;;;;;;;;;;;;;;;;;;;;;;;;;;;;,78888888888888882;;;;;;;;;;;;;;%o                     ",
"        **>;;;;;;;;;;;*                   ;;;;;;;;;;;;;;;;;;;;;;;;;;;;;;;;,888888888888882;;;;;;;;;;;;;;%                       ",
"         #;;;;;;;;;;;*XX                   ;;;;;;;;;;;;;;;;;;;;;;;;;;;;;;;;,7888888888882;;;;;;;;;;;;;;%                        ",
"          #;;;;;;;;;*                      #;;;;;;;;;;;;;;;;;;;#%##%*;;;;;;;;77888888882;;;;;;;;;;;;;;%X                        ",
"          X*;;;;;;;;*                       *;;;;;;;;;;;;;;;#X       #*;;;;;;,788888881;;;;;;;;;;;;;;%                          ",
"            *;;;;;--                        #;;;;;;;;;;;;;#            #;;;;;;,,88884,;;;;;;;;;;;;;;%                           ",
"            X;;;;;>-@                        *;;;;;;;;;;;XXX            #;;;;;;;;;1;;;;;;;;;;;;;;;;-o                           ",
"             X*;;;;;*                        #*;;;;;;;;*                 X;;;;;;;;;;;;;;;;;;;;;;;;-X                            ",
"              X;;;;;*                        #;;;;;;;;X                   X-;;;;;;;;;;;;;;;;;;;;;;X                             ",
"              XX-;;;-*                       *;;;;>**XX                    X-;;;;;;;;;;;;;;;;;;;;o                              ",
"               X*;;;;;                       -;;;;;*XX                      X-;;;;;;;;;;;;;;;;;;%                               ",
"                 *;;;;*                     *>;;->*                          X;;;;;;;;;;;;;;:::%X                               ",
"                  ;;;--*                   **-;;-#                             ;;;;;;;;;;;;;;::o                                ",
"                  *;;;;;                  *;;;;;#                               ;;;;;;;;;;;;;;%                                 ",
"                  @;;;;;-                *;;;>-#                                #;;;;;;;;;;;;;o                                 ",
"                   *;;;;;*             #*>;;;;#                                  o;;;;;;;;;;:%o                                 ",
"                   #;;;;;;@           **;;;;*#                                    %;;;;;;;;;:%o                                 ",
"                   #;;;;;;-#        #-*;;;;;#                                      %;;;;;;;;:#                                  ",
"                   #;;;;;;;;#      **;;;;;;X                                        %;;;;;;;-$                                  ",
"                   *;;;;;;;;;*#***;;;;;;>>#                                         X-;;;;;;;%                                  ",
"                   *;;;;;;;;;;*;-;;;;;;;*X                                           o;;;;;;;-                                  ",
"                  X;;;;;;;;;;;;;;;;;;;;;*                                             #;;;;;;;X                                 ",
"                  #;;;;;;;;;;;;;;;;;;;;*                                               %;;;;;;%                                 ",
"                  **;;;;;;;;;;;;;;;;;;*                                                 -;;;;;-X                                ",
"                 *;;;;;;;;;;;;;;;;;;;>*                                                 X;;;;;;%                                ",
"                *;;;;;;;;;;;;;;;;;;;;*                                                   %;;;;;;#                               ",
"               X*;;;;;;;;;;;;;;;;;;;**                                                    ;;;;;;;X                              ",
"               ;;;;;;;;;;;;;;;;;;;;;;#                                                    %;;;;;;;                              ",
"              *;;;;;;;;;;;;;;;;;;;;;;                                                     o;;;;;;:%                             ",
"             *;;;;;;;;;;;;;;;;;;;;;;;XX                                                    ;;;;;;;;%                            ",
"            #;;;;;;;;;;;;;;;;;;;;;;;;XX                                                    ;;;;;;;;;%                           ",
"           %;;;;;;;;;;;;;;;;;;;;;;;;-%                                                     -;;;;;;;;;*                          ",
"          %;;;;;;;;;;;;;;;;;;;;;;;;;;*                                                    X;;;;;;;;;;;*                         ",
"         #;;;;;;;;;;;;;;;;;;;;;;;;;;;;                                                    X;;;;;;;;;;;*#                        ",
"        #;;;;;;;;;;;;;;;;;;;;;;;;;;;;;%                                                  X#;;;;;;;;;;;;-@                       ",
"       %;;;;;;;;;;;;;;;;;;;;;;;;;;;;;;;                                                   *;;;;;;;;;;;;;;*                      ",
"      %-;;;;;;;;;;;;;--#XXXX%;;;;;;;;;;*                                                 #;;;;;;;;;;;;;;;;*                     ",
"     %;;;;;;;;;;;;;;;%    X   %;;;;;;;;;#                                               X*;;;;;;;;;;;;;;;;;*                    ",
"    %;;;;;;;;;;;;;;;o          X-;;;;;;-*                                               *;;;;;;;;;;;;;;;;;;-*                   ",
"  o%::::;;;;;;;;;;;o             #-;;;;;;-X                                            #;;;;;;;;;;;;;;;;;;;;;*#                 ",
" X%;::;;;;;;;;;;;;o               #*;;;;;;*X                                          #;;;;;;;;;;;;;;;;;;;;;;;*                 ",
"X-;;;;;;;;;;;;;;;#                  #;;;;;-*                                         #*;;;;;;;;;<36333<;;;;;;;;-@               ",
"-;;;;;;;;;;;;;;;#                    #;;;;;;#                                       #*;;;;;;;;1388888883<;;;;;;;-#             #",
";;;;;;;;;;;;;;;%                      #--;;;-#                                     #;;;;;;;;;>88888888883;--;;;;-;-#         #--",
";;;;;;;;;;;;;;;X                       #--;;-*#                                   X;;;;;;;;;18888888888888<-;;;;;;;-**     **-;-",
";;;;;;;;;;;;;;o                          -;;-;-                                  #;;;;;;;;;1888888888888888<;;;;;;;;;;;;--;;;;;;",
";;;;;;;;;;;;;%                           #-;;;;%                                #;;;;;;;;;1888888888888888871;;;;;;;;;;;;;;;;;;;",
";;;;;;;;;;::%                             #*-;;;*                             X#;;;;;;;;;188888888888888888881;;;;;;;;;;;;;;;;;;",
";;;;;;;;;;:%oo                              -;;;;*                            %;;;;;;;;;18888888888888888888881;;;;;;;;;;;;;;;;;",
";;;;;;;;;;;#                                %;;;;;%                          %;;;;;;;;;,888888888888888888888881;;;;;;;;;;;;;;;;",
";;;;;;;;;;%o                                X;;;;;;%                       X-;;;;;;;;;,7888888888888888888888888<;;;;;;;;;;;;;;;",
";;;;;;;;;;o                                  ;;;;;;;%                     %;;;;;;;;;;1888888888888888888888888888<-;;;;;;;;;;;;;",
";;;;;;;;;#                                   %;;;;;;;%                   %;;;;;;;;;;,88888888888888888888888888888<-;;;;;;;;;;;;",
";;;;;;;;;                                   X%;;;;;;;;*X               X-;;;;;;;;;;,7888888888888888888888888888888;;;;;;;;;;;;;",
";;;;;;;;;                                    %;;;;;;;;;*#             %;;;;;;;;;;;;788888888888888888888888888888888;;;;;;;;;;;;",
";;;;;;;;;                                    ;;;;;;;;;;;;%     X    #;;;;;;;;;;;;;38888888888888888888888888888888883-;;;;;;;;;;",
";;;;;;;;;                                   #;;;;;;;;;;;;;*#   X #%;;;;;;;;;;;;;;;88888888888888888888888888888888888<;;;;;;;;;;",
";;;;;;;;;                                   ;;;;;;;;;;;;;;;;;;;;;;;;;;;;;;;;;;;;;3888888888888888888888888888888888881;;;;;;;;;;",
";;;;;;;;;#                                 %;;;;;;;;;;;;;;;;;;;;;;;;;;;;;;;;;;;;;7888888888888888888888888888888888886;;;;;;;;;;",
";;;;;;;;;;                                 ;;;;;;;;;;;;;;;;;;;;;;;;;;;;;;;;;;;;;;8888888888888888888888888888888888883;;;;;;;;;;",
";;;;;;;;;;;                               ;;;;;;;;;;;;;;;;;;;;;;;;;;;;;;;;;;;;;;;7888888888888888888888888888888888886;;;;;;;;;;",
";;;;;;;;;;;#                             %;;;;;;;;;;;;;;;;;;;;;;;;;;;;;;;;;;;;;;;3888888888888888888888888888888888883;;;;;;;;;;",
";;;;;;;;;;;;#                           %;;;;;;;;;;;;;;;;;;;;;;;;;;;;;;;;;;;;;;;;,88888888888888888888888888888888888;;;;;;;;;;;",
";;;;;;;;;;;;;;                         X-;;;;;;;;;;;;;;;;;;;;;;;;;;;;;;;;;;;;;;;;;38888888888888888888888888888888881;;;;;;;;;;;",
";;;;;;;;;;;;;;*X                      #*;;;;;;;;;;;;;;;;;;;;;;;;;;;;;;;;;;;;;;;;;;;388888888888888888888888888888886;;;;;;;;;;;;",
";;;;;;;;;;;;;;;*X                     *;;;;;;;;;;;;;;;;;;;;;;;;;;;;;;;;;;;;;;;;;;;;;8888888888888888888888888888888>;;;;;;;;;;;;",
";;;;;;;;;;;;;;;;;X                   *;;;;;;;;;;;;;;;;;;;;;;;;;;;;;;;;;;;;;;;;;;;;;;1888888888888888888888888888881;;;;;;;>33631",
"1;;;;;;;;;;;;;;;;;#                X*;;;;;;;;;;;;;;;;;;;;;;;;;;;;;;;;;;;;;;;;;;;;;;;;18888888888888888888888888881;;;;;;>3888888",
"83;;;;;;;;;;;;;;;;;%               #-;;;;;;;;;;;;;;;;;;;;-;;;;;;;;;;;;;;;;;;;;;;;;;;;;388888888888888888888888881;;;;;;;38888888",
"887,;;;;;;;;;;;;;;;;;#            #;;;;;;;;;;;;;;;;;;;*#####*;;;;;;;;;;;;;;;;;;;;;;;;;;1888888888888888888888881;;;;;;>688888888",
"8883;;;;;;;;;;;;;;;;;;%         X#-;;;;;;;;;;;;;;;;*# XX     #*-;;;;;;;;;;;;;;;;;;;;;;;;38888888888888888888883;;;;;;>8888888888",
"88887,;;;;;;;;;;;;;;;;;-%X      *;;;;;;;;;;;;;>-;;#X            ;;;;;;;;;;;;;;;;;;;;;;;;;388888888888888888883;;;;;;>68888888888",
"888888;;;;;;;;;;;;;;;;;;;;%%%%%-;;;;;;;;;;;;;;;-;#               ;;;;;;;;;;;;;;;;;;;;;;;;;3888888888888888881;;;;;;>888888888888",
"8888888;;;;;;;;;;;;;;;;;;;;;;;;;;;;;;;;;;;;;;;-*#                 %;;;;;;;;;;;;;;;;;;;;;;;;,8888888888888861;;;;;;>6888888888888",
"88888883;;;;;;;;;;;;;;;;;;;;;;;;;;;;;;;;;;;;;;*#                   %;;;;;;;;;;;;;;;;;;;;;;;;18888888888886>;;;;;;;38888888888888",
"888888883;;;;;;;;;;;;;;;;;;;;;;;;;;;;;;;;;;;;*#                     %;;;;;;;;;;;;;;;;;;;;;;;;,78888888883;;;;;;;;188888888888888",
"888888888;;;;;;;;;;;;;;;;;;;;;;;;;;;;;;;;;;;-                        #;;;;;;;;;;;;;;;;;;;;;;;;;,88888881;;;;;;;;;888888888888888",
"8888888883;;;;;;;;;;;;;;;;;;;;;;;;;;;;;;;;;*                          #-;;;;;;;;;;;;;;;;;;;;;;;;;16361>;;;;;;;;;3888888888888888",
"8888888883;;;;;;;;;;;;;;;;;;;;;;;;;;;;;;;;*X                           #;;;;;;;;;;;;;;;;;;;;;;;;;;;;;;;;;;;;;;;;6888888888888888",
"8888888883;;;;;;;;;;;;;;;;;;;;;;;;;;;;;;;*                              #-;;;;;;;;;;;;;;;;;;;;;;;;;;;;;;;;;;;;;;3888888888888888",
"888888888,;;;;;;;;;;;;;;;;;;;;;;;;;;;;;;*                                #;-;;;;;;;;;;;;;;;;;;;;;;;;;;;;;;;;;;;;1888888888888888",
"888888887;;;;;;;;;;;;;;;;;;;;;;;;;;;;;;*                                  X-;;;;;;;;;;;;;;;;;;;;;;;;;;;;;;;;;;;;;688888888888888",
"88888888,;;;;;;;;;;;;;;;;;;;;;;;;;;;;;*                                    #;;;;;;;;;;;;;;;;;;;;;;;;;;;;;;;;;;;;;>68888888888888",
"88888883;;;;;;;;;;;;;;;;;;;;;;;;;;;;;-X                                     %;;;;;;;;;;;;;;;;;;;;;;;;;;;;;;;;;;;;;18888888888888",
"8888883;;;;;;;;;;;;;;;;;;;;;;;;;;;;;-X                                       %;;;;;;;;;;;;;;;;;;;;;;;;;;%;#;;;;;;;>1888888888888",
"888883;;;;;;;;;;;;;;;;;;;;;;;;;;;;--#                                         %;;;;;;;;;;;;;;;;;;;;;;;X     #;;;;;;;388888888888",
"88883;;;;;;;;;;;;;;;;;;;;;;;;;;;;;;#                                           ;;;;;;;;;;;;;;;;;;;;;X        X#;;;;;>38888888888",
"8883;;;;;;;;;;;;;;;;;;;;;;;;;;;;;;#                                            X;;;;;;;;;;;;;;;;;;;            #;;;;;;1888888888",
"881;;;;;;;;;;;;;;;;;;;;;;;;;;;;;;;                                              #;;;;;;;;;;;;;;;;#              *;;;;;;188888888",
"71;;;;;;;;;;;;;;;;;;;;;;;;;;;;;;;X                                               %;;;;;;;;;;;;;;%                #;;;;;;16888888",
",;;;;;;;;;;;;;;;;;;;;;;;;;;;;;;;%                                                 ;;;;;;;;;;;;;%                  #;;;;;>>388886",
";;;;;;;;;;;;;33333,,;;;;;;;;;;;;X                                                 %;;;;;;;;;;;%                    #;;;;;;;>12>;",
";;;;;;;;;;;388888887,;;;;;;;;;--                                                  #;;;;;;;;;;%                      #;;;;;;;>>;;",
";;;;;;;;;,38888888888,;;;;;;;;;%                                                   ;;;;;;;;;;                        X;;;;;;;;;;",
";;;;;;;;,7888888888887,;;;;;;;-$                                                   ;;;;;;;;;                         X#;;;;;;;;;"
};
