/* XPM */
static char *_332af2df47246c3ca20958b507a691atFzQtypCIRYjJMkB[] = {
/* columns rows colors chars-per-pixel */
"128 128 29 1 ",
"  c #758C8E",
". c #758D8F",
"X c #768D8F",
"o c #768E90",
"O c #778E90",
"+ c #778E91",
"@ c #778F91",
"# c #788F91",
"$ c #788F92",
"% c #789092",
"& c #799093",
"* c #799193",
"= c #7A9194",
"- c #7A9294",
"; c #7A9295",
": c #7B9295",
"> c #7B9396",
", c #7C9396",
"< c #7C9497",
"1 c #7C9597",
"2 c #7D9598",
"3 c #7D9698",
"4 c #7E9799",
"5 c #7F989B",
"6 c #80999C",
"7 c #819A9D",
"8 c #829B9E",
"9 c #839C9F",
"0 c #849EA1",
/* pixels */
"       3000000000000009*       $222222222222222222222222222222222222222222222222222        ;222222222222222222222222222$        ",
"     @800000000000000000;      *222222222222222222222222222222222222222222222222222       ,22222222222222222222222222222$       ",
"    @90000000000000000000;     @32222222222222222222222222222222222222222222222222,      ;2222222222222222222222222222222$      ",
"   *0000000000000000000000*     ,2222222222222222222222222222222222222222222222222$     $22222222222222222222222222222222,      ",
"  ;000000000000000000000008@    $3222222222222222222222222222222222222222222222222     $3222222222222222222222222222222223$     ",
" ;00000000000000000000000008     ,22222222222222222222222222222222222222222222223$     $2222222222222222222222222222222223,     ",
";0000000000000000000000000003    $2222222222222222222222222222222222222222222222,      222222222222222222222222222222222222$    ",
"000000000000000000000000000003    ;222222222222222222222222222222222222222222222       222222222222222222222222222222222222$   $",
"000000000000000000000000000000;    <3322222222222222222222222222222222222222222$       322222222222222222222222222222222222$  ;0",
"0000000000000000000000000000008     ,32222222222222222222222222222222222222222$        222222222222222222222222222222222222$ @80",
"0000000000000000000000000000000<    @,322222222222222222222222222222222222223;         $22222222222222222222222222222222222  300",
"00000000000000000000000000000009@     22222222222222222222222222222222222222$           2222222222222222222222222222222222$ @000",
"000000000000000000000000000000003     $,22222222222222222222222222222222223,            $2222222222222222222222222222222<,  $000",
"000000000000000000000000000000009      $2222222222222222222222222222222223;              ,2222222222222222222222222222223$  $000",
"000000000000000000000000000000000$      $,2222222222222222222222222222222,    @,80083@    222222222222222222222222222233$   $000",
"000000000000000000000000000000000$       $222222222222222222222222222222;     60000008@   @;222222222222222222222222222;     800",
"000000000000000000000000000000000@        $,222222222222222222222222222,     5000000000@   @32222222222222222222222222,      ;00",
"000000000000000000000000000000008          $22222222222222222222222222;    o800000000000$   @22222222222222222222222,,       @00",
"00000000000000000000000000000000;            322222222222222222222222,     80000000000008;   @,222222222222222222322,         ;0",
"00000000000000000000000000000006             @,322222222222222222222$     8000000000000008@   $,222222222222222223,;           8",
"8000000000000000000000000000009                ,2222222222222222223$     800000000000000000@   @222222222222222222,             ",
";00000000000000000000000000009@                 ,22222222222222222$    O80000000000000000008@   $2222222222222226$              ",
" <000000000000000000000000009*                   ,222222222222222$     6000000000000000000005@   O>2222222222222$               ",
"  80000000000000000000000000@                     $,22222222222*      200000000000000000000005    O,22222222222$                ",
"   000000000000000000000009@                        ;33222222,$      @000000000000000000000000;     $22222222,O      $;,;,;$    ",
"   @8000000000000000000008@                           $2222,$        ;0000000000000000000000005@     O$2222;$      $23,23,222$  ",
"    @00000000000000000005                             O              30000000000000000000000005       OOOOO O    $2222223222223$",
"*    ;00000000000000000,        O @@                                 ;0000000000000000000000005                 $322222222222223",
"3$    ;000000000000008;       *<2222,                                 000000000000000000000000;               O$3222222222222222",
"33,    ;0000000000008@       ;3<222222                                300000000000000000000008@               223222222222222222",
"222;@   ;80000000008@      $,233222222,                               @8000000000000000000008@              O,222222222222222222",
"2233,    @80000003;       ;232232222222,                                80000000000000000000%              O,2222222222222222222",
"222222$    $6663@        ,22222222222222$O                              $800000000000000000;              O222222222222222222222",
"2222222$               @,3222222222222222$                               $0000000000000000,              $2222222222222222222222",
"22222222$             $2222222222222222222$                               $000000000000003              $22222222222222222222222",
"22222222,$            ,2222222222222222222;                                @8000000000003              @222222222222222222222222",
"2222222222$          2222222222222222222223$                  O$$$$$O       @0000000000<              O2222222222222222222222222",
"2222222223,@        $22222222222222222222222                $;2222233$O      @80000000;              O22222222222222222222222222",
"22222222223,$       ;22222222222222222222222$             $2,222222222,$      @300006$              O>22222222222222222222222222",
"22222222223<,       ,222222222222222222222223@           ;,3332222222333;        *$@               O>222222222222222222222222222",
"2222222222222,      $,22222222222222222222222$O        $22222222222222222,                         $2222222222222222222222222222",
"22222222222222;     O222222222222222222222222$        $2222222222222222222;                       222222222222222222222222222222",
"222222222222223$     $22222222222222222222222$       ,,22222222222222222223;                    O$222222222222222222222222222222",
"2222222222222233$     ,222222222222222222222,      O,22222222222222222222222,                   $2222222222222222222222222222222",
"22222222222222222O    O22222222222222222223,$     $,2222222222222222222222223,                  22222222222222222222222222222222",
"22222222222222222,     $2222222222222222223$     $2222222222222222222222222233;                ,22222222222222222222222222222222",
"222222222222222222@     ,2222222222222232,$     $222222222222222222222222222323,              $,22222222222222222222222222222222",
"222222222222222223$      22222222222222,,$     $2222222222222222222222222222223<;             ,222222222222222222222222222222222",
"2222222222222222223O     $,332222222222$      $6,22222222222222222222222222222222$           $,222222222222222222222222222222222",
"2222222222222222223$      ;,2222222222$     O$222222222222222222222222222222222222$@         $3322222222222222222222222222222222",
"2222222222222222222$       ;22222223,      O$22222222222222222222222222222222222223$         $2222222222222222222222222222222222",
"2222222222222222222$        $22222,$       $6,2222222222222222222222222222222222222,         $2222222222222222222222222222222222",
"222222222222222222,$          $$$         ,22222222222222222222222222222222222222222,        $2222222222222222222222222222222222",
"2222222222222222222O          @         X$,32222222222222222222222222222222222222222,,       X2222222222222222222222222222222222",
"222222222222222222,                     $222222222222222222222222222222222222222222232;       ,222222222222222222222222222222222",
"222222222222222222$                    @2222222222222222222222222222222222222222222222,$      $322222222222222222222222222222222",
"22222222222222222,                     ,222222222222222222222222222222222222222222222222       ;22222222222222222222222222222222",
"22222222222222222$                    $3222222222222222222222222222222222222222222222222,      @22222222222222222222222222222222",
"2222222222222222$                     ,22222222222222222222222222222222222222222222222222$      $2222222222222222222222222222222",
"222222222222222,                     $322222222222222222222222222222222222222222222222223,       ,222222222222222222222222222222",
"22222222222222,                      ;2222222222222222222222222222222222222222222222222222$       ,22222222222222222222222222222",
"22222222222222                       ,2222222222222222222222222222222222222222222222222222;       @,2222222222222222222222222222",
"2222222222222$                       $3222222222222222222222222222222222222222222222222222,        @2222222222222222222222222222",
"222222222222$                        ,22222222222222222222222222222222222222222222222222233         $222222222222222222222222222",
"22222222222O                        OO22222222222222222222222222222222222222222222222222222          $,3222222222222222222222222",
"2222222222$                          O22222222222222222222222222222222222222222222222222222           $3222222222222222222222222",
"222222222$                            2222222222222222222222222222222222222222222222222222,            $332222222222222222222222",
"22222222$O                            O222222222222222222222222222222222222222222222222222$             $22222222222222222222222",
"2222222$                 OO            22222222222222222222222222222222222222222222222222,               $,222222222222222222222",
"222222$               O$$:$$OO         O222222222222222222222222222222222222222222222222,;                $322222222222222222222",
"22222$              O$22222222$O        $22222222222222222222222222222222222222222222222,                  $,3322222222222222222",
"2222$               22222222222>O       O22222222222222222222222222222222222222222222223@                    2332222222222222222",
"22,O              O$5222222222222OO      O,32222222222222222222222222222222222222222223$                      ,32222222222222222",
"2,O               $222222222222222$O      O;222222222222222222222222222222222222222222$                        ;2222222222222222",
"$                $222222222222222222OO     $23222222222222222222222222222222222222222,          *38663$         $322222222222222",
"O               O22222222222222222222$      $322222222222222222222222222222222222222$         $800000006$        $,22222222222,$",
"              OO2222222222222222222222$O     $2222222222222222222222222222222222332,         $80000000008          $,33222222$  ",
"               222222222222222222222222$      ,2222222222222222222222222222222223<$         ;0000000000009*        O$$2223,;O   ",
"              $2222222222222222222222222,      222222222222222222222222222222222<;         ;000000000000009*                    ",
"             $222222222222222222222222223,     O22222222222222222222222222222222;         ;00000000000000009;                   ",
"            $222222222222222222222222222222OO    ,3222222222222222222222222222,$O        30000000000000000000;                  ",
"            ,222222222222222222222222222222$     $2222222222222222222222222222@         ;000000000000000000000;                 ",
"           $22222222222222222222222222222222O     $,222222222222222222222222,$         ;00000000000000000000000;                ",
"           222222222222222222222222222222222$      $22222222222222222222222,          ;0000000000000000000000000,               ",
"          ;2222222222222222222222222222222222O      $222222222222222222232$          ;000000000000000000000000000;              ",
"         $22222222222222222222222222222222222$       $,22222222222222222,$O         ;00000000000000000000000000000;             ",
"         ,22222222222222222222222222222222222O         2232222222222222,           @0000000000000000000000000000000$            ",
"         ,22222222222222222222222222222222222O         O$3222222222222$           O800000000000000000000000000000008            ",
"        $<2222222222222222222222222222222222>O           $2322222322$             ;000000000000000000000000000000000;           ",
"         32222222222222222222222222222222222$O             $,2222$$              @00000000000000000000000000000000000@          ",
"         ,3222222222222222222222222222222222O                                    3000000000000000000000000000000000003          ",
"         $322222222222222222222222222222222O                                     0000000000000000000000000000000000008          ",
"          ,2222222222222222222222222222222$                                      0000000000000000000000000000000000006          ",
"          $,22222222222222222222222222222$O                                      8000000000000000000000000000000000005          ",
"           $22222222222222222222222222222O                                       3000000000000000000000000000000000003          ",
"            $222222222222222222222222222OO                                       $00000000000000000000000000000000000@          ",
"              ,332222222222222222222223;                                          3000000000000000000000000000000000<           ",
"              @;3222222222222222222222,                                            800000000000000000000000000000008@           ",
"               @,22222222222222222222,                                             @8000000000000000000000000000008@            ",
"                 ;222222222222222222,$                                              ;00000000000000000000000000000;       @3855;",
";                 $33222222222222222$                                                ,000000000000000000000000000;       3000000",
"05                  ,22222222222222$                     O                            300000000000000000000000003       30000000",
"008$                 ;222222222232$                   X$$$$$                           3000000000000000000000003      @800000000",
"0008$                 $,222222223$                  $,3322323$$                         30000000000000000000003      @0000000000",
"00009@                  $,22232,                  $322222222222,@                        30000000000000000000<      @00000000000",
"000009@                    $$$$                  $22222222222222;                         300000000000000000;      @000000000000",
"0000009                                         ,22222222222222232@                        ;000000000000008;       8000000000000",
"00000008                                       ;222222222222222232;$                        ;0000000000000@       80000000000000",
"000000003                                    O;222222222222222222222$                        $80000000008        300000000000000",
"000000000@                                   ,22222222222222222222222$                        @30000000;         000000000000000",
"0000000003                                  22222222222222222222222222$O                        @3583>@         3000000000000000",
"0000000005                                $2222222222222222222222222233$                            O           5000000000000000",
"0000000006                                232222222222222222222222222222$O                                      5000000000000000",
"000000000;                              @,2222222222222222222222222222226$ O                                    ;000000000000000",
"000000008                               ,222222222222222222222222222222222$O                                     800000000000000",
"00000008@                             @,32222222222222222222222222222222222$                                     @00000000000000",
"0000000,                              ,2222222222222222222222222222222222222$                                     ;0000000000000",
"0000003@                             ;222222222222222222222222222222222222222$                          $X$        3000000000000",
"000003                              ;22222222222222222222222222222222222222222                       X,222,,$       500000000000",
"00006                              $222222222222222222222222222222222222222222,O                    ,22222332,$      50000000000",
"0006                              $22222222222222222222222222222222222222222222,                   ,,222222222,$      6000000000",
"003                               ,222222222222222222222222222222222222222222222$                O22222222222222$      300000000",
"0;                               ,22222222222222222222222222222222222222222222222$               ,22222222222222,$      ;0000000",
"@                               $222222222222222222222222222222222222222222222223,              222222222222222233;      @300000",
"            @;3866;             ;2222222222222222222222222222222222222222222222222@           $22222222222222222322$       ;;3$ ",
"           300000008$          O22222222222222222222222222222222222222222222222222$           ,222222222222222222226;           ",
"         @60000000000$         $222222222222222222222222222222222222222222222222222          222222222222222222222222$          ",
"        $8000000000000$        $222222222222222222222222222222222222222222222222222        O22222222222222222222222233*         "
};
