/* XPM */
static char *bbb0e8087a034c078c48e6e19b655b39UIldvK8qACqQuuHB[] = {
/* columns rows colors chars-per-pixel */
"64 64 247 2 ",
"   c #0D1E3B",
".  c #091F37",
"X  c #171D38",
"o  c #161C2A",
"O  c #251E35",
"+  c #281E27",
"@  c #04243C",
"#  c #0C243D",
"$  c #062A3E",
"%  c #0C2A3D",
"&  c #0A2535",
"*  c #1B2334",
"=  c #14253D",
"-  c #1B243C",
";  c #132B3D",
":  c #1A293E",
">  c #162434",
",  c #152734",
"<  c #23233B",
"1  c #27293A",
"2  c #393238",
"3  c #322A32",
"4  c #472F33",
"5  c #683C3A",
"6  c #421711",
"7  c #76453A",
"8  c #6A473C",
"9  c #072541",
"0  c #0C2642",
"q  c #062A43",
"w  c #0C2B44",
"e  c #0E2D49",
"r  c #082A4B",
"t  c #142641",
"y  c #1A2642",
"u  c #132B44",
"i  c #1B2B44",
"p  c #122C49",
"a  c #1B2D4A",
"s  c #0C3245",
"d  c #0D314B",
"f  c #073243",
"g  c #133146",
"h  c #13324B",
"j  c #1B334C",
"k  c #1B394E",
"l  c #1E3043",
"z  c #162D50",
"x  c #163551",
"c  c #1D3651",
"v  c #1D3C55",
"b  c #1E3D5A",
"n  c #173B54",
"m  c #072D52",
"M  c #2A2D44",
"N  c #242945",
"B  c #322E47",
"V  c #2B3445",
"C  c #24344D",
"Z  c #2B344C",
"A  c #253A4C",
"S  c #2C3A4C",
"D  c #253746",
"F  c #333344",
"G  c #393444",
"H  c #33344C",
"J  c #39344C",
"K  c #343A4D",
"L  c #383B44",
"P  c #233652",
"I  c #2B3552",
"U  c #233B55",
"Y  c #2B3A54",
"T  c #233D59",
"R  c #2A3D59",
"E  c #323653",
"W  c #323B53",
"Q  c #333E59",
"!  c #3B3A53",
"~  c #413445",
"^  c #413C55",
"/  c #663C4A",
"(  c #1C4054",
")  c #1C4159",
"_  c #1D414F",
"`  c #244156",
"'  c #23415B",
"]  c #2A425B",
"[  c #33425C",
"{  c #3A4359",
"}  c #20404F",
"|  c #2D4762",
" . c #3C4D69",
".. c #3B4A65",
"X. c #3C536C",
"o. c #365069",
"O. c #3D5771",
"+. c #5E494B",
"@. c #4B455E",
"#. c #494B5D",
"$. c #5C4A55",
"%. c #544C5B",
"&. c #5C4C5C",
"*. c #5A4556",
"=. c #57525D",
"-. c #64454C",
";. c #6C4A4B",
":. c #6A4846",
">. c #714A4B",
",. c #744746",
"<. c #644454",
"1. c #644B54",
"2. c #6A4C54",
"3. c #634C5B",
"4. c #69495B",
"5. c #724855",
"6. c #63505C",
"7. c #715151",
"8. c #444C64",
"9. c #4E4C64",
"0. c #444E6A",
"q. c #4B4D6A",
"w. c #494561",
"e. c #544561",
"r. c #534C65",
"t. c #5A4C64",
"y. c #534D6A",
"u. c #5B4D6A",
"i. c #5A4767",
"p. c #4C5265",
"a. c #44526C",
"s. c #4C536C",
"d. c #475569",
"f. c #535166",
"g. c #5A5166",
"h. c #53526C",
"j. c #5B536C",
"k. c #55596C",
"l. c #4D4F72",
"z. c #534D72",
"x. c #594D71",
"c. c #455570",
"v. c #4B5572",
"b. c #445A74",
"n. c #4B5A73",
"m. c #4B5E79",
"M. c #535572",
"N. c #5A5372",
"B. c #525A74",
"V. c #595C77",
"C. c #644C67",
"Z. c #61536D",
"A. c #625565",
"S. c #6B5976",
"D. c #4D607B",
"F. c #6E6A79",
"G. c #7B6A78",
"H. c #74727E",
"J. c #945D5A",
"K. c #A55F53",
"L. c #9A665A",
"P. c #956356",
"I. c #A4645C",
"U. c #A56355",
"Y. c #895F6C",
"T. c #8C646C",
"R. c #8B6B6C",
"E. c #866769",
"W. c #956365",
"Q. c #93646C",
"!. c #93696D",
"~. c #9B6A6C",
"^. c #996764",
"/. c #8B6674",
"(. c #846A75",
"). c #8D6B74",
"_. c #8B667A",
"`. c #846C7C",
"'. c #8B6C7B",
"]. c #866574",
"[. c #936673",
"{. c #946B74",
"}. c #946C7A",
"|. c #9A6C7A",
" X c #976A78",
".X c #8C717D",
"XX c #87727B",
"oX c #937174",
"OX c #95717C",
"+X c #95746B",
"@X c #A36966",
"#X c #B4776B",
"$X c #C67E72",
"%X c #B9836B",
"&X c #AD837D",
"*X c #BB8273",
"=X c #B3827B",
"-X c #B88778",
";X c #C68677",
":X c #C2896B",
">X c #6B6B84",
",X c #746D85",
"<X c #7C6C85",
"1X c #746D8B",
"2X c #796A89",
"3X c #6D738C",
"4X c #697489",
"5X c #757384",
"6X c #7C7283",
"7X c #74748C",
"8X c #7B748D",
"9X c #77798A",
"0X c #6C7892",
"qX c #727A93",
"wX c #797493",
"eX c #886B86",
"rX c #946D81",
"tX c #827184",
"yX c #887388",
"uX c #967182",
"iX c #847793",
"pX c #8B6D91",
"aX c #B57D80",
"sX c #778198",
"dX c #9A8A97",
"fX c #928997",
"gX c #AB8584",
"hX c #AC8A83",
"jX c #AD848B",
"kX c #AD8A8B",
"lX c #A58888",
"zX c #B38584",
"xX c #B98483",
"cX c #B48A84",
"vX c #BB8B85",
"bX c #B3858B",
"nX c #B48A8B",
"mX c #BB8E8B",
"MX c #B59187",
"NX c #AA8D93",
"BX c #A78B98",
"VX c #B68B92",
"CX c #A89196",
"ZX c #BA9199",
"AX c #9292A7",
"SX c #A893A4",
"DX c #C38783",
/* pixels */
"+ -.nX5.1.&.6.+.4.<.`.<XI z p 0 e e & 2 4 6 7 @X^.^.P.L.7 8 >.,.7 7 7 ,.,.,.;.-.1.1.1.$.3.&.%.$.t.*.1.7.8 :.7.;.4.$.1.:.8 lX=.3 ",
"2.NXVX~.R.R.+X{.!.ZX].eX1Xy 9 x w u K 2 CXkXzXgXxX=XvX=XcXMXgXcX-XvX&X=XvXMXW.mXjX|.E.(.(.(.`.uXXXuXT.gX&X&XhXR.{.}.E.+X+XlXBX$.",
"<.'.W.vX%X%X%X;X;X#X XeX<X< = @ w i E.zX).'..XoX!.!.}.rXY.!.T.cXgXhXMX-X-X%X%X;X;X$XaXVXVXuX_._.jX#XaXmXcXmXbXxXaXxX;X#X;X~.].C.",
"C./.[.L.:X:XP.*X$X@X|.eXtXG l % h - E.vX!.(.yXG.).)._._.}.|.!.;.-.E.>.5 ^.@XU.U.K.K.@X@XW.Q. X|.Q.,.J.5 ,./ >.,.@XI.;X;XI.@XT.4.",
">.bXQ.~.^.#XW.~.~.Q./.'.eX<Xi 0 0 = `.|.xXQ.}.`.(.].}. X[.Y.~.!.}._.{.|.Q.~.J.@XI.@XI.L.^.@X^.W.}./.rXrX<._.<.OXQ.@X*XK.~.Q.NX-.",
":.nX XQ.~.|.bX X!. X'.`.<.<X  z d = tXT.xX@X!.oX).oX X[.[.|.T.jX).[.[./.{.jXZXgXnXbXzXcXcX=XzXcX!.}.].}././.'.(.gX=X@XL.W.}.kX;.",
"2.(.rX).J.DXzXzX=XnX<.C.C.<Xz m r t tX>.;X#X*X&XlXkXlX<.C.C.i.3.nXxXzXnXjX-.4.3.&.&.%.6.3.$.$.2.gX-XVXbXxXzXjXVXkXcX-XJ.uX'.(.-.",
"-.CXG.).@X*X,.>.,.;.&.C./.<Xp m m t <XoX;X7 7 ;.;.1.$.3.x.z.y.%.:.,.;.;.3.3.%.y.h.h.q.r.f.g.t.$.:.:.>.:.,.,.-.1.:.:.-X~._.'.CX:.",
";.lXXXE.P.-X-.$.$.&.x.r.'.(., % % : 6X(.mX7 ;.&.t.h.h.t.z.v.p.=.%.$.&.=.%.f.f.t.f.y.M.h.9.y.j.t.%.%.f.y.&.t.t.%.+.7.&X^.}._.gX:.",
":.hXE.oX+X&X&.u.h.y.q.y.4.G., ; w = g..XgX<.*.y.q.q.y.y.z.z.f.p.k.%.f.%.9.9.f.h.y.q.y.r.x.h.x.y.h.h.l.l.h.t.N.h.g.+.cX~.[.}.hX,.",
"7.gXoXoXE.CXi.q.c.0.V.9.C.iX= u 0 t u.`.BX4.g.p.k.s.i.i.z.i.t.t.y.y.y.j.j.t.j.t.t.h.u.y.y.y.s.N.z.h.x.x.t.i.y.e.g.+.lX{.).T.kX:.",
"-.{.T.T.7.2.i.z.v.v.q.y.eX<Xt w p X yX`.4.*.p.q.p.9.r.u.C.u.t.h.y.i.y.y.r.t.t.t.t.t.%.N.J q.y.q.y.v.y.t.%.g.j.j.t.A.3.2./.|.R.;.",
"<.OXT.{.~./ C.x.h.y.h.e.eXpX= 0 # M E.MX&.i.Q q.=.=.y.y.y.i.q.f.h.y.y.h.h.t.y.9.h.e.^ B ,Xu.w.N.s.q.y.%.%.%.=.y.t.t.+.F.[. X{.>.",
"4.jXW.~.^.NXC.z.f.p.f.V.G.eXy 0 i * (.lXZ.0.s.W f.=.f.q.s.f.s.s.s.s.0.s.q.s.h.h.q.7X7Xh.9.j.j.9.d.d.f.f.p.p.f.f.i.%.CX&X~.W.bX5.",
"=.CXW.L.hX2.dXf.s.d.2 F.iXB i $ 0 = 4XS C R R k A [ 8.p.p.d.0.0. .| Y I P Q ..d.s.s.s.s.v.s.p.c.Y Y Y C v ] 0.v.y.SX8 &XP.^.}.<.",
"5X2 CXlXCX4 G V A A L V 5X: % w u u q ' U U T T ] [ { S D U Y Y R v P T Y P Y Y Y Y U Z U I Y Y U Y T T b b b Y I 2 2 &X&XkXlX<X",
": : I Z V S D ` T v w & % ; w w p 0 h v T 0 u U R v U u U U U U p p b w v U U p T U u p w w R ' A u 0 w b e n v U A S 2 L 1 AX1 ",
"% w 0 p w g f % 0 0 % g s $ 0 r 9 e w w w w p u 9 g # u p # d w w @ w h e w e w w w e w e e w 9 w u w p p r r w w w u u % ; ; ; ",
"d r e z p 9 w 0 a a t t u p a 0 p u w u w w w w g w s w @ d @ d e g w w w w w w w w d $ $ w w u t p 0 p 0 z 0 e u u # t t i # j ",
"m f p   0 z x u y   t p w p t N t 0 # u u 0 u u w w w w q s d q # p % # % w u % w w u s w w w % t 0 a p 0 z r e w w 0 p p 9 c . ",
"q e u j 0 e 9 d u = l u 0 p y y y N i t - t i t t t 0 p w w s w i = i i u t i = u i & = i = u u u = w u 9 u p 0 w u u u # u 0 x ",
"i : * o 1 = # u , 1 8.d.O.c.q.h.q.v.q.v.v.s.a.a. .j t u % a @ p u Q a...B.v...v.8.m.a.v...i y : d.d.d.d.i # : i : i > < = i t . ",
"+ XXlXOX'.G.yX(..XG.3 %.j.F f.G y.v.E q.l.M.8.B.v.0.t t t # u a I a.V.a.c.q.Z [ Q 0.a.v.v.a.m.4X5X5XF.9X5X5X9XF.G.<XH.H.6XH.,X3 ",
"4 NX{.jX!.'.).)..XdXdX6XF.9X5X1X3X3XE E Z c.Q 0.c.c.c.i u t g P c.I  .n.C R I C I Y Y P Y Y C Y F L L F G G 6XtXtXtX`.`.`.tX,X2 ",
"4 BX1.<.`.BXdXL Z S S A Y Y Y I Y P U U Y U P Y U a.U u u # j j O.U Y v R c P ' U U U U ` U U Y I R R T Y I E E J tX<X8Xt.%.f.H ",
"4 fX%.g.3.$.~ F A ` k ] c T v b T U U U U U U U ` C b.# g u # O.U U v c v | k c v U v v v v v b T b b b T T R I E B 8Xt.f.h.7XH ",
"2 =.A.%.$.4.dX~ K P U A Q P ' b ) } U U U U U T P P b.# u # # m.' U c ] x v ] ' b b T T v b ) ' b b b b b b R P W y.y.t.5X#.p.K ",
"2 fX%.%.S.^ BX~ I A U U R I b b b U ( U T P U U U b.a.i y # i X.j | v v ] v ` x T c h a ` ] v x b b b b b b U I M h.g.r.Z.f.7XH ",
"{ H.k.%.%.u.<XF Y j ] k o.j ] T U U T T T P U Y Y a.a.i = a i a.R c U U 0 U P T v | | | T c T | T T b b b v Y U E 7Xr.Z.e.i.7X! ",
"2 H.p.H 8Xu.2XZ A } k ' U R P U b T T T T T R P P ] a.= = y = n.T R P R b.t R U T R T T T T c P R T R b b v U Y V iXu.r.j.r.wXB ",
"Y h.9.j.u.e.wXE S } _ _ ) v v v b b b v P T T T ] | m.u u # = X.X.U U U v b.T c U U T T U U U T R T z b ( v U Y E >X@.Z.y.h.q.! ",
"W 3Xy.f.i.N.wXE S A _ k v ( ( ( v b b c c c U T Y T b.0 = j u X.Y U U U T v v R U U T v U c v T I P z c ( ( A A S 9Xf.t.h.9.1XE ",
"E 5Xf.t.t.9.AXH H A C U v b ' n v b v O.u ] U P R j c.i = i = b.U c ` ` U v x ` b b T T T T ` U U a.u x b ` k Y S 7Xr.k.r.f.4XK ",
"J 1Xh.9.y.f.AXK Z E Y R U T n T T c v | v c c Y Y c.c.= u = y a.X.] U j ` ` ` b v b ' T v c U U Y X.U ' v v U R S p.p.f.f.#.sXM ",
"I s.h.7X5XE f.q.7X>Xv. .a.c.R T T ` ) c U u p c c b.X.t a = i a.X.` k u R b T b T b b T T R b U c R U T 0 p c P R d.I 3X3Xk.#.I ",
"C n.A = N = - Q i Y v.Y Y U U T x | v w w g % u u w b.u # i & O.u # u w v n ' ' b x h x v T x p p e p e 9 r z t U = : = y C D.Y ",
"p w n ` u u ; # = # Y u p e w 9 e x d w @ w w w u @ # u u 9 j u u u g u e w w w e e r e e e w w w 0 r 0 p z t r u t = a u i t   ",
"q e d w w w u U ' u w e 9 e e d e q q s w w s w w w s w w % # w w 9 e 0 w e r e 0 e e w w q w q e p p 0 z z 0 p p w u w 0 t p a ",
"d 0 9 q g w # u u % @ u w w q q w w w w e w w p w s w w w g w w u w h w w r w w e e w e e e d e w e e p 0 p t 0 w 9 s w e e p r ",
"0 e p w u w p w # j w w s q d f q h w q w s w w s % w w % w w w w 9 h 9 p 0 e e u r w w r e e w w w 9 p 0 r z r w s w q r e 0 p ",
"r w w w p w w w w % w % w % $ w w w w w w w e w 0 e w w w w w e q e e e u w 0 w u p 0 h 9 u w w q w % w e e w w w s f q s q s w ",
"u g 0 t # = : u u t u u # % u 0 w w w w u u p 0 p 0 w p u e w w w e w 0 w p p p 0 0 g 0 w p w w w u u u 0 w w w u @ g % @ g w q ",
"a.a.a.Z X M.s.8.0.V.q.0.B.v.v.s.b.o.] R T R U U 0 p 0 p p p p w e e e w u u w # u u u t u w t 9 : = = t t = y i : = : y N u ; u ",
"E I Z 3Xv.0.M.M.z.y.q.z.h.q.x.I R c p 0 9 0 u w p 0 p 0 p e 0 r 0 e w w u 0 t a u   a p # g 9 m.B.p.s.v.n.a.0.s.p.M.9.9.p.3X: Y ",
"S qXI V E N N 4X3X>X..I E I I I Y U U U R R T T c T b T U U T b b b v T U P ] a.n. .y t u u u a.q.q.q.s.v.v.s.M.x.<X2XpX8Xh.M I ",
"- Z 8.B.s.4Xn.W Q Y I P P P [ P v U T T b v v c T T T b b b T b v v b ` U C Y a.d.m.a.t y = # n.y.j.M.q...d.s.f.,Xu.C.C.e.9.! E ",
"* k.p.8.s.8.W C C Y U v T b v ) v U U b v T T ' T T T T T T T b v T U ` U U Y R I 4Xc.y a = i 0.q.f.8.] U ` Y Z y.u.Z.e.h.f.qXj ",
"< p.s.f.M.S U Y ` P U b v ) b b T U U T T T U v T T b v b T T T T ' U c U U Y Z I qXv.t = i = v.s.Q C A ` U A Y y.u.%.Z.h.p.4XS ",
"; d.p.9.M.0Xk ( A U U T b ) b U U T U T T T T U U b U T v T v b P R U U T T Y I I v.l.y t t N c.a.Y Y Y T c U I 7Xu.i.g.h.#.9XH ",
": A f.k.z.M ] ( U U P Y n r 0 R T b T U U U U T T U T U T U T U T c R p ) h T T E M.0.t a   t a.b.U P w v ] Y Y qXe.u.%.t.k.>XF ",
"- p.E r.u.wXY C A U R T ) e 0 T v b b ) v v v T v T v T U T U U T v ) w ( d ) U I l.a.w h % u n.c.Y R X.v v P C d.f.k.@.Z.u.5XJ ",
"* h.j.r.u.2XI ] U R T P b x p 0 h h v T b v b v b v T U T U T b b b n n ) ( b T R X.c.u $ % u a.q.I T ) b | c ] u d.q.j.e.u.8XF ",
"3 ,Xt.C.e.y.U A v v T b b | o.] w u j c U T ` U v b ) v ) ( b ( b T b ` ) ' v U R 0.c.u # u ; a.n.R P v v c b.P i > ! 9.u.N.9XH ",
"O fXj.%.N.M.P v ' v T ` j v ] P P P v U T T b v ) v v ) n ) ) ( v T v b b n v Y I l.0.u g u = d.0.Y ' U ' T P Y 0.7X7Xh.j.e.7XK ",
"1 9Xf.t.w.7XP U v v R ] ( v R U ' ] ` ` v v v v U ( U ( v ( b U T U T c T v P R E v.c.t ;   { I [ N P R c U Y I 7XN.r.e.@.M.H H ",
"o 5Xf.r.M 1XZ Y U T U k U U U U c v U U v v U ' U v U U U U U U T T P T R T P Y I s.a.u % u 3XI D Y 0XU U ` U Y 7Xy.h.N.f.9.7XH ",
"O AXt.r.J wXs.v.c ` P k R Y n ( U R h U ' c v U O.v ' U P R U P c U R c ` U c Y E c.a.u % ; X 3X5X4Xh.E A A U A s.8.h.r.f.f.>X^ ",
"< ! 9.r.r.y.1X< u U U R Z I Y # 0 T t j # U c R R Y j ' P R P p w t P 0 p # u P C qXa.w % & D 8.9.{ M S Y U k Y p.K f.r.h.r.iXF ",
"> #.t.H ^ 7XH v.s.0.q.s.i.x.N.q.l.l.c.0X0Xb.T P T c | X.O.U ] P t y Y Y Y Y n.y y Q S # w g C N X 1 - : = : t : - f.f.r.t.9XM - ",
", sXy.e.,X< E #.H N.q.N.x.2X2XN.Q C R Y a.P Y T Y c  .c.R c t R c.8.B.q.c.0.h.s.s.q.. j % % i < h.fXA 8.n.d.s.< - < < wX9.7X= i ",
"; 8.C.pXi.J r.g.i.i.f.p.I [ I Y j R R P ] ' U P ] Y R P Y v.0.l.s.M.8.N.M.M.V.N y.I sXu # i P v.qXW d.n.0.q.z.y.y.q.N.y.: s.; % ",
"u u pXpXt.g.#.k.8XAXp.Z Y v c U T U c P U U j R c P Y R l.c.B.0.s.z.y.y.y.q.{ >XE Z a.9 w w I AXD Z d.d.n.0.M.l.N.9.q.M.qXt g $ ",
"e   1XwX9X#.f.#.6Xk.p.d...v.n.c.c.c.c.R Y U ] X.b.m.X.c.I P R s.q.s.q.M.q.h.l.8.q.n.U $ s $ ; > n.f.> m.v. .v.0.q.z.V.7Xt # p % ",
"q p N X * : , 1 * * > i y = y t t t i 0 t u # p 0 # a # p i = y i X N - - y y y : = s $ f f u i - X y - y a 0 y < N X y y u w p "
};
