/* XPM */
static char *_f7da65a5a714aa48f5c81b4ae354f4ejzV9IbyyXMxy2JQz[] = {
/* columns rows colors chars-per-pixel */
"128 128 22 1 ",
"  c #AA733C",
". c #AB733C",
"X c #AB743C",
"o c #AC743C",
"O c #AD753C",
"+ c #AD753D",
"@ c #AE763D",
"# c #AF763D",
"$ c #AF773D",
"% c #B0773D",
"& c #B1773E",
"* c #B1783E",
"= c #B2783E",
"- c #B3793F",
"; c #B47A3F",
": c #B57B3F",
"> c #B77B40",
", c #B87C40",
"< c #B97D40",
"1 c #BA7E41",
"2 c #BB7F41",
"3 c #BD8042",
/* pixels */
"       -333333333333332&        -$-$-$-$-$-$-$-$-$-$-$-$-$-$-$-$-$-$-$-$-$-$-$-$-$-        o$-$-$-$-$-$-$-$-$-$-$-$-$-$XX       ",
"     $123333333333333333>      +$-$-$-$-$-$-$-$-$-$-$-$-$-$-$-$-$-$-$-$-$-$-$-$-$-$       $--$-$-$-$-$-$-$-$-$-$-$-$-$-$X       ",
"    $23333333333333333331>      -&$--$-$-$-$-$-$-$-$-$-$-$-$-$-$-$-$-$-$-$-$-$-$-$$     X$-$$-$-$-$-$-$-$-$-$-$-$-$-$-$--oX     ",
"   $2333333333333333333322$     $$-$$-$-$-$-$-$-$-$-$-$-$-$-$-$-$-$-$-$-$-$-$-$-&-o     X-$--$-$-$-$-$-$-$-$-$-$-$-$-$-$&oXX    ",
"  >323333333333333333333332$    $-$-$-$--$-$-$-$-$-$-$-$-$-$-$-$-$-$-$-$$-$--$-$&$    XX$-$-$-$-$-$-$-$-$-$-$-$-$-$-$-$-o-o     ",
" &13333333333333333333333221    oo-$-$-$$-$-$-$-$-$-$-$-$-$-$-$-$-$-$-$--$-$$-$-&$    Xo-$-$-$-$-$-$-$-$-$-$-$-$-$-$-$-$--$     ",
"&233333333333333333333333333>   XX$-$-$--$-$-$-$-$-$-$-$-$-$-$-$-$-$-$-$$-$-$--$$     X%$-$-$-$-$-$-$-$-$-$-$-$-$-$-$-$--$-     ",
"32333333333333333333333333221>  XXo$-$-$$-$-$-$-$-$-$-$-$-$-$-$-$-$-$-$--$-$---o      Xo-$-$-$-$-$-$-$-$-$-$-$-$-$-$-$-$$--o   &",
"333333333333333333333333333333>    $-&$-$-$-$-$--$-$-$-$-$-$-$-$$-$-$-$-$-$-$-$X       --$-$-$-$$-$-$-$-$-$-$-$--$-$-$-$-$-X  &3",
"333333333333333333333333333333>     o--%-$-$-$-$$-$-$-$-$-$-$-$--$-$-$-$-$-$-$oX       -$-$-$-$--$-$-$-$-$-$-$-$$-$-$-$-$--X X:3",
"3333333333333333333333333333222>    X%--$-$-$-$--$-$-$-$-$-$-$-$$-$-$-$-$-$--oX        o-$-$-$-$$-$-$-$-$-$-$-$--$-$-$-$-$$Xo:33",
"33333333333333333333333333333221o   X o--$-$-$-$$-$-$-$-$-$-$-$--$-$-$-$-$-$o           $-$-$-$--$-$-$-$-$-$-$-$$-$-$-$-$-oXo333",
"33333333333333333333333333333333:X    o%$-$-$-$--$-$-$-$-$-$-$-$$-$-$-$-$-&&X           o----$-$$-$-$-$-$-$-$-$--$-$-$-$-&  $333",
"333333333333333333333333333333331X     X-$-$-$-$$-$-$-$-$-$-$-$--$-$-$-$-&$ XX   X      Xo-$$-$--$-$-$-$-$-$-$-$$-$-$-$-$o  $333",
"333333333333333333333333333333333$      o-$-$-$--$-$-$-$-$-$-$-$$-$-$-$-$$   X -3333-oX   $$-$-$$-$-$-$-$-$-$-$--$-$-$-&oX  $333",
"333333333333333333333333333333333o     XXoo$-$-$$-$-$-$-$-$-$-$--$-$-$-&$    o:133333:o  XX$$-$--$-$-$-$-$-$-$-$$-$-$-$$     333",
"333333333333333333333333333333333oo       o-$-$--$-$-$-$-$-$-$-$$-$-$-$$    .:333333332%   .&&o-$-$-$-$-$-$-$-$--$-$&-$      :33",
"33333333333333333333333333333333: XX        -$-$$-$-$-$-$-$-$-$--$-$-$$    .133333333322++  .&-&-$-$-$-$-$-$-$-$$-$-$$       $33",
"33333333333333333333333333333333$           X--$-$-$-$-$-$-$-$-$$-$-&$  ..+23333333333332& ..o--$-$-$-$-$-$-$-$--$-$$         >3",
"33333333333333333333333333333222            Xoo-$-$-$-$-$-$-$-$--$-$$   .+:333333333333321+.  .&-$-$-$-$-$-$-$-$$-$$          $1",
"1333333333333333333333333333332>               &-%-$-$-$-$-$-$-$&&&$    .223333333333333332%  ..$-%-$-$-$-$-$-$--$$            $",
"$33333333333333333333333333232>                 o-$-$-$-$-$-$-$--&+     23233333333333333332.   X%-$-$-$-$-$-%-$&$              ",
" >33333333333333333333333322>                   X$-$-$-$-$-$-$--$      :33333333333333333333:+    $%$-$-$-$-%-%-o               ",
"  13333333333333333333333322                    XXo$$-$-$-$-$-%o.     :2333333333333333333333:   XX$-$-$-$-$--oXX               ",
"   13333333333333333333333>>                        o-$--$---$X       233333333333333333333333&     o-&--$---$      Xo$$$+$     ",
"   +1333333333333333333322                          XXo$$-$ooX       &233333333333333333333333,+    Xo%o&-$oXX     X-&&$&&$-$$  ",
"    $13333333333333333121                             XX    X        :333333333333333333333333:       XXXXX X    o$-$-$-&$-$$-$ ",
"+    -33333333333333331>>        XX                    X             :333333333333333333333333,                 X--$-$-$&-$--&-&",
"$$    $233333333333321>        >$-$-$                                .333333333333333333333333&               Xo-$-$$-$-$-$-$-$-",
"-&$    >3333333333331+        > -$-$-$ X                              :33333333333333333333332               X$-$-$--$-$-$-$-$-$",
"$-&$    $1333333113>         > >$-$-&-oX                              .:333333333333333333332+            XX $-$-$-$$-$-$-$-$-$-",
"-$&&$    $>333333>>+       >$ >$-$-$-$-$                               o23333333333333333333&+             oo-$-$-$--$-$-$-$-$-$",
"$-$-$-     $:>,:XX       %-%-$-$-$-$-$-$oX                              $133333333333333333&            X X$-$-$-$-$-$-$-$-$-$-$",
"-$-$-$-               XXo-$-$-$-$-$-$-$--o X                             $1333333333333331-             XX%-$-$-$-$-$-$-$-$-$-$-",
"$-$-$-$-+             X--$-$-$-$-$-$-$-$-$XX                              $13333333333333:              o--$-$-$-$-$-$-$-$-$-$-$",
"-$-$-$-$$+            o-$-$-$-$-$-$-$-$-$-$X                   X           $333333333322-X             X$-$-$-$-$-$-$-$-$-$-$-$-",
"$-$-$-$-$-o         X$-$-$-$-$-$-$-$-$-$-$-o                   o$$+          1333333333:X             o--$-$-$-$-$-$-$-$-$-$-$-$",
"-$-$-$-$-&-         X-$-$-$-$-$-$-$-$-$-$-$$              XX $$-$&-&&$       $13333332&               -&$-$-$-$-$-$-$-$-$-$-$-$-",
"$-$-$-$-$-&$      XXo--$-$-$-$-$-$-$-$-$-$$-o             Xo-$-$$-$--$$+       >2233:$            X X$o--$-$-$-$-$-$-$-$-$-$-$-$",
"-$-$-$-$-$-&&     XXo-$-$-$-$-$-$-$-$-$-$--$-            $&-&-$--$-$$-&&$       +$$$              XXo-$-$-$-$-$-$-$-$-$-$-$-$-$-",
"-$-$-$-$$-$-$oXX    X%-$-$-$-$-$-$-$-$-$-$-$-XXX      XX$$-$-$-$$-$-$-$-$$      +                  o-$-$-$-$-$-$-$-$-$-$-$-$-$-$",
"$-$-$-$--$-$-$$X    X-$-$-$-$-$-$-$-$-$-$-$-$$        o$--$-$-$--$-$-$-$-$$                       $-$-$-$-$-$-$-$-$-$-$-$-$-$-$-",
"-$-$-$-$$-$--$-o     X-%-$-$-$-$-$-$-$-$-$-$-X       o---$-$-$-$$-$-$-$-$-$$                    Xo-%-$-$-$-$-$-$-$-$-$-$-$-$-$-$",
"$-$-$-$--$-$$-$-X     o-$-$-$-$-$-$-$-$-$-$-o       &--$$-$-$-$--$-$-$-$-$--$                   X-$-$-$-$-$-$-$-$-$-$-$-$-$-$-$-",
"-$-$-$-$-$-$-$-$-      --$-$-$-$-$-$-$-$$-$-o      $-$-$-$-$-$-$$-$-$-$--$-$-$                XX-$-$-$-$-$-$-$-$-$-$-$-$-$-$-$-$",
"$-$-$-$-$-$-$-$--o     o$-$-$-$-$-$-$-$--$- XX   $&&$-$-$-$-$-$--$-$-$-$$-$-$&$                o$-$-$-$-$-$-$-$-$-$-$-$-$-$-$-$-",
"-$-$-$-$-$-$-$-$$-X     $--$-$-$-$-$-$-&$$      $$-$-$-$-$-$-$-$$-$-$-$--$-$-$&&              X--$-$-$-$-$-$-$-$-$-$-$-$-$-$-$-$",
"$-$-$-$-$-$-$-$---o    XXo$-$-$-$-$-$-$-$      $$-$-$-$-$-$-$-$--$-$-$-$$-$-$-&&+             o-$-$-$-$-$-$-$-$-$-$-$-$-$-$-$-$-",
"-$-$-$-$$-$-$-$-$--       &&-$-$-$-$--%o      $$-$-$-$-$-$-$-$-$$-$-$-$-$-$-$-$--oXX        X -$-$-$-$-$-$-$-$-$-$-$-$-$-$-$-$-$",
"$-$-$-$--$-$-$-$-$-X      $&$-$-$-$-$$oX    XX$-$-$-$-$-$-$-$-$--$-$-$-$-$-$-$-$$-oX        XX$-$-$-$-$-$-$-$-$-$-$-$-$-$-$-$-$-",
"-$-$-$-$$-$-$-$-$-$o       $-$-$-$--o XX  XX$$-$-$-$-$-$-$-$-$-$$-$-$-$-$-$-$-$--$-o        Xo-$-$-$-$-$-$-$-$-$-$-$-$-$-$-$-$-$",
"$-$-$-$--$-$-$-$-$-X        X-$-$-ooX  X  Xo$-$-$-$-$-$-$-$-$-$--$-$-$-$-$-$-$-$$--o        Xo$-$-$-$-$-$-$-$-$-$-$-$-$-$-$-$-$-",
"-$-$-$-$$-$-$-$-$-%X          $oXX  X   X o-$-$--$-$-$-$-$-$-$-$$-$-$-$-$-$-$-$--$-$-X X     X-$-$-$-$-$-$-$-$-$-$-$-$-$-$-$-$-$",
"$-$-$-$--$-$-$-$-%-                     Xo-$-$-$$-$-$-$-$-$-$-$--$-$-$-$-$-$-$-$$-$-$o X      %-$-$-$-$-$-$-$-$-$-$-$-$-$-$-$-$-",
"-$-$-$-$$-$-$-$-$-$X                    X-$-$-$--$-$-$-$-$-$-$-$$-$-$-$-$-$-$-$--$-$-$oX      o--$-$-$-$-$-$-$-$-$-$-$-$-$-$-$-$",
"$-$-$-$--$-$-$-$-$X                    X-$-$-$-$$-$-$-$-$-$-$-$--$-$-$-$-$-$-$-$$-$-$-%X      o-$-$-$-$-$-$-$-$-$-$-$-$-$-$-$-$-",
"-$-$-$-$-$-$$-$-$oXX                   o--$-$-$--$-$-$-$-$-$-$-$$-$-$-$-$-$-$-$--$-$-$-$       %-$$-$-$--$-$-$-$-$-$-$-$-$-$-$-$",
"$-$-$-$-$-$--$-$-X X                  o--$-$-$-$$-$-$-$-$-$-$-$--$-$-$-$-$-$-$-$$-$-$-$-o      X$--$-$-$$-$-$-$-$-$-$-$-$-$-$-$-",
"-$-$-$-$-$-$$---o                     $$$-$-$-$--$-$-$-$-$-$-$-$$-$-$-$-$-$-$-$--$-$-$-$-o      o-$-$-$--$-$-$-$-$-$-$-$-$-$-$-$",
"$-$-$-$-$-$--$-oX                     ---$-$-$-$$-$-$-$-$-$-$-$--$-$-$-$-$-$-$-$$-$-$-$--%      X$-$-$-$$-$-$-$-$-$-$-$-$-$-$-$-",
"-$-$-$-$-$-$-$&                      $-$$-$-$-$--$-$-$-$-$-$-$-$$-$-$-$-$-$-$-$--$-$-$-$-$XX      %-$-$--$-$-$-$-$-$-$-$-$-$-$-$",
"$-$-$-$-$-$--$                       $$--$-$-$-$$-$-$-$-$-$-$-$--$-$-$-$-$-$-$-$$-$-$-$-$-o      Xoo-$-$$-$-$-$-$-$-$-$-$-$-$-$-",
"-$-$-$-$-$-$$X                       $&&$-$-$-$--$-$-$-$-$-$-$-$$-$-$-$-$-$-$-$--$-$-$-$---X       X$-$--$-$-$-$-$-$-$-$-$-$-$-$",
"$-$-$-$-$-$-XX                       $&&-$-$-$-$$-$-$-$-$-$-$-$--$-$-$-$-$-$-$-$$-$-$-$-$o-        XX$-$$-$-$-$-$-$-$-$-$-$-$-$-",
"3XXX>X>$$$3X                         $**3XXXXX>X****************$-$-$-$-$-$-$-$->+$$>$$>+$$           >$>+$$>$$>+$$>X3XXX3XX33XX",
"XX33X>X$>X                            **XX3333X>****************-$-$-$-$-$-$-$-$$+>+>$$>$>>            $$$>+>$$>$>> X3X3XX3XXXX3",
"X3XX>X$>$                             $*X3XXXX>X****************$-$-$-$-$-$-$-$-$>+>+$$$$$             $$>$$+$$$>X$$XX3X33XXXXX3",
"XX3XX3$>X                             X$XX3XX3X>****************-$-$-$-$-$-$-$-$+>$$$>>+>>              +$>;$>>+X>X>3XXXXXX333XX",
"33XX$>$                                X33XX$>$ ****************$-$-$-$-$-$-$-$-$>+++>>$X$               +$$$$$>>XXX3XX33XXXXXX3",
"XXX3$$                  X$$X            XXX3+>$>****************-$-$-$-$-$-$-$-$+>$>$$$$>                 +$>>$$X>3X3XX3XX33X3XX",
"X3X33                 >X>$>$3XX          3X3$$>$****************$-$-$-$-$-$-$-$-+$>$>+$>X                  +$$;$33XXXXXXX3XX3X3X",
"$$X X                3X>X$>$XX3X         $XX>$+$****************-$-$-$-$-$-$-$-$>$++>$$>                    +$$$XXX3X33XXX3XXX3X",
"$>$               X$3>X>XX33XX3X$$        $$$$$>****************$-$-$-$-$-$-$-$-$-$-$-$                       $$X33XX33X3XX3XXX3",
"$X                XXX$>X3XXXX3XX$>X       +$$>+>****************-$-$-$-$-$-$-$-$-$-$-$+                       +$XXXXXXXX3XX3X3XX",
"$                X3>XXX33XXXXX33$$>X$       $$$$****************$-$-$-$-$-$-$-$-$-$-$$           $333$          X3$33XX3XXXXX33X",
"                 $X$33XXXX333XXX>$X>>X      $>>$****************-$-$-$-$-$-$-$-$-$-$$         &133333333+         XX3XX3X33X$$X ",
"                $XXXXXX33XXXXXX3XXX3$XX      $3$****************$-$-$-$-$-$-$-$-&&-+         $12333333333          X$>XX$$X3$$  ",
"               $3X33X3XXXX3X33XX33XX$>>$       $****************-$-$-$-$-$-$-$-$&&$         >3223333333333+           $>>>XX    ",
"               XXXXX3X3XX3X3XX3XXX3XX>$>$      $****************$-$-$-$-$-$-$-$->          >333333333333333$                    ",
"             X3XX33XXX3XX3XXX3XXX3XX3X>X$$     +$***************-$-$-$-$-$-$-$-$+         $1333333333333333:$                   ",
"             3X$X3XXX3XX33XXXX33XX3X3XXX3XX      $**************$-$-$-$--$-$-$-$         >1233333333333333333$                  ",
"            $$>$X3X3XX3XXXX33XXX3X3XXX3X3X3X     X**************-$-$-$-$$-$-$-o         >312333333333333333333+                 ",
"            >X$$XX3X33XXXXX33XXXX3XXX3X3XXXX      X*************$-$-$-$--$&$$          $33333333333333333333333+                ",
"           >X>X>3XXXXXX333XXXX33XXX3X3XXX33X$      X************-$-$-$-$$-&$          &2333333333333333333333333$               ",
"           333XXXX333XXXXX3XX3XX3XX3XX3X3XXX$X      X***********-$-$$-$--$$          &233333333333333333333333333$              ",
"          XXXXX33XXXXX33X3XXXX3X3XX3X3XXXX33$X      XX*$********$-$--$-$&           &23333333333333333333333333333$             ",
"         $3XXXX33XXXX3XXXX3333XXXXXXXX33X3>X3X      X  X********-$-$&$$$           +2333333333333333333333333333333             ",
"         $XX33XXXX33XX3X3XXXXXX3X33X3XXXXX$$XX          $*******$-$-&$$           +233333333333333333333333333333333            ",
"        X3$$>X>XXX33XX3X3XXXXXX3XXX3X33X3X$3               3>X>X-&-$+             &233333333333333333333333333333333$           ",
"         X>$X>X33XXXX3XXXX3333XX33XXXXXX3X$$X              XX>X3$$               +32333333333333333333333333333333333           ",
"         $$$XXX33XXXXX33X3XXXX3XXX3X3XX3XXX                                      ,33333333333333333333333333333333333+          ",
"          3X33XXXX333XXXXX3XX3XXX3XX3X>XX33                                      2333333333333333333333333333333333333          ",
"          $XXXX33XXXXXX333XXXX33XX3X$>X>$$$                                      233333333333333333333333333333333333>          ",
"           3X3XXXX3X33XXXXX33XXX3X3X$>>X>$                                      +2333333333333333333333333333333333333          ",
"           X$X3XX3X3XX3XXXX33XXXX3XX$$X3$                                        >13333333333333333333333333333333333$          ",
"            X 3XX3XXX3XX33XXXX33XXX3>$$$                                         $22333333333333333333333333333333333           ",
"              $$$;$$$>$+$>>X>X3X*******$                                          $333333333333333333333333333333333$X          ",
"               $;$$>+>$>$$X>X>3X******$                                            33333333333333333333333333333333>            ",
"                +>$>$$>$>>$ X3XX*****$                                             +3333333333333333333333333333333+       + +  ",
"                 $$$>$+$+$$>XXX3****$                                               +33333333333333333333333333333$       $::>>$",
"$                 +$$>$>XXX333XX****X                                                $333333333333333333333333333-      +>333333",
"33                  $$$>33XXXXX3***X                     X                            33333333333333333333333333-       :3333333",
"333                  +$$XX3XXXX3**$                   +$XXXX                           $33333333333333333333333;     X+333333333",
"3333X                 +$X3XX33XX*X                  $$$$XX3X3XX                         >333333333333333333333;      +3333333333",
"33333                    X***3X$X                 +$3XXX33XXXX3$                         :3333333333333333333$+     $33333333333",
"33333:                     X$X                   +>$XX3XXXX33XXX+                         :33333333333333333$      +133333333333",
"3333333                                          >$$X3X3XXX33XXX$$+                        $333333333333333$      $1333333333333",
"33333333                                       X$$$>X3XX33XXXX33$;$+                        $3333333333333+       :3333333333333",
"33333333*                                     $X>$>X>X3XXX3XX3XX$>;$O+                       +33333333333        :23333333333333",
"333333333+                                   $$3>$$$X>XXX3XXXX3X$$$;$+                         >3333333$         233333333333333",
"333333333$                                   X3X$$$>>X33XX3333XX>$$$$$+                         +>3;>$+         >333333333333333",
"3333333333                                 $3XXX$>> X>XX3XXXXXX3>$;$;;$+                                        >333333333333333",
"3333333333                                $$XX33XXX3X33XX33X3XXX++$>X3XXX                                       >333333333333333",
"333333333$                               $>$3XXX33XXXXXXXXXXXX33$>$+X3X33X                                      &333333333333333",
"33333333;                               X>$$3XXXXX3X3XX33XX3X3XX>$>+XX3XXXX                                      133333333333333",
"33333333+                              X$$$>XX33X3XX3XX33XX3XX3X$+>$3XX>X3$X                                     $13333333333333",
"3333333$                              $X>$3XX3XXXX3X3XXXXXX3X3XX$>+$>$>XX>X>X                                     &2333333333333",
"333333;+                              3X>$X>XX3X3X3XXX3XX3XXX3X3$+>$>$X>3X>$3                                      :333333333333",
"33333>                              X$X3$X>X33XXX3XXX3X33X3XXX3X>>+$ $>XXX>$$$                        X$$X$$        ,23333333333",
"3333:                               3$X3$>X>XXX3XXX3X3XXXX3X3XXX$$$>>$X>X3$$>$X                     X$>>$3$$3$       ,3333333333",
"333:+                             X3X$XXX33X3XXX3XX3XXX33XXX3XX3XXX3X33XX3XX33XX                   $>>$$+$>> >$       >133333333",
"33;                               $$>$3XXXXXXX333XX3X3XXXX3X3XX333XXXXXXXX3XXX3$+                 $$$$ >>$$$$$X>       >33333333",
"3$                               XXX$X>X3XX3X3XXXXXX3X3XX3X3XXXXXX3X3XX333XXX3XX$+               $$$>X>X>$$$>X>X&$      >2233333",
"+                                X33$>X33XX3XX3XX33XXX3XX3XXX33XX3XX3XX3XXX3XXX3$$              $>$>X>X>$+>>X>X>>$$      $123322",
"             +3:33               X$X3XXXXXX3X3XXX33XXX3XX3XXX33XXX3X3XXXXXX333XX**$            $XXX333XX>$$$$++>$$$+       $>>$ ",
"           ;33333333            3X3XXX33X3XXX3X3XXXX3X3XX3X3XXXX3X3XXX3X33XXXXX3**$           $*33XXXXX3$+>+>>$$$>+>$           ",
"         O;3333333333$          3XXXX3XX3X3XXX3X3XX3X3XXXX3X3XX3X3XXX3X3XX3XXXX3***          XX3XX3XXXX3$>+>+$>+$+$>&$          ",
"        +3333333333333+        $XX33XX3XXX3X3XXX3XX3XXX33XXX3XX3XXX3X3XXX3XX33XX***          3XXX3XX33XX+>$$+>$+>>$+&&+         "
};
