/* XPM */
static char *_739c14eb1c6430f951df0f20d1311d6qoZ6rP2IJROCt611[] = {
/* columns rows colors chars-per-pixel */
"64 64 80 1 ",
"  c black",
". c #010101",
"X c #020202",
"o c gray1",
"O c #040404",
"+ c gray2",
"@ c #060606",
"# c #070707",
"$ c gray3",
"% c #090909",
"& c gray4",
"* c #0B0B0B",
"= c #0C0C0C",
"- c gray5",
"; c #0E0E0E",
": c gray6",
"> c #101010",
", c #111111",
"< c gray7",
"1 c #131313",
"2 c gray8",
"3 c #151515",
"4 c #161616",
"5 c gray9",
"6 c #181818",
"7 c #191919",
"8 c gray10",
"9 c #1B1B1B",
"0 c gray11",
"q c #1D1D1D",
"w c #1E1E1E",
"e c gray12",
"r c #202020",
"t c gray13",
"y c #222222",
"u c #232323",
"i c gray14",
"p c #252525",
"a c gray15",
"s c #272727",
"d c #282828",
"f c gray16",
"g c #2A2A2A",
"h c gray17",
"j c #2C2C2C",
"k c #2D2D2D",
"l c gray18",
"z c #2F2F2F",
"x c gray19",
"c c #313131",
"v c #323232",
"b c gray20",
"n c #343434",
"m c #353535",
"M c gray21",
"N c #373737",
"B c gray22",
"V c #393939",
"C c #3A3A3A",
"Z c gray23",
"A c #3C3C3C",
"S c gray24",
"D c #3E3E3E",
"F c #3F3F3F",
"G c gray25",
"H c #414141",
"J c gray26",
"K c #434343",
"L c #444444",
"P c gray27",
"I c #464646",
"U c gray28",
"Y c #484848",
"T c #494949",
"R c gray29",
"E c #4B4B4B",
"W c #4E4E4E",
"Q c #505050",
"! c #515151",
"~ c #555555",
/* pixels */
"<dJd9iM<bOtd<3$<339;d3$li;;$ii3be;dlee9eldV39ie<ed<ebii9db939btO",
"elbe9lbliidVii3O9;O3betDUllldlJDltlMMJiddiDbbieelidVltdiVMit9b9e",
"333ibbebMbtie$;3;<idMMd9blelVlMelVbliliJVlMblbdVMbVlelMdbDVDie9l",
"eliVJMbWVdtil9;t39ViiDllbVtDWDM<MJibMddbdlDbtdiMlibttbttMd9eMilt",
"3MdbVVJbVMDDMl999;lbMbiTJJbJJMDbMiiMUUDMiMVMbJMbllJddDllVbUdVMld",
"iVitdMTMMDlVei9$;3dbJdlVlldlbMMUDeVdbVbVVVldMUMVdMTleUTVVDDlbVle",
"eMbVbMDJdd3itb9O;td9dlUJVJMbll9t~DWMMDdidMdtli9dblDVMDDVVJlilMDl",
"dVidlTbVtiVtid39;$ltdedlttid3ddetldetdieid99VVil3lt99etidbJlbdte",
"ilblbVet9MV3lM3;9<ViTVDlt9bVtedMeeVMeMilbdl;iM99dd3tlbedtdUbDlb<",
"iDJJUitMltidMd<9<<Vtbtdtd3ild39deilt<iddJtl9dJl;lUtM~MitilTiMiM9",
"tVblVtid93ietb3<O3Dbl39tldd9ttMJbl9eddMtd9b9;tMDtMeetiidblTbMlbi",
"3t9ldbb9dldelD33;tViiidddeeiMbditd9ii3t3diidte9Vdtdi<teieildtle$",
"dttltMDDbl9edd<9;;e9llbdlitdeeee<ldl9edll9.eVV39teebellMleeJDl3d",
"3iDlMltitdldte3ee3edbe3;ettdeli9iitt3llMeibii3tbMi;OeJtttlidddie",
"9dVidi<3tiibl$$e$ete3tt9;9edtetlMtti3e9d;<e9deit3td;9leibJdllibt",
"lilMte3t3e.<M<;993$t<<O<;dtee39t9O<3<3ee9e33de3<<eeel<e;3d$tidMd",
"3;;e3e<eb3Oe<O93;93e93<<9<i9;<<$3;399<3;3d9<3e;39;<ei<;<<9;93ee<",
"3<<9<3<3i;te3t3<<9;<<;<9e3e93;$e3<<933;O39<3<<;e9ete9;3$9tt<OO<3",
";3<;O;<3<<e;.$<<O<;3e<;3$<3;3<$t9;;9933<;$$399<;<;$O$;e;9et$;;33",
"$993<$9<<3<<;;3;3333<<3339<;3eO$<39<;39.9e3;;O$O9<$33<9$$$$;9i3<",
"33<e3O<e$$9<<3;3;;39;3e;<OO39t;3<<33$9e3<33$3<<<<<O9;;99t33;<9;;",
"<9<<;39e<93eite9de93$ilt9<3<<3;;$<3lei999edtl3<9ii;9;3;<9;3$33e3",
";ettiVleii3iVMt$bt393i3$3tt$<939edt<Oei3<eb9e;ibtiidbbttbibtdtd<",
"teedlJbbVdMild3iVd;39M999teO33O39<ted9t3<;eO39d93<9;ee3illldiib$",
"dM;elMl<<<e$Oi$93e39<<ede3e;<e<<3O3<<<;<99i;e<3399b3ieei9lll<<<O",
"di3lt393dee<9i9ie;O<dte39et;<39ie;939e<ei3t393ttt3<.;<9teidie9ie",
"dtbeitM;$;9<9e<<t9tetO<eetd33;39;;9eitO$e9t9e3;$e9<;ete93d3iie;9",
"<e9bill;39e<t9939il3e3t9;9e3939;3e9<3i3eei3<de$e999e3$9b9teb9t99",
"$l3d9iMde9tiM<<993<3tdt9;e3;$93<iiddet<Oie;9l9;le;3tiO9l9bDdtd9<",
"9dedVtdt<9e99.<93<;99e3i<it3.;<et<9e399ee<9te9<;l3;;39ti9;idtbi<",
"<l3<eVd;.9le9;39<te<;dii$et9$<3it<<39<9i3;e9<9t<<3t3;99<di3ettet",
"<il3eVle<ee<9<99<ee9<33e33t999<t9333e<<ee$399<3et9tt3i93<Mbit$te",
"3ie3dteet93t93399t3;9<3<3e<<$<3ee9etl;993;9et$;99e333<3e3lM9e;d<",
"lltti3ee9t9<ebde39e<t3eit399ee<993;<iet3e99<33<9eteee<3e<db9l33;",
"3<;lltbdtitee93<O3Met;9de<9..3;eii9<3933;<3te<333e<<93;9;ti9t939",
";$$i9<99;eeO;3etO;e<3$$$$;i<39$;<<$;$;O9$9;teOte33$$9e;<O;te3393",
";;<3$$<d9e<O<<<3<99<;;<<9$<$3O$<39<9<9O33ie<3Oe3<3;.<e$;$<93$<3<",
"e93;<<$t<$O3t3;;99$<3e9O<<<<9O<3$3$3;e<33<e$3;;;;33O;9;<<9;$;<;<",
"<;;;93$<;33;;99$393933<;$99;<O<<<t;3$$$;3O<$<<$3<39$<9<e$3;<3<;;",
";;<39$<<ete3<93$9$<;$$$33<<;3<<3;9$te<;339<3<<9;<$<;;3;93<$3$O3;",
"$$399<3<9$3<;$O$;tOOe<93<;O;9;3<;3<3O<<$<e9<t<3$3<<9i3<;3<9t$3e;",
"<.9<.;3<9$<<<;<339<.;3et3<$39<3$99<<<93;;$$;OOe<93339O$<;<3e<3<$",
"lee<O3ttMeeebdi3i3e$3e;;<9;3e99<3;<$39<93<;9O;<<3<3$<.;e;<<;39$$",
"<3eMttb9te<9iei3e<99<.;9;e$;$$$$<;3<<3;t$;;e99$39eiii9<9Vli9id<3",
"9d3ee<edll393<93l<3ee9999i3339399<33;3<t3;;399;e9etttt9tl9e<tt99",
"3;9ttitleeO33eett$t3<e<;3e<3etit9999.99dl<e3;;3etttt9idVMiltie<;",
"<<teii3e;9<9333ed;3;3dt39e339<e939e9O3tii;te;;3te3de9999eedet;<;",
";3di3;ee39<3ee939<3ee9i33933<$99e9e3<9t$e9de<3<be$e<339<eibil<ei",
"$ededt3939t39dO99e9<;Ot9<<<t9$993e<O;9e39t9O3<<dl3iee9etldl99idt",
"39t<t9e<39933ieO<dtei<$93ti333993e<;9ttiiMie9$ee9O;<tl3eellitt33",
"$eteiiiibid39e;3et<<te<93tl;ee99ei39e93i33;$99ett3939t3e<99bdde9",
"<Vtild3ii;3<it.$ie<9et;;<<9<te3e9t3e3;$933<$3<$tMtd9<O93eb3edi$<",
";l<eid<9i99eteeO<9;;$3$99<Oet93e<99i93e9;dii<.9ib9tttOt99t99tdd<",
"<ttddbt9<;<;$9ii;;3d9tiibi<te9et3999<;993tdtO;t;9<O9d;9dtdiibeee",
"3ett93OOe;<;3e;9i<3l<<ie99$<3<$;iit3e;9t3<9;$dt39999l9eMV9dMd<99",
"3e<9el3iMe3ie9e9333leO;3<ee9dtOe<99<i;$39b9<<;;9OOt$t9eeb3t9<<93",
"3dleeV9ltt339<$;e3933$ee3<;$ee9ttei9933i3MM393$l<lli93;$9iM3ttd3",
"3<ideVt3<i<<339<<333t339e;3e999<<3<$de<tte3<;93l339ebee99ii99eti",
"399<<eibti99dlVe9ddtle33e99ti<$d<9i93$93$;3<;93e<3<<O<;;3ieiebt9",
"OlitdO3b;;dbMiDtO393t993eei9<e3<O.3id9dett9.;33edt9bei;9e;<3d333",
";9idb3iVt3e3<<tiO;999ei9339;eVl3dde3ddbtiti<e;9itidt<;9lediie<;O",
"t$dte<9dbMt93i;93edi33t399e$99;e9dbiidl993i<;Oid9iee9iie<3edl<<;",
"3<Mlbietelee<e3b3tii<<eee9M3;<idt;3i3;39<<9;3<3.ei<ie9iM9l9t3e<O",
"<<<;<$e$;$<e;O9e$;OO;39<e;9Oe<$9<3<;$9;9<9;;93;<;e<<9O3<.3;9333;"
};
