/* XPM */
static char *f3dc61a21bfa4ba4c99e5c2873028de3sNlU9G4w9xc2oSUZ[] = {
/* columns rows colors chars-per-pixel */
"64 64 236 2 ",
"   c #040404",
".  c #090504",
"X  c #0B0B04",
"o  c #06060A",
"O  c #0C0C0C",
"+  c #070908",
"@  c #130D07",
"#  c #0E110C",
"$  c #0C1505",
"%  c #121402",
"&  c #1B1602",
"*  c #141904",
"=  c #1C1B01",
"-  c #13130C",
";  c #19130B",
":  c #151A0C",
">  c #1A1C0D",
",  c #0E0D11",
"<  c #110E14",
"1  c #0E1612",
"2  c #141413",
"3  c #1A1515",
"4  c #161914",
"5  c #1A1B15",
"6  c #161519",
"7  c #19161A",
"8  c #16191A",
"9  c #1C1C1C",
"0  c #230D00",
"q  c #251401",
"w  c #2A1400",
"e  c #221C02",
"r  c #261C0A",
"t  c #341704",
"y  c #211D1C",
"u  c #231B15",
"i  c #3D1B16",
"p  c #1C260B",
"a  c #1D2114",
"s  c #1D211B",
"d  c #1B2714",
"f  c #1D301A",
"g  c #282809",
"h  c #352A09",
"j  c #2B310E",
"k  c #383507",
"l  c #232314",
"z  c #242C13",
"x  c #2B2C15",
"c  c #22231D",
"v  c #252B1B",
"b  c #2B2D1B",
"n  c #2B2615",
"m  c #332C1C",
"M  c #372818",
"N  c #243115",
"B  c #2B3214",
"V  c #243219",
"C  c #2C321C",
"Z  c #2C391D",
"A  c #343318",
"S  c #1E1D21",
"D  c #211F23",
"F  c #281F22",
"G  c #1E2223",
"H  c #1C2E22",
"J  c #232323",
"K  c #292424",
"L  c #262923",
"P  c #2A2B24",
"I  c #262629",
"U  c #27292B",
"Y  c #2B2B2B",
"T  c #2A272C",
"R  c #332C28",
"E  c #2C3123",
"W  c #2E322B",
"Q  c #2B3525",
"!  c #343324",
"~  c #32322D",
"^  c #353A2B",
"/  c #3A3C2C",
"(  c #3B3627",
")  c #2E2E31",
"_  c #2E3231",
"`  c #333333",
"'  c #343A32",
"]  c #393A35",
"[  c #363639",
"{  c #3B3B3B",
"}  c #481B15",
"|  c #411C0D",
" . c #413403",
".. c #442117",
"X. c #472606",
"o. c #431A22",
"O. c #443A28",
"+. c #513833",
"@. c #693A39",
"#. c #6B3232",
"$. c #364C0F",
"%. c #39432C",
"&. c #3C4335",
"*. c #414915",
"=. c #464C2C",
"-. c #4A4D2C",
";. c #474D24",
":. c #594D2B",
">. c #45522C",
",. c #4B542D",
"<. c #4E592E",
"1. c #475329",
"2. c #52542C",
"3. c #51582E",
"4. c #4A4E32",
"5. c #4B4E3A",
"6. c #454638",
"7. c #544C37",
"8. c #455233",
"9. c #4C5333",
"0. c #4D5933",
"q. c #4D533A",
"w. c #4B5B3B",
"e. c #525534",
"r. c #525A35",
"t. c #52543B",
"y. c #535A3B",
"u. c #5A5838",
"i. c #654E39",
"p. c #7F683C",
"a. c #546038",
"s. c #3E3E42",
"d. c #403E41",
"f. c #3D4140",
"g. c #434342",
"h. c #4B4B4A",
"j. c #484A43",
"k. c #4C5242",
"l. c #4C5444",
"z. c #515444",
"x. c #555845",
"c. c #535454",
"v. c #5F6B47",
"b. c #636C4D",
"n. c #666F4A",
"m. c #796A48",
"M. c #65724D",
"N. c #6A764E",
"B. c #646E54",
"V. c #686C58",
"C. c #766B58",
"Z. c #667454",
"A. c #6B7354",
"S. c #667158",
"D. c #6A735B",
"F. c #6A7854",
"G. c #757458",
"H. c #7A714D",
"J. c #756D62",
"K. c #787564",
"L. c #6D7164",
"P. c #875255",
"I. c #8E4E57",
"U. c #8A7354",
"Y. c #A77A4C",
"T. c #A77A59",
"R. c #B57A4E",
"E. c #975B66",
"W. c #8D6365",
"Q. c #A27464",
"!. c #968659",
"~. c #969A5E",
"^. c #A88454",
"/. c #8D8A68",
"(. c #938463",
"). c #928B6B",
"_. c #9A8869",
"`. c #98966A",
"'. c #8B8A73",
"]. c #968C75",
"[. c #9A9576",
"{. c #8F9370",
"}. c #A5896A",
"|. c #BC9967",
" X c #A38B73",
".X c #A6946D",
"XX c #92A567",
"oX c #9FA672",
"OX c #A7A36B",
"+X c #CE955C",
"@X c #CB9562",
"#X c #C59966",
"$X c #D19663",
"%X c #C79971",
"&X c #C7A676",
"*X c #988D80",
"=X c #CCBF8A",
"-X c #D8DA9E",
";X c #EDD39F",
":X c #DAD4A5",
">X c #DDDCA5",
",X c #DCD5AB",
"<X c #DDD9AC",
"1X c #D7D2AC",
"2X c #DEDAB5",
"3X c #DCD6B8",
"4X c #DBCFA5",
"5X c #E7CFA6",
"6X c #E4D5A5",
"7X c #EAD5A3",
"8X c #E4D5AB",
"9X c #EAD5AB",
"0X c #E3DAAD",
"qX c #EBD9AC",
"wX c #EADBA5",
"eX c #F5DAA7",
"rX c #E3D6B3",
"tX c #E4DAB4",
"yX c #EBDCB3",
"uX c #E3DBBB",
"iX c #E9DCBA",
"pX c #E8D6B3",
"aX c #F2DCB5",
"sX c #DFE2A9",
"dX c #E6E2AD",
"fX c #E7E2B7",
"gX c #F1E3B6",
"hX c #DDD8C4",
"jX c #E4DCC2",
"kX c #DFE0D2",
"lX c #FBFFCB",
"zX c #FFFDD4",
"xX c #FEFDDC",
"cX c #FEFEE3",
"vX c #FCFCEC",
"bX c #FEFCF2",
/* pixels */
"2 Y g.Y 9 I ` 2 Y + c Y 2 2 + - 4 1 $ 1 P 2   ~ c < , . I 9 2 ` J . Y Y D D 7 y P P ] 4 4 J s 2 s I - 9 ` J J 7 Y ` 7 8 7 ` J + ",
"9 Y ` 9 7 ` ` ~ I J I [ I J 6   2 - K.4 ~ : c 6.g.~ T ) Y ) j.&.Y J ` ) ` d.J Y Y c O.' W L.s a W L Y ] ) c Y J { ` J J 9 ` 8 S ",
"6 7 6 J ) ` J ` ` ` c J 7 O O 2 % - V.L.^ ^ P 5 ` ~ J [ [ U { 6 Y s.` ) Y ` Y 6.' ^ E ^ L.V.- ] ] ` ] Y 9 Y ` Y ` { ] { J S S ) ",
"s Y J ] g.] ` h.{ I J J Y 7 # c : - k.D.D./ ~ P ~ ` D d.c.[ ` 7 ] g.J ` [ I J Y P b &.L.V.x.> Q Y J ~ y J ` J J ` Y 9 J [ I ) J ",
"6 ` Y ~ ] [ g.) ] ` s.6.] ) 9 7 * 5.q.z.D.L.: k.j.g._ { f.s.s.[ ` U U [ g.f.g.' v %.B.D.4.5.t.: W ~ 6.Y I { Y ) [ ` g.Y { ` ) Y ",
"J { J J Y [ h.[ [ s.Y [ c J 9 X = x.4.e.Z.B.S.%.v Q _ U _ [ ` g.s.8 s.U _ f.' ^ Q D.D.V.q.y.4.% P ` h.Y J g.h.[ ] g.s.Y ` [ _ S ",
"9 ] ` [ ` [ { g.Y I 6 J J W 9 X = e.9.8.w.F.Z.D.%.%.' Q U W 8 v c.&.l.W ' &.: f D.b.F.=.r.8.-.g ! ~ { { ` g.g.] ] g.) J ) [ s.) ",
"Y ] I I Y h.` ] J J { y J Y 6 : x =.e.0.>.a.M.Z.S.f d Q : f E : d L E a f f f S.Z.F.8.e.,.e.r.n : Y J 3 9 9 D J Y ` g.Y ` Y J S ",
"J ` ` Y ` ` s J 7 [ ` 7 W ` 6 - x e.e.,.9.0.N.M.Z.Z.S.S.V.A.D.A.V.D.V.Z.S.S.F.Z.Z.F.>.>.9.,.e.x : Y 6 J Y ` 7 I J I g.` s.Y ) 2 ",
"J { g.g.h.I J ` ` s I Y ` Y 2 c z -.y.,.,.;.<.M.F.M.M.Z.Z.N.A.F.G.F.A.Z.Z.M.M.F.M.1.<.a.1.e.=.b 9 6.y ] c.` Y J I Y h.J [ Y [ S ",
"D ] ) ` ] J I U 7 7 J 9 J ` 6 - ! q.>.9.0.1.0.M.v.w.0.0.9.,.1.,.,.,.1.0.0.0.0.n.N.;.1.0.0.8.x.p - ` 9 9 J J J Y ) Y h.` { ) ` I ",
"6 J 9 Y Y ) ` 7 Y Y L s Y { 4 4 z 8.y.>.j 0.n.<.0.1.1.,.0.,.<.<.<.<.,.,.0.;.;.r.<.N.<.=.8.9.9.C a c Y J - J 9 J 9 Y Y Y J ) 8 O ",
"I c J Y J ` 6.{ ` Y 9 8 I Y 2 7 E N 8.B N.,.,.,.3.,.e.0.,.,.<.1.1.<.,.,.0.9.,.3.,.;.r.j 0.y.x.V - 7 c ` D I ~ ] Y 9 9 g.s.Y 8 I ",
"2 I { ~ ` Y J I J Y Y Y c 9 7 5 v V B Z.r.,.9.2.,.,.,.,.,.,.0.,.<.0.,.-.9.,.,.-.r.,.9.A.N 8.d V P J # . J { J J J ) J I T I U S ",
"7 Y ] I Y c 2 2 J J J ` Y + X 4 V V z F.9.=.,.e.e.e.e.t.e.9.8.8.>.8.9.e.y.e.9.e.=.e.e.,.Z.N z V # J L O 9 _ 9 Y ` g.Y Y ) J ) J ",
"Y I Y ` J 9 2 J 6 9   2 ` 4 - 4 : N S.8.,.r.e.4.:.,.t.b.V.A.A.A.A.A.A.A.b.u.4.9.e.r.,.9.Z.z V : - J 9 9 ) 2 S X 6 Y o J J Y [ Y ",
"7 # 2 9 4 5 - J W 2 O S <   5 4 ; g 0.>.>.0.>.r.,.M.F.%.( ( O._._. XO.( / A.S.9.9.e.=.e.q.D.* 5 4 , 2 J J , < , 6 6 O 7 4 9 9 6 ",
"6 2 2 7 - 2 # 7 Y   J 8 6 J O 4 > 6.>.>.1.<.u.m.H.`.{./.O.O.]._.Q.}.(.+.! %.%.V.Z.q.y.4.q.8.q.* c J S S J < , , 7 J J O     2 4 ",
", 6 - X X O - 2 2 2 7 O   - O * 9.w.>.a.:.:.U.T.^.!.^.~.!.T.`. X[._.].[.A ( ( ] ^ S.9.8.r.y.-.t.% # +   - X 9 O 7 s s O O , 6 6 ",
"O 7 8 6 - O 4 2 2 7 4 - O X a > 8.8.0.>.:.m.T.Y.^.^.^.;X .k aX4X8X8X .t ].6./ ( ^ ^ F.y.=.,.2.3.l %   5 2 O J . # . X O 6 I 6 2 ",
"7 6 2 7 2   2 S 2   7 2 # > * 6.w.w.8.>.e.m.Y.R.^.+X@XeX7XdXrXfXtX,X2X2XjXC.J.( / %.b.,.,.2.3.2.=.% X * O - 4 9 D 6 2 , 6 8 < , ",
"- 8 2 2 O 2 9 9 < D 2 4 v ; z.x.4.y.8.<.:.p.R.R.@X#X#XOXwX>X<X<XdXdX1XfXuX3XK.K.O.'.C.2.r.3.*.r.r.y.% > % - 2 O 6 O 6 O 6 2 S 7 ",
"O 9 J J J ] ) S D I < L 4 x.5.5.7.7.e.i.U.Y.@X+Xh  .XX$.lXfXtXiX<X<XfXzX*.[.g k 3XtX).g -.-.w.8.9.4.x.: ^ ` J S ` Y _ J Y D Y , ",
"J J 9 I ) g.[ [ { Y ` 3 v P 5.z.u.7.7.w Y.@X+X+X|.~.XX$.XXlXrXtX2XsXlX`.$.oX`.zXzXyXrX(.e 4.w.8.q.q.x b # G 2 I ) Y ) I J Y ) O ",
"U ` 2 9 Y ` ` 2 2 6 9   5 l x x 4.,.e.e ^.$X+X+X$X=X`.*.XX~.<X2X<X<X`.oX$.OXlX>X0X0XrX).e 5.5.l.b b : - I S S T S ) Y Y 2 2 - + ",
"J J 7 Y c 6 7 6 I S 9 - 9 5 : p Z N g j w Y.+X$X@X#X-X6X-XdXdXzXzX,XdXsX>X-X>X>X<XtX).e n E Q v : * -   o S , T S I I L y 9 L 9 ",
"Y I ` s I c ` O + 2 9 2 s l - $ $ d f Z g w }.|.&X7X;X;XqX0XyXh k fX:X>XsXdXdX,X2X{.= x ! l 4 5 L - 2 6 7 S D S 6 ) 2 I I 9 X 3 ",
", G 7 ` I Y ~ O 6 9 9 2 9 5 9 8 1 H 1 1 5 & 0  XrX:XqX6X6X0XrXjXtX,XtXtX2XfX1XfX).> : : a 4 X u - c 2 7 S o D ) 6 D 8 ` 5 J 5 5 ",
"O ) 6 U 2 L ^ Y 9 7 J I ` 2 < 6 H 1 , 8 I _ c ; % p 2XuXuXjX3X3XiXiXiXpXrX3Xe & : > $ s c s . Y P - 2 J D , 6 ) 7 Y ] P c Y 7 - ",
"7 T S Y ] c P c 2 4 J 8 S   < S 6 1 < 8 S 6 7 J * p r @ r q & & 0 t 0 0 r r > a s 1 6 9 J c - * J - 6 # 8 7 D I 9 - P I J ~ U - ",
"6 ) 6 # c ] P O   S Y S S o S < 6 T 9 ; . R J H $ $ R R } @.@.i } @.@.u m b > P - # S J 2 4 c + - 2 c X 4 5 4 4 P P 2 9 G S 9 J ",
"6 J T 6 9 ] P c O s S 7 S < S S < 7 y u ; 7 1 s 1 Q i i E.P.@.i i @.C.W.i n P : 9 O 6 8 9 2 * kXvX> l I - J 9 2 - ~ ^ c J X J S ",
"6 U 9 6 I J 9 s J 7 4 J 8 7 6 9 S K u . y 6 O : N M } E.E.P.t  X X| I.I.E.M n C : $ 8 s J - 3XjXjXxX> ; 9 # 6 J 7 Y ' 4 c O I 2 ",
"Y Y J I J 7 J 9 9 J 7 6 9 W Y 9 < 3 F 7 D 6 4 ! C g } E.I.@...(.(.| #.I.E...m z N : 7 2 O % e rX2XcX& > y 6 < D < Y _ a W 4 7 # ",
"6 - O Y Y J ` Y s J J 9 J 9 6 2 + 3 ` 9 S O p v N B | @.#.}  X(._.}.} #.@.M z V v : 2 K D @ r ).3X3Xr * y 6 , S , G L 2 J 3 3 7 ",
", X X L 7 - 7 8 O J 9   O 6 9 J   2 H 1 1 : l.8.8.B M i }  X(.yXyX(.Q.} M M f w.k.z.3 K 5 X & ].jX3XX . 2 D , , o , G s 6 2 7 7 ",
"O 2 # 6 X O , I 9 9 2   2 2 2 6 O 9 8 1 X $ 0.w.8.9.n w  X(.gX8X9XaXQ.T.w h y.8.5.5.u @ ; X 5 *XhX'.. . 3 9 o 2 + # 5 4 . 2 6 2 ",
"9 7 6 2 2 2 X D 2 o + 6 J 6 X , y 7 + 1 a q.0.>.0.9.e _. X9X7XqXeX9X%XT.T.w e.-.x.5.7.; > X ! hXhXc ;   < 9 < 2 # 9 # + O 2 , < ",
"2 O X O 8 7 O 2 O 7 2 O O 9 6 + < 7 7 - u -.-.r.9.* ].(.pXyXqX7X7X%X@X$XY.T.q u.2.t.t.* x A ].*XR X 5 # < 7 6 9 # 2 X - 6 < , , ",
"O , 2 6 8 X # 2 9 c 9 6 # 9 2 + 7 < < u 7.e.3.,.9.= ].iXqX9X9XeXeX|.$X+X+X^.w :.e.9.9.r.= '.].M @ ; @ , ; 2 O 9 4 $ . 2 o o 7 < ",
"X O 7 7 9 2 6 2 9 O 2 2 2 O   + , J . u 7.7.;.,.8.= uXtXqX9XyX7X7X#X@X+X+X|.t :.u.e.=.y.* '.m . ; # @ 9 J 6 2 - 2 - 7 J . 2 S , ",
",   8 2   # 6 2 6 O 2 O O O 2 4 8 8 9 @ 7.t.r.<.p 3XuX(.qXgX:XyXwX;XeX|.^.|..Xe :.4.e.8.* m u * 9 7 7 < 6 o X - O 2 4 9 2 8 2 O ",
"Y J 9 2 o 4 s y ] J 9 y ` Y Y , H 1 # ! t.9.>.>.= 2X2X`.0X:XxX]._.zX7XeX!.7XfX= t.t.4.e.B * ; O 3 2 2 O #   O 9 O 2 # O 4 7 o + ",
"# 6 9 ` G J ` 7 J 8 2 D I 9 J 2 s $ a z u.,.w.>.e tX0X!. .fXzX/.).zX6Xk `.,X3Xe t.5.5.q.C > X 3 7 S J J I 8 2 7 { Y Y 7 J J 2 6 ",
"6 Y 4 y 9 2 9 Y W ) 6 8 2 < 7 4 Q a N z 4.9.8.r.& 9X6XgXh xXxXA A zXxXg <XdX2X= u.5.q.q.x v * c 9 J J J J c 8 J ) 8 9 < J J 9 4 ",
"6 # 7 J J J J Y 7 J   - 6 J s 2 : p B >.t.r.8.t.t |.eX6X!.h cXn x cXg `.tXfXtX= -.4.w.8.y.C x > c s J 9 5 J Y ] ] I ) D J 9 : O ",
"2 2 c 9 Y J 2 9 O c - 6 9 7 6 v C 5.r.,.4.=.t.q T.%X|.;XgX).M M M h `.iX8X8XpX_.e y.;.a.>.8.B b 5 2 L 9 7 5 9 S D S ) S J O - O ",
"O 2 I J 6 , c 9 6 9 - 2 c * 5 5.5.e.,.,.B t.e.w T.|.eXwX8X0X[._.`.(.iXpXpXaXpX_.= ,.0.p 0.9.4.t.C - c * > 2 9 , S I ` J ~ - 9 L ",
"X 9 Y 9 Y J 6 9 7 - a * > = q.9.0.9.r.-.r.5.e.e U.pXeX9XqXyX8X8XpXtX8XyXyX8X8X`.= ,.u.8.0.e.e.,.8.t.* * x * 9 J ~ Y ) 8 7 J I v ",
"6 6 J 2 D 8 7 - 5 a > ; e.4.9.r.A =.,.y.=.y.7.e [.tXiX8X0X6XqXwXaX,XyXpX8XqXfX/.e e.,.9.8.8.-.A e.e.e.e.% > 5 2 y Y ) J J J 6 2 ",
"O 9 J 9 I J I J W - z.k.q.=.t.,.=.e.9.j t.4.4.e ).tXpX9XqX6X9XtXrXuXH.H.8XtXrX/.e =.,.y.g r.e.8.,.,.9.k.q.c.* L 2 9 8 ` Y I 5 9 ",
"- ] c I Y Y 3 I 7 l.z.k.z.t.B 4.r.q.e.=.r.9.e.& ).rX8XyX6XyXyXrXU.C.G.U.rX2X3X`.g e.u.8.9.9.8.9.t.n q.5.z.k.h.2 9 ` 7 J U J O ; ",
"X Y O s I Y 2 8 J 5 5 k.5.C 4.t.q.5.j >.9.e.4.B g 3X0X:XgX6XzXcX].*XK.C.jXjX3Xe j 9.,.9.9.N y.q.5.y.x l.z.4 7 9 7 J 8 8 9 U I - ",
"- J J Y ) ) D 8 O - @ 5 5 l ! q.5.! N 0.e.,.x.n & 2XtX0X>XtX_.'.( O.J.K.C.jXjX= g u.8.y.8.V x 5.t.x b % > O - Y J Y Y J ` y 9 9 ",
"6 9 J J 8 7 o   J . 4 X - > * P P v z j j z b C l /.fX<X:X[.A M ( K +.J.K.hX].= x z C z C C z E v > > 5 ~ - L ` [ S Y ` Y 2 9 s ",
"2 c - 7 S ) 6 J ' J - L s a u 4 4 : Z N z B x b * ]./.uX2Xh X u @ y T J.J.].'.= x x b v v b > - 5   c X c 5 9 J ` 6 J 7 2 - 7 4 ",
"2 Y Y 9 S ] 9 ) J S 6 2 4 @ O . S 8 : * p $ a 4 > b ).).).A u y F F R ( O.'.! l * > : : s : . ~ - ~ W J 7 6 , O 7 I ` 6 J J Y 2 ",
"2 - Y I 9 [ J 6 2 J 2 2 4 4 5 2 < 6 4 * l $ 4 2 y ! vXcXcXb 9 O , 3 R vXbXbXb v v 4 4 # # 8 6 Y 2 : 7 9 ` J 9 8 S J L 7 7 s c J ",
"2 7 9 2 2 9 J ` J I 8 8 Y Y { G 8 Y I c Q 9 4 8 9 ; n m b ; o U # 5 K P P m u - X # 9 1 O 8 S D 2 2 2 2   2 O # 2 I 8 J 9 ' s 9 ",
". Y J S Y X 6 ^ O O Y ` ` J { J   6 5 : 9 4 9 8 I 9 v u * c 2 < o   @ P R > P y s S 8   , 6 6 9 J J 7 ` c J 2 7 S O 2 7 Y 2 2 3 ",
"# 6 J Y ` 6 I ] J 7 J 7 2 2 J I o , 6 7 S S U 7 3 4 u X 4 6.` 6 J L c ; c n ~ D I S S 6 D O 7 K J J I J 2 O 9 Y y I J I 9 2 O o ",
"c O Y J 9 < 7 I ~ ` J 8 7 J , 8 7 S I I < 6 G 6 7 7 y @ 5 9 , S 8 I ` J c ` ~ 7 S 6 I < o   L P 7 U J 9 9 J I c 2 4 9 I ~ < - O ",
"2 2 ' Y ~ J 9 s 9 Y s 9 2 S 6 ` 2 y U G 6 6 S S D y R 3 . 2 J _ U O 7 J 7 . < 7 < 6 S < < ; 7   9 I 2 I s 9 J ] 9 Y 6 J 6 9 2 o ",
"O 2 2 O 2 O c O O O 2 S , o 7 S o O o o , 1 S 6 9 o 9   J + O 8 < 8 O 2 o y < y 7 7 O O 9 3 @ @ , S 2 , 7   6 O   4 - 4 3 2 6 O "
};
