/* XPM */
static char *_1e9288eeccd42d4caa37bace76feaca3UZc9387hPy2aHDt[] = {
/* columns rows colors chars-per-pixel */
"64 64 228 2 ",
"   c #040404",
".  c #0B0402",
"X  c #060903",
"o  c #0A0B06",
"O  c #060609",
"+  c #06090C",
"@  c #0C0C0C",
"#  c #08070C",
"$  c #140C02",
"%  c #110F0C",
"&  c #130300",
"*  c #0C1203",
"=  c #0D110C",
"-  c #0D1B07",
";  c #131404",
":  c #1B1604",
">  c #131A04",
",  c #1D1B03",
"<  c #12130D",
"1  c #151B0C",
"2  c #1A1C0C",
"3  c #1A120C",
"4  c #0E0D11",
"5  c #110F13",
"6  c #0E1111",
"7  c #141414",
"8  c #191614",
"9  c #161914",
"0  c #1A1B15",
"q  c #161519",
"w  c #19161A",
"e  c #17191A",
"r  c #1B1C1B",
"t  c #250C0D",
"y  c #221D02",
"u  c #231B0D",
"i  c #221506",
"p  c #231C13",
"a  c #211E1C",
"s  c #2E1B17",
"d  c #3B1E1A",
"f  c #351E16",
"g  c #0F200D",
"h  c #1C220C",
"j  c #1C2907",
"k  c #0F2113",
"l  c #1E2313",
"z  c #1E221C",
"x  c #1E2D1C",
"c  c #22270E",
"v  c #242C0C",
"b  c #262709",
"n  c #372C0A",
"m  c #23310C",
"M  c #2A310B",
"N  c #2A350A",
"B  c #39330C",
"V  c #222414",
"C  c #2D2615",
"Z  c #252B14",
"A  c #292D15",
"S  c #22231D",
"D  c #262C1B",
"F  c #2A2C1C",
"G  c #29261F",
"H  c #382817",
"J  c #273213",
"K  c #2B3314",
"L  c #24311D",
"P  c #2B321B",
"I  c #2E391B",
"U  c #2C3A17",
"Y  c #32331C",
"T  c #343315",
"R  c #1E1D21",
"E  c #201E22",
"W  c #1F2122",
"Q  c #232323",
"!  c #262923",
"~  c #2A2B25",
"^  c #262529",
"/  c #28262B",
"(  c #2B2B2B",
")  c #27292A",
"_  c #322D24",
"`  c #3B2D22",
"'  c #372E2B",
"]  c #2D3323",
"[  c #2E312C",
"{  c #273222",
"}  c #333323",
"|  c #32322C",
" . c #393827",
".. c #2D2D31",
"X. c #312F32",
"o. c #2F3130",
"O. c #333333",
"+. c #383A36",
"@. c #363639",
"#. c #3B3B3B",
"$. c #383737",
"%. c #422A15",
"&. c #413B28",
"*. c #5F3D3B",
"=. c #63393B",
"-. c #3B450E",
";. c #3E403D",
":. c #3E4033",
">. c #3C4029",
",. c #424A1B",
"<. c #434C26",
"1. c #464D2D",
"2. c #4B4D2D",
"3. c #474C26",
"4. c #524F2E",
"5. c #455226",
"6. c #46512D",
"7. c #4B522D",
"8. c #4C5B2E",
"9. c #51542D",
"0. c #50592E",
"q. c #454C31",
"w. c #4A4E33",
"e. c #4B4E3A",
"r. c #444736",
"t. c #475334",
"y. c #4C5333",
"u. c #4E5935",
"i. c #4D533B",
"p. c #4F583A",
"a. c #525534",
"s. c #525935",
"d. c #52563B",
"f. c #585738",
"g. c #535A3A",
"h. c #595839",
"j. c #514F36",
"k. c #63413F",
"l. c #7E5738",
"z. c #58623D",
"x. c #3D3C41",
"c. c #663F42",
"v. c #424241",
"b. c #444545",
"n. c #434343",
"m. c #494949",
"M. c #4B4B4C",
"N. c #474A43",
"B. c #545941",
"V. c #525254",
"C. c #7B5457",
"Z. c #754E51",
"A. c #636D4D",
"S. c #716F4B",
"D. c #6C754C",
"F. c #6B7246",
"G. c #636B53",
"H. c #6B6C5B",
"J. c #666C58",
"K. c #746E5B",
"L. c #756D56",
"P. c #6C7354",
"I. c #6C725A",
"U. c #677053",
"Y. c #71755D",
"T. c #797358",
"R. c #6E7361",
"E. c #787864",
"W. c #6A6C61",
"Q. c #80635F",
"!. c #977859",
"~. c #A87A53",
"^. c #8C646D",
"/. c #958B5F",
"(. c #A28659",
"). c #8D846E",
"_. c #8D8B6A",
"`. c #898A60",
"'. c #948C67",
"]. c #928B6D",
"[. c #97876C",
"{. c #90946C",
"}. c #969B6C",
"|. c #8D8B7D",
" X c #888872",
".X c #948770",
"XX c #938B74",
"oX c #998D78",
"OX c #9A9375",
"+X c #8D9365",
"@X c #9CA36A",
"#X c #AB9870",
"$X c #C4966B",
"%X c #928F80",
"&X c #949084",
"*X c #DDD8A4",
"=X c #DDD4B3",
"-X c #DCDCB5",
";X c #DBD5BA",
":X c #DDDBBC",
">X c #E5DCAA",
",X c #E2D9A5",
"<X c #E3D5B3",
"1X c #E5DAB3",
"2X c #E2DBBD",
"3X c #EADABB",
"4X c #E5D6B9",
"5X c #F1DCBF",
"6X c #F8D4A0",
"7X c #DAE1B2",
"8X c #EBE2B7",
"9X c #E9E6B2",
"0X c #DDD7C4",
"qX c #DEDBC5",
"wX c #E6DEC2",
"eX c #E9DEC3",
"rX c #E6E0C1",
"tX c #EFE5CC",
"yX c #FDFFC5",
"uX c #FFFCCC",
"iX c #FEFDD3",
"pX c #FFFFD8",
"aX c #FFF4D8",
"sX c #F0E2C8",
"dX c #FCFCE3",
"fX c #FFFEEB",
"gX c #FBF7E7",
"hX c #FFFFF3",
/* pixels */
"7 ( n.( r / | 7 o.  S ( < 7 O 7 q q q 4 ) 7 # [ ! < 7 = e W R ..R 5 ^ @.q Q r R / ..@.R w Q ! < a ( % r O.Q Q 8 ( O.7 e e | Q O ",
"r ( O.r e o.O.o.^ ^ / $.Q Q 7 O R 4 O q X.a ^ &.#.| S / @.O.x.x./ / @.) #.#.( ( ( Q @.@.( ( e S X.Q ( #.X.S ( Q #.O.( Q r O.e a ",
"7 e 7 Q o.O.a O.| O.a Q r @ @ 7 @ 7 Q ~ O.$.~ r O.@.Q O.x.^ @.Q @.@.O.| S | e n.n.( #.O...( ( #.O.O.#.( r ( O.( O.#.#.#./ r r o.",
"a ( Q #.n.#.O.M.#./ Q / ( e @ Q 8 w +./ ~ #.( ( ( ( Q #.V.x.x.7 @.@.~ |  .S ] | l ( n.O.( Q ( ( O.Q O.R E O.Q Q O.( r R O.~ ( E ",
"7 #.( o.$.#.n.O.#.+.#.n.$.X.r e e % | o.O.O.Q m.M.b.@.#.b.@.#.( | D F } e.r. . .( +.( #...#.@.#.( O.n.( / #.( o.+.O.b.( #.O.o.( ",
"Q #.Q Q ( O.M.O.O.x.( $.a Q e @ @ 3 ( O.n.( ( x.( ..[ [ o.o.O.N.:.l  .R.i.I.I.R.R.W.#.~ ( M.n.O.( O.M.o.S n.m.$.#.n.#.( O.$.o.r ",
"e $.O.$.O.$.#.n.( Q 7 Q Q | r o % a ( w ( ( b.n.@.+.O.O.[ ] = x B.H.q.Y.P.w.i.i.e.l 0 Q @.Q w ..( ..#.#.O.#.n.#.#.n.( ^ ..O.&.X.",
"( #.Q ) ( m.O.#.Q / #.E Q ( 7 w @ # o.R ..R ( ( W ~ ! S k D ] I.p.J.P.y.y.y.d.i.i.h 8 0 @.#.Q O.r ( Q e r a Q Q ( O.b.( O./ ^ R ",
"^ X.@.X.O.O.r Q 0 O.#.7 X.O.7 @ e 7 #.Q m.#.+.[ S 0  . .l I.t.U.A.g.y.u.y.1.u.p.A < | @ / $.E q ) ( 7 Q ( O.e ( W Q b.O.#.( [ 7 ",
"Q x.n.&.m.( Q O...Q Q ( O.( 7 r 4 6 @.Q O.S ! a D * x I.i.P.P.y.s.t.6.6.u.s.w.F > ] ( < O.#.r r ( b.Q $.V.$.Q Q Q ( M.Q $.( O.r ",
"R @.O.o.#.Q Q ( e 8 Q r Q O.e % X 7 ;.O.S 0 { J.I.R.P.I.P.6.y.y.6.6.g.6.y.t.P Z 1 2 ~ S @ / +.O.Q O.r r / ! Q ( O.( m.O.$.| O.( ",
"e Q r ( ( ( O.w ( ( ( r ( #.e 7 7 S [ ! D H.G.R.I.U.A.P.v M s.7.g.t.u.y.J Z Z h ~ r | ( e Q r $.) Q ( Q 7 a r Q r ( | ^ Q ( e # ",
"Q Q Q ( Q O.#.#.O.( r e ( ( 7 0 * - l J.I.J.B.7.7.s.s.s.7.s.v y.6.y.v J J D D 9 ~ e @ 7 #.@.= ! S r Q O.^ ....@.( r r v.#.( w ( ",
"7 ! #.( O.( Q ( Q ( o.( Q e 0 r g k J.I.t.u.u.7.s.7.3.<.s.2.a.a.m I J J Z Z l +.z ! ^ ^ ( e ! _ O.Q @ O R &.Q R Q X.Q ~ ( ) / r ",
"e ( #.Q ( Q 7 7 S Q Q O.( O @ 0 * E.G.i.p.6.0.8.7.0.0.s.y.s.w.y.u.j J ] l ] k z o R q e ( 0 ! S 7 Q ( # r o.r ) O.n.( ( ( ! ( Q ",
"( ^ o.O.Q r 7 Q q a   7 O.7 4 0 > G.P.D.7.8.5.8.0.5.3.s.y.w.d.y.y.g.Z J I S l r r e R q z r 9 o 7 a r a o.7 r @ 7 ( O Q Q ( O.( ",
"8 7 7 r 7 r 7 Q | 7 X r < O r 8 o b XX_.S.D.3.u.6.u.y.7.y.y.y.i.y.7.a.y.A Z 2 o e E R q e 0 * 8 0 @ 7 Q Q 7 @ 7 7 w @ e 8 r r 7 ",
"7 7 7 e 7 7 @ q / @ S r 7 S 7 < : ).8X=XOX+XD.A.t.y.6.h.7.g.1.a.a.y.a.a.w.2 2   7 q q 4 5 7 7 z r r Q r r @ 7 @ e Q S < O   7 0 ",
"@ 7 7 @ O 4 7 7 < < 0 @   o % ; $ ).aX2X=XT.Y.>.H.e.f.j.9.4.h.7.a.7.y.a.d.d.; * 7 @ 4 q e a @ # 7 @ # O @ @ a @ 0 r Q # 4 @ 7 q ",
"# 0 e 8 7 @ 8 7 7 7 8 7 @ @ 7 % $ tXn n ].:XT.K.L.B.w.2.9.9.9.7.a.g.w.w.w.i.2   7 7 7 5 4 @   O q < o 7 7 7 r @ @ # # @ e Q 7 7 ",
"7 w 7 e 7 O < r @ @ 8 7 7 7 @ 3 : ;XwX-X2X:XL.T. .K.h.4.9.0.3.a.7.y.y.s.w.d.F 0 < 0 7 < q 7 @ r 7 7   q @ 7 e e Q 7 7 @ 7 e 5 @ ",
"7 8 7 7 @ 7 r r % 8 8 e ! S z 8 C 2X:X{.iXT.L.T.K.K.w.7.7.9.a.y.s.2.s.a.<.g.A > 0 S ( E ( w 4 w Q Q 7 8 @ 7 @ 5 7 @ 0 # 8 7 r 8 ",
"# r Q Q Q #.o.r Q ! 7 Q +.O.S o Y ;X-X,.}.N B 2X8XS.N 5.8.u.6.y.y.a.u.1.g.y.d.A 0 1 ~ 0 r 5 ^ O.Q ! Q ^ O.O.Q Q O.( O.Q ( W ( 7 ",
"! Q r ( ( b.$.O.$.( | ! ( ~ 7 ~  .:X7X-.@X}.uX1X-X'.F.N 8.5.p.p.y.y.7.s.y.a.2.d.i.0 0 o w w ( r 7 7 7 7 Q r 7 Q ( ( ( Q Q ( | # ",
"/ O.@ R ( O.O.7 7 7 7 @ @ r < 1 :X7X7X-.@XyXyXuX1X-X+XF.m 8.1.d.y.7.7.u.7.u.w.d.F ~ 2 * 7 e e 7 e r O.7 / r r ^ r ( ( ( 7 7 7 O ",
"~ Q q | Q 7 e 7 ~ S a o S z 8 _ n iX*X7XyXyX>X1X<X1X`.}.D.M d.w.y.g.u.7.2.u.y.Z A G G S 0 < S Q S 7 7   < 7 e Q r ( ( Q r r ~ r ",
"( Q ( Q / a O.@ % @ S 7 8 r 8 |.8X*X,X*X,X>X1X<X3X[.{.: M 4.a.y.y.6.6.g.y.y.A P I D 0 < S 9 7 X a r 7 @ r Q E 0 7 ( 7 / ( r @ 8 ",
"6 a e O.Q O.( @ 0 7 e 8 r r w |.;X9X>X,X1X,X4X3X[.].: B 9.2.j.y.d.g.1.t.v A Y c V S < = ( 0 o r e r r r 7 # r X.e Q r O.w Q e r ",
"# | 7 ( 7 ^ O.( 7 Q a r #.o 8 V oX<X<X1X<X<XwX).XXu T 2.4.f.t.y.q.t.p.D P K V l 0 0 < S o.r @ o.Q 7 7 Q Q O 8 [ e | #.( ! ( 8 6 ",
"7 ( r ( #.! ( Q @ Q a 7 r   7 8 $ ).sX4X<X3XoX X: Y w.a.d.2.p.i.P v D J L * l 1 z 7 7 W r Q % % ( 7 @ @ e w Q Q r 5 Q ( Q ..Q 7 ",
"7 ( e 7 r #.) @ X 7 / ! r 7 < r a p i oX.X_.> j P Z v T Z Z ] x L ] Z 1 h k < ! 7 4 R R 5 a r 5 7 7 Q 7 @ r w 7 ( ) 7 r r Q r Q ",
"7 Q ( 8 r #.( E < r ! % 7 < 0 r @ E p i i i i , > > j > ; > g - - 9 1 < l < 7 0 R # q R q q q a Q e E Q r Q q q 7 O.O.Q Q @ Q r ",
"7 Q Q 8 / Q r a a r 7 Q e q 7 r 7 / 8 & t =.c.d 0 { j m P Z x 9 z W 7 ! ! o r r w @ w R E 4 7 r e r e e q 7 q R e ..$.w E % / < ",
"( ( Q Q ! e Q r r Q e 7 r O.( r e a a t ^.Z.=.d 3 { U m J I L x 6 7 q < ( S 0 r Q e r 7 q q 8 e r Q r R R 7 q R 4 ..O.r X.w 8 @ ",
"7 7 @ ( ( Q O.( Q Q ! r Q r q 7 O % ' Q.Z.c.d &.0 L v U j x P ] z ! 7 7 0 7 7 7 @ 7 7 Q r 7 7 q e e 7 7 r 8 7 e 4 E ^ q Q w 7 0 ",
"< # # Q r @ w e 4 a r O @ 7 r Q   7 s C.c.d %.H 1 L J 6.I D Z S D 0 X < #   7 7 o e @ S r O a r < 9 o X 0 r @ 7 O 4 E R q w w 8 ",
"@ 7 5 7 @ O % ~ e r 7 O 7 7 7 7 q w s d f %.%.n > L t.t.J t.I Y F ; ; % 0 8 7 q 0 ! 0 < <   r 7 < 9 o   < r o @ # < r 8 # 7 7 5 ",
"r e 7 < < 7 # Q 7 o O 7 Q 8 @ 4 q R . & [.eX!.%.2 { B.6.J 8.w.e.A Y > 1 7 r O q 7 @ r o 7 7 4 @ o 1 7   * 0 @ < < e % O @ 7 5 q ",
"7 @ @ @ e 7 # 7 % e 7 @ @ e 7 # r w E p OX#X~.l.u x i.p.5.N d.d.v 2.h 1 # 5 O q w O ; o < < @ q 6 7 q o < 0 7 z o 7 @ % q 5 4 4 ",
"@ @ 7 w r # < 7 r Q e 8 7 r 7 O 7 5 @ * _.iX~.~.H 0 i.t.8.v w.j.a.a.w.2 r 4 4 5 q r = 7 7 < q 4 7 4 7 @ < 7 @ 0 8 < o 7 O O q 4 ",
"# o e r r 7 q 7 r # 7 7 @ @ O o q E @ X iXuX$X$XH 7 i.y.8.5.g.w.y.y.d.0   < 7 # 7 7 r 7 r 7 q 4 5 q R e Q 0 # 7 7 < e ! o 7 r @ ",
"7   0 7   @ 7 7 0 O 7 % 7 @ 7 7 5 E O fXpX,X6X~. .1 B.2.5.N 2.a.a.y.w.i.< r 7 4 4 4 O 7 o O 7 5 R 5 5 5 5 O < e = < 7 r % w 7 @ ",
"( Q r 7 O 8 a R $.Q r S O.( Q q / 5 s pX*X9X/.n P > d.7.s.u.a.2.y.y.d.d.; Q o r q 7 @ w   7 7 7 5 R 5 r w   w 4 4 7 @ @ 7 0 X o ",
"4 7 r O.Q Q O.e Q r 7 r Q r Q q E 5 gXaX3X/./.B K > 4.f.7.7.2.f.2.2.d.d.B., 1 0 # 7 q r r 7 o < q R ^ 7 ( r @ a #...( 8 Q Q < 7 ",
"w ( e r e 5 r ( O.( 7 e 7 7 e 7 / % oX<X3X/.B -XK > s.f.2.h.a.7.h.y.3.a.i.w.2 S 0   q e 4 z = l 0 8 V ~ a S r Q ..r R 6 Q Q 0 e ",
"7 % e Q Q ! ! ( r R O 7 7 a Q E E <  X3X[.%.-X1X).j 2.2.f.2.2.u.1.d.a.7.s.a.w.2 S 7 E r 7 % 1 2 V V p V 1 a / +.@.^ ..W ) 0 7 = ",
"7 7 R r ( Q 7 r @ r 7 r w 7 0 r ( < } :X%.[.3X3XXX2 9.4.j.4.u.t.d.y.s.7.3.0.a.e.1 r e 7 7   ; dXdXdXdXh 2 1 ! 7 W R ) W Q @ 6 6 ",
"= 7 ( Q 7 % E r q r 7 0 r r w 0 0 X , H n [.1X<XXX, 2.f.4.a.t.t.q.d.7.7.0.7.7.u.i.< ' a 8 ; dXqX-X:X:XfX; 0 0 = R / O.^ ..6 W ! ",
"# r ( r ) Q 7 r 0 w Q 7 e /   0 r 0 l , $ oX<X2X.X, 7.s.y.y.d.t.y.y.u.7.7.M u.y.w.d., ; $ dX2X;X:X=XqXqXi p r a X./ ..R e ^ ^ a ",
"7 0 Q 7 Q e r 5 7 r r 8 7 ) r O 7 ( Q p Z ).eX;XXXy a.a.2.v y.u.P u.2.7.u.7.y.y.2.a.w., y wX<X2X:XrXwX; _ ! 0 E R ..../ E Q 7 7 ",
"@ r Q r Q Q Q Q O.) / 7 w r @ 7 R 7 $ 8 u oX0X2Xi 2.a.7.s.7.u.y.7.y.y.s.7.u.j g.g.w.d.y 0XoX.XXXb . u ; 3 ~ 7 R q R R ..( ~ r r ",
"5 $.Q ) ( ( 8 Q Q @ 7 < Q Q   @ E ..a 8 i XXL.wX, f.2.a.u.v y.6.u.M y.8.u.7.u.v w.B.A ;  .C &.: ` ~ } a %   E 5 R O.q r ~ S @ < ",
"@ ( 7 r Q ( 7 r Q e r r Q r Q O # q O & ; OXK.0Xy a.a.y.y.m z.y.y.M y.y.<.u.p.i.G F 1 _ _ _ $ ' $.8 w 5 E 5 R R w E r 0 r Q ~ 7 ",
"7 Q E ( ( ( S e 5 7 7 @ # 0 ^ Q q 5 w ' 3  .Q.;X: f.2.u.g.y.j 7.w.a.Y w.t.B.q.D F 1 | 8   r 0 % a q 5 R / 4 4 O.Q ) ) Q O.S r 0 ",
"7 r Q Q r 7 O O S @ 7 @ e r @ r E 4 5 _ $ i K.&.C 2.d.w.p.y.K p.d.v Z K P c L 1 1 7 < 7 7 R Q r q w R w / q / O.@.e ( O./ 7 r S ",
"7 E 7 0 r O.7 Q O.E 7 ( r r W 8 8 r 8 _ V . &. .C P i.i.i.D Z L A } ; h > h 1 9 l | e = 7 @ @ 7 O # R 5 E E r r | 9 S 0 < 7 0 7 ",
"7 ( ( r R $.r | Q Q q 7 e 7 @ # r S 8 2 gXhXwX0XF P D L D L h 2 < 0 D 1 0 9 1 z 9 O.O.e e q + o.6 ....! 0 e @ o 0 ~ | 7 ! ^ ( q ",
"7 5 ~ / r @.Q 7 7 Q 7 % 8 7 0 7 < < 1 hX&X^.|.|.; 2 9 1 9 z = = = 7 6 o ! l 9 z Q e e 6 6 e 9 [ e 7 r z [ S 0 0 0 Q / e e r E Q ",
"7 e e 7 7 r Q O.Q ~ e r ( ( #.a 0 ! _ S I D 2 1 S 9 e ! z = o Q 7 r Q 7 9 o e 9 @ 4 q 7 @ e 9 z 6 9 < < X < $ % 7 ~ 0 Q R ..R R ",
"O o.! S ( # 7 O.@ # ( o.O.Q #.Q   8 r - S 1 p 8 S S x e e e 7 w O   q W ) 0 ~ e W R e   6 9 7 0 ! S 0 | r ! < 8 z @ 7 8 ..q q e ",
"@ 8 Q ( O.7 ( +.Q w Q 8 7 7 Q Q + + 0 0 8 0 S < < 9 e + W ;.( 7 ^ ) W 7 ) ~ O.R E E ) 5 r @ 0 S z Q ! Q 5 % a ( r ( ! ) R 7 4 O ",
"S @ ( E r 7 e / o.O.Q e 7 Q @ r q ..Q 0 l 9 Q W Q e z 6 q e 7 r R ) @.! z Q ( r a q ^ 5 @   ! ( e ! z r w E ^ a 7 7 e ) ..4 6 @ ",
"7 7 O.( | Q r R r ( a r 7 r 7 O.5 W ( r e 7 e e k e ) 6 7 7 0 O.R 4 7 Q < < e e 5 5 r 5 q 5 7   r ) 7 ) E a / @.r ..e Q 7 z 6 + ",
"5 7 7 @ 7 # Q @ < # 7 r 7 O e W + O @ O 5 7 e e R 6 e 6 7 8 @ 7 6 q < @ @ r < 0 q w 4 5 r 8 @ 7 4 R 5 5 w O w 5   q 6 e 7 7 7 = "
};
