/* XPM */
static char *ffd2fadaf882465f9779b45687974044szCiM2qUd8wTqUgp[] = {
/* columns rows colors chars-per-pixel */
"64 64 226 2 ",
"   c #040504",
".  c #090604",
"X  c #060B04",
"o  c #0B0B05",
"O  c #090709",
"+  c #07090C",
"@  c #0C0C0C",
"#  c #070709",
"$  c #130D02",
"%  c #110E0C",
"&  c #1A0802",
"*  c #0E1303",
"=  c #0E110C",
"-  c #0E1800",
";  c #141405",
":  c #1C1502",
">  c #141904",
",  c #1A1C03",
"<  c #12130D",
"1  c #19160C",
"2  c #161A0C",
"3  c #1B1B0D",
"4  c #0E0D11",
"5  c #0A0C18",
"6  c #110F13",
"7  c #0F1212",
"8  c #141414",
"9  c #191613",
"0  c #161913",
"q  c #1A1B15",
"w  c #161519",
"e  c #1A151A",
"r  c #17181B",
"t  c #1C1C1B",
"y  c #220D07",
"u  c #221500",
"i  c #231B01",
"p  c #261B08",
"a  c #211D14",
"s  c #221D1C",
"d  c #241516",
"f  c #341E14",
"g  c #1A240A",
"h  c #1C2214",
"j  c #1F211B",
"k  c #23230E",
"l  c #232B0C",
"z  c #2B2C0D",
"x  c #28210F",
"c  c #352A07",
"v  c #28320C",
"b  c #38330A",
"n  c #222314",
"m  c #2A2416",
"M  c #242C14",
"N  c #2B2D13",
"B  c #22231D",
"V  c #2A261D",
"C  c #252D1B",
"Z  c #2A2D1C",
"A  c #342C1D",
"S  c #39261A",
"D  c #253114",
"F  c #2A3312",
"G  c #26311B",
"H  c #2B331B",
"J  c #2B3917",
"K  c #343314",
"L  c #363518",
"P  c #1E1D21",
"I  c #121520",
"U  c #211F22",
"Y  c #1F2120",
"T  c #232323",
"R  c #292724",
"E  c #262824",
"W  c #2A2B24",
"Q  c #252529",
"!  c #29272A",
"~  c #2B2B2B",
"^  c #272928",
"/  c #322D25",
"(  c #312E2D",
")  c #2D3223",
"_  c #2F312D",
"`  c #32312D",
"'  c #363C2D",
"]  c #303125",
"[  c #2D2D31",
"{  c #282935",
"}  c #312F30",
"|  c #2F3130",
" . c #333333",
".. c #393B34",
"X. c #353539",
"o. c #38373C",
"O. c #3B3B3B",
"+. c #373737",
"@. c #432D04",
"#. c #402A1B",
"$. c #403F3D",
"%. c #573D35",
"&. c #3B470E",
"*. c #3D482A",
"=. c #3F403A",
"-. c #434B1A",
";. c #454D2B",
":. c #4A4E2C",
">. c #414920",
",. c #46522D",
"<. c #4A532D",
"1. c #4E592F",
"2. c #485228",
"3. c #51522E",
"4. c #57582E",
"5. c #444D34",
"6. c #4A4E33",
"7. c #41423D",
"8. c #4B4F3A",
"9. c #524F32",
"0. c #564239",
"q. c #455332",
"w. c #4C5433",
"e. c #4D5934",
"r. c #4D533A",
"t. c #4E5939",
"y. c #525434",
"u. c #525A34",
"i. c #51563A",
"p. c #535A3B",
"a. c #595636",
"s. c #514E2B",
"d. c #795E37",
"f. c #57623D",
"g. c #6F6E3E",
"h. c #786A39",
"j. c #3D3C40",
"k. c #413F43",
"l. c #434343",
"z. c #4C4F42",
"x. c #4A4A4A",
"c. c #464645",
"v. c #4E5743",
"b. c #525645",
"n. c #515151",
"m. c #5F4641",
"M. c #745C57",
"N. c #586344",
"B. c #67714E",
"V. c #6D7347",
"C. c #777549",
"Z. c #646D53",
"A. c #656A56",
"S. c #697254",
"D. c #6B725C",
"F. c #6B7456",
"G. c #717759",
"H. c #716B44",
"J. c #7A6461",
"K. c #6E7461",
"L. c #737863",
"P. c #6B6F60",
"I. c #845936",
"U. c #9A7D58",
"Y. c #9F7F4C",
"T. c #AB794B",
"R. c #A87A55",
"E. c #99885E",
"W. c #A5834D",
"Q. c #B1915A",
"!. c #8D8669",
"~. c #9D8665",
"^. c #9C8B69",
"/. c #968A67",
"(. c #8F9866",
"). c #989267",
"_. c #8C8774",
"`. c #8C8778",
"'. c #938C75",
"]. c #978A77",
"[. c #999179",
"{. c #8E9271",
"}. c #AB9A66",
"|. c #BB9766",
" X c #B2936D",
".X c #9EA76E",
"XX c #B3A26E",
"oX c #C89A67",
"OX c #D09568",
"+X c #D2B47E",
"@X c #938F83",
"#X c #BDBE85",
"$X c #CCBB85",
"%X c #DDD6AA",
"&X c #DEDBB5",
"*X c #DDD5B9",
"=X c #DCD6B6",
"-X c #DCCFAD",
";X c #E4D3A4",
":X c #E4D5AA",
">X c #E4DCAB",
",X c #E8DAAD",
"<X c #E9D7A7",
"1X c #F3D7AA",
"2X c #E3D5B3",
"3X c #E5DBB3",
"4X c #ECDBB2",
"5X c #E4DBBB",
"6X c #E9DCBC",
"7X c #E8D4B7",
"8X c #F1D1AA",
"9X c #DEE3AB",
"0X c #F2E2BC",
"qX c #E7E3B1",
"wX c #DDD5C2",
"eX c #DAD6CA",
"rX c #E3DCC3",
"tX c #E6DAC6",
"yX c #EFE2C0",
"uX c #FFFADD",
"iX c #FFFBD7",
"pX c #F5F9C6",
"aX c #FEFBE2",
"sX c #FDFCED",
"dX c #F7F4EB",
"fX c #FFFCF3",
/* pixels */
"8 ~ l.~ r W  .8  .  t ~ 8 8 O < 0 9 0 7 ~ w 5 ! ! + w O T B 8  .U % ! ( s a q s W W O.9 t T Y w t ~ @ t } T T r ~  .8 r t ` T O ",
"t ~  .t r [  .~ ! T ~ +.T T w   q < O 8 [ P ! l.k.[ ~ } ~  .O.$.( T }  .+.$.R / W T O.` [ ^ t j | Q ~ O.| U ~ T O. .! T r  .r s ",
"8 r 8 T  . .T  . . .s T r @ @ 8 < o t ~ j.X.Q w ..~ t  . .~ $.t } O.} ( R ~ R k.O.~  . .` ~ ~ O.O. .O.~ t ~  .~  .O.O.O.T t t ` ",
"t ~ T O.l.+. .x.O.^ T T ~ r 7 B 0 r O.W Q O.~  .( ..r l.n.7. .r X.k.!  .X.! ! ( !  .O. .T W T  .~ T ~ T T | T T  .~ r B +.~ ~ Y ",
"r +.~ ` O.+.l. .O.O.O.j... .t 8 r < ` ~  . .T 7.7.c.` ..z. .O. . .T Q  .x.k.k.o.Q X.X. .` l.`  .~  .c.~ T O.~  .O. .c.~ O. .~ ~ ",
"T O.T T ~  .x. . .O.` O.s T t O @ % W  .c.W W O.) Z W / ) ....7.O.j +.~ [ j.X.j.j.j.{ ~ +.c.....~  .x.( T c.x. .O.l.O.~  .+.[ Y ",
"t +. .+. .+.O.l.~ T 8 T T  .t O 8 t ~ B W B z.P.P.L.A.L.8.Z.3 B b.7.v. .+.O.Q Q ! X.~ Q } ! r ~  .[ O.O. .$.l.O.O.l.~ T ~  .7.~ ",
"~ ..T ! ~ x. .O.T T O.t T ~ 0 r 4 @ ~ t ~ B C 0 r.8.w.w.S.D.w.A.M ) W h j ^ T P Q Q w e +.O.Q | 0 ~ T r t t T T ~  .c.[  .~ T t ",
"T  . .~  . .t T r O.O.8  . .8 4 I w j.T x...' g 8.i.e.<.e.u.N.F.q.D.' H h ' ^ ~ _ ~ { @ Q X.I t ~ ~ 8 T ~  .r W t ! x. .O.~  .8 ",
"T $.l.j.x.W T  . .t T ~  .~ 8 t 4 w o.U  .T B , Z :.e.<.<.1.1.1.S.S.p.D.- h h ) c.j  .t ~ j.| 7 ~ c.s O.n.+.T T T ~ x.T  .~  .r ",
"P O. .` O.T T ~ r 9 T t T  .8 8   w j. .~ 9 0 h > F <.f.<.2.1.2.e.w.B.B.r.D.*.h j <  .q @ ^ _ k.T  .t t Q ^ T ~  .~ x._ O.`  .~ ",
"8 T r ~ ~ [  .r ~ ~ ^ t ~ O.w 8 4 T j.Q T T W W 3 l F *.1.1.2.1.<.w.w.e.S.S.Z.D.K.D.C _ h j Y X.Q T ~ T 6 B t T t ~ ~ ~ T ~ r O ",
"W T T ~ T  .O.O. .~ t r ~ ~ 8 r 8 < t P | [ | W ) 2 D H v ,.w.1.,.f.w.l l B.B.S.S.D.A.P.' *.* 0 T t B  .P ~ ~ O.~ B t 7.O.~ r W ",
"8 Q O.~  .~ T ~ T ~ ~ ~ T r r t t 8 t ~  .Y r 7 0 h C H M J D q.;.w.F u.e.u.w.<.t.,.N.Z.D.A.h '  .T @ # t l.T T T ~ Q ~ ~ T ! t ",
"r ~ O.T ~ T < 8 T T T  .~ O @ q @ q P P r Y Y I 7 = 2 ) M C M H H :.r.,.2.1.2.1.1.2.w.t.r.S.K.g 8 T ~ O t  .t ~ [ l.~ ~ ~ T ~ T ",
"~ ~ ~  .T s 8 T r t   8  .8 % t 0 0 @ T r 5 + 7 7 E 0 C C H D l w.w.<.e.e.<.<.<.e.1.2.<.q.q.F.K.< Y t j ~ 8 t @ 8 ~   T ! ~  .~ ",
"8 < 8 t 8 t 8 T  .8 O t 8 . r r o q 8 t t e w 4 t < 0 C D F F 1.e.<.e.,.,.t.8.w.y.3.1.2.1.V.B.D.0 = 7 Y Q 7 @ 8 8 9 @ r 9 t t 8 ",
"8 8 8 r 8 8 6 8 ! @ T r 8 B 8 8 1 a % % 8 % 6 t 9 0 2 H l r.<.2.y.1.,.<.,.w.w.w.a.4.2.V.V.{.{.g h j T j t 4 8 @ r T B =   . w r ",
"@ 8 8 @   @ 8 8 8 < t @   O 8 %   < % w U 6 4 w O < 2 > b.e.u.y.3.y.y.e.q.q.a.y.9.H.g././.&X&X`.; = #   @ @ s @ r t B @ @ @ w w ",
"@ r r 9 8 @ 9 8 8 8 8 8 O 7 8 = 8 8 9 w 8 8 8 w t 0 > 8.y.e.;.<.:.y.y.y.e.q.a.s.C./.,XqX%X&XuX'.2 < # 8 w 8 t @ o @ O o e Q r 4 ",
"9 r 8 r 8 # 8 t @ O r 8 8 8 @ 8 5 4 r w 4 w r < = . 3 8.r.w.u.1.y.y.9.a.w.:.<.4.h.,X,X<X/.b c 5X1 8   e @ 8 r r B 8 8 @ 8 r 4 4 ",
"8 r 8 8 @ 8 t t 8 r r q T T t r ! P P r @ T ~ T 0 3 M w.u.y.<.3.<.y.9.9.y.y.2.g.E. X<X>XqX%X3X3Xm B < q @ w 4 < 9 @ 0 O r 8 P w ",
"O t T T T O.| t T T 8 T O. .T O [ Q r r 8 ^ 0 o 3 > H p.;.w.y.<.2.e.8.r.e.u.-.h.W.oXXX>XpX(.,X5Xn B B R }  .T T  .~  .B T T ~ 6 ",
"T T t ~ ~ c. . .O.~  .Q ~ ~ 8 ~ O.{ 7 8 q  .2 3 1 H 8.w.y.y.<.1.<.e.w.r.2.2.&.h.|.W.@.c .X&.%X>X, < q < U t w Q ~ ~ ~ W T ~ [ @ ",
"W  .4 t ~  .` 8 8 8 t O O T @ r w Y r r = < 0 g 8.r.i.r.:.y.y.2.2.t.w.6.t.v h.W.OXOX+X}.(.&.qX>Xp 1 ( t T t P Q t ~ W ~ 7 8 8 O ",
"^ T 8  .T 8 r 8 ~ t t 8 8 ! 0 Q P +   r W h h Z G r.6.w.<.e.<.<.2.e.<.p.g C.d.W.T.Q.Q.Q..X&.<X>XeXa $   @ e 8 ^ t ^ ^ ^ t t Q P ",
"~ ^  .t T T  .@ @ 8 t 8 t s 8 8 j j j 8 B 0 E C G M i.p.r.2.u.1.e.y.<.z F.!.U.oXOXOX|.$X#X9X;XiXA / < $ s W P w 0 [ 0 ^ ~ P @ e ",
"@ s r  .Q | } @ 8 r t 8 B r r r t T ^ t j < B C W H n w.:.e.<.<.<.y.6.w.z : d.I.T.T.1X<X9X9X1X%XtX`.a r e   T | q Y t | 8 T e t ",
"O  .r W 9 Q  .~ t r B T  .8 8 0 8 r r 1 t ^ j 0 Z C G ) D t.w.p.i.:.p.y.3.c u U.R.8X1X1X,X:X:XrXwX@X1 s t O w [ r | O.^ T ~ 9 8 ",
"8 ~ r ~ O.T ~ T < t T r r   8 s j 7 o t j B 0 Y 0 q ) h G D v.;.8.y.6.w.y.a.K p ~.~.;X<X<X2X0X*X[.% $ 9 s 8 ~ Y t = E W T ` ^ 6 ",
"8 ~ 0 8 t O.~ @   t ~ P r @ 9 r @ j j 8 @ T Q ~ 7 7 0 2 G G l J H 6.p.r.r.w.w.l , /.}.,X,X2X=X'.& a a % % 8 Y 7 ~ ^ 8 j t B t U ",
"8 T ~ w t O.~ t 8 t s 8 t 8 r t 8 t t r 8 t 8 r 7 0 B h 2 2 G C M ) N N D D M H M , : ~.~.[.: p V 1 R a w ^ w 0 8 | ` T T O T s ",
"8 T t 9 T T t Y P t w T t r w t r T 8 @ r 8 w 8 r B = 8 o = q 0 0 q , > g - g * > p p y f & 6 d d e e e w 8 8 t r ~ +.r T @ ^ 8 ",
"~ ` B T T 0 T t t Y t w P | ~ P 8 9 T 8 B w t T t r r t Y t 0 r 0 > H M M H G ) a V %.m.& d e e U U U t t 8 8 T < ~  .t ` w 8 @ ",
"9 < @ ~ ~ T  .~ T T T t P P w 8 # 8  .T T @ w Q t 8 r .   6 @ h h j J D D G h G > m 0.M.U.6 e e e t 8 8 t w @ r @ T T 9 R r 8 t ",
"= O o T r 8 9 r @ P t   4 8 P P O = t 8 8 O + @ @ < T 8 8 8 @ = 2 C G D J G G ) p S #.%.M.M.d U 8 9 O   t t % 8   8 T r 8 8 r r ",
"@ < < 8 @ O @ ^ t t 8   8 8 8 8 = s r 8 4 4 8 8 e @ 7 . 0 O o 2 G D G &.D *.G G ; A #.f %.M.d 9 8 w O   8 t @ @ O 8 t 0 O < 8 8 ",
"t r 8 8 < 8 @ T 8 # O 8 T 8 @ 8 r r O < w P t   8 8 < @ 0   o 3 G D D *.l N.*.G x A S #./ f 9 O @ 8 8   @ r @ 8 7 t @ # @ 8 @ 8 ",
"8 @ @ @ r 8 O 8 @ r 8 @ @ r 0 O 8 r r r 8 8 8 8 @ w 0 @ < . > W G *.*.f.*.*.N.G : A U.tXU.6 o 8 8 8 r @ 8 t 8 B O 8 @ 8 8 8 @ @ ",
"@ 7 8 9 t O 8 8 t T t 0 8 t 8 # r @ 8 @ + # @ 8 8 = < < r ; q 8.J q.,.J *.*.v.C d ].].tX].y 1 8 8 O 8 @ < 8 @ r 8 8 O 8   . r 6 ",
"O O w r t 8 8 8 t # r 8 O 8   O 1 t @ . r w w w 8 % X @ 1 2 8.i.t.e.:.K w.6.r., N _.6XaX_.: 2 X 8 < 8 r T 8 8 8 8 8 r T O 8 t @ ",
"7   r 8   % 8 8 t O 8 8 < # 9 < < t @   @ 8 t T % q   ; g 3 b.5.q.p.3.;.y.p.w.> L &X6XuXuXX 3 = r 8 r 8 8   O 8 @ 8 r t 8 0 8 @ ",
"~ T t 8   9 T t  .T t T _ ~ B r ~ < t @ r t 8 O r < 8 > , 8.i.i.3.3.3.L w.6.i., N {.2X2XaXaX2 X 0 8 8 O 8   @ t @ 8 4 @ 8 r # O ",
"7 8 t +.T T  .r T P @ t T Q t 8 q < B 8 %   8 r < 0 o * 3 r.y.:.3.3.3.s.6.i.8., L c ^.2X5XaXX h q t T T ^ t 8 8 O._ W e T ^ 8 8 ",
"w ~ r P t 8 t ~  .~ 8 j 8 @ B < E 0 < t T r r t 0 B 0 > 8.w.y.y.:.3.y.a.y.p.8., z c ~.}.-XuXsXh t j T T T T 8 T ~ t t 8 T T r r ",
"8 6 r T T T T ~ t s O = < B r E B . E 8 @ Y 8 < 0 B 3 r.r.w.y.<.3.<.3.;.w.8.i., L 6Xc ~.0X*X].3 B T T t 9 ^ ~ O.O.T ~ T ^ t 8 % ",
"8 8 P t ~ Q 8 t @ t < t r 8 t t W < > % r ~ T < B 1 8.8.a.w.y.<.1.1.<.p.6.b.w., /.7X:X@./.5X_.W j 8 Q j t t t r j t ~ t T @ < @ ",
"7 w ~ T 8 4 Y t r s 8 0 a q fXsXsXaX3 3 a 8 E 1 1 z.r.r.6.w.1.e.e.<.e.6.w.r.i.: ^.7X1X~.c tXA ( B O t 8 r 8 t 6 t ~  .T ( 8 t ! ",
"O t ~ t ^ B r j 7 Y e 9 a aXtX*X&X&XaX: ; . B ; 8.i.r.e.w.y.:.t.t.6.a.9.w.8.y.i U.oX1X~.L A < W ~ r T q t t t T [ W  .t r T W U ",
"w e T 8 j 0 t 7 P w s d : wX=X5X3X3X5XaXx $ m 8.r.w.:.F ;.e.r.u.q.w.w.9.y.y.w.i M.R.U.U.a o q t r O @ 8 T ~ r j P ~ ~ T T T 8 8 ",
"4 P T t E j ^ T [ Q ! q ; p rX&X-X5X*XtXx k r.8.w.u.<.u.u.u.y.,.D q.y.K ;.w.y.: U.|.1X^.a 0 0 T B 8 t 8 t T 8 s 8 t t  .! ~ t t ",
"6 +.T T ^ ^ 0 Q Q 4 w 6 / m   $ N !.[.'.eX1 v.8.r.e.K >.:.2.<.y.,.e.:.<.p.<.q.y.p 8X;X/.3 o 8 T X.T ~ t 8   t 8 t  .w t W T @ 8 ",
"4 [ 6 P T ~ = t { P P P s / 1 $ ; : A / ` 1 ) r.r.l 2.u.1.u.w.F ,.u.f.l ,.,.e.<.u 4X4X[.o   0 T  .r s T P   T r 8 T r e t ~ Q 8 ",
"w U U ~ ~ ~ j t + 5 6 6 # 6 R V $ : 9 V W ) 2 G M p.r.2.3.e.:.z e.2.:.v e.q.e.,.u 2X6X/.X @ t 4 t 8 O q ~ @ 8 ~ T ~ W T  .P t t ",
"I U U T t 0 X   T 4 w + P U % 9 B 9 < W a o B h H M w.y.w.i.N p.e.e.z r.,.p.5.p.i 5X7X[.. ~ [ @ r r r r ~ r B O.+.r ~  .~ 8 t t ",
"e U 6 e q _ 8 B | P r Q e P U 9 9 8 e _ 8 @ = * 3 - H Z M Z Z M r.y.F r.t.q.w.w.z /.5X$ ; @ . s O . B @ T r s Y  .9 B r 8 < r r ",
"w ~ ~ B j ..q _ B Y 0 r r 7 + 4 P r P 8 w O h j 2 2 2 ; q > q W Z N V / r.5.p.M N '.!.i 1 0 o / <  .~ T t 8 % O r ~  .8 T T ~ 8 ",
"e @ W E q ..B 2 = T 7 7 w w I 7 4 w w 8 Y 8 0 0 q * 0 j t 3 r 0 > q s B ) H C C V tXrXsXsX1 d / 9 8 r T  .T t r r T R r r s T T ",
"8 8 t < 8 j T ` B ^ q j ~ ~ j.Y t ~ ~ T _ t 0 8 t 0 w T W 8 # ~ < 9 U s ; 2 2 1 < ].]._.@XdXa B 8 8 8 4   8 @ 6 8 ~ r T r  .j r ",
"@ ~ T t W X 8 ` = o ^ _  .T j.Q   8 w e Y t t 0 T T T e w P w 8 o   e U W n C n V a , . > 1 % s ^ T t  .j T < r t % 8 r ~ 8 9 r ",
"@ 8 T ~ X.8 ! ..B r B 9 7 8 T T O @ w r t P ! e r e t 4 j O.~ 8 Q P Q 5 ~ M / B R V m ; 3 o 8 ~ s T ~ T 8 @ t ~ t ~ T T B 8 @ O ",
"B @ ~ U U 6 e ! `  .T r r T @ t 8 s ~ T 8 8 T w P I P @ t r < j r Q j.Q E E W r t 6 ^ o $ X ^ ^ r T s t t T ^ s 8 8 t ~ ~ 8 @ @ ",
"8 8  .[ X.U U U s ~ U s 8 t w  .8 U ! T 8 6 U P P r X.w = < B W j 4 I Q < < > s 6 I 8 1 r % 7   t ^ 8 T t t ^  .t ~ 9 T w j 8 O ",
"4 8 8 4 5 4 U @ 5 @ 6 t 6 # e P O %   O @ 8 e w P 4 t   t = o 2 0 7 r 5 @ q % e w t = o r t + w 4 t = 8 r O 8 7   w < r r 8 8 @ "
};
