/* XPM */
static char *cGxheWVy[] = {
/* columns rows colors chars-per-pixel */
"64 64 251 2 ",
"   c #3B2D24",
".  c #3B3429",
"X  c #373528",
"o  c #2D3224",
"O  c #35271E",
"+  c #432C24",
"@  c #42332A",
"#  c #473C34",
"$  c #573528",
"%  c #682B26",
"&  c #723129",
"*  c #482D1F",
"=  c #3B5B3D",
"-  c #39613F",
";  c #49463C",
":  c #49583A",
">  c #58583B",
",  c #574C30",
"<  c #664B2B",
"1  c #6A512C",
"2  c #6A4A36",
"3  c #734C37",
"4  c #6B5334",
"5  c #675439",
"6  c #755636",
"7  c #70542F",
"8  c #51643A",
"9  c #76643C",
"0  c #3B5E45",
"q  c #2B6C45",
"w  c #336543",
"e  c #3C6344",
"r  c #3B654B",
"t  c #366B49",
"y  c #377649",
"u  c #3A6A51",
"i  c #377757",
"p  c #2B784D",
"a  c #1C7549",
"s  c #445C43",
"d  c #4B5845",
"f  c #555745",
"g  c #544E46",
"h  c #6F5846",
"j  c #446144",
"k  c #4A6243",
"l  c #45644A",
"z  c #496849",
"x  c #566648",
"c  c #45774B",
"v  c #466A53",
"b  c #477557",
"n  c #557050",
"m  c #786949",
"M  c #6B6A4C",
"N  c #477C61",
"B  c #D73E2F",
"V  c #A84738",
"C  c #B54F3C",
"Z  c #9E4638",
"A  c #CD4433",
"S  c #C84838",
"D  c #D64837",
"F  c #D8533E",
"G  c #CD4B34",
"H  c #E44D3E",
"J  c #E94A3D",
"K  c #E5513E",
"L  c #B85448",
"P  c #A5574A",
"I  c #876948",
"U  c #937755",
"Y  c #B26D4C",
"T  c #A06251",
"R  c #C85A43",
"E  c #DC5342",
"W  c #D65744",
"Q  c #C45551",
"!  c #E44D41",
"~  c #EC4C41",
"^  c #E45245",
"/  c #CF614E",
"(  c #E4765B",
")  c #3C9B5D",
"_  c #398758",
"`  c #1AB25D",
"'  c #26AD5D",
"]  c #2CAB5E",
"[  c #38A95E",
"{  c #25B25E",
"}  c #2AB15E",
"|  c #388966",
" . c #29996C",
".. c #3C926B",
"X. c #369968",
"o. c #2C9C71",
"O. c #379B73",
"+. c #2C8A61",
"@. c #1EB760",
"#. c #26AE62",
"$. c #2BAD63",
"%. c #2DAC69",
"&. c #33AC63",
"*. c #39A867",
"=. c #24B363",
"-. c #2AB264",
";. c #2AB767",
":. c #34B567",
">. c #34A375",
",. c #3AAA7E",
"<. c #37A77B",
"1. c #3EBD76",
"2. c #2EAA7A",
"3. c #48865A",
"4. c #45965B",
"5. c #54955F",
"6. c #43A45E",
"7. c #438767",
"8. c #4A9864",
"9. c #459A78",
"0. c #51956E",
"q. c #44A466",
"w. c #56A76A",
"e. c #49BA6A",
"r. c #58B768",
"t. c #47A67B",
"y. c #58AB79",
"u. c #43BB7A",
"i. c #4ABA72",
"p. c #54B37A",
"a. c #66AC64",
"s. c #79A564",
"d. c #6DB470",
"f. c #729D59",
"g. c #2BC369",
"h. c #2CCC6D",
"j. c #27C96A",
"k. c #39C66B",
"l. c #2CCB74",
"z. c #2BCB75",
"x. c #33CB73",
"c. c #38C674",
"v. c #2DD170",
"b. c #44C56C",
"n. c #44C473",
"m. c #53CC73",
"M. c #78CD7F",
"N. c #71D07E",
"B. c #988654",
"V. c #898F5C",
"C. c #998E6C",
"Z. c #A79468",
"A. c #A99578",
"S. c #B59A7A",
"D. c #A78A6D",
"F. c #BBA57E",
"G. c #98A46A",
"H. c #FB987B",
"J. c #E79375",
"K. c #C5A57E",
"L. c #C09069",
"P. c #1EBE8E",
"I. c #1AB98A",
"U. c #1EBF92",
"Y. c #38AB82",
"T. c #23BD8E",
"R. c #2ABA8C",
"E. c #29B787",
"W. c #34B385",
"Q. c #39B385",
"!. c #34B48B",
"~. c #32BA8B",
"^. c #39B68A",
"/. c #23BD92",
"(. c #29BB91",
"). c #2BB790",
"_. c #36BA91",
"`. c #45AC85",
"'. c #45B588",
"]. c #56B084",
"[. c #64BC8C",
"{. c #1AC28F",
"}. c #1EC08E",
"|. c #1DC18E",
" X c #16C28C",
".X c #1DC192",
"XX c #16C391",
"oX c #21C18D",
"OX c #2AC18C",
"+X c #22C192",
"@X c #29C194",
"#X c #55C383",
"$X c #7CD384",
"%X c #79CD83",
"&X c #7FCCA0",
"*X c #B3B38F",
"=X c #FA9F81",
"-X c #CBB68D",
";X c #D7B58C",
":X c #CAB695",
">X c #D7BA97",
",X c #C7AE85",
"<X c #FDA688",
"1X c #EDB38D",
"2X c #D6A390",
"3X c #81D589",
"4X c #93D08E",
"5X c #B2CD94",
"6X c #A3E39A",
"7X c #9DDFA7",
"8X c #81CCA1",
"9X c #99E2A9",
"0X c #ADE6A2",
"qX c #CAC493",
"wX c #DAC498",
"eX c #CBC38F",
"rX c #E3C498",
"tX c #F8C99B",
"yX c #E9CAA6",
"uX c #F8CCA5",
"iX c #FED6AC",
"pX c #F4DCAB",
"aX c #FDDDAD",
"sX c #F8D8A7",
"dX c #FEDDB3",
"fX c #FEDDB9",
"gX c #F6DAB3",
"hX c #EAD4AC",
"jX c #D5EDB1",
"kX c #FDE2AE",
"lX c #F6E2AD",
"zX c #E6EBB2",
"xX c #E8E9B4",
"cX c #FEE3B4",
"vX c #FEE2BB",
"bX c #F8E8B6",
"nX c #E7ECB3",
"mX c #CED2A9",
"MX c #A9F7CC",
"NX c #B5EFD0",
"BX c #9FE7C1",
"VX c #C4ECD2",
"CX c #C7F1D9",
"ZX c #FDE8C4",
"AX c #D2FFE8",
"SX c #E6FFF6",
"DX c #F5FFF5",
"FX c #F3FFFB",
"GX c #FCFFFB",
"HX c #FBFFF5",
"JX c #E2FFEF",
/* pixels */
"T.oX.X|.U.U.T.P.|.|.|.{.|.T.(.(.T.T.+X{. XXXXXP.U./.(./././.U..XU.U./.U././././././.T.+X+X|.{..X.XU.U.|.T.R.R.oX.X|.(.(.(.T.T.T.",
"T.T.|.|.P.U.T.oXoX|.|.|.|.T./.(.(.T.oXP.{.|.+X+XU././././././.U.U.U.U.+X/.U././././.T.P.P.P.I.P.+X/..X.X+XE.E.+X|.XXT.(./.P./.oX",
"T.T..X{.U././.oX|.|.|.|.T.|.U.U.+X(./.T.T.T.T.T.U.T.P.T.R.T.T.E.U.P.U.|.U.U.U.I.P.T.P./.oX+X+X(.(.(./.+X|.P.T.|.XXXX/./.T.T.|.XX",
"R.T.{.{.U./.T.T.T.|.T.T.U.P.XXXXI.I.R.R.R./.+XoXP.|.|..X+X+XR.T.U.|.|..X|.oX|.P.|.oXP.T.T.P.E.T.(.T.T..X|.|.P.|.|.|..X/././.P.|.",
"(.T.{.XXP.T./.|..XT.R./.|.XX{.{./.+X(.T.T.T.oXoX|.|.|.|.oXoXT.T.OXR.T.T.T.T.oXoXoX|.oX|.oX|..XP.U.XX|.P.T.+XU.|..X.X/./.T./.oXU.",
"(.T.{.XXT.T./.T.T.U.R.T.|.|.|.T.T.).R.~.W.W.W.Q.W.,.2.2.>.%.<.<.>.>.*.>.>.,.,.,.Q.Q.W.W.E.!.R.R.|.{.|.P.T.(.+XU.U.T././.T.T.T.T.",
"R.R.U.{..X/./.U././.(.T.|.|.R.R.!.W.Y.9.7.N i v b b v v l z d x z l l l l l z z v u i i ..9.t.Y.W.T.|.oXR.).(..X/././.T.T.oXT./.",
"(.T.P.XXP.oXU././././.T.|.R.^.`...+.p p w w e : : j : k k k k k j 8 8 s k k k k l e r 0 w t i i O.,.R.R.R.R.(././.P.T.T..X/.T.T.",
"(./.T.|.oX|.|.T.T.(.+XU.T.~.9.7.e e t t y y 3._ 4.) 4.4.) 8.*.) [ 4.[ 4.6.8.) _ 4._ _ y y t e w r N <.^.E./.@XU..X.XT.|.|.|.oX.X",
"/././.P.U.P.|.oX/./.I.oXOX2.i r l c 3.5.8.q.*.[ &.[ [ &.-.=.' { $.$.-.$.' ' } :.[ &.q.q.8.5.3.3.l r i <.)./.U..X.X|..X|.T.|.{.{.",
"/./.R./.|.|.|.T.(./.I.+X2.+.w t 4.) q.*.*.[ } } ] &.&.} } } =.=.-.' $.-.-.} } ' } } :.[ :.*.*.*.3.e 0 | ^.(.I..X.X|.T.T.T.T.{.XX",
"U./.T.T.|.|.|.T././.U./.2.+.e b q.-.-.} } } { ;.{ } } ' ' =.#.#.-.$.-.-.' { -.{ } } { { ' -.$.&.q.3.d v <./.U.U./.T.T.T.T.T.U.XX",
".XU.(./.|.|.T.oX|.+XoXR.>.p e 5.*.] } =.@.@.@.@.{ @.-.:.&.$.$.%.%.%.%.$.$.%.-.=.-.-.=.#.-.$.$.&.$.4.x s O.(.U.U./.T.R.T.T.T..X+X",
"U.U././.P.oXE.oX.XoXoXW.X.q j w.*.$.} { =.@.` ` =.;.#.$.*.t.p.].p.[.].q.*.%.$.-.} =.=.#.-.$.%.#.' *.x d O.R.T./.T.T.T.T.T./.U./.",
".XU./.T.|.oXT.T.+X{.oXQ.8.w y 4.&.$.#.-.=.=.=.-.#.%.*.y.8XNXAXJXJXJXAXBX8Xy.X.&.-.;.=.=.=.=.;.-.} 6.z j o.E.R.(.T.{.|.|.P..X/./.",
"U.XX/.T.oX|.R.oX{.I.OXQ.7.w y q.&.-.-.$.#.#.#.%.%.*.[.NXJXSXDXHXDXHXSXSXSXBX[.X.%.%.;.=.=.=.=.=.} 6.z e  .R._.)..X{.P.oX|.U.U./.",
"U.U.U.T.|.P.oX/.U.|.T.W...q t 5.[ { -.#.$.-.#.&.*.].NXSXFXFXDXDXDXFXGXFXFXSXNXy.>.%.=.=.@.=.-.' } 6.8 e o.R.).).U.U.T.R.T././.U.",
"/././.oX|.|..XP..XT.R.^...q y q.} { -.#.%.;.%.:.*.BXSXFXGXGXDXDXGXGXGXGXFXSXSXBX*.%.=.=.=.=.-.$.{ [ x j o.T.(./.U.U.T.R.(././.U.",
"/././.T.|.|.T.oXoXT.OXQ...q y 8.} =.-.%.%.%.#.*.].AXSXGXGXGXGXHXHXGXGXGXFXFXSXAX].*.#.=.=.#.-.-.{ 6.z j O.R.T..XXX{.oXT.U./.U.U.",
"U.U././.T.|.T.T.T.T.R.Q.7.q p 6.:.} -.;.;.-.-.$.#XMXNXNXVXVXVXVXVXVXVXCXCXNXMXMX].1.#.=.=.=.=.-.} [ z : ..R.T.{.P.{.{.{.|.U.U.U.",
"|.oXoXE.oXT.|.oX/.T.R.Q.| q p w.:.;.;.g.;.j.j.g.;.c.n.'.u.u.u.1.u.u.u.u.u.u.u.1.x.g.j.g.g.;.:.;.:.q.z = X.R.P.|.|.{.|. X{.|.oXT.",
"P.oXoXE.T.|.|.T./.R.T.W.X.q _ i.c.c.x.l.z.v.v.j.v.h.z.z.x.z.z.l.z.z.x.l.z.x.x.x.h.h.h.h.h.x.x.x.x.e.n e X.R.T.|.|.|.{.|.|.|.T.oX",
"T.oXT.T.T.oX|.T.T./.oX~...q i p.n.x.x.z.v.j.j.j.j.h.z.j.OXv.h.v.l.l.z.z.h.h.h.v.h.h.h.h.g.l.z.h.x.i.n j  .|.T.T./.oX|.|.T.T.T.|.",
"P.T.T.T.oXP.|.|.T.oX|.E.| q c y.^.c.l.l.v.v.v.v.h.x.x.x.x.l.h.h.v.x.v.x.h.x.h.k.k.x.k.k.x.x.x.x.c.p.n 0  .|.T.R././.|.T.T.T.T.T.",
"/././.T.T..X.XU..XU.XX!.0.w e a.p.n.c.c.c.k.b.k.b.:.b.b.k.:.m.k.k.k.b.k.k.b.k.k.n.1.b.b.c.1.b.b.i.w.x : O.T.T.R./././././.(.(./.",
"/././.P.|.|./.U.U.U.+X^.y.c : z 4.4.w.%X$X$X%X$X%X3X3XM.3X3XN.3X$X$X$XM.M.3X$X$X%X%X3X3X%X%Xr.4.4.n : n t.E.R././.U.U./././.T.T.",
"/./././..XU.U.U.U.P.R.'.7.x > > 8 , V.nXzXzXxXxXZXxXzXzXnXzXzXnXzXzXzXzXzXzXnXzXbXxXxXzXnXnXqX8 , 8 < f 3.t._./..X.X.XU./.T.T.T.",
"/./.U./..X.XT.P..X(.,.| = > M I < I yXsXvXdXfX;XwXvXaXcXcXaXcXaXcXaXaXkXkXaXkXkXyX>XhXZXvXdXbXZ.7 9 m x j | Y.E.U..X.X.X.X/.T.T.",
"/.U././.P./.T.oXP.~...t n A.:XS.7 ;XvXvXdXfXU 4 m yXfXdXfXaXvXbXbXvXpXcXcXdXvXyX6 4 U ZXvXgXcXuXI S.>XD.d - X.^.T..X.XXXXX.XT.T.",
"U.U.(.T.P.oXoXT.P.Y.b d C.:XwX,X-XgXdXdXfX>X< 5 , *XZXfXcXcXpXbXlXvXcXdXcXvXfXS.4 2 5 >XZXvXdXkX;X;X>X>XA.s p Y.R..XU.{.P.|.oXT.",
".XU./.T.T.T.T.T.T.>.l h :X>X>XwXbXcXcXaXiX;X7 4 2 B.fXvXaXaXkXlXpXcXkXiXcXdXdXD.< 4 4 -XvXdXaXkXlXrX>X>X:XM 0 9.^.T.oXP.|.|.T.oX",
"U.U./.T.T.oXoXT.E.>.d h >X>X>XwXpXcXcXsXcX;X7 1 < D.vXgXfXaXcXpXpXsXiXcXcXiXfXD.1 < < wXdXkXkXkXcXrX>X>X>XM s 8.W.T.P.|.|.P.oXT.",
"/./.T.T.T.oX|.|./.O.l h :XwX;XrXcXiXcXaXcXkXI 1 6 rXvXdXfXaXhXeXeX-XyXvXfXgXfXrX9 < B.pXaXkXkXkXkXwX-XeX>XM w O.R.T.{.XX+X/././.",
"/./.oXT.T.oX|.|.U.Y.b f A.>X1X>XiXcXcXaXsXbXuXK.>XvXgXvXiXyX-X:XqXqX>XuXfXfXZXvX>XK.wXkXdXkXpXcXaXrXwX>XD.f i Y.E.T.|..XU./././.",
"/././.|.T.T.T././._.+.r h D.:XwXpXcXdXcXcXcXvXfXbXgXbX;XI U >X>XwX>X>XI U -XfXgXvXiXbXbXaXiXaXdXfX>X-XA.h d ..W.T.T.T.T./.U.U..X",
"U.U.|.T.T.T.T.T.U.R.W.| s > m V.wXcXcXlXcXcXsXdXcXZX*X7 < 7 U U U U U 3 < 3 ,XfXdXcXkXpXcXcXcXcXyXB.m : x b ,.R.oXT.R.T.(./.XXXX",
"XX{.|.|.T.T./././././.^...t = > *XpXbXbXpXcXcXfXdXyX9 7 1 , < 3 4 4 2 2 < 2 7 rXbXcXlXkXcXcXpXlX>Xh : w 7.Q.R.|..X|.R.R././.U.XX",
".X.X|.|.T.T.T././.@XI.+XW.y.n > Z.lXgXvXcXdXfXcXdX;X1 < 1 5 3 2 5 5 & 3 3 < 4 ,XcXcXaXcXdXaXbXbX*Xf l y.Q.~.P.{.XXU.T.T.(./.U.U.",
"/./.T.T.T.T.P.U./.(.T.R.Y.9.n , m pXbXpXcXcXaXaXdXyXZ.9 m 2 3 2 2 < h 3 2 I Z.hXdXaXkXiXdXdXkXzXU : z w.2.oXP..X/./.T.R.T.|.T.|.",
"/././.+XoXT.P.U././.@X^.O.u l f 3.*XgXdXcXiXiXdXdXbXzXjXmX*X*X*X*X*X*X:XmXxXzXbXdXiXiXiXdXiXzX5Xn z e p <.R.T.+X/./.T.T.|.|.T.T.",
"/././.U./.T.T.P.oXT.R.<.i e c w.a.a.F.K.H.<X<XH.1X-X5X6X6X6X9X9X7X7X9X7X9X6X6X5X1XH.H.<XH.1XG.s.r.w.c - p t.R.{././.T./.oX|.P.oX",
"/././.U./.T./.oXT.T.R.+.e z w.e.b.a.V.Y Y W W R Y B.s.r.r.e.i.i.u.i.1.i.r.a.s.B.C F F F R Y V.r.e.b.w.c 0 7.~.oX|.T.T.T.|.XXU.T.",
"U.U.U.U.T.T.T.T.T.R.Y.a t 5.n.k.a.M.G.G.L.R F ^ F Y B.f.r.b.n.b.x.k.k.b.r.s.B.Y W K F R L.B.G.M.m.b.e.4.k v 2.oX|.T..X/.{.U./.T.",
"U.U.U.U./.T.T.|.+X~.O.a y a.r.%X0XjXjXnXtXJ.^ K F F Y B.f.a.a.a.r.r.a.f.f.B.R G F F R H.tXzXjXjX6XM.r.y.x l o.T.T.U.XX.XU././.(.",
"/.T.P.|.|..X|.P./.^.7.t t a.4XjXzXbXbXbXkXuXH.F K F F R P Y U Y Y B.Y Y Y G E ^ K W J.sXkXkXbXbXlXjX3Xa.f k O.~.R.T..XXXU././.(.",
"T.T.T.|.|.|.XX.X(.W.9.r t s.jXbXbXlXlXpXlXkX<XF H H H K K F F L F F F F F K K K K W 1XkXkXsXbXpXcXbX0XG.8 s >.E./.R..X.X|./.T./.",
"R.T.T.|..X|.+X/./.!.9.t k *XZXlXcXcXbXcXbXkX<XW H J J J K J A S G G G K H J J J K F 1XkXsXaXkXcXcXlXVX*Xx e <.E.T.R./.U./.U.P./.",
"T.T.T.oX|.XX/././.).'.q : -XpXcXaXdXkXlXkXkXH.F H J H J J D B A G A A A D H J J K F H.kXkXkXsXbXkXlXbX5X> t ,.T.T./.T.T.|.|.U.P.",
"oXT.|.|.|..X(./.U./.Q.q f >XdXcXcXsXkXkXsXaX( ^ ! ! H D B B A A A A B B A G F ~ J ^ ( iXiXkXvXpXkXlXcX:X> r Q./.P.|.T.T.oX|.T./.",
"T.oXT.oX|.|.(./././.!.| f D.vXsXcXdXkXaXkX<X/ E F ! F A A A A A S S D A A A D ! J ~ W <XcXkXpXfXlXbXgXS.f b Y.R.|.|.T.R.T.T.U./.",
"T.T.T.oX|.|././.U.U.)...j m hXvXfXgXfXfXuX( E ^ ^ D A A A A A A S S A A A D A D ~ ~ ! ( uXcXfXfXcXvXgXm = +._.I.P.|.T.T.T.T./..X",
"T.T.T.T.|.{././.U./.E.Y.y 8 A.vXfXfXgXyXJ./ W ^ ^ S S L L L V V Z Z Z C C S S R E ! ^ Q =XiXfXgXfXgXS.h b `.E.+X+XT.T.T.T.T./..X",
"E.T.T.T.{.|..X/.U.+XT.~.| w > S.hXZXyX2XY Q L Q Q L P % $ 2 2 2 g h & h & & P P Q L Q Q Q 2XhXZXgXA.5 j +.W.T.U./.T.T.T.T.T.U./.",
"(.T.(.T.P.|..X.XU.I.oXR.,.i k > h g 2 % % % & & % % % + . d g x v l g h + + $ * % & & & % % $ h h 5 = _ '.R.+XU./././.T.oX/.T.U.",
"(./.T.P.|.|.|.|.+X/.+XT.!.`.5.g g O   . #   + + #   @ + # d r `.].`.v g #   X .   + @ @ . .   + , g 7.t.2.+X+XI./././.oXT.U.T./.",
"(.(.U.P.|.|..XT.U.T.T.I.T._.| r g # . o . X     o . .   g d i `.Y.!.N g ; . o X . o X X o o # # g l O.E..X{.P.@X/././.P.|.|.T.|.",
"(./..X{.|.T.P.U.T.(./.I.T.(.Y.N d g ; # X o     . . $ g g l X.~.).E.X.r g g # + X X     X . ; g s | W.|.XX.X/.T.U.U./.|.P.T.P.+X",
"(./.XX|././.oXT.I.R.(./.+X+X).Y.b l d d d d g g f g g l b | 2.OXI.E.,.| u d d g ; g d g s d d s N <.R.|.I.U./././.U..XU.T.+XP.|.",
"/.U..X.X|.T./.P.(.R.R.R..X.X(._.W.O.+.i r l 0 g r u i +.>.W.~.T.P.oX~.Q.O.| i u u l 0 r t i | O.W.).(.oXXX.X.X/.U.U.U./.T.T.|.XX",
"T.P.XX.X/.T.T.T.+X/.(./.U.I.I..XP.E.W.Y.`.0.`.`.Y.Y.^.W.oXoXoXI.+XI.E.T._.W.Y.Y.O.9.9.9.<.`.Y.~.+XU.(.T.|.P.P.U.U.U.U./.(.T..X|.",
"P.P..X|././././.R.T.R.oX.X|..XoXT.T./.+X).!.W.!.).).).T.I.T.+X+X(.(./././.(._._.!._.)._._.!.T.P.XXU.I.(.R.oXT.T.oXT..X/.(./.P.{.",
"|.oX|./.U././.U.T.@XoXoX{.|.+XR././.U.I./.T.R.T.I.U.I.(././.P.P.U./.+X+XU.U./.I./.T.(.T.E./.U..X.XXX/./.+XT.T.+X/.P..X/././.oXP.",
"|.T.T.T./././.U.T./.|. X{.|.R.R.T.P.+X+X+X+XT.P.|.{.P.T.(.(..X{..XU.P.I.|..X+X+X|.|./.T./.U.P.U.+X/..X|.R.R.R./.|.|.|..XU././.T.",
"|.oXT./././.U.T./.P.|.|. XP.(.(.(.oX+XP.I.T.oXoX{.{.|.T.~.(.|.XXXXXX.X+X|. X X X|.oXT.T.P.U././././.XX{.oXR.R.E.T.U.U..X{././.T."
};
