/* XPM */
static char *block_071673360087[] = {
/* columns rows colors chars-per-pixel */
"128 128 24 1 ",
"  c None",
". c #6F8587",
"X c #799193",
"o c #819A9C",
"O c #829C9E",
"+ c #849EA0",
"@ c #86A0A2",
"# c #87A2A4",
"$ c #89A4A6",
"% c #8BA6A8",
"& c #8CA8AA",
"* c #8EAAAC",
"= c #90ACAE",
"- c #91AEB0",
"; c #93B0B2",
": c #95B2B4",
"> c #96B4B6",
", c #98B6B8",
"< c #9AB8BA",
"1 c #9BBABC",
"2 c #9BBBBD",
"3 c #9CBBBC",
"4 c #9CBABD",
"5 c #9CBBBD",
/* pixels */
"            53355555555555555555555555555555555555555555555555$$$$55555555555555555555555555555555555555555555555333            ",
"        255555555555555555555555555555555555555555555555555555$$$$555555555555555555555555555555555555555555555555555552        ",
"      44555555555555555555555555555555555555555555555555555555$$$$55555555555555555555555555555555555555555555555555555555      ",
"    2555555555555555555555555555555555555555555555555555555555$$$$5555555555555555555555555555555555555555555555555555555552    ",
"   4555555<*%@$@ooooooooooooooooooooooooooooooooooooooooooooooXXXXoooooooooooooooooooooooooooooooooooooooooooooo@$@%=<2555554   ",
"   55555:#ooooooooooooooooooooooooooooooooooooooooooooooooooooXXXXoooooooooooooooooooooooooooooooooooooooooooooooooooo@:55555   ",
"  55555&ooooooooooooooooooooooooooooooooooooooooooooooooooooooXXXXoooooooooooooooooooooooooooooooooooooooooooooooooooooo&55555  ",
"  5555%oooooooooooooooooooooooooooooooooooooooooooooooooooooooXXXXooooooooooooooooooooooooooooooooooooooooooooooooooooooo%5555  ",
" 5555:ooooooooooooooooooooooooooooooooooooooooooooooooooooooooXXXXoooooooooooooooooooooooooooooooooooooooooooooooooooooooo;5555 ",
" 5555OooooooooooooooooooooooooooooooooooooooooooooooooooooooooXXXXoooooooooooooooooooooooooooooooooooooooooooooooooooooooo+5555 ",
"2555:oooooooooooooooooooooooooooooooooooooooooooooooooooooooooXXXXooooooooooooooooooooooooooooooooooooooooooooooooooooooooo;5552",
"5555$oooooooooooooooooooooooooooooooooooooooooooooooooooooooooXXXXooooooooooooooooooooooooooooooooooooooooooooooooooooooooo%5555",
"5555@oooooooooooooooooooooooooooooooooooooooooooooooooooooooooXXXXooooooooooooooooooooooooooooooooooooooooooooooooooooooooo@5555",
"5555ooooooooooooooooooooooooooooooooooooooooooooooooooooooooooXXXXoooooooooooooooooooooooooooooooooooooooooooooooooooooooooo5555",
"5555ooooooooooooooooooooooooooooooooooooooooooooooooooooooooooXXXXoooooooooooooooooooooooooooooooooooooooooooooooooooooooooo5555",
"5555ooooooooooooooooooooooooooooooooooooooooooooooooooooooooooXXXXoooooooooooooooooooooooooooooooooooooooooooooooooooooooooo5555",
"5555ooooooooooooooooooooooooooooooooooooooooooooooooooooooooooXXXXoooooooooooooooooooooooooooooooooooooooooooooooooooooooooo5555",
"5555ooooooooooooooooooooooooooooooooooooooooooooooooooooooooooXXXXoooooooooooooooooooooooooooooooooooooooooooooooooooooooooo5555",
"5555ooooooooooooooooooooooooooooooooooooooooooooooooooooooooooXXXXoooooooooooooooooooooooooooooooooooooooooooooooooooooooooo5555",
"5555ooooooooooooooooooooooooooooooooooooooooooooooooooooooooooXXXXoooooooooooooooooooooooooooooooooooooooooooooooooooooooooo5555",
"5555ooooooooooooooooooooooooooooooooooooooooooooooooooooooooooXXXXoooooooooooooooooooooooooooooooooooooooooooooooooooooooooo5555",
"5555ooooooooooooooooooooooooooooooooooooooooooooooooooooooooooXXXXoooooooooooooooooooooooooooooooooooooooooooooooooooooooooo5555",
"5555ooooooooooooooooooooooooooooooooooooooooooooooooooooooooooXXXXoooooooooooooooooooooooooooooooooooooooooooooooooooooooooo5555",
"5555ooooooooooooooooooooooooooooooooooooooooooooooooooooooooooXXXXoooooooooooooooooooooooooooooooooooooooooooooooooooooooooo5555",
"5555ooooooooooooooooooooooooooooooooooooooooooooooooooooooooooXXXXoooooooooooooooooooooooooooooooooooooooooooooooooooooooooo5555",
"5555ooooooooooooooooooooooooooooooooooooooooooooooooooooooooooXXXXoooooooooooooooooooooooooooooooooooooooooooooooooooooooooo5555",
"5555ooooooooooooooooooooooooooooooooooooooooooooooooooooooooooXXXXoooooooooooooooooooooooooooooooooooooooooooooooooooooooooo5555",
"5555ooooooooooooooooooooooooooooooooooooooooooooooooooooooooooXXXXoooooooooooooooooooooooooooooooooooooooooooooooooooooooooo5555",
"5555ooooooooooooooooooooooooooooooooooooooooooooooooooooooooooXXXXoooooooooooooooooooooooooooooooooooooooooooooooooooooooooo5555",
"5555ooooooooooooooooooooooooooooooooooooooooooooooooooooooooooXXXXoooooooooooooooooooooooooooooooooooooooooooooooooooooooooo5555",
"$$$$........................................................................................................................$$$$",
"$$$$........................................................................................................................$$$$",
"$$$$........................................................................................................................$$$$",
"$$$$........................................................................................................................$$$$",
"5555ooooooooooooooooooooooooooXXXXooooooooooooooooooooooooooooooooooooooooooooooooooooooooooooXXXXoooooooooooooooooooooooooo5555",
"5555ooooooooooooooooooooooooooXXXXooooooooooooooooooooooooooooooooooooooooooooooooooooooooooooXXXXoooooooooooooooooooooooooo5555",
"5555ooooooooooooooooooooooooooXXXXooooooooooooooooooooooooooooooooooooooooooooooooooooooooooooXXXXoooooooooooooooooooooooooo5555",
"5555ooooooooooooooooooooooooooXXXXooooooooooooooooooooooooooooooooooooooooooooooooooooooooooooXXXXoooooooooooooooooooooooooo5555",
"5555ooooooooooooooooooooooooooXXXXooooooooooooooooooooooooooooooooooooooooooooooooooooooooooooXXXXoooooooooooooooooooooooooo5555",
"5555ooooooooooooooooooooooooooXXXXooooooooooooooooooooooooooooooooooooooooooooooooooooooooooooXXXXoooooooooooooooooooooooooo5555",
"5555ooooooooooooooooooooooooooXXXXooooooooooooooooooooooooooooooooooooooooooooooooooooooooooooXXXXoooooooooooooooooooooooooo5555",
"5555ooooooooooooooooooooooooooXXXXooooooooooooooooooooooooooooooooooooooooooooooooooooooooooooXXXXoooooooooooooooooooooooooo5555",
"5555ooooooooooooooooooooooooooXXXXooooooooooooooooooooooooooooooooooooooooooooooooooooooooooooXXXXoooooooooooooooooooooooooo5555",
"5555ooooooooooooooooooooooooooXXXXooooooooooooooooooooooooooooooooooooooooooooooooooooooooooooXXXXoooooooooooooooooooooooooo5555",
"5555ooooooooooooooooooooooooooXXXXooooooooooooooooooooooooooooooooooooooooooooooooooooooooooooXXXXoooooooooooooooooooooooooo5555",
"5555ooooooooooooooooooooooooooXXXXooooooooooooooooooooooooooooooooooooooooooooooooooooooooooooXXXXoooooooooooooooooooooooooo5555",
"5555ooooooooooooooooooooooooooXXXXooooooooooooooooooooooooooooooooooooooooooooooooooooooooooooXXXXoooooooooooooooooooooooooo5555",
"5555ooooooooooooooooooooooooooXXXXooooooooooooooooooooooooooooooooooooooooooooooooooooooooooooXXXXoooooooooooooooooooooooooo5555",
"5555ooooooooooooooooooooooooooXXXXooooooooooooooooooooooooooooooooooooooooooooooooooooooooooooXXXXoooooooooooooooooooooooooo5555",
"5555ooooooooooooooooooooooooooXXXXooooooooooooooooooooooooooooooooooooooooooooooooooooooooooooXXXXoooooooooooooooooooooooooo5555",
"5555ooooooooooooooooooooooooooXXXXooooooooooooooooooooooooooooooooooooooooooooooooooooooooooooXXXXoooooooooooooooooooooooooo5555",
"5555ooooooooooooooooooooooooooXXXXooooooooooooooooooooooooooooooooooooooooooooooooooooooooooooXXXXoooooooooooooooooooooooooo5555",
"5555ooooooooooooooooooooooooooXXXXooooooooooooooooooooooooooooooooooooooooooooooooooooooooooooXXXXoooooooooooooooooooooooooo5555",
"5555ooooooooooooooooooooooooooXXXXooooooooooooooooooooooooooooooooooooooooooooooooooooooooooooXXXXoooooooooooooooooooooooooo5555",
"5555ooooooooooooooooooooooooooXXXXooooooooooooooooooooooooooooooooooooooooooooooooooooooooooooXXXXoooooooooooooooooooooooooo5555",
"5555ooooooooooooooooooooooooooXXXXooooooooooooooooooooooooooooooooooooooooooooooooooooooooooooXXXXoooooooooooooooooooooooooo5555",
"5555ooooooooooooooooooooooooooXXXXooooooooooooooooooooooooooooooooooooooooooooooooooooooooooooXXXXoooooooooooooooooooooooooo5555",
"5555ooooooooooooooooooooooooooXXXXooooooooooooooooooooooooooooooooooooooooooooooooooooooooooooXXXXoooooooooooooooooooooooooo5555",
"5555ooooooooooooooooooooooooooXXXXooooooooooooooooooooooooooooooooooooooooooooooooooooooooooooXXXXoooooooooooooooooooooooooo5555",
"5555ooooooooooooooooooooooooooXXXXooooooooooooooooooooooooooooooooooooooooooooooooooooooooooooXXXXoooooooooooooooooooooooooo5555",
"5555ooooooooooooooooooooooooooXXXXooooooooooooooooooooooooooooooooooooooooooooooooooooooooooooXXXXoooooooooooooooooooooooooo5555",
"5555ooooooooooooooooooooooooooXXXXooooooooooooooooooooooooooooooooooooooooooooooooooooooooooooXXXXoooooooooooooooooooooooooo5555",
"$$$$........................................................................................................................$$$$",
"$$$$........................................................................................................................$$$$",
"$$$$........................................................................................................................$$$$",
"$$$$........................................................................................................................$$$$",
"5555ooooooooooooooooooooooooooooooooooooooooooooooooooooooooooXXXXoooooooooooooooooooooooooooooooooooooooooooooooooooooooooo5555",
"5555ooooooooooooooooooooooooooooooooooooooooooooooooooooooooooXXXXoooooooooooooooooooooooooooooooooooooooooooooooooooooooooo5555",
"5555ooooooooooooooooooooooooooooooooooooooooooooooooooooooooooXXXXoooooooooooooooooooooooooooooooooooooooooooooooooooooooooo5555",
"5555ooooooooooooooooooooooooooooooooooooooooooooooooooooooooooXXXXoooooooooooooooooooooooooooooooooooooooooooooooooooooooooo5555",
"5555ooooooooooooooooooooooooooooooooooooooooooooooooooooooooooXXXXoooooooooooooooooooooooooooooooooooooooooooooooooooooooooo5555",
"5555ooooooooooooooooooooooooooooooooooooooooooooooooooooooooooXXXXoooooooooooooooooooooooooooooooooooooooooooooooooooooooooo5555",
"5555ooooooooooooooooooooooooooooooooooooooooooooooooooooooooooXXXXoooooooooooooooooooooooooooooooooooooooooooooooooooooooooo5555",
"5555ooooooooooooooooooooooooooooooooooooooooooooooooooooooooooXXXXoooooooooooooooooooooooooooooooooooooooooooooooooooooooooo5555",
"5555ooooooooooooooooooooooooooooooooooooooooooooooooooooooooooXXXXoooooooooooooooooooooooooooooooooooooooooooooooooooooooooo5555",
"5555ooooooooooooooooooooooooooooooooooooooooooooooooooooooooooXXXXoooooooooooooooooooooooooooooooooooooooooooooooooooooooooo5555",
"5555ooooooooooooooooooooooooooooooooooooooooooooooooooooooooooXXXXoooooooooooooooooooooooooooooooooooooooooooooooooooooooooo5555",
"5555ooooooooooooooooooooooooooooooooooooooooooooooooooooooooooXXXXoooooooooooooooooooooooooooooooooooooooooooooooooooooooooo5555",
"5555ooooooooooooooooooooooooooooooooooooooooooooooooooooooooooXXXXoooooooooooooooooooooooooooooooooooooooooooooooooooooooooo5555",
"5555ooooooooooooooooooooooooooooooooooooooooooooooooooooooooooXXXXoooooooooooooooooooooooooooooooooooooooooooooooooooooooooo5555",
"5555ooooooooooooooooooooooooooooooooooooooooooooooooooooooooooXXXXoooooooooooooooooooooooooooooooooooooooooooooooooooooooooo5555",
"5555ooooooooooooooooooooooooooooooooooooooooooooooooooooooooooXXXXoooooooooooooooooooooooooooooooooooooooooooooooooooooooooo5555",
"5555ooooooooooooooooooooooooooooooooooooooooooooooooooooooooooXXXXoooooooooooooooooooooooooooooooooooooooooooooooooooooooooo5555",
"5555ooooooooooooooooooooooooooooooooooooooooooooooooooooooooooXXXXoooooooooooooooooooooooooooooooooooooooooooooooooooooooooo5555",
"5555ooooooooooooooooooooooooooooooooooooooooooooooooooooooooooXXXXoooooooooooooooooooooooooooooooooooooooooooooooooooooooooo5555",
"5555ooooooooooooooooooooooooooooooooooooooooooooooooooooooooooXXXXoooooooooooooooooooooooooooooooooooooooooooooooooooooooooo5555",
"5555ooooooooooooooooooooooooooooooooooooooooooooooooooooooooooXXXXoooooooooooooooooooooooooooooooooooooooooooooooooooooooooo5555",
"5555ooooooooooooooooooooooooooooooooooooooooooooooooooooooooooXXXXoooooooooooooooooooooooooooooooooooooooooooooooooooooooooo5555",
"5555ooooooooooooooooooooooooooooooooooooooooooooooooooooooooooXXXXoooooooooooooooooooooooooooooooooooooooooooooooooooooooooo5555",
"5555ooooooooooooooooooooooooooooooooooooooooooooooooooooooooooXXXXoooooooooooooooooooooooooooooooooooooooooooooooooooooooooo5555",
"5555ooooooooooooooooooooooooooooooooooooooooooooooooooooooooooXXXXoooooooooooooooooooooooooooooooooooooooooooooooooooooooooo5555",
"5555ooooooooooooooooooooooooooooooooooooooooooooooooooooooooooXXXXoooooooooooooooooooooooooooooooooooooooooooooooooooooooooo5555",
"5555ooooooooooooooooooooooooooooooooooooooooooooooooooooooooooXXXXoooooooooooooooooooooooooooooooooooooooooooooooooooooooooo5555",
"5555ooooooooooooooooooooooooooooooooooooooooooooooooooooooooooXXXXoooooooooooooooooooooooooooooooooooooooooooooooooooooooooo5555",
"$$$$........................................................................................................................$$$$",
"$$$$........................................................................................................................$$$$",
"$$$$........................................................................................................................$$$$",
"$$$$........................................................................................................................$$$$",
"5555ooooooooooooooooooooooooooXXXXooooooooooooooooooooooooooooooooooooooooooooooooooooooooooooXXXXoooooooooooooooooooooooooo5555",
"5555ooooooooooooooooooooooooooXXXXooooooooooooooooooooooooooooooooooooooooooooooooooooooooooooXXXXoooooooooooooooooooooooooo5555",
"5555ooooooooooooooooooooooooooXXXXooooooooooooooooooooooooooooooooooooooooooooooooooooooooooooXXXXoooooooooooooooooooooooooo5555",
"5555ooooooooooooooooooooooooooXXXXooooooooooooooooooooooooooooooooooooooooooooooooooooooooooooXXXXoooooooooooooooooooooooooo5555",
"5555ooooooooooooooooooooooooooXXXXooooooooooooooooooooooooooooooooooooooooooooooooooooooooooooXXXXoooooooooooooooooooooooooo5555",
"5555ooooooooooooooooooooooooooXXXXooooooooooooooooooooooooooooooooooooooooooooooooooooooooooooXXXXoooooooooooooooooooooooooo5555",
"5555ooooooooooooooooooooooooooXXXXooooooooooooooooooooooooooooooooooooooooooooooooooooooooooooXXXXoooooooooooooooooooooooooo5555",
"5555ooooooooooooooooooooooooooXXXXooooooooooooooooooooooooooooooooooooooooooooooooooooooooooooXXXXoooooooooooooooooooooooooo5555",
"5555ooooooooooooooooooooooooooXXXXooooooooooooooooooooooooooooooooooooooooooooooooooooooooooooXXXXoooooooooooooooooooooooooo5555",
"5555ooooooooooooooooooooooooooXXXXooooooooooooooooooooooooooooooooooooooooooooooooooooooooooooXXXXoooooooooooooooooooooooooo5555",
"5555ooooooooooooooooooooooooooXXXXooooooooooooooooooooooooooooooooooooooooooooooooooooooooooooXXXXoooooooooooooooooooooooooo5555",
"5555ooooooooooooooooooooooooooXXXXooooooooooooooooooooooooooooooooooooooooooooooooooooooooooooXXXXoooooooooooooooooooooooooo5555",
"5555ooooooooooooooooooooooooooXXXXooooooooooooooooooooooooooooooooooooooooooooooooooooooooooooXXXXoooooooooooooooooooooooooo5555",
"5555ooooooooooooooooooooooooooXXXXooooooooooooooooooooooooooooooooooooooooooooooooooooooooooooXXXXoooooooooooooooooooooooooo5555",
"5555ooooooooooooooooooooooooooXXXXooooooooooooooooooooooooooooooooooooooooooooooooooooooooooooXXXXoooooooooooooooooooooooooo2555",
"5555ooooooooooooooooooooooooooXXXXooooooooooooooooooooooooooooooooooooooooooooooooooooooooooooXXXXoooooooooooooooooooooooooo5555",
"5555@oooooooooooooooooooooooooXXXXooooooooooooooooooooooooooooooooooooooooooooooooooooooooooooXXXXooooooooooooooooooooooooo@5555",
"5552#oooooooooooooooooooooooooXXXXooooooooooooooooooooooooooooooooooooooooooooooooooooooooooooXXXXooooooooooooooooooooooooo@5553",
"5555*oooooooooooooooooooooooooXXXXooooooooooooooooooooooooooooooooooooooooooooooooooooooooooooXXXXooooooooooooooooooooooooo*5553",
" 555:oooooooooooooooooooooooooXXXXooooooooooooooooooooooooooooooooooooooooooooooooooooooooooooXXXXooooooooooooooooooooooooo:555 ",
" 5555+ooooooooooooooooooooooooXXXXooooooooooooooooooooooooooooooooooooooooooooooooooooooooooooXXXXoooooooooooooooooooooooo+5555 ",
" 4552;ooooooooooooooooooooooooXXXXooooooooooooooooooooooooooooooooooooooooooooooooooooooooooooXXXXoooooooooooooooooooooooo;5554 ",
"  5555%oooooooooooooooooooooooXXXXooooooooooooooooooooooooooooooooooooooooooooooooooooooooooooXXXXooooooooooooooooooooooo&5555  ",
"  55555%ooooooooooooooooooooooXXXXooooooooooooooooooooooooooooooooooooooooooooooooooooooooooooXXXXoooooooooooooooooooooo%55555  ",
"   55555=oooooooooooooooooooooXXXXooooooooooooooooooooooooooooooooooooooooooooooooooooooooooooXXXXooooooooooooooooooooo=55555   ",
"   455555<-$+oooooooooooooooooXXXXooooooooooooooooooooooooooooooooooooooooooooooooooooooooooooXXXXoooooooooooooooooo$;<555554   ",
"    45555555555555555555555555$$$$555555555555555555555555555555555555555555555555555555555555$$$$55555555555555555555555554    ",
"      555555555555555555555555$$$$555555555555555555555555555555555555555555555555555555555555$$$$555555555555555555555555      ",
"       45555555555555555555555$$$$555555555555555555555555555555555555555555555555555555555555$$$$55555555555555555555554       ",
"          55555555555555555555$$$$555555555555555555555555555555555555555555555555555555555555$$$$55555555555555555544          "
};
