/* XPM */
static char *block_051673360073[] = {
/* columns rows colors chars-per-pixel */
"128 128 23 1 ",
"  c None",
". c #AD382B",
"X c #BB3C2F",
"o c #CD4334",
"O c #D04434",
"+ c #D34535",
"@ c #D64636",
"# c #D94737",
"$ c #DC4838",
"% c #DF4939",
"& c #E24A3A",
"* c #E64B3B",
"= c #E94C3B",
"- c #EC4D3C",
"; c #EF4E3D",
": c #F24F3E",
"> c #F5503F",
", c #F85140",
"< c #FB5241",
"1 c #FF5241",
"2 c #FF5341",
"3 c #FF5242",
"4 c #FF5342",
/* pixels */
"            44444444444444444444444444444444444444444444444444oooo4444444444444444444444444444444444444444444444444>            ",
"        444444444444444444444444444444444444444444444444444444oooo444444444444444444444444444444444444444444444444444444        ",
"      11444444444444444444444444444444444444444444444444444444oooo44444444444444444444444444444444444444444444444444444444      ",
"    1444444444444444444444444444444444444444444444444444444444oooo4444444444444444444444444444444444444444444444444444444444    ",
"   1444411,*%###ooooooooooooooooooooooooooooooooooooooooooooooXXXXoooooooooooooooooooooooooooooooooooooooooooooo###%=>4444444   ",
"   44444,#ooooooooooooooooooooooooooooooooooooooooooooooooooooXXXXoooooooooooooooooooooooooooooooooooooooooooooooooooo#>44444   ",
"  14444&ooooooooooooooooooooooooooooooooooooooooooooooooooooooXXXXoooooooooooooooooooooooooooooooooooooooooooooooooooooo&44441  ",
"  4444%oooooooooooooooooooooooooooooooooooooooooooooooooooooooXXXXooooooooooooooooooooooooooooooooooooooooooooooooooooooo%4444  ",
" 1444;ooooooooooooooooooooooooooooooooooooooooooooooooooooooooXXXXoooooooooooooooooooooooooooooooooooooooooooooooooooooooo;4441 ",
" 4444+ooooooooooooooooooooooooooooooooooooooooooooooooooooooooXXXXoooooooooooooooooooooooooooooooooooooooooooooooooooooooo+4444 ",
"4444;oooooooooooooooooooooooooooooooooooooooooooooooooooooooooXXXXooooooooooooooooooooooooooooooooooooooooooooooooooooooooo;4441",
"1444%oooooooooooooooooooooooooooooooooooooooooooooooooooooooooXXXXooooooooooooooooooooooooooooooooooooooooooooooooooooooooo%4444",
"1444@oooooooooooooooooooooooooooooooooooooooooooooooooooooooooXXXXooooooooooooooooooooooooooooooooooooooooooooooooooooooooo@4441",
"4444ooooooooooooooooooooooooooooooooooooooooooooooooooooooooooXXXXoooooooooooooooooooooooooooooooooooooooooooooooooooooooooo4444",
"4444ooooooooooooooooooooooooooooooooooooooooooooooooooooooooooXXXXoooooooooooooooooooooooooooooooooooooooooooooooooooooooooo4444",
"4444ooooooooooooooooooooooooooooooooooooooooooooooooooooooooooXXXXoooooooooooooooooooooooooooooooooooooooooooooooooooooooooo4444",
"4444ooooooooooooooooooooooooooooooooooooooooooooooooooooooooooXXXXoooooooooooooooooooooooooooooooooooooooooooooooooooooooooo4444",
"4444ooooooooooooooooooooooooooooooooooooooooooooooooooooooooooXXXXoooooooooooooooooooooooooooooooooooooooooooooooooooooooooo4444",
"4444ooooooooooooooooooooooooooooooooooooooooooooooooooooooooooXXXXoooooooooooooooooooooooooooooooooooooooooooooooooooooooooo4444",
"4444ooooooooooooooooooooooooooooooooooooooooooooooooooooooooooXXXXoooooooooooooooooooooooooooooooooooooooooooooooooooooooooo4444",
"4444ooooooooooooooooooooooooooooooooooooooooooooooooooooooooooXXXXoooooooooooooooooooooooooooooooooooooooooooooooooooooooooo4444",
"4444ooooooooooooooooooooooooooooooooooooooooooooooooooooooooooXXXXoooooooooooooooooooooooooooooooooooooooooooooooooooooooooo4444",
"4444ooooooooooooooooooooooooooooooooooooooooooooooooooooooooooXXXXoooooooooooooooooooooooooooooooooooooooooooooooooooooooooo4444",
"4444ooooooooooooooooooooooooooooooooooooooooooooooooooooooooooXXXXoooooooooooooooooooooooooooooooooooooooooooooooooooooooooo4444",
"4444ooooooooooooooooooooooooooooooooooooooooooooooooooooooooooXXXXoooooooooooooooooooooooooooooooooooooooooooooooooooooooooo4444",
"4444ooooooooooooooooooooooooooooooooooooooooooooooooooooooooooXXXXoooooooooooooooooooooooooooooooooooooooooooooooooooooooooo4444",
"4444ooooooooooooooooooooooooooooooooooooooooooooooooooooooooooXXXXoooooooooooooooooooooooooooooooooooooooooooooooooooooooooo4444",
"4444ooooooooooooooooooooooooooooooooooooooooooooooooooooooooooXXXXoooooooooooooooooooooooooooooooooooooooooooooooooooooooooo4444",
"4444ooooooooooooooooooooooooooooooooooooooooooooooooooooooooooXXXXoooooooooooooooooooooooooooooooooooooooooooooooooooooooooo4444",
"4444ooooooooooooooooooooooooooooooooooooooooooooooooooooooooooXXXXoooooooooooooooooooooooooooooooooooooooooooooooooooooooooo4444",
"oooo........................................................................................................................oooo",
"oooo........................................................................................................................oooo",
"oooo........................................................................................................................oooo",
"oooo........................................................................................................................oooo",
"4444ooooooooooooooooooooooooooXXXXooooooooooooooooooooooooooooooooooooooooooooooooooooooooooooXXXXoooooooooooooooooooooooooo4444",
"4444ooooooooooooooooooooooooooXXXXooooooooooooooooooooooooooooooooooooooooooooooooooooooooooooXXXXoooooooooooooooooooooooooo4444",
"4444ooooooooooooooooooooooooooXXXXooooooooooooooooooooooooooooooooooooooooooooooooooooooooooooXXXXoooooooooooooooooooooooooo4444",
"4444ooooooooooooooooooooooooooXXXXooooooooooooooooooooooooooooooooooooooooooooooooooooooooooooXXXXoooooooooooooooooooooooooo4444",
"4444ooooooooooooooooooooooooooXXXXooooooooooooooooooooooooooooooooooooooooooooooooooooooooooooXXXXoooooooooooooooooooooooooo4444",
"4444ooooooooooooooooooooooooooXXXXooooooooooooooooooooooooooooooooooooooooooooooooooooooooooooXXXXoooooooooooooooooooooooooo4444",
"4444ooooooooooooooooooooooooooXXXXooooooooooooooooooooooooooooooooooooooooooooooooooooooooooooXXXXoooooooooooooooooooooooooo4444",
"4444ooooooooooooooooooooooooooXXXXooooooooooooooooooooooooooooooooooooooooooooooooooooooooooooXXXXoooooooooooooooooooooooooo4444",
"4444ooooooooooooooooooooooooooXXXXooooooooooooooooooooooooooooooooooooooooooooooooooooooooooooXXXXoooooooooooooooooooooooooo4444",
"4444ooooooooooooooooooooooooooXXXXooooooooooooooooooooooooooooooooooooooooooooooooooooooooooooXXXXoooooooooooooooooooooooooo4444",
"4444ooooooooooooooooooooooooooXXXXooooooooooooooooooooooooooooooooooooooooooooooooooooooooooooXXXXoooooooooooooooooooooooooo4444",
"4444ooooooooooooooooooooooooooXXXXooooooooooooooooooooooooooooooooooooooooooooooooooooooooooooXXXXoooooooooooooooooooooooooo4444",
"4444ooooooooooooooooooooooooooXXXXooooooooooooooooooooooooooooooooooooooooooooooooooooooooooooXXXXoooooooooooooooooooooooooo4444",
"4444ooooooooooooooooooooooooooXXXXooooooooooooooooooooooooooooooooooooooooooooooooooooooooooooXXXXoooooooooooooooooooooooooo4444",
"4444ooooooooooooooooooooooooooXXXXooooooooooooooooooooooooooooooooooooooooooooooooooooooooooooXXXXoooooooooooooooooooooooooo4444",
"4444ooooooooooooooooooooooooooXXXXooooooooooooooooooooooooooooooooooooooooooooooooooooooooooooXXXXoooooooooooooooooooooooooo4444",
"4444ooooooooooooooooooooooooooXXXXooooooooooooooooooooooooooooooooooooooooooooooooooooooooooooXXXXoooooooooooooooooooooooooo4444",
"4444ooooooooooooooooooooooooooXXXXooooooooooooooooooooooooooooooooooooooooooooooooooooooooooooXXXXoooooooooooooooooooooooooo4444",
"4444ooooooooooooooooooooooooooXXXXooooooooooooooooooooooooooooooooooooooooooooooooooooooooooooXXXXoooooooooooooooooooooooooo4444",
"4444ooooooooooooooooooooooooooXXXXooooooooooooooooooooooooooooooooooooooooooooooooooooooooooooXXXXoooooooooooooooooooooooooo4444",
"4444ooooooooooooooooooooooooooXXXXooooooooooooooooooooooooooooooooooooooooooooooooooooooooooooXXXXoooooooooooooooooooooooooo4444",
"4444ooooooooooooooooooooooooooXXXXooooooooooooooooooooooooooooooooooooooooooooooooooooooooooooXXXXoooooooooooooooooooooooooo4444",
"4444ooooooooooooooooooooooooooXXXXooooooooooooooooooooooooooooooooooooooooooooooooooooooooooooXXXXoooooooooooooooooooooooooo4444",
"4444ooooooooooooooooooooooooooXXXXooooooooooooooooooooooooooooooooooooooooooooooooooooooooooooXXXXoooooooooooooooooooooooooo4444",
"4444ooooooooooooooooooooooooooXXXXooooooooooooooooooooooooooooooooooooooooooooooooooooooooooooXXXXoooooooooooooooooooooooooo4444",
"4444ooooooooooooooooooooooooooXXXXooooooooooooooooooooooooooooooooooooooooooooooooooooooooooooXXXXoooooooooooooooooooooooooo4444",
"4444ooooooooooooooooooooooooooXXXXooooooooooooooooooooooooooooooooooooooooooooooooooooooooooooXXXXoooooooooooooooooooooooooo4444",
"4444ooooooooooooooooooooooooooXXXXooooooooooooooooooooooooooooooooooooooooooooooooooooooooooooXXXXoooooooooooooooooooooooooo4444",
"oooo........................................................................................................................oooo",
"oooo........................................................................................................................oooo",
"oooo........................................................................................................................oooo",
"oooo........................................................................................................................oooo",
"4444ooooooooooooooooooooooooooooooooooooooooooooooooooooooooooXXXXoooooooooooooooooooooooooooooooooooooooooooooooooooooooooo4444",
"4444ooooooooooooooooooooooooooooooooooooooooooooooooooooooooooXXXXoooooooooooooooooooooooooooooooooooooooooooooooooooooooooo4444",
"4444ooooooooooooooooooooooooooooooooooooooooooooooooooooooooooXXXXoooooooooooooooooooooooooooooooooooooooooooooooooooooooooo4444",
"4444ooooooooooooooooooooooooooooooooooooooooooooooooooooooooooXXXXoooooooooooooooooooooooooooooooooooooooooooooooooooooooooo4444",
"4444ooooooooooooooooooooooooooooooooooooooooooooooooooooooooooXXXXoooooooooooooooooooooooooooooooooooooooooooooooooooooooooo4444",
"4444ooooooooooooooooooooooooooooooooooooooooooooooooooooooooooXXXXoooooooooooooooooooooooooooooooooooooooooooooooooooooooooo4444",
"4444ooooooooooooooooooooooooooooooooooooooooooooooooooooooooooXXXXoooooooooooooooooooooooooooooooooooooooooooooooooooooooooo4444",
"4444ooooooooooooooooooooooooooooooooooooooooooooooooooooooooooXXXXoooooooooooooooooooooooooooooooooooooooooooooooooooooooooo4444",
"4444ooooooooooooooooooooooooooooooooooooooooooooooooooooooooooXXXXoooooooooooooooooooooooooooooooooooooooooooooooooooooooooo4444",
"4444ooooooooooooooooooooooooooooooooooooooooooooooooooooooooooXXXXoooooooooooooooooooooooooooooooooooooooooooooooooooooooooo4444",
"4444ooooooooooooooooooooooooooooooooooooooooooooooooooooooooooXXXXoooooooooooooooooooooooooooooooooooooooooooooooooooooooooo4444",
"4444ooooooooooooooooooooooooooooooooooooooooooooooooooooooooooXXXXoooooooooooooooooooooooooooooooooooooooooooooooooooooooooo4444",
"4444ooooooooooooooooooooooooooooooooooooooooooooooooooooooooooXXXXoooooooooooooooooooooooooooooooooooooooooooooooooooooooooo4444",
"4444ooooooooooooooooooooooooooooooooooooooooooooooooooooooooooXXXXoooooooooooooooooooooooooooooooooooooooooooooooooooooooooo4444",
"4444ooooooooooooooooooooooooooooooooooooooooooooooooooooooooooXXXXoooooooooooooooooooooooooooooooooooooooooooooooooooooooooo4444",
"4444ooooooooooooooooooooooooooooooooooooooooooooooooooooooooooXXXXoooooooooooooooooooooooooooooooooooooooooooooooooooooooooo4444",
"4444ooooooooooooooooooooooooooooooooooooooooooooooooooooooooooXXXXoooooooooooooooooooooooooooooooooooooooooooooooooooooooooo4444",
"4444ooooooooooooooooooooooooooooooooooooooooooooooooooooooooooXXXXoooooooooooooooooooooooooooooooooooooooooooooooooooooooooo4444",
"4444ooooooooooooooooooooooooooooooooooooooooooooooooooooooooooXXXXoooooooooooooooooooooooooooooooooooooooooooooooooooooooooo4444",
"4444ooooooooooooooooooooooooooooooooooooooooooooooooooooooooooXXXXoooooooooooooooooooooooooooooooooooooooooooooooooooooooooo4444",
"4444ooooooooooooooooooooooooooooooooooooooooooooooooooooooooooXXXXoooooooooooooooooooooooooooooooooooooooooooooooooooooooooo4444",
"4444ooooooooooooooooooooooooooooooooooooooooooooooooooooooooooXXXXoooooooooooooooooooooooooooooooooooooooooooooooooooooooooo4444",
"4444ooooooooooooooooooooooooooooooooooooooooooooooooooooooooooXXXXoooooooooooooooooooooooooooooooooooooooooooooooooooooooooo4444",
"4444ooooooooooooooooooooooooooooooooooooooooooooooooooooooooooXXXXoooooooooooooooooooooooooooooooooooooooooooooooooooooooooo4444",
"4444ooooooooooooooooooooooooooooooooooooooooooooooooooooooooooXXXXoooooooooooooooooooooooooooooooooooooooooooooooooooooooooo4444",
"4444ooooooooooooooooooooooooooooooooooooooooooooooooooooooooooXXXXoooooooooooooooooooooooooooooooooooooooooooooooooooooooooo4444",
"4444ooooooooooooooooooooooooooooooooooooooooooooooooooooooooooXXXXoooooooooooooooooooooooooooooooooooooooooooooooooooooooooo4444",
"4444ooooooooooooooooooooooooooooooooooooooooooooooooooooooooooXXXXoooooooooooooooooooooooooooooooooooooooooooooooooooooooooo4444",
"oooo........................................................................................................................oooo",
"oooo........................................................................................................................oooo",
"oooo........................................................................................................................oooo",
"oooo........................................................................................................................oooo",
"4444ooooooooooooooooooooooooooXXXXooooooooooooooooooooooooooooooooooooooooooooooooooooooooooooXXXXoooooooooooooooooooooooooo4444",
"4444ooooooooooooooooooooooooooXXXXooooooooooooooooooooooooooooooooooooooooooooooooooooooooooooXXXXoooooooooooooooooooooooooo4444",
"4444ooooooooooooooooooooooooooXXXXooooooooooooooooooooooooooooooooooooooooooooooooooooooooooooXXXXoooooooooooooooooooooooooo4444",
"4444ooooooooooooooooooooooooooXXXXooooooooooooooooooooooooooooooooooooooooooooooooooooooooooooXXXXoooooooooooooooooooooooooo4444",
"4444ooooooooooooooooooooooooooXXXXooooooooooooooooooooooooooooooooooooooooooooooooooooooooooooXXXXoooooooooooooooooooooooooo4444",
"4444ooooooooooooooooooooooooooXXXXooooooooooooooooooooooooooooooooooooooooooooooooooooooooooooXXXXoooooooooooooooooooooooooo4444",
"4444ooooooooooooooooooooooooooXXXXooooooooooooooooooooooooooooooooooooooooooooooooooooooooooooXXXXoooooooooooooooooooooooooo4444",
"4444ooooooooooooooooooooooooooXXXXooooooooooooooooooooooooooooooooooooooooooooooooooooooooooooXXXXoooooooooooooooooooooooooo4444",
"4444ooooooooooooooooooooooooooXXXXooooooooooooooooooooooooooooooooooooooooooooooooooooooooooooXXXXoooooooooooooooooooooooooo4444",
"4444ooooooooooooooooooooooooooXXXXooooooooooooooooooooooooooooooooooooooooooooooooooooooooooooXXXXoooooooooooooooooooooooooo4444",
"4444ooooooooooooooooooooooooooXXXXooooooooooooooooooooooooooooooooooooooooooooooooooooooooooooXXXXoooooooooooooooooooooooooo4444",
"4444ooooooooooooooooooooooooooXXXXooooooooooooooooooooooooooooooooooooooooooooooooooooooooooooXXXXoooooooooooooooooooooooooo4444",
"4444ooooooooooooooooooooooooooXXXXooooooooooooooooooooooooooooooooooooooooooooooooooooooooooooXXXXoooooooooooooooooooooooooo4444",
"4444ooooooooooooooooooooooooooXXXXooooooooooooooooooooooooooooooooooooooooooooooooooooooooooooXXXXoooooooooooooooooooooooooo4444",
"4444ooooooooooooooooooooooooooXXXXooooooooooooooooooooooooooooooooooooooooooooooooooooooooooooXXXXoooooooooooooooooooooooooo4444",
"4444ooooooooooooooooooooooooooXXXXooooooooooooooooooooooooooooooooooooooooooooooooooooooooooooXXXXoooooooooooooooooooooooooo4444",
"4444+oooooooooooooooooooooooooXXXXooooooooooooooooooooooooooooooooooooooooooooooooooooooooooooXXXXooooooooooooooooooooooooo+4444",
"4444#oooooooooooooooooooooooooXXXXooooooooooooooooooooooooooooooooooooooooooooooooooooooooooooXXXXooooooooooooooooooooooooo#4444",
"4444*oooooooooooooooooooooooooXXXXooooooooooooooooooooooooooooooooooooooooooooooooooooooooooooXXXXooooooooooooooooooooooooo*4444",
" 444,oooooooooooooooooooooooooXXXXooooooooooooooooooooooooooooooooooooooooooooooooooooooooooooXXXXooooooooooooooooooooooooo>444 ",
" 4444+ooooooooooooooooooooooooXXXXooooooooooooooooooooooooooooooooooooooooooooooooooooooooooooXXXXoooooooooooooooooooooooo+4444 ",
" 1444;ooooooooooooooooooooooooXXXXooooooooooooooooooooooooooooooooooooooooooooooooooooooooooooXXXXoooooooooooooooooooooooo;4441 ",
"  4444%oooooooooooooooooooooooXXXXooooooooooooooooooooooooooooooooooooooooooooooooooooooooooooXXXXooooooooooooooooooooooo%4444  ",
"  14444%ooooooooooooooooooooooXXXXooooooooooooooooooooooooooooooooooooooooooooooooooooooooooooXXXXoooooooooooooooooooooo%44441  ",
"   44444*+ooooooooooooooooooooXXXXooooooooooooooooooooooooooooooooooooooooooooooooooooooooooooXXXXoooooooooooooooooooo+*44444   ",
"   144441<-%ooooooooooooooooooXXXXooooooooooooooooooooooooooooooooooooooooooooooooooooooooooooXXXXooooooooooooooooo+#;<444441   ",
"    14444444444444444444444444oooo444444444444444444444444444444444444444444444444444444444444oooo44444444444444144444444441    ",
"      144444444444444444444444oooo444444444444444444444444444444444444444444444444444444444444oooo444444444444444444444441      ",
"       14444444444444444444444oooo444444444444444444444444444444444444444444444444444444444444oooo44444444444444444444441       ",
"          11444444444444444444oooo444444444444444444444444444444444444444444444444444444444444oooo44444444444444444414          "
};
