/* XPM */
static char *block_081673360110[] = {
/* columns rows colors chars-per-pixel */
"128 128 23 1 ",
"  c None",
". c #8A5D2F",
"X c #9C6935",
"o c #AA733C",
"O c #AB733C",
"+ c #AC743C",
"@ c #AD753D",
"# c #AE763D",
"$ c #AF773D",
"% c #B1773E",
"& c #B2783E",
"* c #B3793F",
"= c #B47A3F",
"- c #B57B3F",
"; c #B77B40",
": c #B87C40",
"> c #B97D40",
", c #BA7E41",
"< c #BB7F41",
"1 c #BC8041",
"2 c #BD8041",
"3 c #BC8042",
"4 c #BD8042",
/* pixels */
"            23324444444444444444444444444444444444444444444444oooo44444444444444444444444444444444444444444444444333            ",
"        244444444444444444444444444444444444444444444444444444oooo444444444444444444444444444444444444444444444444224442        ",
"      22444444444444444444444444444444444444444444444444444444oooo44444444444444444444444444444444444444444444444424442242      ",
"    4422444<44444444444444444444444444444444444444444444444444oooo4444444444444444444444444444444444444444444444444444434444    ",
"   44444<4,;;###ooooooooooooooooooooooooooooooooooooooooooooooXXXXoooooooooooooooooooooooooooooooooooooooooooooo###;;;3344444   ",
"   44444;oooooooooooooooooooooooooooooooooooooooooooooooooooooXXXXoooooooooooooooooooooooooooooooooooooooooooooooooooo@;44444   ",
"  244<4;ooooooooooooooooooooooooooooooooooooooooooooooooooooooXXXXoooooooooooooooooooooooooooooooooooooooooooooooooooooo;,4442  ",
"  444<#oooooooooooooooooooooooooooooooooooooooooooooooooooooooXXXXooooooooooooooooooooooooooooooooooooooooooooooooooooooo%4444  ",
" 244<;ooooooooooooooooooooooooooooooooooooooooooooooooooooooooXXXXoooooooooooooooooooooooooooooooooooooooooooooooooooooooo;<<42 ",
" 444,oooooooooooooooooooooooooooooooooooooooooooooooooooooooooXXXXoooooooooooooooooooooooooooooooooooooooooooooooooooooooo#<444 ",
"4444;oooooooooooooooooooooooooooooooooooooooooooooooooooooooooXXXXooooooooooooooooooooooooooooooooooooooooooooooooooooooooo;4444",
"2444;oooooooooooooooooooooooooooooooooooooooooooooooooooooooooXXXXooooooooooooooooooooooooooooooooooooooooooooooooooooooooo%4442",
"2444#oooooooooooooooooooooooooooooooooooooooooooooooooooooooooXXXXooooooooooooooooooooooooooooooooooooooooooooooooooooooooo#4442",
"4444ooooooooooooooooooooooooooooooooooooooooooooooooooooooooooXXXXoooooooooooooooooooooooooooooooooooooooooooooooooooooooooo4444",
"4444ooooooooooooooooooooooooooooooooooooooooooooooooooooooooooXXXXoooooooooooooooooooooooooooooooooooooooooooooooooooooooooo4444",
"4444ooooooooooooooooooooooooooooooooooooooooooooooooooooooooooXXXXoooooooooooooooooooooooooooooooooooooooooooooooooooooooooo4444",
"4444ooooooooooooooooooooooooooooooooooooooooooooooooooooooooooXXXXoooooooooooooooooooooooooooooooooooooooooooooooooooooooooo<444",
"4444ooooooooooooooooooooooooooooooooooooooooooooooooooooooooooXXXXoooooooooooooooooooooooooooooooooooooooooooooooooooooooooo4444",
"4444ooooooooooooooooooooooooooooooooooooooooooooooooooooooooooXXXXoooooooooooooooooooooooooooooooooooooooooooooooooooooooooo4444",
"4444ooooooooooooooooooooooooooooooooooooooooooooooooooooooooooXXXXoooooooooooooooooooooooooooooooooooooooooooooooooooooooooo4444",
"4444ooooooooooooooooooooooooooooooooooooooooooooooooooooooooooXXXXoooooooooooooooooooooooooooooooooooooooooooooooooooooooooo4444",
"4444ooooooooooooooooooooooooooooooooooooooooooooooooooooooooooXXXXoooooooooooooooooooooooooooooooooooooooooooooooooooooooooo4444",
"4444ooooooooooooooooooooooooooooooooooooooooooooooooooooooooooXXXXoooooooooooooooooooooooooooooooooooooooooooooooooooooooooo4444",
"4444ooooooooooooooooooooooooooooooooooooooooooooooooooooooooooXXXXoooooooooooooooooooooooooooooooooooooooooooooooooooooooooo4444",
"4444ooooooooooooooooooooooooooooooooooooooooooooooooooooooooooXXXXoooooooooooooooooooooooooooooooooooooooooooooooooooooooooo4444",
"4444ooooooooooooooooooooooooooooooooooooooooooooooooooooooooooXXXXoooooooooooooooooooooooooooooooooooooooooooooooooooooooooo4444",
"4444ooooooooooooooooooooooooooooooooooooooooooooooooooooooooooXXXXoooooooooooooooooooooooooooooooooooooooooooooooooooooooooo4444",
"4444ooooooooooooooooooooooooooooooooooooooooooooooooooooooooooXXXXoooooooooooooooooooooooooooooooooooooooooooooooooooooooooo4444",
"4444ooooooooooooooooooooooooooooooooooooooooooooooooooooooooooXXXXoooooooooooooooooooooooooooooooooooooooooooooooooooooooooo4444",
"4444ooooooooooooooooooooooooooooooooooooooooooooooooooooooooooXXXXoooooooooooooooooooooooooooooooooooooooooooooooooooooooooo4444",
"oooo........................................................................................................................oooo",
"oooo........................................................................................................................oooo",
"oooo........................................................................................................................oooo",
"oooo........................................................................................................................oooo",
"4444ooooooooooooooooooooooooooXXXXooooooooooooooooooooooooooooooooooooooooooooooooooooooooooooXXXXoooooooooooooooooooooooooo4444",
"4444ooooooooooooooooooooooooooXXXXooooooooooooooooooooooooooooooooooooooooooooooooooooooooooooXXXXoooooooooooooooooooooooooo4444",
"4444ooooooooooooooooooooooooooXXXXooooooooooooooooooooooooooooooooooooooooooooooooooooooooooooXXXXoooooooooooooooooooooooooo4444",
"4444ooooooooooooooooooooooooooXXXXooooooooooooooooooooooooooooooooooooooooooooooooooooooooooooXXXXoooooooooooooooooooooooooo4444",
"4444ooooooooooooooooooooooooooXXXXooooooooooooooooooooooooooooooooooooooooooooooooooooooooooooXXXXoooooooooooooooooooooooooo4444",
"4444ooooooooooooooooooooooooooXXXXooooooooooooooooooooooooooooooooooooooooooooooooooooooooooooXXXXoooooooooooooooooooooooooo4444",
"4444ooooooooooooooooooooooooooXXXXooooooooooooooooooooooooooooooooooooooooooooooooooooooooooooXXXXoooooooooooooooooooooooooo4444",
"4444ooooooooooooooooooooooooooXXXXooooooooooooooooooooooooooooooooooooooooooooooooooooooooooooXXXXoooooooooooooooooooooooooo4444",
"4444ooooooooooooooooooooooooooXXXXooooooooooooooooooooooooooooooooooooooooooooooooooooooooooooXXXXoooooooooooooooooooooooooo4444",
"4444ooooooooooooooooooooooooooXXXXooooooooooooooooooooooooooooooooooooooooooooooooooooooooooooXXXXoooooooooooooooooooooooooo4444",
"4444ooooooooooooooooooooooooooXXXXooooooooooooooooooooooooooooooooooooooooooooooooooooooooooooXXXXoooooooooooooooooooooooooo4444",
"4444ooooooooooooooooooooooooooXXXXooooooooooooooooooooooooooooooooooooooooooooooooooooooooooooXXXXoooooooooooooooooooooooooo4444",
"4444ooooooooooooooooooooooooooXXXXooooooooooooooooooooooooooooooooooooooooooooooooooooooooooooXXXXoooooooooooooooooooooooooo4444",
"4444ooooooooooooooooooooooooooXXXXooooooooooooooooooooooooooooooooooooooooooooooooooooooooooooXXXXoooooooooooooooooooooooooo4444",
"4444ooooooooooooooooooooooooooXXXXooooooooooooooooooooooooooooooooooooooooooooooooooooooooooooXXXXoooooooooooooooooooooooooo4444",
"4444ooooooooooooooooooooooooooXXXXooooooooooooooooooooooooooooooooooooooooooooooooooooooooooooXXXXoooooooooooooooooooooooooo4444",
"4444ooooooooooooooooooooooooooXXXXooooooooooooooooooooooooooooooooooooooooooooooooooooooooooooXXXXoooooooooooooooooooooooooo4444",
"4444ooooooooooooooooooooooooooXXXXooooooooooooooooooooooooooooooooooooooooooooooooooooooooooooXXXXoooooooooooooooooooooooooo4444",
"4444ooooooooooooooooooooooooooXXXXooooooooooooooooooooooooooooooooooooooooooooooooooooooooooooXXXXoooooooooooooooooooooooooo4444",
"4444ooooooooooooooooooooooooooXXXXooooooooooooooooooooooooooooooooooooooooooooooooooooooooooooXXXXoooooooooooooooooooooooooo4444",
"4444ooooooooooooooooooooooooooXXXXooooooooooooooooooooooooooooooooooooooooooooooooooooooooooooXXXXoooooooooooooooooooooooooo4444",
"4444ooooooooooooooooooooooooooXXXXooooooooooooooooooooooooooooooooooooooooooooooooooooooooooooXXXXoooooooooooooooooooooooooo4444",
"4444ooooooooooooooooooooooooooXXXXooooooooooooooooooooooooooooooooooooooooooooooooooooooooooooXXXXoooooooooooooooooooooooooo4444",
"4444ooooooooooooooooooooooooooXXXXooooooooooooooooooooooooooooooooooooooooooooooooooooooooooooXXXXoooooooooooooooooooooooooo4444",
"4444ooooooooooooooooooooooooooXXXXooooooooooooooooooooooooooooooooooooooooooooooooooooooooooooXXXXoooooooooooooooooooooooooo4444",
"4444ooooooooooooooooooooooooooXXXXooooooooooooooooooooooooooooooooooooooooooooooooooooooooooooXXXXoooooooooooooooooooooooooo4444",
"4444ooooooooooooooooooooooooooXXXXooooooooooooooooooooooooooooooooooooooooooooooooooooooooooooXXXXoooooooooooooooooooooooooo4444",
"4444ooooooooooooooooooooooooooXXXXooooooooooooooooooooooooooooooooooooooooooooooooooooooooooooXXXXoooooooooooooooooooooooooo4444",
"oooo........................................................................................................................oooo",
"oooo........................................................................................................................oooo",
"oooo........................................................................................................................oooo",
"ooo;........................................................................................................................oooo",
",,,,ooooooooooooooooooooooooooooooooooooooooooooooooooooooooooXXXXoooooooooooooooooooooooooooooooooooooooooooooooooooooooooo4444",
",,,;ooooooooooooooooooooooooooooooooooooooooooooooooooooooooooXXXXoooooooooooooooooooooooooooooooooooooooooooooooooooooooooo4444",
"3333ooooooooooooooooooooooooooooooooooooooooooooooooooooooooooXXXXoooooooooooooooooooooooooooooooooooooooooooooooooooooooooo4444",
"3333ooooooooooooooooooooooooooooooooooooooooooooooooooooooooooXXXXoooooooooooooooooooooooooooooooooooooooooooooooooooooooooo4444",
"4333ooooooooooooooooooooooooooooooooooooooooooooooooooooooooooXXXXoooooooooooooooooooooooooooooooooooooooooooooooooooooooooo4444",
"4333ooooooooooooooooooooooooooooooooooooooooooooooooooooooooooXXXXoooooooooooooooooooooooooooooooooooooooooooooooooooooooooo4444",
"4444;oooooooooooooooooooooooooooooooooooooooooooooooooooooooooXXXXoooooooooooooooooooooooooooooooooooooooooooooooooooooooooo4444",
"4444;oooooooooooooooooooooooooooooooooooooooooooooooooooooooooXXXXoooooooooooooooooooooooooooooooooooooooooooooooooooooooooo4444",
"4444ooooooooooooooooooooooooooooooooooooooooooooooooooooooooooXXXXoooooooooooooooooooooooooooooooooooooooooooooooooooooooooo4444",
"4444ooooooooooooooooooooooooooooooooooooooooooooooooooooooooooXXXXoooooooooooooooooooooooooooooooooooooooooooooooooooooooooo4444",
"433<ooooooooooooooooooooooooooooooooooooooooooooooooooooooooooXXXXoooooooooooooooooooooooooooooooooooooooooooooooooooooooooo4444",
"433<ooooooooooooooooooooooooooooooooooooooooooooooooooooooooooXXXXoooooooooooooooooooooooooooooooooooooooooooooooooooooooooo4444",
"44,,ooooooooooooooooooooooooooooooooooooooooooooooooooooooooooXXXXoooooooooooooooooooooooooooooooooooooooooooooooooooooooooo4444",
"44;;ooooooooooooooooooooooooooooooooooooooooooooooooooooooooooXXXXoooooooooooooooooooooooooooooooooooooooooooooooooooooooooo4444",
"4444ooooooooooooooooooooooooooooooooooooooooooooooooooooooooooXXXXoooooooooooooooooooooooooooooooooooooooooooooooooooooooooo4444",
"4444ooooooooooooooooooooooooooooooooooooooooooooooooooooooooooXXXXoooooooooooooooooooooooooooooooooooooooooooooooooooooooooo4444",
"4444ooooooooooooooooooooooooooooooooooooooooooooooooooooooooooXXXXoooooooooooooooooooooooooooooooooooooooooooooooooooooooooo4444",
"4444ooooooooooooooooooooooooooooooooooooooooooooooooooooooooooXXXXoooooooooooooooooooooooooooooooooooooooooooooooooooooooooo4444",
"4444;;ooooooooooooooooooooooooooooooooooooooooooooooooooooooooXXXXoooooooooooooooooooooooooooooooooooooooooooooooooooooooooo4444",
"4444ooooooooooooooooooooooooooooooooooooooooooooooooooooooooooXXXXoooooooooooooooooooooooooooooooooooooooooooooooooooooooooo4444",
"4444ooooooooooooooooooooooooooooooooooooooooooooooooooooooooooXXXXoooooooooooooooooooooooooooooooooooooooooooooooooooooooooo4444",
"4444ooooooooooooooooooooooooooooooooooooooooooooooooooooooooooXXXXoooooooooooooooooooooooooooooooooooooooooooooooooooooooooo4444",
"433<ooooooooooooooooooooooooooooooooooooooooooooooooooooooooooXXXXoooooooooooooooooooooooooooooooooooooooooooooooooooooooooo4444",
"433<ooooooooooooooooooooooooooooooooooooooooooooooooooooooooooXXXXoooooooooooooooooooooooooooooooooooooooooooooooooooooooooo4444",
"44,,ooooooooooooooooooooooooooooooooooooooooooooooooooooooooooXXXXoooooooooooooooooooooooooooooooooooooooooooooooooooooooooo4444",
"44;;ooooooooooooooooooooooooooooooooooooooooooooooooooooooooooXXXXoooooooooooooooooooooooooooooooooooooooooooooooooooooooooo4444",
"4444ooooooooooooooooooooooooooooooooooooooooooooooooooooooooooXXXXoooooooooooooooooooooooooooooooooooooooooooooooooooooooooo4444",
"4444ooooooooooooooooooooooooooooooooooooooooooooooooooooooooooXXXXoooooooooooooooooooooooooooooooooooooooooooooooooooooooooo4444",
"oo;;........................................................................................................................oooo",
"oooo........................................................................................................................oooo",
"oooo........................................................................................................................oooo",
"oo;;........................................................................................................................oooo",
";,<3ooooooooooooooooooooooooooXXXXooooooooooooooooooooooooooooooooooooooooooooooooooooooooooooXXXXoooooooooooooooooooooooooo4444",
";,<3ooooooooooooooooooooooooooXXXXooooooooooooooooooooooooooooooooooooooooooooooooooooooooooooXXXXoooooooooooooooooooooooooo4444",
"333<ooooooooooooooooooooooooooXXXXooooooooooooooooooooooooooooooooooooooooooooooooooooooooooooXXXXoooooooooooooooooooooooooo4444",
"333<ooooooooooooooooooooooooooXXXXooooooooooooooooooooooooooooooooooooooooooooooooooooooooooooXXXXoooooooooooooooooooooooooo4444",
"44,,ooooooooooooooooooooooooooXXXXooooooooooooooooooooooooooooooooooooooooooooooooooooooooooooXXXXoooooooooooooooooooooooooo4444",
"44;;ooooooooooooooooooooooooooXXXXooooooooooooooooooooooooooooooooooooooooooooooooooooooooooooXXXXoooooooooooooooooooooooooo4444",
"4444ooooooooooooooooooooooooooXXXXooooooooooooooooooooooooooooooooooooooooooooooooooooooooooooXXXXoooooooooooooooooooooooooo4444",
"4444ooooooooooooooooooooooooooXXXXooooooooooooooooooooooooooooooooooooooooooooooooooooooooooooXXXXoooooooooooooooooooooooooo4444",
"4444ooooooooooooooooooooooooooXXXXooooooooooooooooooooooooooooooooooooooooooooooooooooooooooooXXXXoooooooooooooooooooooooooo4444",
"4444ooooooooooooooooooooooooooXXXXooooooooooooooooooooooooooooooooooooooooooooooooooooooooooooXXXXoooooooooooooooooooooooooo4444",
"4444;;ooooooooooooooooooooooooXXXXooooooooooooooooooooooooooooooooooooooooooooooooooooooooooooXXXXoooooooooooooooooooooooooo4444",
"4444ooooooooooooooooooooooooooXXXXooooooooooooooooooooooooooooooooooooooooooooooooooooooooooooXXXXoooooooooooooooooooooooooo4444",
"4444ooooooooooooooooooooooooooXXXXooooooooooooooooooooooooooooooooooooooooooooooooooooooooooooXXXXoooooooooooooooooooooooooo4444",
"4444ooooooooooooooooooooooooooXXXXooooooooooooooooooooooooooooooooooooooooooooooooooooooooooooXXXXoooooooooooooooooooooooooo4444",
"3333ooooooooooooooooooooooooooXXXXooooooooooooooooooooooooooooooooooooooooooooooooooooooooooooXXXXoooooooooooooooooooooooooo,444",
"3333ooooooooooooooooooooooooooXXXXooooooooooooooooooooooooooooooooooooooooooooooooooooooooooooXXXXoooooooooooooooooooooooooo<<44",
"3333ooooooooooooooooooooooooooXXXXooooooooooooooooooooooooooooooooooooooooooooooooooooooooooooXXXXoooooooooooooooooooooooooo4444",
"333;ooooooooooooooooooooooooooXXXXooooooooooooooooooooooooooooooooooooooooooooooooooooooooooooXXXXooooooooooooooooooooooooo;4444",
"3333;oooooooooooooooooooooooooXXXXooooooooooooooooooooooooooooooooooooooooooooooooooooooooooooXXXXooooooooooooooooooooooooo;4444",
" 333;oooooooooooooooooooooooooXXXXooooooooooooooooooooooooooooooooooooooooooooooooooooooooooooXXXXooooooooooooooooooooooooo,444 ",
" 433;;ooooooooooooooooooooooooXXXXooooooooooooooooooooooooooooooooooooooooooooooooooooooooooooXXXXoooooooooooooooooooooooo#<444 ",
" 444;;ooooooooooooooooooooooooXXXXooooooooooooooooooooooooooooooooooooooooooooooooooooooooooooXXXXoooooooooooooooooooooooo;4442 ",
"  4444;;ooooooooooooooooooooooXXXX;ooooooooo;X;;ooooooooooooooooooooooooooooooooooooooooooooooXXXXooooooooooooooooooooooo#4444  ",
"  4444;;o;oooo;XooooooooooooooXXXXooooooooooX;XXooooooooooooooooooooooooooooooooooooooooooooooXXXXoooooooooooooooooooooo;<4444  ",
"   433;<;X;;o;X;ooooooooooooooXXXXX;oooooo;o;XX;ooooooooooooooooooooooooooooooooooo@ooooooooooXXXXoooooooooooooooooooo@;,<<44   ",
"   43<<<;;;;;X;Xoooooo;;ooooooXXX.;;ooooooX;X;;;ooooooooooo;ooooooooooo;ooooooooooo@ooooooooooXXXXooooooooo@oooooooo#;<4<<444   ",
"    334444444444;<<<44443333;,;;oo;,4444;,3344444444:<<444444444:<<444444444<44444444444<44444@ooo44<44444444444<44444444444    ",
"      4444444444;<<<44443333;,;Xoo;,4444,,3344444444<<4444444444<<4444444444<<4444444444<<4444@oo@44<44444444444<444444444      ",
"       444444444443344443333,;X;oo444434333344444444444444444444444444444444444444444444444444oooo44444444444444444444444       ",
"          444444444444444433,;oo;;4444333333444444444444444444444444444444444444444444444444<<oooo44444444444444444444          "
};
