/* XPM */
static char *d2FsbA__[] = {
/* columns rows colors chars-per-pixel */
"64 64 129 2 ",
"   c #4D5B76",
".  c #4E5E78",
"X  c #505B77",
"o  c #515E79",
"O  c #53627D",
"+  c #59657F",
"@  c #566580",
"#  c #596681",
"$  c #5B6A84",
"%  c #5E6E89",
"&  c #5F708C",
"*  c #616F8A",
"=  c #62728C",
"-  c #667590",
";  c #687591",
":  c #6C7A94",
">  c #6F7F99",
",  c #707E95",
"<  c #707E99",
"1  c #748096",
"2  c #74849D",
"3  c #7A869D",
"4  c #7C889E",
"5  c #7686A0",
"6  c #7986A1",
"7  c #7A8AA3",
"8  c #7E8EA8",
"9  c #818FA9",
"0  c #8595AE",
"q  c #8995AF",
"w  c #8998AF",
"e  c #8696B0",
"r  c #8896B1",
"t  c #8799B1",
"y  c #8B9BB5",
"u  c #8F9FB8",
"i  c #929EB4",
"p  c #919FB9",
"a  c #8FA0BA",
"s  c #90A0B7",
"d  c #90A0B7",
"f  c #98A3B7",
"g  c #91A1B8",
"h  c #90A0B9",
"j  c #90A0BA",
"k  c #90A1BB",
"l  c #91A1BB",
"z  c #92A0BA",
"x  c #92A0BB",
"c  c #93A1BC",
"v  c #92A2BC",
"b  c #93A3BD",
"n  c #94A2BD",
"m  c #95A3BE",
"M  c #94A4BE",
"N  c #95A5BF",
"B  c #96A4BF",
"V  c #96A6BF",
"C  c #92A2BB",
"Z  c #9AA5B9",
"A  c #9CA4BB",
"S  c #9BA6BB",
"D  c #9EA9BD",
"F  c #9FAABE",
"G  c #9CA9BE",
"H  c #A0A8BF",
"J  c #A0ABBF",
"K  c #A0ABBF",
"L  c #97A5C0",
"P  c #96A6C0",
"I  c #96A6C0",
"U  c #98A6C0",
"Y  c #9AA8C2",
"T  c #9CA8C2",
"R  c #9EADC4",
"E  c #9FAEC5",
"W  c #9DABC3",
"Q  c #A1A9C0",
"!  c #A2AAC1",
"~  c #A3ABC2",
"^  c #A1ACC0",
"/  c #A0AFC4",
"(  c #A2AEC6",
")  c #A3AFC7",
"_  c #A2AFC6",
"`  c #A0AEC8",
"'  c #A1B0C5",
"]  c #A2B1C6",
"[  c #A3B2C7",
"{  c #A2B1C5",
"}  c #A2B0CA",
"|  c #A4B0C8",
" . c #A4B0CA",
".. c #A3B1C9",
"X. c #AAB6CC",
"o. c #ACB7CD",
"O. c #AAB7CC",
"+. c #AAB8CF",
"@. c #B2BED4",
"#. c #B3BED4",
"$. c #B7BFD4",
"%. c #B3BED4",
"&. c #B4C1D4",
"*. c #B5C2D5",
"=. c #B5C0D6",
"-. c #B6C1D7",
";. c #B6C3D6",
":. c #B5C2D5",
">. c #B8C3D7",
",. c #B7C2D8",
"<. c #B7C3D8",
"1. c #BBC3D8",
"2. c #B8C5D8",
"3. c #B9C4DA",
"4. c #BAC7DA",
"5. c #BCC4D9",
"6. c #BDC5DA",
"7. c #BEC6DB",
"8. c #BBC6DC",
"9. c #BFC7DC",
"0. c #B9C5D9",
"q. c #BDC8DC",
"w. c #BFCADE",
"e. c #BCCADD",
"r. c #C0CCDF",
"t. c #C1CCE0",
"y. c #C4CFE3",
"u. c #C2CDE1",
"i. c #C1D0E3",
/* pixels */
"  .       .       X   .       X             X . . o o o o X X                                           O O . . . .           . ",
"  X . X X   X .   . X   X .   . @ X X X X   o X o @ @ o o X X                               X X     o o . . O . . . . . . . . . ",
"# # @ # # @ # # # # @ # @ @ # # @ @ @ @ @ # @ @ @ o o o @ @ # # @ $ * + * $ o @ $ $ $ $ o $ * * $ @ + O O O O O O + + @ O . O O ",
"- = ; = - = - = = ; = ; = - ; = - ; ; ; - ; * % @ o @ @ * = ; : < 6 6 9 3 3 3 3 4 4 4 4 3 3 < < : : = $ O O O O & & 1 & 1 & 1 1 ",
"3 5 3 2 3 2 2 3 6 2 3 2 6 2 6 3 < 6 6 6 7 7 < : # @ @ $ ; < 9 q i f Q Q H H H H H G ! H H H A i 0 8 2 - @ O O % 2 5 8 8 2 8 5 5 ",
"0 e 0 0 0 r q 0 0 q 0 q q q e e 0 r r r y r 9 < * @ o * < 9 p T o.$.r.r.r.1.r.$.>.7.7.7.r.r.$.o.I s 8 1 & O O % 2 8 8 8 8 8 8 8 ",
"u u u u u u y u u u u y u u y u y p p x n x r 5 * @ o * < q m ) #.r.y.y.t.t.r.r.r.u.u.u.u.u.q.@.} M 0 2 & O @ & 5 8 k P R 8 I P ",
"p u u u p u p u p u u u u u u p p p x n m m r 5 * o o = 6 r B ` X.#.8.3.$.$.$.$.=.2.=.=.5.7.=.X.} V 0 5 & . O & 8 8 P I P P I 8 ",
"u a a y u y u u u u p p y p p p y u u x x p r 5 * O O = 2 e n P Q / ) [ ` ` ` / / [ / [ } ` / R P P 8 5 & O . & 5 8 a k k N 8 P ",
"t y t y y y y y t w t y t y y t y y r u p u r 5 * @ O * < 0 p n p p p p P a a s k d p k a a k k k P t 5 & O . & 8 8 a a 8 N 8 a ",
"y y y y y y y y y t u t t y y y y u y u u u r 5 * + O = 5 e a a y y t 0 t t y t r t t t t t y y k a 8 8 1   . 1 7 8 E k 8 k N a ",
"u u u y u y u u p u u u d u d y u u u a x x t 5 % O O = 5 r a n u y y t t y y t y y y y y t y u a a 8 5 & . . & 5 8 P P R P 8 k ",
"s u a u u u u u u u u u p u u a u u u P M a s 5 = O O = 5 r n a a u y y y a y y y u y u y y a a k P 8 8 @ . O & 8 8 P P N a 8 P ",
"u u u u u u u u u u u u s u p u u a u a P a t 5 = + O = 5 t n a a a s a a y y y u u u y y u a a k k 8 5 1 . O 1 8 8 N R N a k k ",
"0 0 0 0 8 e e 8 0 0 0 0 e 0 0 e e t 8 t y t 8 2 % O . & 2 9 r y e e 0 0 8 t 8 t 0 e 0 t e 8 t t 8 8 8 5 1   . & 5 8 8 8 8 8 8 8 ",
"2 2 2 2 2 2 5 2 2 2 5 2 5 5 6 5 2 5 5 5 5 5 2 & $ o o $ = 2 6 6 5 2 2 2 5 2 5 5 5 5 5 2 2 5 5 5 5 2 2 2 @ . . . 1 2 5 5 8 5 5 7 ",
"$ % & % & $ % % * = * = ; ; ; * ; * * * * * * * @ X   o $ * * * & & & & & & & & & - - - & & & & 2 & @ O       . @ $ & = $ $ % % ",
". . . O O O o O O O @ @ # # # # @ @ X @ # @ o X o X X X O @ @ @ O O O O O O O O O $ O O O O O O . . . .         . . O O O O o O ",
"$ + @ + + + # @ + O O o X X X X X @ X X @ o @ o o @ @ @ O O o O O O O O O O O . O . . . O . @ O O O @ & $ $ $ $ @ @ $ + + + # @ ",
"2 2 2 2 3 2 2 , : = % + @ X X @ $ * ; ; * * * ; ; ; ; ; * * * * 1 + & & & 1 & $ O . . . $ & - > 2 2 5 5 4 4 4 4 3 2 2 1 3 1 2 2 ",
"V G G V G V b d 0 4 1 = @ X @ @ - > 5 5 < < 6 6 5 5 5 < 2 5 5 2 2 5 2 5 5 2 2 & + . . O - > 5 8 8 k G G G G G G G Z Z Z D G D Z ",
"*.2.2.2.4.4.&.O.G y 7 1 $ X o $ < 8 y r q r q q r e e 0 e r e 0 8 t t t t t 8 2 & O . & 1 7 y Y +.:.e.e.4.e.4.e.5.2.2.5.5.5.5.=.",
"e.e.e.i.i.i.4.&.} V 0 5 * @ @ & 7 r L L x u p p u u u u p u u u a s s g M M t 7 & + O & 5 e I ..:.4.e.i.e.e.e.e.r.t.r.u.u.u.r.u.",
"*.2.:.2.2.2.&.+.} n 0 5 * o @ & 7 r x L x p u u u u u p u u u u a s s g V g t 7 & O O & 2 t P [ +.:.4.2.4.4.2.;.,.=.=.2.=.=.=.2.",
"K K [ [ ' ' ' ' I b t 2 & @ @ & < t u L k u s u s k p u y a s u a s a a a a t 5 = + O & 2 s M V R / / [ } } ) ) [ / ) [ / [ / / ",
"d f d g s g g s k a 8 2 & @ @ & 5 r y u u y y t y t t t y t t y a 8 t s s a 8 2 & O O & 2 0 a a p p p k k p p u p a p u p p p p ",
"w w w y t t t t a a t 5 & @ @ & 5 r y u s t y y y y u y y y y t a 8 a a a a t 5 = O O = 2 t a a y t e t t t r r t t t e e e t t ",
"w w y y t s s s a P t 5 & @ @ * 5 r u L a s a y y y u u y s a a a a a a a a y 5 = O O = 2 t a a u u y y y y y y y t y y y y y y ",
"d y s s t s s g a P t 5 & @ @ = 5 y k v v d a s d p s s a s s s a y u a P a y 5 & O O = 5 y n n a u u y y y y y y y y y y y y y ",
"d d s s t s g g k a t 7 & @ @ * 5 y v M v a s s u p a a a y y s a u a P M M y 5 & + O = 5 t n n k u u u y u p u u u u u u u u u ",
"0 8 t 8 8 8 t t t t 8 < % o O $ > 8 t y w 0 0 0 0 0 0 0 0 0 0 0 8 t t e t t 8 2 & O O & > 8 0 e q q 0 0 q q r r 0 0 0 0 0 0 e 0 ",
"2 1 5 2 5 2 5 5 5 5 < ; # . o % & 2 5 5 2 2 2 2 3 3 5 2 2 2 2 2 2 5 2 2 2 5 1 & @ . . @ - > 5 5 5 2 2 2 5 5 5 6 6 < 3 2 2 5 2 2 ",
"@ 1 & & $ 1 & & & 1 & @ .   . O O 1 $ 1 & & & 1 & - - - & & & & & & = % % $ $ @ .       @ # % $ = = = = - - - & & & & & & & & 1 ",
". O O O . O . . . O O O . . . . . . . O O . . O + @ O O O O O O . . X O O O @ .         . . O O O O O O O O + O + + O O O O .   ",
"O O . . . O   . . O . . O @ . O . O . . O O . . . .   . . O O @ @ @ # # # # # # $ $ $ $ $ # + + + O O o .   . . . O O . O . . O ",
"1 & & & & 1 1 1 & & & @ 1 1 1 2 & 1 & & & 1 & O O . . . $ & - > > 1 6 3 3 2 3 5 4 3 4 4 6 3 < , : = & @ O . . O $ & 1 & 1 + 1 & ",
"2 2 2 2 7 7 5 7 5 8 5 5 8 8 7 8 2 5 5 5 7 7 2 1 $ . . O & 1 7 8 y f Q G D A D A W G G G K H f y 0 7 1 & @ . . $ 1 5 5 8 2 5 5 5 ",
"8 8 t 8 8 8 8 8 8 8 t 8 8 8 8 8 8 8 8 8 a 8 8 1 & O . & 1 8 a P X.&.5.q.3.3.5.>.5.5.5.5.q.q.=.X.I y 7 > % . O % 2 8 8 8 8 8 8 8 ",
"t a a t g a a a t a k k 8 I R 8 8 a P k M M 8 5 1 + O & 5 0 I ..=.5.u.i.i.u.r.u.q.u.u.r.u.i.q.@...I e 5 & O @ & 5 8 k N I 8 I k ",
"a a a k k k 8 a k a a k I ] 8 R P k k k M M s 5 $ O O & 2 t P [ O.&.5.4.5.2.=.=.@.2.5.2.7.>.=.O...P e 5 & O @ & 8 8 N N N k k k ",
"a t g g a k g a I P 8 P 8 I V 8 k k P P k I 8 8 & O O = 2 t M V R / [ [ ) ` R / / [ ) [ ) R ) R I P 8 5 & O . 1 5 8 k k P k 8 I ",
"s t t t t t g 8 8 P 8 R I 8 I 8 N 8 8 a k 8 8 8 & + O & 2 t a k k d p d u u k d p k p d a u p a P P 8 5 & . . & 8 8 P I 8 P P 8 ",
"t t s t k 8 a 8 P 8 8 P 8 I 8 I a k 8 k k k 8 8 & O O = 2 8 k a y y t 0 r y r y r t t t r y r y k k 8 8 1   O & 7 8 R 8 I 8 8 I ",
"k s s s k a g V 8 P I 8 R 8 R 8 8 I P P k P 8 8 & O O = 2 s k k a y y t y y y r y y y y y y y u a k 8 5 & . . & 7 8 I P P R 8 P ",
"a a a k k a a a k k 8 k I 8 k k 8 k k P P k 8 8 & O O = 5 r a a a u y y u u y y y u y y u u u p k k 8 8 @ . O & 8 8 P P P 8 I P ",
"s a a V k a a s k P P k P k k P P k k I P k 8 7 & @ O & 5 r L a a u u u u u u y u u u y y u p p k P 8 7 1 . O 1 8 8 N R k k I 8 ",
"8 8 8 8 8 8 8 8 8 8 8 8 8 8 8 8 8 8 8 8 8 8 8 7 $ O o & 2 8 y y e q 0 q 0 0 q q 0 r 0 r 0 r q r 8 8 8 5 1   . & 5 8 8 8 8 8 8 8 ",
"5 5 5 5 7 5 5 5 5 5 8 5 7 8 7 7 8 8 5 7 8 5 5 1 % . . @ - 2 5 5 5 2 2 2 < 2 2 2 5 5 6 2 2 2 2 5 7 2 2 2 @ .   . 1 5 5 7 8 5 5 8 ",
"1 1 O @ & & & & & & 1 & & 1 1 1 1 1 O 1 @ 1 & & . . . . $ % & % & & & & 1 & @ 1 1 1 1 1 $ 1 & & & & & . .     . @ $ & & & & $ & ",
". . O . . O . O O O O O O O .   O O . . .   . . . . . . . @ @ @ O O O O . O . O   .   O . O . O O O . .         . . O O o . O O ",
"O O O @ O $ $ O O O O O . .     . O O O . . O . @ @ @ @ @ @ @ @ . . . . . . . .       . . . . O O O & @ + $ $ $ $ + + + + + + + ",
"5 2 2 5 2 2 2 2 1 = & O . . . . @ @ 1 1 1 @ 1 & & - - & & $ $ & & & & & & 1 & O     . . . 1 1 1 2 2 2 5 4 4 4 4 3 2 2 1 3 2 2 1 ",
"V V G G G G g t 8 8 1 1 O     O 1 2 2 8 7 8 8 8 5 5 8 8 5 5 5 5 5 2 2 5 8 7 2 1 O     . 1 1 2 8 8 V G G G G G G G Z Z Z S S S S ",
":.4.;.;.2.2.:.[ / 8 2 2 1   O $ 5 8 8 8 8 8 8 8 8 8 8 8 a 8 P 8 t t t t 8 8 8 2 1   . @ 2 8 8 R +.:.e.e.4.2.4.4.5.=.5.5.>.q.>.>.",
"i.i.e.i.i.i.e.:.[ V 8 5 1 O O 1 7 8 k V V 8 g 8 P 8 P 8 P P 8 8 s s t g V V 8 5 1 O O 1 2 8 V [ &.e.i.i.e.e.e.e.r.u.u.r.r.i.r.u.",
"&.&.:.:.2.e.:.+.] V 8 2 @ . O $ 8 8 V V V / k k P P P P a y P P s s g g I I 8 2 & O . @ 7 8 M ] [ :.2.4.4.4.e.:.=.2.>.=.>.=.>.>.",
"/ ' [ [ [ R / W V M a 5 & @ @ & 5 8 V g g g V g g V g V a g g g t s g g k g 8 7 = O O 1 1 8 V V R R / [ | } ) R } [ / [ / [ / / ",
"d p f d p p p p M k 8 5 & @ @ & 5 s k k V 8 8 s 8 8 a 8 8 V 8 V t s t g g a 8 5 & + O + 5 t g s p p p k k k p u u u p s p p p p ",
"w w t t w t u y 8 a 8 5 & @ @ & 5 8 8 g k k g g V a V s k g g 8 t t s g g g t 7 = + O % 5 t g s y t t t t t r y t t y y y y y t ",
"0 0 t 0 0 q y t N k 8 8 & @ @ & 7 8 V g g 8 s 8 k 8 8 g k 8 k 8 t g t g g k 8 5 + O O = 2 8 s s y t e e e r r r t e t e e e t r ",
"w 0 w t t t t t a s 8 5 & @ @ % 5 8 V k g k V 8 g s 8 V k g s a 8 s 8 a g a 8 7 = O O = 2 0 u u y t r t r r r r y r y r y y r y ",
"y d u s t s u u a a a 2 & @ @ % 8 8 g k g 8 g g 8 V V 8 8 s 8 g g a g a a t 8 5 = O O % 2 0 u p u y y u y p p y u y y y y y y y ",
"y t w w t t t t s s t 5 & . @ % 5 8 8 g g 8 8 k g k s 8 k g 8 a t a g g g g 8 7 * O O * 2 0 p p y y r y q i r y r y y y r r y r ",
"y t d t t t s s a t 8 2 & @ . % 8 8 V k k g a V 8 8 g k 8 g k k 8 s 8 a g V 8 7 % O O = 2 0 y y p i r y y y y y y y y y u u y y "
};
